G04*
G04 #@! TF.GenerationSoftware,Altium Limited,Altium Designer,18.1.4 (159)*
G04*
G04 Layer_Color=16711935*
%FSLAX25Y25*%
%MOIN*%
G70*
G01*
G75*
%ADD48R,0.04061X0.04258*%
%ADD50R,0.08274X0.04337*%
%ADD56R,0.04258X0.04061*%
%ADD57R,0.05400X0.02400*%
%ADD58R,0.04140X0.02565*%
%ADD59R,0.04140X0.02368*%
%ADD61O,0.09455X0.02762*%
%ADD66R,0.06306X0.06306*%
%ADD67C,0.06306*%
%ADD68R,0.12211X0.05124*%
%ADD69C,0.08274*%
%ADD88R,0.02400X0.05400*%
%ADD89R,0.04000X0.04000*%
%ADD90R,0.05400X0.04000*%
%ADD91O,0.09061X0.03156*%
D48*
X108906Y-1279D02*
D03*
X114969D02*
D03*
X196531Y17000D02*
D03*
X190469D02*
D03*
X46189Y5694D02*
D03*
X40126D02*
D03*
X199563Y43100D02*
D03*
X193500D02*
D03*
X50968Y20797D02*
D03*
X57032D02*
D03*
X57032Y33300D02*
D03*
X50968D02*
D03*
X50968Y26899D02*
D03*
X57032D02*
D03*
X41286Y54083D02*
D03*
X35223D02*
D03*
X50731Y69400D02*
D03*
X44668D02*
D03*
X44668Y62500D02*
D03*
X50731D02*
D03*
X67974Y52600D02*
D03*
X61911D02*
D03*
X46500Y45128D02*
D03*
X52563D02*
D03*
X66706Y43615D02*
D03*
X72769D02*
D03*
D50*
X225600Y64290D02*
D03*
Y54290D02*
D03*
Y44290D02*
D03*
Y34290D02*
D03*
Y24290D02*
D03*
D56*
X131100Y81968D02*
D03*
Y88032D02*
D03*
X169373Y1282D02*
D03*
Y7345D02*
D03*
X204400Y29331D02*
D03*
Y23268D02*
D03*
X179600Y42388D02*
D03*
Y36325D02*
D03*
X138300Y81874D02*
D03*
Y87937D02*
D03*
X137884Y58788D02*
D03*
Y64851D02*
D03*
X179706Y22368D02*
D03*
Y28431D02*
D03*
X102931Y4835D02*
D03*
Y-1228D02*
D03*
X58600Y63000D02*
D03*
Y69063D02*
D03*
X78757Y67731D02*
D03*
Y61668D02*
D03*
X99700Y70631D02*
D03*
Y64569D02*
D03*
X91721Y38701D02*
D03*
Y44764D02*
D03*
X85505Y38635D02*
D03*
Y44698D02*
D03*
D57*
X43286Y34380D02*
D03*
Y26899D02*
D03*
X33286Y30639D02*
D03*
Y34380D02*
D03*
Y26899D02*
D03*
X43286Y30639D02*
D03*
D58*
X181200Y157D02*
D03*
Y10787D02*
D03*
X188484Y157D02*
D03*
Y10787D02*
D03*
D59*
X181200Y3700D02*
D03*
Y7243D02*
D03*
X188484Y3700D02*
D03*
Y7243D02*
D03*
D61*
X160131Y36350D02*
D03*
Y31350D02*
D03*
Y26350D02*
D03*
Y21350D02*
D03*
Y16350D02*
D03*
Y11350D02*
D03*
Y6350D02*
D03*
Y1350D02*
D03*
X124304Y36350D02*
D03*
Y31350D02*
D03*
Y26350D02*
D03*
Y21350D02*
D03*
Y16350D02*
D03*
Y11350D02*
D03*
Y6350D02*
D03*
Y1350D02*
D03*
D66*
X122374Y90330D02*
D03*
D67*
X112374D02*
D03*
X92374D02*
D03*
X82374D02*
D03*
X72374D02*
D03*
X62374D02*
D03*
X52374D02*
D03*
X42374D02*
D03*
X32374D02*
D03*
X102374D02*
D03*
X11446Y35561D02*
D03*
Y53277D02*
D03*
X19320Y30639D02*
D03*
Y40482D02*
D03*
Y48356D02*
D03*
Y58198D02*
D03*
D68*
X11446Y20797D02*
D03*
Y68041D02*
D03*
D69*
X228346Y9685D02*
D03*
Y78898D02*
D03*
D88*
X189150Y33900D02*
D03*
X196650D02*
D03*
X192850D02*
D03*
X189150Y23900D02*
D03*
X196650D02*
D03*
D89*
X38700Y71400D02*
D03*
Y63900D02*
D03*
D90*
X30700Y67600D02*
D03*
D91*
X94702Y14893D02*
D03*
Y9893D02*
D03*
Y4893D02*
D03*
Y-107D02*
D03*
X67930Y14893D02*
D03*
Y9893D02*
D03*
Y4893D02*
D03*
Y-107D02*
D03*
M02*
