G04*
G04 #@! TF.GenerationSoftware,Altium Limited,Altium Designer,18.1.4 (159)*
G04*
G04 Layer_Color=255*
%FSLAX25Y25*%
%MOIN*%
G70*
G01*
G75*
%ADD28R,0.02362X0.02362*%
%ADD29R,0.03661X0.03858*%
%ADD30R,0.11811X0.03150*%
%ADD31R,0.07874X0.03937*%
%ADD32R,0.02165X0.03740*%
%ADD33R,0.01968X0.03740*%
%ADD34R,0.03937X0.04724*%
%ADD35R,0.04724X0.03937*%
%ADD36R,0.04724X0.01181*%
%ADD37R,0.03858X0.03661*%
%ADD38R,0.05000X0.02000*%
%ADD39R,0.03740X0.02165*%
%ADD40R,0.03740X0.01968*%
%ADD41R,0.06299X0.04724*%
%ADD42O,0.09055X0.02362*%
%ADD43R,0.06299X0.05512*%
%ADD44R,0.09843X0.05512*%
%ADD45R,0.01181X0.04724*%
%ADD46R,0.03200X0.03600*%
%ADD73R,0.05906X0.05906*%
%ADD74C,0.05906*%
%ADD75R,0.11811X0.04724*%
%ADD76C,0.07874*%
D28*
X30165Y72373D02*
D03*
Y77963D02*
D03*
D29*
X194304Y7151D02*
D03*
X200367D02*
D03*
X177169Y6500D02*
D03*
X183231D02*
D03*
X194069Y19900D02*
D03*
X200132D02*
D03*
X177169Y27200D02*
D03*
X183231D02*
D03*
X177169Y12800D02*
D03*
X183231D02*
D03*
X123031Y44977D02*
D03*
X116969D02*
D03*
X125760Y77700D02*
D03*
X119697D02*
D03*
X41266Y16252D02*
D03*
X47329D02*
D03*
X176669Y42500D02*
D03*
X182731D02*
D03*
D30*
X142650Y86522D02*
D03*
Y66522D02*
D03*
Y56522D02*
D03*
Y76522D02*
D03*
D31*
X225600Y54290D02*
D03*
Y44290D02*
D03*
Y64290D02*
D03*
Y24290D02*
D03*
Y34290D02*
D03*
D32*
X45425Y72700D02*
D03*
X56055D02*
D03*
X45425Y79984D02*
D03*
X56055D02*
D03*
D33*
X48968Y72700D02*
D03*
X52512D02*
D03*
X48968Y79984D02*
D03*
X52512D02*
D03*
D34*
X201200Y79600D02*
D03*
Y64600D02*
D03*
D35*
X187300Y20000D02*
D03*
X172300D02*
D03*
Y34800D02*
D03*
X187300D02*
D03*
D36*
X67789Y42815D02*
D03*
Y44783D02*
D03*
Y46752D02*
D03*
X101253Y50689D02*
D03*
Y54626D02*
D03*
Y48720D02*
D03*
Y46752D02*
D03*
Y44783D02*
D03*
Y52657D02*
D03*
Y58563D02*
D03*
X67789Y52657D02*
D03*
Y58563D02*
D03*
Y60531D02*
D03*
Y62500D02*
D03*
Y54626D02*
D03*
Y56594D02*
D03*
Y64468D02*
D03*
X101253Y60531D02*
D03*
Y64468D02*
D03*
Y62500D02*
D03*
X101253Y42815D02*
D03*
X101253Y56594D02*
D03*
X67789Y50689D02*
D03*
Y48720D02*
D03*
D37*
X56853Y24149D02*
D03*
Y30212D02*
D03*
X31850Y37324D02*
D03*
Y31261D02*
D03*
Y17765D02*
D03*
Y23828D02*
D03*
X63600Y24169D02*
D03*
Y30231D02*
D03*
D38*
X49691Y23399D02*
D03*
Y30899D02*
D03*
X39691Y27199D02*
D03*
Y23399D02*
D03*
Y30899D02*
D03*
D39*
X46000Y8918D02*
D03*
Y-1712D02*
D03*
X53284Y8918D02*
D03*
Y-1712D02*
D03*
D40*
X46000Y5375D02*
D03*
Y1832D02*
D03*
X53284Y5375D02*
D03*
Y1832D02*
D03*
D41*
X-3737Y5937D02*
D03*
X27759D02*
D03*
D42*
X160131Y1300D02*
D03*
Y6300D02*
D03*
Y11300D02*
D03*
Y16300D02*
D03*
Y21300D02*
D03*
Y26300D02*
D03*
Y31300D02*
D03*
Y36300D02*
D03*
X124304Y1300D02*
D03*
Y6300D02*
D03*
Y11300D02*
D03*
Y16300D02*
D03*
Y21300D02*
D03*
Y26300D02*
D03*
Y31300D02*
D03*
Y36300D02*
D03*
D43*
X50868Y54183D02*
D03*
X35907D02*
D03*
X50868Y45128D02*
D03*
X35907D02*
D03*
D44*
X17632Y89430D02*
D03*
X3852D02*
D03*
X17632Y76045D02*
D03*
D45*
X95348Y36909D02*
D03*
Y70374D02*
D03*
X93379Y36909D02*
D03*
X83537Y36909D02*
D03*
X81568D02*
D03*
X79600Y36909D02*
D03*
X75663D02*
D03*
X73694Y36909D02*
D03*
X93379Y70374D02*
D03*
X91411D02*
D03*
X83537Y70374D02*
D03*
X81568D02*
D03*
X89442Y70374D02*
D03*
X87474Y70374D02*
D03*
X85505D02*
D03*
X77631Y70374D02*
D03*
X79600D02*
D03*
X75663D02*
D03*
X85505Y36909D02*
D03*
X77631Y36909D02*
D03*
X73694Y70374D02*
D03*
X91411Y36909D02*
D03*
X87474Y36909D02*
D03*
X89442Y36909D02*
D03*
D46*
X103589Y6530D02*
D03*
Y12630D02*
D03*
X80889Y12636D02*
D03*
Y6536D02*
D03*
X88586Y12636D02*
D03*
Y6536D02*
D03*
X95989Y12630D02*
D03*
Y6530D02*
D03*
D73*
X122374Y90330D02*
D03*
D74*
X112374D02*
D03*
X92374D02*
D03*
X82374D02*
D03*
X72374D02*
D03*
X62374D02*
D03*
X52374D02*
D03*
X42374D02*
D03*
X32374D02*
D03*
X102374D02*
D03*
X11446Y35561D02*
D03*
Y53277D02*
D03*
X19320Y30639D02*
D03*
Y40482D02*
D03*
Y48356D02*
D03*
Y58198D02*
D03*
D75*
X11446Y20797D02*
D03*
Y68041D02*
D03*
D76*
X228346Y9685D02*
D03*
Y78898D02*
D03*
M02*
