G04*
G04 #@! TF.GenerationSoftware,Altium Limited,Altium Designer,18.1.4 (159)*
G04*
G04 Layer_Color=32896*
%FSLAX25Y25*%
%MOIN*%
G70*
G01*
G75*
%ADD11C,0.00787*%
%ADD12C,0.02362*%
%ADD13C,0.01181*%
%ADD17C,0.00600*%
%ADD18C,0.00800*%
%ADD21C,0.01000*%
%ADD22C,0.01968*%
%ADD92C,0.01575*%
%ADD93C,0.01200*%
D11*
X134210Y89468D02*
G03*
X132635Y91043I-1575J-0D01*
G01*
X129565Y91043D02*
G03*
X127990Y89468I0J-1575D01*
G01*
X127990Y80532D02*
G03*
X129565Y78957I1575J0D01*
G01*
X132635D02*
G03*
X134210Y80532I0J1575D01*
G01*
X116406Y-4389D02*
G03*
X117981Y-2814I-0J1575D01*
G01*
X117981Y257D02*
G03*
X116406Y1832I-1575J0D01*
G01*
X107469Y1832D02*
G03*
X105895Y257I0J-1575D01*
G01*
Y-2814D02*
G03*
X107469Y-4389I1575J0D01*
G01*
X172484Y8782D02*
G03*
X170909Y10357I-1575J-0D01*
G01*
X167838Y10357D02*
G03*
X166263Y8782I0J-1575D01*
G01*
X166263Y-155D02*
G03*
X167838Y-1729I1575J0D01*
G01*
X170909D02*
G03*
X172484Y-155I0J1575D01*
G01*
X176490Y34888D02*
G03*
X178065Y33313I1575J0D01*
G01*
X181135Y33313D02*
G03*
X182710Y34888I0J1575D01*
G01*
X182710Y43825D02*
G03*
X181135Y45400I-1575J-0D01*
G01*
X178065D02*
G03*
X176490Y43825I0J-1575D01*
G01*
X141410Y89374D02*
G03*
X139835Y90949I-1575J-0D01*
G01*
X136765Y90949D02*
G03*
X135190Y89374I0J-1575D01*
G01*
X135190Y80437D02*
G03*
X136765Y78863I1575J0D01*
G01*
X139835D02*
G03*
X141410Y80437I0J1575D01*
G01*
X140994Y66288D02*
G03*
X139419Y67863I-1575J-0D01*
G01*
X136348Y67863D02*
G03*
X134773Y66288I0J-1575D01*
G01*
X134773Y57351D02*
G03*
X136348Y55776I1575J0D01*
G01*
X139419D02*
G03*
X140994Y57351I0J1575D01*
G01*
X182816Y29869D02*
G03*
X181241Y31443I-1575J-0D01*
G01*
X178170Y31443D02*
G03*
X176595Y29869I0J-1575D01*
G01*
X176595Y20932D02*
G03*
X178170Y19357I1575J0D01*
G01*
X181241D02*
G03*
X182816Y20932I0J1575D01*
G01*
X190488Y41565D02*
G03*
X192063Y39990I1575J0D01*
G01*
Y46210D02*
G03*
X190488Y44635I0J-1575D01*
G01*
X202575Y44635D02*
G03*
X201000Y46210I-1575J0D01*
G01*
X201000Y39990D02*
G03*
X202575Y41565I-0J1575D01*
G01*
X104467Y-4240D02*
G03*
X106042Y-2665I0J1575D01*
G01*
X99821D02*
G03*
X101396Y-4240I1575J0D01*
G01*
X101396Y7847D02*
G03*
X99821Y6272I0J-1575D01*
G01*
X106042Y6272D02*
G03*
X104467Y7847I-1575J-0D01*
G01*
X33786Y57193D02*
G03*
X32211Y55619I0J-1575D01*
G01*
X32211Y52548D02*
G03*
X33786Y50973I1575J0D01*
G01*
X42723Y50973D02*
G03*
X44297Y52548I-0J1575D01*
G01*
Y55619D02*
G03*
X42723Y57193I-1575J0D01*
G01*
X60474Y55710D02*
G03*
X58899Y54135I0J-1575D01*
G01*
X58899Y51065D02*
G03*
X60474Y49490I1575J0D01*
G01*
X69411Y49490D02*
G03*
X70986Y51065I-0J1575D01*
G01*
Y54135D02*
G03*
X69411Y55710I-1575J0D01*
G01*
X54000Y42018D02*
G03*
X55575Y43593I-0J1575D01*
G01*
X55575Y46663D02*
G03*
X54000Y48238I-1575J0D01*
G01*
X45063Y48238D02*
G03*
X43488Y46663I0J-1575D01*
G01*
Y43593D02*
G03*
X45063Y42018I1575J0D01*
G01*
X75647Y60232D02*
G03*
X77222Y58657I1575J0D01*
G01*
X80292Y58657D02*
G03*
X81867Y60232I0J1575D01*
G01*
X81867Y69169D02*
G03*
X80292Y70743I-1575J-0D01*
G01*
X77222D02*
G03*
X75647Y69169I0J-1575D01*
G01*
X96590Y63131D02*
G03*
X98165Y61557I1575J0D01*
G01*
X101235Y61557D02*
G03*
X102810Y63131I0J1575D01*
G01*
X102810Y72069D02*
G03*
X101235Y73643I-1575J-0D01*
G01*
X98165D02*
G03*
X96590Y72069I0J-1575D01*
G01*
X94831Y46201D02*
G03*
X93256Y47776I-1575J-0D01*
G01*
X90185Y47776D02*
G03*
X88611Y46201I0J-1575D01*
G01*
X88611Y37264D02*
G03*
X90185Y35689I1575J0D01*
G01*
X93256D02*
G03*
X94831Y37264I0J1575D01*
G01*
X74206Y40505D02*
G03*
X75781Y42079I-0J1575D01*
G01*
X75781Y45150D02*
G03*
X74206Y46725I-1575J0D01*
G01*
X65269Y46725D02*
G03*
X63694Y45150I0J-1575D01*
G01*
Y42079D02*
G03*
X65269Y40505I1575J0D01*
G01*
X88616Y46135D02*
G03*
X87041Y47710I-1575J-0D01*
G01*
X83970Y47710D02*
G03*
X82395Y46135I0J-1575D01*
G01*
X82395Y37198D02*
G03*
X83970Y35624I1575J0D01*
G01*
X87041D02*
G03*
X88616Y37198I0J1575D01*
G01*
X134210Y80532D02*
Y83425D01*
X129565Y91043D02*
X132635D01*
X129565Y78957D02*
X132635D01*
X134210Y86575D02*
Y89468D01*
X127990Y86575D02*
Y89468D01*
X127990Y80532D02*
Y83425D01*
X107469Y-4389D02*
X110363D01*
X117981Y-2814D02*
Y257D01*
X105895Y-2814D02*
Y257D01*
X113513Y-4389D02*
X116406D01*
X113513Y1832D02*
X116406D01*
X107469Y1832D02*
X110363D01*
X172484Y-155D02*
Y2739D01*
X167838Y10357D02*
X170909D01*
X167838Y-1729D02*
X170909D01*
X172484Y5889D02*
Y8782D01*
X166263Y5889D02*
Y8782D01*
X166263Y-155D02*
Y2739D01*
X195075Y20110D02*
X199543D01*
X187457Y13890D02*
Y20110D01*
X199543Y13890D02*
Y20110D01*
X187457D02*
X191925D01*
X195075Y13890D02*
X199543D01*
X187457D02*
X191925D01*
X201290Y27875D02*
Y32343D01*
Y20257D02*
X207510D01*
X201290Y32343D02*
X207510D01*
X201290Y20257D02*
Y24725D01*
X207510Y27875D02*
Y32343D01*
Y20257D02*
Y24725D01*
X176490Y40931D02*
Y43825D01*
X178065Y33313D02*
X181135D01*
X178065Y45400D02*
X181135D01*
X176490Y34888D02*
Y37782D01*
X182710Y34888D02*
Y37782D01*
X182710Y40931D02*
Y43825D01*
X141410Y80437D02*
Y83331D01*
X136765Y90949D02*
X139835D01*
X136765Y78863D02*
X139835D01*
X141410Y86481D02*
Y89374D01*
X135190Y86481D02*
Y89374D01*
X135190Y80437D02*
Y83331D01*
X140994Y57351D02*
Y60245D01*
X136348Y67863D02*
X139419D01*
X136348Y55776D02*
X139419D01*
X140994Y63394D02*
Y66288D01*
X134773Y63394D02*
Y66288D01*
X134773Y57351D02*
Y60245D01*
X182816Y20932D02*
Y23825D01*
X178170Y31443D02*
X181241D01*
X178170Y19357D02*
X181241D01*
X182816Y26975D02*
Y29869D01*
X176595Y26975D02*
Y29869D01*
X176595Y20932D02*
Y23825D01*
X44732Y8805D02*
X49200D01*
X37114Y2584D02*
Y8805D01*
X49200Y2584D02*
Y8805D01*
X37114D02*
X41582D01*
X44732Y2584D02*
X49200D01*
X37114D02*
X41582D01*
X192063Y46210D02*
X194957D01*
X198106Y46210D02*
X201000D01*
X198106Y39990D02*
X201000D01*
X190488Y41565D02*
Y44635D01*
X202575Y41565D02*
Y44635D01*
X192063Y39990D02*
X194957D01*
X47957Y17687D02*
X52425D01*
X60043D02*
Y23907D01*
X47957Y17687D02*
Y23907D01*
X55575Y17687D02*
X60043D01*
X47957Y23907D02*
X52425D01*
X55575D02*
X60043D01*
X55575Y36410D02*
X60043D01*
X47957Y30190D02*
Y36410D01*
X60043Y30190D02*
Y36410D01*
X47957D02*
X52425D01*
X55575Y30190D02*
X60043D01*
X47957D02*
X52425D01*
X47957Y23789D02*
X52425D01*
X60043D02*
Y30009D01*
X47957Y23789D02*
Y30009D01*
X55575Y23789D02*
X60043D01*
X47957Y30009D02*
X52425D01*
X55575D02*
X60043D01*
X99821Y-2665D02*
Y229D01*
X99821Y3378D02*
Y6272D01*
X106042Y3378D02*
Y6272D01*
X101396Y-4240D02*
X104467D01*
X101396Y7847D02*
X104467D01*
X106042Y-2665D02*
Y229D01*
X39829Y57193D02*
X42723D01*
X32211Y52548D02*
Y55619D01*
X44297Y52548D02*
Y55619D01*
X33786Y57193D02*
X36679D01*
X33786Y50973D02*
X36679D01*
X39829Y50973D02*
X42723D01*
X49275Y72510D02*
X53743D01*
X41657D02*
X46125D01*
X49275Y66290D02*
X53743D01*
X41657D02*
Y72510D01*
X53743Y66290D02*
Y72510D01*
X41657Y66290D02*
X46125D01*
X61710Y59988D02*
Y64457D01*
Y67606D02*
Y72075D01*
X55490Y59988D02*
Y64457D01*
Y72075D02*
X61710D01*
X55490Y59988D02*
X61710D01*
X55490Y67606D02*
Y72075D01*
X41657Y59390D02*
X46125D01*
X49275D02*
X53743D01*
X41657Y65610D02*
X46125D01*
X53743Y59390D02*
Y65610D01*
X41657Y59390D02*
Y65610D01*
X49275D02*
X53743D01*
X66517Y55710D02*
X69411D01*
X58899Y51065D02*
Y54135D01*
X70986Y51065D02*
Y54135D01*
X60474Y55710D02*
X63368D01*
X60474Y49490D02*
X63368D01*
X66517Y49490D02*
X69411D01*
X45063Y42018D02*
X47957D01*
X55575Y43593D02*
Y46663D01*
X43488Y43593D02*
Y46663D01*
X51106Y42018D02*
X54000D01*
X51106Y48238D02*
X54000D01*
X45063Y48238D02*
X47957D01*
X75647Y66275D02*
Y69169D01*
X77222Y58657D02*
X80292D01*
X77222Y70743D02*
X80292D01*
X75647Y60232D02*
Y63125D01*
X81867Y60232D02*
Y63125D01*
X81867Y66275D02*
Y69169D01*
X96590Y69175D02*
Y72069D01*
X98165Y61557D02*
X101235D01*
X98165Y73643D02*
X101235D01*
X96590Y63131D02*
Y66025D01*
X102810Y63131D02*
Y66025D01*
X102810Y69175D02*
Y72069D01*
X94831Y37264D02*
Y40157D01*
X90185Y47776D02*
X93256D01*
X90185Y35689D02*
X93256D01*
X94831Y43307D02*
Y46201D01*
X88611Y43307D02*
Y46201D01*
X88611Y37264D02*
Y40157D01*
X65269Y40505D02*
X68163D01*
X75781Y42079D02*
Y45150D01*
X63694Y42079D02*
Y45150D01*
X71312Y40505D02*
X74206D01*
X71312Y46725D02*
X74206D01*
X65269Y46725D02*
X68163D01*
X88616Y37198D02*
Y40092D01*
X83970Y47710D02*
X87041D01*
X83970Y35624D02*
X87041D01*
X88616Y43242D02*
Y46135D01*
X82395Y43242D02*
Y46135D01*
X82395Y37198D02*
Y40092D01*
D12*
X135524Y2708D02*
G03*
X135524Y2708I-1181J0D01*
G01*
D13*
X96670Y18407D02*
G03*
X96670Y18407I-591J0D01*
G01*
X122729Y-2016D02*
G03*
X122729Y-2016I-591J0D01*
G01*
D17*
X235836Y4133D02*
X235836Y84447D01*
X271269Y4133D02*
Y84447D01*
X235836D02*
X271269D01*
X235836Y4133D02*
X271269D01*
X221663Y84447D02*
X235836D01*
X221663Y4133D02*
X235836D01*
X221663Y79290D02*
Y84447D01*
Y4133D02*
Y8690D01*
X67478Y84500D02*
Y93900D01*
X102355Y86245D02*
X104900Y83700D01*
X102355Y86245D02*
X103930Y82731D01*
X100416Y84306D02*
X103930Y82731D01*
X100416Y84306D02*
X102961Y81761D01*
X101143Y82125D02*
X98962Y79943D01*
X95423Y78586D02*
Y79071D01*
X95665Y79555D01*
X96150Y80040D01*
X96635Y80282D01*
X97119D01*
X97362Y80040D01*
X97483Y79676D01*
X97483Y79434D01*
X97362Y79071D01*
X96877Y78101D01*
X96756Y77737D01*
Y77495D01*
X96877Y77131D01*
X97241Y76768D01*
X97725D01*
X98210Y77010D01*
X98695Y77495D01*
X98937Y77980D01*
Y78465D01*
X94490Y78380D02*
X96429Y75229D01*
X93278Y77168D02*
X96429Y75229D01*
X93278Y77168D02*
X95217Y74017D01*
X92066Y75956D02*
X95217Y74017D01*
X91557Y75447D02*
X94102Y72902D01*
X91557Y75447D02*
X90708Y74598D01*
X90466Y74114D01*
X90466Y73629D01*
X90587Y73265D01*
X90830Y72781D01*
X91435Y72175D01*
X91920Y71932D01*
X92284Y71811D01*
X92769Y71811D01*
X93253Y72053D01*
X94102Y72902D01*
X122855Y85845D02*
X125400Y83300D01*
X122855Y85845D02*
X124431Y82331D01*
X120916Y83906D02*
X124431Y82331D01*
X120916Y83906D02*
X123461Y81361D01*
X121643Y81725D02*
X119462Y79543D01*
X117256Y80246D02*
X119801Y77701D01*
X117256Y80246D02*
X116165Y79155D01*
X115923Y78671D01*
X115923Y78428D01*
X116044Y78065D01*
X116286Y77822D01*
X116650Y77701D01*
X116892D01*
X117377Y77943D01*
X118468Y79034D02*
X117377Y77943D01*
X117135Y77459D01*
Y77216D01*
X117256Y76853D01*
X117620Y76489D01*
X117983Y76368D01*
X118225D01*
X118710Y76610D01*
X119801Y77701D01*
X114262Y77253D02*
X114626Y77374D01*
X115111D01*
X115474Y77253D01*
X115959Y77010D01*
X116565Y76404D01*
X116807Y75919D01*
X116929Y75556D01*
Y75071D01*
X116807Y74708D01*
X116323Y74223D01*
X115959Y74102D01*
X115474D01*
X115111Y74223D01*
X114626Y74465D01*
X114020Y75071D01*
X113778Y75556D01*
X113656Y75919D01*
Y76404D01*
X113778Y76768D01*
X114262Y77253D01*
X111730Y74720D02*
X112093Y74841D01*
X112578D01*
X112941Y74720D01*
X113426Y74477D01*
X114032Y73871D01*
X114275Y73387D01*
X114396Y73023D01*
Y72538D01*
X114275Y72175D01*
X113790Y71690D01*
X113426Y71569D01*
X112941D01*
X112578Y71690D01*
X112093Y71932D01*
X111487Y72538D01*
X111245Y73023D01*
X111124Y73387D01*
Y73871D01*
X111245Y74235D01*
X111730Y74720D01*
X109075Y72066D02*
X111620Y69520D01*
X109924Y72914D02*
X108227Y71217D01*
X107197Y70187D02*
X107682Y70429D01*
X108288Y70308D01*
X109015Y69823D01*
X109378Y69460D01*
X109863Y68733D01*
X109984Y68127D01*
X109742Y67642D01*
X109500Y67400D01*
X109015Y67157D01*
X108409Y67278D01*
X107682Y67763D01*
X107318Y68127D01*
X106833Y68854D01*
X106712Y69460D01*
X106955Y69945D01*
X107197Y70187D01*
X70843Y83621D02*
X70722Y83985D01*
Y84469D01*
X70843Y84833D01*
X71328Y85318D01*
X71691Y85439D01*
X72176D01*
X72540Y85318D01*
X73024Y85075D01*
X73630Y84469D01*
X73873Y83985D01*
X73994Y83621D01*
Y83136D01*
X73873Y82773D01*
X73388Y82288D01*
X73024Y82167D01*
X72540D01*
X72176Y82288D01*
X71813Y82652D01*
X72418Y83258D02*
X71813Y82652D01*
X69655Y83645D02*
X72200Y81100D01*
X69655Y83645D02*
X70504Y79404D01*
X67959Y81949D02*
X70504Y79404D01*
X67256Y81246D02*
X69801Y78701D01*
X67256Y81246D02*
X66407Y80397D01*
X66165Y79913D01*
X66165Y79428D01*
X66286Y79064D01*
X66529Y78580D01*
X67135Y77974D01*
X67619Y77731D01*
X67983Y77610D01*
X68468Y77610D01*
X68952Y77852D01*
X69801Y78701D01*
X82655Y86245D02*
X85200Y83700D01*
X82655Y86245D02*
X84231Y82731D01*
X80716Y84306D02*
X84231Y82731D01*
X80716Y84306D02*
X83261Y81761D01*
X81443Y82125D02*
X79262Y79943D01*
X77056Y80646D02*
X79601Y78101D01*
X77056Y80646D02*
X77904Y76404D01*
X75359Y78949D02*
X77904Y76404D01*
X74656Y78246D02*
X77201Y75701D01*
X74656Y78246D02*
X73566Y77156D01*
X73323Y76671D01*
X73323Y76429D01*
X73444Y76065D01*
X73687Y75823D01*
X74050Y75701D01*
X74293D01*
X74778Y75944D01*
X75868Y77034D01*
X75020Y76186D02*
X75505Y74005D01*
X71057Y73920D02*
Y74405D01*
X71299Y74889D01*
X71784Y75374D01*
X72269Y75617D01*
X72754Y75617D01*
X72996Y75374D01*
X73117Y75011D01*
X73117Y74768D01*
X72996Y74405D01*
X72511Y73435D01*
X72390Y73071D01*
X72390Y72829D01*
X72511Y72465D01*
X72875Y72102D01*
X73360D01*
X73844Y72344D01*
X74329Y72829D01*
X74571Y73314D01*
X74571Y73799D01*
X69275Y72865D02*
X71820Y70320D01*
X70124Y73714D02*
X68427Y72017D01*
X92855Y86145D02*
X95400Y83600D01*
X92855Y86145D02*
X94431Y82630D01*
X90916Y84206D02*
X94431Y82630D01*
X90916Y84206D02*
X93461Y81661D01*
X91643Y82025D02*
X89462Y79843D01*
X85923Y78486D02*
Y78970D01*
X86165Y79455D01*
X86650Y79940D01*
X87135Y80182D01*
X87620D01*
X87862Y79940D01*
X87983Y79576D01*
X87983Y79334D01*
X87862Y78970D01*
X87377Y78001D01*
X87256Y77637D01*
Y77395D01*
X87377Y77031D01*
X87741Y76668D01*
X88225D01*
X88710Y76910D01*
X89195Y77395D01*
X89437Y77880D01*
Y78364D01*
X84990Y78280D02*
X86929Y75129D01*
X83778Y77068D02*
X86929Y75129D01*
X83778Y77068D02*
X85717Y73917D01*
X82566Y75856D02*
X85717Y73917D01*
X80845Y72923D02*
X80724Y73286D01*
Y73771D01*
X80845Y74135D01*
X81330Y74620D01*
X81693Y74741D01*
X82178D01*
X82542Y74620D01*
X83026Y74377D01*
X83632Y73771D01*
X83875Y73286D01*
X83996Y72923D01*
Y72438D01*
X83875Y72075D01*
X83390Y71590D01*
X83026Y71469D01*
X82542D01*
X82178Y71590D01*
X112655Y85945D02*
X114231Y82430D01*
X110716Y84006D02*
X114231Y82430D01*
X110389Y83679D02*
X112934Y81134D01*
X110389Y83679D02*
X109540Y82830D01*
X109298Y82346D01*
X109298Y81861D01*
X109419Y81497D01*
X109661Y81012D01*
X110267Y80406D01*
X110752Y80164D01*
X111116Y80043D01*
X111601Y80043D01*
X112085Y80285D01*
X112934Y81134D01*
X108122Y81412D02*
X110667Y78867D01*
X108122Y81412D02*
X107274Y80564D01*
X107032Y80079D01*
X107032Y79595D01*
X107153Y79231D01*
X107395Y78746D01*
X108001Y78140D01*
X108486Y77898D01*
X108850Y77777D01*
X109334Y77777D01*
X109819Y78019D01*
X110667Y78867D01*
X32455Y85845D02*
X35000Y83300D01*
X32455Y85845D02*
X30880Y84269D01*
X33667Y84633D02*
X32697Y83664D01*
X31195Y79495D02*
X29619Y83009D01*
X33134Y81434D01*
X31922Y81918D02*
X30710Y80707D01*
X28056Y81446D02*
X30601Y78901D01*
X27522Y80913D02*
X30068Y78368D01*
X28613Y76913D01*
X43388Y84712D02*
X42297Y83621D01*
X41813Y83379D01*
X41570D01*
X41207Y83500D01*
X40843Y83864D01*
X40722Y84227D01*
X40722Y84469D01*
X40964Y84954D01*
X42055Y86045D01*
X44600Y83500D01*
X40395Y79295D02*
X38819Y82809D01*
X42334Y81234D01*
X41122Y81718D02*
X39910Y80507D01*
X35923Y79186D02*
Y79670D01*
X36165Y80155D01*
X36650Y80640D01*
X37135Y80882D01*
X37619Y80882D01*
X37862Y80640D01*
X37983Y80276D01*
X37983Y80034D01*
X37862Y79670D01*
X37377Y78701D01*
X37256Y78337D01*
X37256Y78095D01*
X37377Y77731D01*
X37740Y77368D01*
X38225D01*
X38710Y77610D01*
X39195Y78095D01*
X39437Y78580D01*
X39437Y79064D01*
X33656Y76919D02*
Y77404D01*
X33899Y77889D01*
X34383Y78374D01*
X34868Y78616D01*
X35353Y78616D01*
X35595Y78374D01*
X35717Y78010D01*
Y77768D01*
X35595Y77404D01*
X35111Y76434D01*
X34989Y76071D01*
X34989Y75828D01*
X35111Y75465D01*
X35474Y75101D01*
X35959D01*
X36444Y75344D01*
X36928Y75828D01*
X37171Y76313D01*
X37171Y76798D01*
X52055Y86086D02*
X54600Y83541D01*
X52055Y86086D02*
X50964Y84995D01*
X50722Y84510D01*
X50722Y84268D01*
X50843Y83904D01*
X51085Y83662D01*
X51449Y83541D01*
X51691D01*
X52176Y83783D01*
X53267Y84874D02*
X52176Y83783D01*
X51934Y83299D01*
Y83056D01*
X52055Y82693D01*
X52419Y82329D01*
X52782Y82208D01*
X53025D01*
X53509Y82450D01*
X54600Y83541D01*
X49789Y83820D02*
X51607Y82002D01*
X51849Y81517D01*
Y81032D01*
X51607Y80547D01*
X51364Y80305D01*
X50879Y80063D01*
X50395D01*
X49910Y80305D01*
X48092Y82123D01*
X46056Y79360D02*
Y79845D01*
X46298Y80329D01*
X46783Y80814D01*
X47268Y81056D01*
X47753Y81056D01*
X47995Y80814D01*
X48116Y80450D01*
Y80208D01*
X47995Y79845D01*
X47510Y78875D01*
X47389Y78512D01*
X47389Y78269D01*
X47510Y77905D01*
X47874Y77542D01*
X48359D01*
X48843Y77784D01*
X49328Y78269D01*
X49571Y78754D01*
X49571Y79239D01*
X45123Y79154D02*
X45365Y76972D01*
X46698Y75639D01*
X43184Y77215D02*
X45365Y76972D01*
X61522Y84485D02*
Y84970D01*
X61764Y85454D01*
X62249Y85939D01*
X62734Y86181D01*
X63218Y86181D01*
X63461Y85939D01*
X63582Y85575D01*
X63582Y85333D01*
X63461Y84970D01*
X62976Y84000D01*
X62855Y83636D01*
X62855Y83394D01*
X62976Y83030D01*
X63340Y82667D01*
X63824D01*
X64309Y82909D01*
X64794Y83394D01*
X65036Y83879D01*
X65036Y84364D01*
X59740Y83430D02*
X62285Y80885D01*
X60589Y84279D02*
X58892Y82582D01*
X59195Y77795D02*
X57619Y81309D01*
X61134Y79734D01*
X59922Y80219D02*
X58710Y79007D01*
X56056Y79746D02*
X58601Y77201D01*
X56056Y79746D02*
X54965Y78655D01*
X54723Y78171D01*
X54723Y77928D01*
X54844Y77565D01*
X55086Y77322D01*
X55450Y77201D01*
X55692D01*
X56177Y77443D01*
X57268Y78534D01*
X56420Y77686D02*
X56904Y75504D01*
X52941Y76631D02*
X55487Y74086D01*
X53790Y77480D02*
X52093Y75783D01*
X131929Y76942D02*
X132100Y77285D01*
X132443Y77628D01*
X132786Y77799D01*
X133472D01*
X133814Y77628D01*
X134157Y77285D01*
X134329Y76942D01*
X134500Y76428D01*
Y75571D01*
X134329Y75057D01*
X134157Y74714D01*
X133814Y74371D01*
X133472Y74200D01*
X132786D01*
X132443Y74371D01*
X132100Y74714D01*
X131929Y75057D01*
X128861Y77799D02*
X130575D01*
X130746Y76257D01*
X130575Y76428D01*
X130061Y76600D01*
X129547D01*
X129033Y76428D01*
X128690Y76085D01*
X128518Y75571D01*
Y75228D01*
X128690Y74714D01*
X129033Y74371D01*
X129547Y74200D01*
X130061D01*
X130575Y74371D01*
X130746Y74543D01*
X130918Y74886D01*
X25949Y66019D02*
X26292Y65847D01*
X26634Y65504D01*
X26806Y65162D01*
X26977Y64647D01*
Y63790D01*
X26806Y63276D01*
X26634Y62933D01*
X26292Y62591D01*
X25949Y62419D01*
X25263D01*
X24920Y62591D01*
X24578Y62933D01*
X24406Y63276D01*
X24235Y63790D01*
Y64647D01*
X24406Y65162D01*
X24578Y65504D01*
X24920Y65847D01*
X25263Y66019D01*
X25949D01*
X25435Y63105D02*
X24406Y62076D01*
X23395Y65333D02*
X23052Y65504D01*
X22538Y66019D01*
Y62419D01*
X40951Y21427D02*
Y18856D01*
X40780Y18341D01*
X40437Y17999D01*
X39923Y17827D01*
X39580D01*
X39066Y17999D01*
X38723Y18341D01*
X38551Y18856D01*
Y21427D01*
X37386Y20570D02*
Y20741D01*
X37215Y21084D01*
X37043Y21255D01*
X36700Y21427D01*
X36015D01*
X35672Y21255D01*
X35501Y21084D01*
X35329Y20741D01*
Y20398D01*
X35501Y20055D01*
X35844Y19541D01*
X37557Y17827D01*
X35158D01*
X205799Y13300D02*
X202200D01*
X205799D02*
Y14842D01*
X205628Y15357D01*
X205456Y15528D01*
X205114Y15699D01*
X204771D01*
X204428Y15528D01*
X204257Y15357D01*
X204085Y14842D01*
Y13300D01*
Y14500D02*
X202200Y15699D01*
X205799Y18904D02*
X202200Y17191D01*
X205799Y16505D02*
Y18904D01*
X186000Y18099D02*
Y14500D01*
Y18099D02*
X184458D01*
X183943Y17928D01*
X183772Y17756D01*
X183600Y17414D01*
Y17071D01*
X183772Y16728D01*
X183943Y16557D01*
X184458Y16385D01*
X186000D01*
X184800D02*
X183600Y14500D01*
X180738Y17585D02*
X180910Y17928D01*
X181424Y18099D01*
X181767D01*
X182281Y17928D01*
X182624Y17414D01*
X182795Y16557D01*
Y15700D01*
X182624Y15014D01*
X182281Y14671D01*
X181767Y14500D01*
X181595D01*
X181081Y14671D01*
X180738Y15014D01*
X180567Y15528D01*
Y15700D01*
X180738Y16214D01*
X181081Y16557D01*
X181595Y16728D01*
X181767D01*
X182281Y16557D01*
X182624Y16214D01*
X182795Y15700D01*
X176601Y2082D02*
X176944Y1910D01*
X177287Y1568D01*
X177458Y1225D01*
Y539D01*
X177287Y196D01*
X176944Y-146D01*
X176601Y-318D01*
X176087Y-489D01*
X175230D01*
X174716Y-318D01*
X174373Y-146D01*
X174030Y196D01*
X173859Y539D01*
Y1225D01*
X174030Y1568D01*
X174373Y1910D01*
X174716Y2082D01*
X176773Y3093D02*
X176944Y3436D01*
X177458Y3950D01*
X173859D01*
X177458Y6075D02*
Y7960D01*
X176087Y6932D01*
Y7446D01*
X175916Y7789D01*
X175744Y7960D01*
X175230Y8132D01*
X174888D01*
X174373Y7960D01*
X174030Y7618D01*
X173859Y7103D01*
Y6589D01*
X174030Y6075D01*
X174202Y5904D01*
X174545Y5732D01*
X114029Y5942D02*
X114200Y6285D01*
X114543Y6628D01*
X114886Y6799D01*
X115572D01*
X115914Y6628D01*
X116257Y6285D01*
X116429Y5942D01*
X116600Y5428D01*
Y4571D01*
X116429Y4057D01*
X116257Y3714D01*
X115914Y3371D01*
X115572Y3200D01*
X114886D01*
X114543Y3371D01*
X114200Y3714D01*
X114029Y4057D01*
X113018Y6114D02*
X112675Y6285D01*
X112161Y6799D01*
Y3200D01*
X110207Y5942D02*
Y6114D01*
X110036Y6456D01*
X109864Y6628D01*
X109521Y6799D01*
X108836D01*
X108493Y6628D01*
X108322Y6456D01*
X108150Y6114D01*
Y5771D01*
X108322Y5428D01*
X108665Y4914D01*
X110379Y3200D01*
X107979D01*
X131630Y60762D02*
X131972Y60591D01*
X132315Y60248D01*
X132486Y59905D01*
Y59219D01*
X132315Y58877D01*
X131972Y58534D01*
X131630Y58363D01*
X131115Y58191D01*
X130258D01*
X129744Y58363D01*
X129401Y58534D01*
X129059Y58877D01*
X128887Y59219D01*
Y59905D01*
X129059Y60248D01*
X129401Y60591D01*
X129744Y60762D01*
X131972Y63830D02*
X132315Y63658D01*
X132486Y63144D01*
Y62802D01*
X132315Y62287D01*
X131801Y61945D01*
X130944Y61773D01*
X130087D01*
X129401Y61945D01*
X129059Y62287D01*
X128887Y62802D01*
Y62973D01*
X129059Y63487D01*
X129401Y63830D01*
X129916Y64001D01*
X130087D01*
X130601Y63830D01*
X130944Y63487D01*
X131115Y62973D01*
Y62802D01*
X130944Y62287D01*
X130601Y61945D01*
X130087Y61773D01*
X139029Y77045D02*
X139200Y77388D01*
X139543Y77731D01*
X139886Y77902D01*
X140572D01*
X140914Y77731D01*
X141257Y77388D01*
X141429Y77045D01*
X141600Y76531D01*
Y75674D01*
X141429Y75160D01*
X141257Y74817D01*
X140914Y74474D01*
X140572Y74303D01*
X139886D01*
X139543Y74474D01*
X139200Y74817D01*
X139029Y75160D01*
X136304Y77902D02*
X138018Y75503D01*
X135447D01*
X136304Y77902D02*
Y74303D01*
X174542Y39407D02*
X174885Y39235D01*
X175228Y38892D01*
X175399Y38550D01*
Y37864D01*
X175228Y37521D01*
X174885Y37179D01*
X174542Y37007D01*
X174028Y36836D01*
X173171D01*
X172657Y37007D01*
X172314Y37179D01*
X171971Y37521D01*
X171800Y37864D01*
Y38550D01*
X171971Y38892D01*
X172314Y39235D01*
X172657Y39407D01*
X175399Y42817D02*
X171800Y41104D01*
X175399Y40418D02*
Y42817D01*
X205700Y37799D02*
Y35228D01*
X205529Y34714D01*
X205186Y34371D01*
X204672Y34200D01*
X204329D01*
X203815Y34371D01*
X203472Y34714D01*
X203300Y35228D01*
Y37799D01*
X201964D02*
X200078D01*
X201107Y36428D01*
X200592D01*
X200250Y36257D01*
X200078Y36085D01*
X199907Y35571D01*
Y35228D01*
X200078Y34714D01*
X200421Y34371D01*
X200935Y34200D01*
X201449D01*
X201964Y34371D01*
X202135Y34543D01*
X202306Y34886D01*
X143150Y45050D02*
Y42479D01*
X142979Y41965D01*
X142636Y41622D01*
X142122Y41451D01*
X141779D01*
X141265Y41622D01*
X140922Y41965D01*
X140751Y42479D01*
Y45050D01*
X137700Y44536D02*
X137871Y44879D01*
X138385Y45050D01*
X138728D01*
X139242Y44879D01*
X139585Y44364D01*
X139756Y43507D01*
Y42650D01*
X139585Y41965D01*
X139242Y41622D01*
X138728Y41451D01*
X138557D01*
X138042Y41622D01*
X137700Y41965D01*
X137528Y42479D01*
Y42650D01*
X137700Y43165D01*
X138042Y43507D01*
X138557Y43679D01*
X138728D01*
X139242Y43507D01*
X139585Y43165D01*
X139756Y42650D01*
X195504Y2105D02*
X191905D01*
X195504D02*
Y3647D01*
X195333Y4161D01*
X195162Y4333D01*
X194819Y4504D01*
X194476D01*
X194133Y4333D01*
X193962Y4161D01*
X193790Y3647D01*
Y2105D01*
Y3304D02*
X191905Y4504D01*
X193619Y5310D02*
Y6852D01*
X193790Y7366D01*
X193962Y7538D01*
X194305Y7709D01*
X194819D01*
X195162Y7538D01*
X195333Y7366D01*
X195504Y6852D01*
Y5310D01*
X191905D01*
X194819Y8515D02*
X194990Y8857D01*
X195504Y9372D01*
X191905D01*
X84500Y22999D02*
Y20428D01*
X84329Y19914D01*
X83986Y19571D01*
X83472Y19400D01*
X83129D01*
X82615Y19571D01*
X82272Y19914D01*
X82100Y20428D01*
Y22999D01*
X80250D02*
X80764Y22828D01*
X80935Y22485D01*
Y22142D01*
X80764Y21800D01*
X80421Y21628D01*
X79735Y21457D01*
X79221Y21285D01*
X78878Y20943D01*
X78707Y20600D01*
Y20086D01*
X78878Y19743D01*
X79050Y19571D01*
X79564Y19400D01*
X80250D01*
X80764Y19571D01*
X80935Y19743D01*
X81106Y20086D01*
Y20600D01*
X80935Y20943D01*
X80592Y21285D01*
X80078Y21457D01*
X79392Y21628D01*
X79050Y21800D01*
X78878Y22142D01*
Y22485D01*
X79050Y22828D01*
X79564Y22999D01*
X80250D01*
X46958Y352D02*
Y-3247D01*
Y352D02*
X45415D01*
X44901Y181D01*
X44730Y9D01*
X44558Y-333D01*
Y-676D01*
X44730Y-1019D01*
X44901Y-1190D01*
X45415Y-1362D01*
X46958D01*
X45758D02*
X44558Y-3247D01*
X43753Y-333D02*
X43410Y-162D01*
X42896Y352D01*
Y-3247D01*
X38714Y352D02*
X40428Y-3247D01*
X41113Y352D02*
X38714D01*
X66399Y60900D02*
X62800D01*
X66399D02*
Y62442D01*
X66228Y62957D01*
X66056Y63128D01*
X65714Y63300D01*
X65371D01*
X65028Y63128D01*
X64857Y62957D01*
X64685Y62442D01*
Y60900D01*
Y62100D02*
X62800Y63300D01*
X65714Y64105D02*
X65885Y64448D01*
X66399Y64962D01*
X62800D01*
X66399Y68801D02*
Y67087D01*
X64857Y66916D01*
X65028Y67087D01*
X65200Y67601D01*
Y68116D01*
X65028Y68630D01*
X64685Y68973D01*
X64171Y69144D01*
X63828D01*
X63314Y68973D01*
X62971Y68630D01*
X62800Y68116D01*
Y67601D01*
X62971Y67087D01*
X63143Y66916D01*
X63486Y66745D01*
X66809Y28327D02*
Y24728D01*
Y28327D02*
X65267D01*
X64752Y28156D01*
X64581Y27985D01*
X64410Y27642D01*
Y27299D01*
X64581Y26956D01*
X64752Y26785D01*
X65267Y26613D01*
X66809D01*
X65609D02*
X64410Y24728D01*
X63433Y27470D02*
Y27642D01*
X63261Y27985D01*
X63090Y28156D01*
X62747Y28327D01*
X62062D01*
X61719Y28156D01*
X61547Y27985D01*
X61376Y27642D01*
Y27299D01*
X61547Y26956D01*
X61890Y26442D01*
X63604Y24728D01*
X61204D01*
X66200Y33199D02*
Y29600D01*
Y33199D02*
X64657D01*
X64143Y33028D01*
X63972Y32856D01*
X63801Y32514D01*
Y32171D01*
X63972Y31828D01*
X64143Y31657D01*
X64657Y31485D01*
X66200D01*
X65000D02*
X63801Y29600D01*
X62995Y32514D02*
X62652Y32685D01*
X62138Y33199D01*
Y29600D01*
X66809Y22399D02*
Y18800D01*
Y22399D02*
X65267D01*
X64752Y22228D01*
X64581Y22056D01*
X64410Y21714D01*
Y21371D01*
X64581Y21028D01*
X64752Y20857D01*
X65267Y20685D01*
X66809D01*
X65609D02*
X64410Y18800D01*
X61890Y22399D02*
X63604Y20000D01*
X61033D01*
X61890Y22399D02*
Y18800D01*
X104142Y12464D02*
X104485Y12293D01*
X104828Y11950D01*
X104999Y11607D01*
Y10922D01*
X104828Y10579D01*
X104485Y10236D01*
X104142Y10065D01*
X103628Y9893D01*
X102771D01*
X102257Y10065D01*
X101914Y10236D01*
X101571Y10579D01*
X101400Y10922D01*
Y11607D01*
X101571Y11950D01*
X101914Y12293D01*
X102257Y12464D01*
X104142Y13647D02*
X104314D01*
X104656Y13818D01*
X104828Y13990D01*
X104999Y14332D01*
Y15018D01*
X104828Y15361D01*
X104656Y15532D01*
X104314Y15703D01*
X103971D01*
X103628Y15532D01*
X103114Y15189D01*
X101400Y13475D01*
Y15875D01*
X104142Y16852D02*
X104314D01*
X104656Y17023D01*
X104828Y17195D01*
X104999Y17537D01*
Y18223D01*
X104828Y18566D01*
X104656Y18737D01*
X104314Y18909D01*
X103971D01*
X103628Y18737D01*
X103114Y18394D01*
X101400Y16680D01*
Y19080D01*
X39229Y46121D02*
X39400Y46464D01*
X39743Y46806D01*
X40086Y46978D01*
X40771D01*
X41114Y46806D01*
X41457Y46464D01*
X41628Y46121D01*
X41800Y45607D01*
Y44750D01*
X41628Y44236D01*
X41457Y43893D01*
X41114Y43550D01*
X40771Y43379D01*
X40086D01*
X39743Y43550D01*
X39400Y43893D01*
X39229Y44236D01*
X38046Y46121D02*
Y46292D01*
X37875Y46635D01*
X37703Y46806D01*
X37361Y46978D01*
X36675D01*
X36332Y46806D01*
X36161Y46635D01*
X35989Y46292D01*
Y45950D01*
X36161Y45607D01*
X36503Y45092D01*
X38217Y43379D01*
X35818D01*
X33984Y46978D02*
X34498Y46806D01*
X34841Y46292D01*
X35012Y45435D01*
Y44921D01*
X34841Y44064D01*
X34498Y43550D01*
X33984Y43379D01*
X33641D01*
X33127Y43550D01*
X32784Y44064D01*
X32613Y44921D01*
Y45435D01*
X32784Y46292D01*
X33127Y46806D01*
X33641Y46978D01*
X33984D01*
X28029Y54557D02*
X28200Y54900D01*
X28543Y55243D01*
X28885Y55414D01*
X29571D01*
X29914Y55243D01*
X30257Y54900D01*
X30428Y54557D01*
X30599Y54043D01*
Y53186D01*
X30428Y52672D01*
X30257Y52329D01*
X29914Y51986D01*
X29571Y51815D01*
X28885D01*
X28543Y51986D01*
X28200Y52329D01*
X28029Y52672D01*
X27017Y54729D02*
X26675Y54900D01*
X26160Y55414D01*
Y51815D01*
X22150Y54215D02*
X22321Y53700D01*
X22664Y53358D01*
X23178Y53186D01*
X23350D01*
X23864Y53358D01*
X24206Y53700D01*
X24378Y54215D01*
Y54386D01*
X24206Y54900D01*
X23864Y55243D01*
X23350Y55414D01*
X23178D01*
X22664Y55243D01*
X22321Y54900D01*
X22150Y54215D01*
Y53358D01*
X22321Y52501D01*
X22664Y51986D01*
X23178Y51815D01*
X23521D01*
X24035Y51986D01*
X24206Y52329D01*
X54458Y53688D02*
X54629Y54031D01*
X54972Y54374D01*
X55315Y54545D01*
X56000D01*
X56343Y54374D01*
X56686Y54031D01*
X56857Y53688D01*
X57029Y53174D01*
Y52317D01*
X56857Y51803D01*
X56686Y51460D01*
X56343Y51117D01*
X56000Y50946D01*
X55315D01*
X54972Y51117D01*
X54629Y51460D01*
X54458Y51803D01*
X53275Y53688D02*
Y53859D01*
X53104Y54202D01*
X52932Y54374D01*
X52590Y54545D01*
X51904D01*
X51561Y54374D01*
X51390Y54202D01*
X51218Y53859D01*
Y53517D01*
X51390Y53174D01*
X51733Y52660D01*
X53447Y50946D01*
X51047D01*
X50242Y53859D02*
X49899Y54031D01*
X49384Y54545D01*
Y50946D01*
X79042Y51271D02*
X79385Y51099D01*
X79728Y50757D01*
X79899Y50414D01*
Y49728D01*
X79728Y49386D01*
X79385Y49043D01*
X79042Y48871D01*
X78528Y48700D01*
X77671D01*
X77157Y48871D01*
X76814Y49043D01*
X76471Y49386D01*
X76300Y49728D01*
Y50414D01*
X76471Y50757D01*
X76814Y51099D01*
X77157Y51271D01*
X79214Y52282D02*
X79385Y52625D01*
X79899Y53139D01*
X76300D01*
X79899Y55778D02*
X79728Y55264D01*
X79385Y55093D01*
X79042D01*
X78699Y55264D01*
X78528Y55607D01*
X78357Y56293D01*
X78185Y56807D01*
X77842Y57150D01*
X77500Y57321D01*
X76986D01*
X76643Y57150D01*
X76471Y56978D01*
X76300Y56464D01*
Y55778D01*
X76471Y55264D01*
X76643Y55093D01*
X76986Y54922D01*
X77500D01*
X77842Y55093D01*
X78185Y55436D01*
X78357Y55950D01*
X78528Y56635D01*
X78699Y56978D01*
X79042Y57150D01*
X79385D01*
X79728Y56978D01*
X79899Y56464D01*
Y55778D01*
X100907Y53771D02*
X101250Y53600D01*
X101592Y53257D01*
X101764Y52914D01*
Y52228D01*
X101592Y51886D01*
X101250Y51543D01*
X100907Y51371D01*
X100393Y51200D01*
X99536D01*
X99022Y51371D01*
X98679Y51543D01*
X98336Y51886D01*
X98165Y52228D01*
Y52914D01*
X98336Y53257D01*
X98679Y53600D01*
X99022Y53771D01*
X101078Y54782D02*
X101250Y55125D01*
X101764Y55639D01*
X98165D01*
X101764Y59821D02*
X98165Y58107D01*
X101764Y57421D02*
Y59821D01*
X92942Y28271D02*
X93285Y28100D01*
X93628Y27757D01*
X93799Y27414D01*
Y26728D01*
X93628Y26386D01*
X93285Y26043D01*
X92942Y25871D01*
X92428Y25700D01*
X91571D01*
X91057Y25871D01*
X90714Y26043D01*
X90371Y26386D01*
X90200Y26728D01*
Y27414D01*
X90371Y27757D01*
X90714Y28100D01*
X91057Y28271D01*
X93114Y29282D02*
X93285Y29625D01*
X93799Y30139D01*
X90200D01*
X93285Y33978D02*
X93628Y33807D01*
X93799Y33293D01*
Y32950D01*
X93628Y32436D01*
X93114Y32093D01*
X92257Y31921D01*
X91400D01*
X90714Y32093D01*
X90371Y32436D01*
X90200Y32950D01*
Y33121D01*
X90371Y33635D01*
X90714Y33978D01*
X91228Y34150D01*
X91400D01*
X91914Y33978D01*
X92257Y33635D01*
X92428Y33121D01*
Y32950D01*
X92257Y32436D01*
X91914Y32093D01*
X91400Y31921D01*
X72905Y37848D02*
X73076Y38191D01*
X73419Y38534D01*
X73762Y38705D01*
X74447D01*
X74790Y38534D01*
X75133Y38191D01*
X75304Y37848D01*
X75476Y37334D01*
Y36477D01*
X75304Y35963D01*
X75133Y35620D01*
X74790Y35277D01*
X74447Y35106D01*
X73762D01*
X73419Y35277D01*
X73076Y35620D01*
X72905Y35963D01*
X71894Y38019D02*
X71551Y38191D01*
X71037Y38705D01*
Y35106D01*
X67197Y38705D02*
X68911D01*
X69083Y37163D01*
X68911Y37334D01*
X68397Y37505D01*
X67883D01*
X67369Y37334D01*
X67026Y36991D01*
X66855Y36477D01*
Y36134D01*
X67026Y35620D01*
X67369Y35277D01*
X67883Y35106D01*
X68397D01*
X68911Y35277D01*
X69083Y35449D01*
X69254Y35791D01*
X86342Y28471D02*
X86685Y28299D01*
X87028Y27957D01*
X87199Y27614D01*
Y26928D01*
X87028Y26586D01*
X86685Y26243D01*
X86342Y26071D01*
X85828Y25900D01*
X84971D01*
X84457Y26071D01*
X84114Y26243D01*
X83771Y26586D01*
X83600Y26928D01*
Y27614D01*
X83771Y27957D01*
X84114Y28299D01*
X84457Y28471D01*
X86514Y29482D02*
X86685Y29825D01*
X87199Y30339D01*
X83600D01*
X87199Y33835D02*
X84800Y32122D01*
Y34692D01*
X87199Y33835D02*
X83600D01*
X174148Y22971D02*
X174491Y22799D01*
X174833Y22457D01*
X175005Y22114D01*
Y21428D01*
X174833Y21086D01*
X174491Y20743D01*
X174148Y20571D01*
X173634Y20400D01*
X172777D01*
X172263Y20571D01*
X171920Y20743D01*
X171577Y21086D01*
X171405Y21428D01*
Y22114D01*
X171577Y22457D01*
X171920Y22799D01*
X172263Y22971D01*
X173805Y26210D02*
X173291Y26039D01*
X172948Y25696D01*
X172777Y25182D01*
Y25010D01*
X172948Y24496D01*
X173291Y24153D01*
X173805Y23982D01*
X173976D01*
X174491Y24153D01*
X174833Y24496D01*
X175005Y25010D01*
Y25182D01*
X174833Y25696D01*
X174491Y26039D01*
X173805Y26210D01*
X172948D01*
X172091Y26039D01*
X171577Y25696D01*
X171405Y25182D01*
Y24839D01*
X171577Y24325D01*
X171920Y24153D01*
X187029Y43842D02*
X187200Y44185D01*
X187543Y44528D01*
X187886Y44699D01*
X188572D01*
X188914Y44528D01*
X189257Y44185D01*
X189429Y43842D01*
X189600Y43328D01*
Y42471D01*
X189429Y41957D01*
X189257Y41614D01*
X188914Y41271D01*
X188572Y41100D01*
X187886D01*
X187543Y41271D01*
X187200Y41614D01*
X187029Y41957D01*
X185161Y44699D02*
X185675Y44528D01*
X185846Y44185D01*
Y43842D01*
X185675Y43499D01*
X185332Y43328D01*
X184647Y43157D01*
X184133Y42985D01*
X183790Y42643D01*
X183618Y42300D01*
Y41786D01*
X183790Y41443D01*
X183961Y41271D01*
X184475Y41100D01*
X185161D01*
X185675Y41271D01*
X185846Y41443D01*
X186018Y41786D01*
Y42300D01*
X185846Y42643D01*
X185504Y42985D01*
X184990Y43157D01*
X184304Y43328D01*
X183961Y43499D01*
X183790Y43842D01*
Y44185D01*
X183961Y44528D01*
X184475Y44699D01*
X185161D01*
D18*
X184900Y-1543D02*
Y12357D01*
X199082Y25624D02*
Y31900D01*
X186650Y25624D02*
Y31900D01*
X198374Y25624D02*
X199082D01*
X186650D02*
X187374D01*
X190650D02*
X194874D01*
X186650Y31900D02*
X187650D01*
X198150D02*
X199082D01*
X41286Y36399D02*
Y36832D01*
X35286D02*
X41286D01*
Y24399D02*
Y24899D01*
X35286Y36399D02*
Y36832D01*
Y24399D02*
Y24899D01*
Y24399D02*
X41286D01*
D21*
X88796Y-2449D02*
Y17236D01*
X73836Y-2449D02*
Y17236D01*
X88796D01*
X73836Y-2449D02*
X88796D01*
X130406Y38929D02*
X154028D01*
X130406Y-1229D02*
X154028D01*
Y38929D01*
X130406Y-1229D02*
Y38929D01*
X218400Y56698D02*
Y51700D01*
X215901D01*
X215068Y52533D01*
Y53366D01*
X215901Y54199D01*
X218400D01*
X215901D01*
X215068Y55032D01*
Y55865D01*
X215901Y56698D01*
X218400D01*
X210902D02*
X212569D01*
X213402Y55865D01*
Y52533D01*
X212569Y51700D01*
X210902D01*
X210069Y52533D01*
Y55865D01*
X210902Y56698D01*
X205904D02*
X207570D01*
X208403Y55865D01*
Y52533D01*
X207570Y51700D01*
X205904D01*
X205071Y52533D01*
Y55865D01*
X205904Y56698D01*
X203405D02*
X200073D01*
X201739D01*
Y51700D01*
X198407Y55865D02*
X197573Y56698D01*
X195907D01*
X195074Y55865D01*
Y52533D01*
X195907Y51700D01*
X197573D01*
X198407Y52533D01*
Y55865D01*
X218400Y22000D02*
Y26998D01*
X215901D01*
X215068Y26165D01*
Y24499D01*
X215901Y23666D01*
X218400D01*
X216734D02*
X215068Y22000D01*
X213402Y26998D02*
X210069Y22000D01*
Y26998D02*
X213402Y22000D01*
X218400Y36498D02*
X215068D01*
X216734D01*
Y31500D01*
X213402Y36498D02*
X210069Y31500D01*
Y36498D02*
X213402Y31500D01*
X215068Y46265D02*
X215901Y47098D01*
X217567D01*
X218400Y46265D01*
Y45432D01*
X217567Y44599D01*
X215901D01*
X215068Y43766D01*
Y42933D01*
X215901Y42100D01*
X217567D01*
X218400Y42933D01*
X213402Y47098D02*
Y42100D01*
X211736Y43766D01*
X210069Y42100D01*
Y47098D01*
X205904D02*
X207570D01*
X208403Y46265D01*
Y42933D01*
X207570Y42100D01*
X205904D01*
X205071Y42933D01*
Y46265D01*
X205904Y47098D01*
X215068Y66498D02*
X218400D01*
Y61500D01*
X215068D01*
X218400Y63999D02*
X216734D01*
X210069Y66498D02*
X213402D01*
Y63999D01*
X211736Y64832D01*
X210902D01*
X210069Y63999D01*
Y62333D01*
X210902Y61500D01*
X212569D01*
X213402Y62333D01*
X208403Y66498D02*
Y63166D01*
X206737Y61500D01*
X205071Y63166D01*
Y66498D01*
D22*
X185650Y33800D02*
Y33900D01*
X33286Y23399D02*
X33386D01*
D92*
X86828Y14480D02*
G03*
X86828Y14480I-787J0D01*
G01*
D93*
X30200Y71400D02*
Y73400D01*
X39200Y67400D02*
Y67900D01*
X30200Y61900D02*
Y63900D01*
Y73400D02*
X34700D01*
X30200Y61900D02*
X34700D01*
M02*
