G04*
G04 #@! TF.GenerationSoftware,Altium Limited,Altium Designer,18.1.4 (159)*
G04*
G04 Layer_Physical_Order=2*
G04 Layer_Color=16711680*
%FSLAX25Y25*%
%MOIN*%
G70*
G01*
G75*
%ADD15C,0.03000*%
%ADD17C,0.00600*%
%ADD21C,0.01000*%
%ADD22C,0.01968*%
%ADD29R,0.03661X0.03858*%
%ADD31R,0.07874X0.03937*%
%ADD37R,0.03858X0.03661*%
%ADD38R,0.05000X0.02000*%
%ADD39R,0.03740X0.02165*%
%ADD40R,0.03740X0.01968*%
%ADD42O,0.09055X0.02362*%
%ADD70C,0.02000*%
%ADD73R,0.05906X0.05906*%
%ADD74C,0.05906*%
%ADD75R,0.11811X0.04724*%
%ADD76C,0.07874*%
%ADD77C,0.02362*%
%ADD78C,0.03543*%
%ADD79C,0.03150*%
%ADD80R,0.02000X0.05000*%
%ADD81R,0.03600X0.03600*%
%ADD82R,0.05000X0.03600*%
%ADD83O,0.08661X0.02756*%
%ADD84C,0.01500*%
%ADD85R,0.06400X0.09225*%
%ADD86R,0.10100X0.03795*%
%ADD87R,0.12300X0.03800*%
G36*
X80679Y93907D02*
X80380Y93783D01*
X79555Y93150D01*
X78921Y92324D01*
X78523Y91362D01*
X78387Y90330D01*
X78523Y89298D01*
X78921Y88337D01*
X79555Y87511D01*
X80380Y86878D01*
X81193Y86541D01*
X81094Y86041D01*
X73654D01*
X73555Y86541D01*
X74367Y86878D01*
X75193Y87511D01*
X75827Y88337D01*
X76225Y89298D01*
X76295Y89830D01*
X72374D01*
X68453D01*
X68523Y89298D01*
X68921Y88337D01*
X69555Y87511D01*
X70381Y86878D01*
X71193Y86541D01*
X71094Y86041D01*
X63654D01*
X63555Y86541D01*
X64367Y86878D01*
X65193Y87511D01*
X65827Y88337D01*
X66225Y89298D01*
X66361Y90330D01*
X66225Y91362D01*
X65827Y92324D01*
X65193Y93150D01*
X64367Y93783D01*
X64069Y93907D01*
X64168Y94407D01*
X70579D01*
X70679Y93907D01*
X70381Y93783D01*
X69555Y93150D01*
X68921Y92324D01*
X68523Y91362D01*
X68453Y90830D01*
X72374D01*
X76295D01*
X76225Y91362D01*
X75827Y92324D01*
X75193Y93150D01*
X74367Y93783D01*
X74069Y93907D01*
X74168Y94407D01*
X80580D01*
X80679Y93907D01*
D02*
G37*
G36*
X122674Y86790D02*
X122074D01*
X121774Y87390D01*
X122974D01*
X122674Y86790D01*
D02*
G37*
G36*
X118421Y94283D02*
X118421Y93907D01*
Y86378D01*
X121456D01*
Y85680D01*
X119245Y83469D01*
X95109D01*
X94699Y83821D01*
X94679Y83920D01*
X94286Y84509D01*
X93697Y84902D01*
X93002Y85041D01*
X92307Y84902D01*
X91718Y84509D01*
X91324Y83920D01*
X91282Y83708D01*
X90739Y83544D01*
X88869Y85414D01*
X88174Y85878D01*
X87355Y86041D01*
X83654D01*
X83555Y86541D01*
X84367Y86878D01*
X85193Y87511D01*
X85827Y88337D01*
X86225Y89298D01*
X86361Y90330D01*
X86225Y91362D01*
X85827Y92324D01*
X85193Y93150D01*
X84367Y93783D01*
X84069Y93907D01*
X84168Y94407D01*
X90579D01*
X90679Y93907D01*
X90381Y93783D01*
X89555Y93150D01*
X88921Y92324D01*
X88523Y91362D01*
X88387Y90330D01*
X88523Y89298D01*
X88921Y88337D01*
X89555Y87511D01*
X90381Y86878D01*
X91342Y86479D01*
X92374Y86343D01*
X93406Y86479D01*
X94367Y86878D01*
X95193Y87511D01*
X95827Y88337D01*
X96225Y89298D01*
X96361Y90330D01*
X96225Y91362D01*
X95827Y92324D01*
X95193Y93150D01*
X94367Y93783D01*
X94069Y93907D01*
X94168Y94407D01*
X100580D01*
X100679Y93907D01*
X100381Y93783D01*
X99555Y93150D01*
X98921Y92324D01*
X98523Y91362D01*
X98387Y90330D01*
X98523Y89298D01*
X98921Y88337D01*
X99555Y87511D01*
X100381Y86878D01*
X101342Y86479D01*
X102374Y86343D01*
X103406Y86479D01*
X104367Y86878D01*
X105193Y87511D01*
X105827Y88337D01*
X106225Y89298D01*
X106361Y90330D01*
X106225Y91362D01*
X105827Y92324D01*
X105193Y93150D01*
X104367Y93783D01*
X104069Y93907D01*
X104168Y94407D01*
X110580D01*
X110679Y93907D01*
X110380Y93783D01*
X109555Y93150D01*
X108921Y92324D01*
X108523Y91362D01*
X108387Y90330D01*
X108523Y89298D01*
X108921Y88337D01*
X109555Y87511D01*
X110380Y86878D01*
X111342Y86479D01*
X112374Y86343D01*
X113406Y86479D01*
X114367Y86878D01*
X115193Y87511D01*
X115827Y88337D01*
X116225Y89298D01*
X116361Y90330D01*
X116225Y91362D01*
X115827Y92324D01*
X115193Y93150D01*
X114367Y93783D01*
X114069Y93907D01*
X114168Y94407D01*
X117972D01*
X118421Y94283D01*
D02*
G37*
G36*
X94831Y82851D02*
X94681Y82251D01*
X93311Y82085D01*
X94166Y83423D01*
X94831Y82851D01*
D02*
G37*
G36*
X132100Y78150D02*
X130100D01*
X129183Y80150D01*
X133017D01*
X132100Y78150D01*
D02*
G37*
G36*
X139300Y78056D02*
X137300D01*
X136383Y80056D01*
X140217D01*
X139300Y78056D01*
D02*
G37*
G36*
X148480Y75155D02*
X148127Y74802D01*
X147466Y74803D01*
X140975D01*
X140726Y75303D01*
X140849Y75600D01*
Y79400D01*
X140829Y79449D01*
Y79965D01*
X140867Y80056D01*
X140829Y80146D01*
Y84305D01*
X135771D01*
Y80146D01*
X135733Y80056D01*
X135729Y80049D01*
X134128D01*
X133667Y80150D01*
X133629Y80240D01*
Y84399D01*
X128571D01*
Y80240D01*
X128533Y80150D01*
X128071Y80049D01*
X127900D01*
X127441Y79859D01*
X127251Y79400D01*
Y75600D01*
X127374Y75303D01*
X127125Y74803D01*
X121368D01*
X121154Y74590D01*
X119685D01*
Y56857D01*
X137402Y39140D01*
Y-5827D01*
X81146D01*
X80994Y-5327D01*
X81253Y-5153D01*
X89592Y3185D01*
X90933Y3060D01*
X90977Y3030D01*
X91749Y2877D01*
X97654D01*
X98426Y3030D01*
X98470Y3059D01*
X99164Y3119D01*
X100402Y2576D01*
Y2404D01*
X100924D01*
X101014Y2367D01*
X101104Y2404D01*
X104758D01*
X104848Y2367D01*
X104939Y2404D01*
X105460D01*
Y2565D01*
X107020Y3204D01*
X112378D01*
X112388Y3197D01*
X113110Y3059D01*
X113298Y2577D01*
X112711Y1250D01*
X112539D01*
Y729D01*
X112501Y638D01*
X112539Y548D01*
Y-3808D01*
X117400D01*
Y-2993D01*
X117996Y-2924D01*
X118076Y-2879D01*
X118546Y-2786D01*
X119075Y-2432D01*
X119725Y-1783D01*
X122354Y-466D01*
X127650D01*
X128345Y-328D01*
X128934Y66D01*
X129328Y655D01*
X129466Y1350D01*
X129328Y2045D01*
X128934Y2634D01*
X128345Y3028D01*
X127650Y3166D01*
X120957D01*
X120262Y3028D01*
X120042Y2880D01*
X119926Y2857D01*
X119396Y2503D01*
X117900Y1007D01*
X117400Y1214D01*
Y1250D01*
X117252D01*
X116749Y2586D01*
X116894Y3349D01*
X117269Y3910D01*
X117453Y4835D01*
X117269Y5760D01*
X116745Y6545D01*
X115960Y7069D01*
X115035Y7253D01*
X114110Y7069D01*
X113549Y6694D01*
X112388Y6473D01*
X112378Y6466D01*
X107020D01*
X105460Y7105D01*
Y7266D01*
X104939D01*
X104848Y7303D01*
X104758Y7266D01*
X101104D01*
X101014Y7303D01*
X100924Y7266D01*
X100402D01*
Y7116D01*
X99213Y6664D01*
X98470Y6727D01*
X98426Y6757D01*
X97654Y6910D01*
X91749D01*
X90977Y6757D01*
X90933Y6727D01*
X88933Y6540D01*
X88850Y6496D01*
X88369Y6401D01*
X87840Y6047D01*
X79424Y-2369D01*
X71958D01*
X71806Y-1869D01*
X72309Y-1533D01*
X72505Y-1238D01*
X73027Y-1024D01*
X77399D01*
X77750Y-955D01*
X78048Y-756D01*
X87328Y8525D01*
X87527Y8823D01*
X87597Y9174D01*
Y16956D01*
X88082Y17883D01*
X88085Y17925D01*
X88357Y18332D01*
X88495Y19027D01*
X88357Y19722D01*
X88292Y19820D01*
X88527Y20261D01*
X92260D01*
X93784Y18737D01*
Y17086D01*
X93698Y16910D01*
X91749D01*
X90977Y16757D01*
X90323Y16319D01*
X89886Y15665D01*
X89732Y14893D01*
X89886Y14121D01*
X90323Y13467D01*
X90977Y13030D01*
X91749Y12877D01*
X97654D01*
X98426Y13030D01*
X99080Y13467D01*
X99518Y14121D01*
X99671Y14893D01*
X99518Y15665D01*
X99080Y16319D01*
X98426Y16757D01*
X97654Y16910D01*
X95706D01*
X95619Y17086D01*
Y19117D01*
X95549Y19468D01*
X95351Y19766D01*
X93289Y21827D01*
X93207Y21882D01*
X93359Y22382D01*
X98038D01*
X101082Y19338D01*
Y11773D01*
X100120Y10811D01*
X99798D01*
X99277Y11025D01*
X99080Y11319D01*
X98426Y11756D01*
X97654Y11910D01*
X91749D01*
X90977Y11756D01*
X90323Y11319D01*
X89886Y10665D01*
X89732Y9893D01*
X89886Y9121D01*
X90323Y8467D01*
X90977Y8030D01*
X91749Y7877D01*
X97654D01*
X98426Y8030D01*
X99080Y8467D01*
X99277Y8762D01*
X99798Y8976D01*
X100500D01*
X100851Y9046D01*
X101149Y9244D01*
X102649Y10744D01*
X102848Y11042D01*
X102918Y11393D01*
Y19718D01*
X102848Y20070D01*
X102649Y20367D01*
X99677Y23339D01*
X99868Y23801D01*
X106662D01*
X106975Y23864D01*
X113805D01*
X114015Y23471D01*
X114016Y23363D01*
X113884Y22700D01*
X114022Y22005D01*
X114374Y21478D01*
X114425Y21276D01*
Y21203D01*
X114325Y20876D01*
X113449Y20418D01*
X113371D01*
X112444Y20902D01*
X112401Y20906D01*
X111995Y21178D01*
X111300Y21316D01*
X110605Y21178D01*
X110016Y20784D01*
X109622Y20195D01*
X109484Y19500D01*
X109622Y18805D01*
X109973Y18281D01*
X109917Y17970D01*
X109826Y17742D01*
X109505Y17678D01*
X108916Y17284D01*
X108522Y16695D01*
X108384Y16000D01*
X108522Y15305D01*
X108916Y14716D01*
X109505Y14322D01*
X109985Y14227D01*
X110018Y14199D01*
X111016Y13886D01*
X114201Y10701D01*
X114499Y10502D01*
X114850Y10432D01*
X119013D01*
X119579Y10208D01*
X119673Y10066D01*
X120262Y9672D01*
X120957Y9534D01*
X127650D01*
X128345Y9672D01*
X128934Y10066D01*
X129328Y10655D01*
X129466Y11350D01*
X129328Y12045D01*
X128934Y12634D01*
X128345Y13028D01*
X127650Y13166D01*
X120957D01*
X120262Y13028D01*
X119673Y12634D01*
X119579Y12492D01*
X119013Y12268D01*
X115230D01*
X113442Y14056D01*
X113537Y14342D01*
X113659Y14546D01*
X114295Y14672D01*
X114701Y14944D01*
X114744Y14948D01*
X115671Y15432D01*
X119013D01*
X119579Y15207D01*
X119673Y15066D01*
X120262Y14672D01*
X120957Y14534D01*
X127650D01*
X128345Y14672D01*
X128934Y15066D01*
X129328Y15655D01*
X129466Y16350D01*
X129328Y17045D01*
X128934Y17634D01*
X128345Y18028D01*
X127650Y18166D01*
X120957D01*
X120262Y18028D01*
X119673Y17634D01*
X119579Y17492D01*
X119013Y17268D01*
X115990D01*
X115940Y17768D01*
X116215Y17822D01*
X116804Y18216D01*
X117198Y18805D01*
X117336Y19500D01*
X117250Y19932D01*
X117578Y20408D01*
X117622Y20432D01*
X119013D01*
X119579Y20208D01*
X119673Y20066D01*
X120262Y19672D01*
X120957Y19534D01*
X127650D01*
X128345Y19672D01*
X128934Y20066D01*
X129328Y20655D01*
X129466Y21350D01*
X129328Y22045D01*
X128934Y22634D01*
X128345Y23028D01*
X127650Y23166D01*
X120957D01*
X120262Y23028D01*
X119673Y22634D01*
X119579Y22492D01*
X119013Y22268D01*
X117693D01*
X117501Y22882D01*
X117473Y22915D01*
X117378Y23395D01*
X117115Y23788D01*
X117175Y23933D01*
X117473Y24132D01*
X118773Y25432D01*
X119013D01*
X119579Y25207D01*
X119673Y25066D01*
X120262Y24672D01*
X120957Y24534D01*
X127650D01*
X128345Y24672D01*
X128934Y25066D01*
X129328Y25655D01*
X129466Y26350D01*
X129328Y27045D01*
X128934Y27634D01*
X128345Y28028D01*
X127650Y28166D01*
X120957D01*
X120262Y28028D01*
X119673Y27634D01*
X119579Y27492D01*
X119013Y27268D01*
X118393D01*
X118258Y27241D01*
X117693Y27520D01*
X117678Y27595D01*
X117284Y28184D01*
X116695Y28578D01*
X116000Y28716D01*
X115305Y28578D01*
X114899Y28306D01*
X114856Y28302D01*
X113929Y27818D01*
X107833D01*
X106848Y28283D01*
X106782Y28286D01*
X106495Y28478D01*
X105800Y28616D01*
X105105Y28478D01*
X104516Y28084D01*
X104122Y27495D01*
X103984Y26800D01*
X104116Y26136D01*
X104115Y26029D01*
X103905Y25637D01*
X90994D01*
X90500Y26130D01*
X90203Y26329D01*
X89851Y26399D01*
X82404D01*
X82196Y26899D01*
X82721Y27423D01*
X83719Y27736D01*
X83752Y27764D01*
X84232Y27859D01*
X84821Y28253D01*
X85215Y28842D01*
X85353Y29537D01*
X85215Y30232D01*
X84821Y30821D01*
X84232Y31215D01*
X83537Y31353D01*
X82842Y31215D01*
X82253Y30821D01*
X81859Y30232D01*
X81764Y29752D01*
X81736Y29719D01*
X81423Y28721D01*
X80743Y28041D01*
X75055D01*
X74704Y27971D01*
X74406Y27772D01*
X69068Y22434D01*
X66956D01*
X66604Y22365D01*
X66307Y22166D01*
X56834Y12693D01*
X41658D01*
X41306Y12623D01*
X41009Y12424D01*
X39271Y10686D01*
X39072Y10389D01*
X39002Y10037D01*
Y8428D01*
X38900Y8224D01*
X37695D01*
Y6917D01*
X37491Y6818D01*
X36271D01*
X35344Y7302D01*
X35302Y7306D01*
X34895Y7578D01*
X34200Y7716D01*
X33505Y7578D01*
X32916Y7184D01*
X32522Y6595D01*
X32384Y5900D01*
X32522Y5205D01*
X32916Y4616D01*
X33505Y4222D01*
X34200Y4084D01*
X34895Y4222D01*
X35302Y4494D01*
X35344Y4498D01*
X36271Y4982D01*
X37491D01*
X37695Y4883D01*
Y3165D01*
X42556D01*
Y8224D01*
X40940D01*
X40838Y8428D01*
Y9657D01*
X42038Y10858D01*
X57214D01*
X57565Y10927D01*
X57863Y11126D01*
X58407Y11670D01*
X58869Y11479D01*
Y9893D01*
Y-2500D01*
X58993Y-3124D01*
X59346Y-3653D01*
X60847Y-5153D01*
X61106Y-5327D01*
X60954Y-5827D01*
X-5203D01*
X-5972Y-5674D01*
X-6696Y-5374D01*
X-7348Y-4938D01*
X-7903Y-4384D01*
X-8338Y-3732D01*
X-8638Y-3008D01*
X-8792Y-2239D01*
Y-1846D01*
Y17012D01*
X-423D01*
X-398Y16995D01*
X32Y16910D01*
X1932D01*
X2361Y16995D01*
X2725Y17238D01*
X2739Y17261D01*
X2762Y17275D01*
X3005Y17639D01*
X3090Y18068D01*
Y70400D01*
X3005Y70829D01*
X2762Y71193D01*
X2398Y71436D01*
X1969Y71522D01*
X0D01*
X-429Y71436D01*
X-454Y71420D01*
X-8823D01*
Y90426D01*
Y90818D01*
X-8670Y91587D01*
X-8370Y92312D01*
X-7934Y92964D01*
X-7380Y93518D01*
X-6728Y93954D01*
X-6004Y94254D01*
X-5235Y94407D01*
X30580D01*
X30679Y93907D01*
X30380Y93783D01*
X29555Y93150D01*
X28921Y92324D01*
X28523Y91362D01*
X28387Y90330D01*
X28523Y89298D01*
X28921Y88337D01*
X29555Y87511D01*
X30380Y86878D01*
X31342Y86479D01*
X32374Y86343D01*
X33406Y86479D01*
X34367Y86878D01*
X35193Y87511D01*
X35827Y88337D01*
X36225Y89298D01*
X36361Y90330D01*
X36225Y91362D01*
X35827Y92324D01*
X35193Y93150D01*
X34367Y93783D01*
X34069Y93907D01*
X34168Y94407D01*
X40580D01*
X40679Y93907D01*
X40380Y93783D01*
X39555Y93150D01*
X38921Y92324D01*
X38523Y91362D01*
X38387Y90330D01*
X38523Y89298D01*
X38921Y88337D01*
X39555Y87511D01*
X40380Y86878D01*
X41193Y86541D01*
X41094Y86041D01*
X36700D01*
X35881Y85878D01*
X35186Y85414D01*
X34722Y84719D01*
X34559Y83900D01*
X34722Y83081D01*
X35186Y82386D01*
X35881Y81922D01*
X36700Y81759D01*
X86468D01*
X92141Y76086D01*
X92836Y75622D01*
X93655Y75459D01*
X113636D01*
X113775Y75366D01*
X114700Y75182D01*
X115625Y75366D01*
X116410Y75890D01*
X116934Y76675D01*
X117118Y77600D01*
X116934Y78525D01*
X116410Y79310D01*
X115625Y79834D01*
X114700Y80018D01*
X113775Y79834D01*
X113636Y79741D01*
X94542D01*
X93321Y80962D01*
X93320Y80982D01*
X93330Y81052D01*
X93533Y81457D01*
X94759Y81606D01*
X94807Y81633D01*
X119625D01*
X119976Y81703D01*
X120274Y81902D01*
X123023Y84651D01*
X123222Y84949D01*
X123292Y85300D01*
Y86378D01*
X126327D01*
Y93907D01*
X126327Y94283D01*
X126776Y94407D01*
X148480D01*
Y75155D01*
D02*
G37*
G36*
X221675Y62334D02*
X219675Y63290D01*
Y65290D01*
X221675Y66247D01*
Y62334D01*
D02*
G37*
G36*
X232382Y94254D02*
X233106Y93954D01*
X233758Y93518D01*
X234312Y92964D01*
X234748Y92312D01*
X235048Y91587D01*
X235201Y90818D01*
Y89037D01*
X235184Y89012D01*
X235099Y88583D01*
Y0D01*
X235184Y-429D01*
X235201Y-454D01*
Y-2239D01*
X235048Y-3008D01*
X234748Y-3732D01*
X234312Y-4384D01*
X233758Y-4938D01*
X233106Y-5374D01*
X232382Y-5674D01*
X231612Y-5827D01*
X146850D01*
Y38879D01*
X129134Y56595D01*
Y68200D01*
X148480D01*
Y61317D01*
X148000Y60975D01*
X146477D01*
X146359Y61259D01*
X145900Y61449D01*
X135800D01*
X135341Y61259D01*
X135151Y60800D01*
Y57006D01*
X135341Y56546D01*
X135354Y56541D01*
Y56357D01*
X135797D01*
X135800Y56356D01*
X140951D01*
Y54049D01*
X140873Y53658D01*
X140951Y53267D01*
Y51100D01*
X141141Y50641D01*
X141600Y50451D01*
X143159D01*
Y47990D01*
X143322Y47171D01*
X143786Y46476D01*
X149376Y40886D01*
X150071Y40422D01*
X150890Y40259D01*
X174604D01*
X174612Y40255D01*
X177071Y39983D01*
Y39957D01*
X177307D01*
X177612Y39924D01*
X177648Y39934D01*
X177683Y39920D01*
X177773Y39957D01*
X181427D01*
X181517Y39920D01*
X181607Y39957D01*
X181693Y39957D01*
X181728Y39955D01*
X182129Y39957D01*
Y40093D01*
X184650Y40959D01*
X187519D01*
Y33900D01*
X187550Y33742D01*
Y30800D01*
X188133D01*
X188267Y30526D01*
X188287Y30508D01*
X188302Y30433D01*
X188501Y30135D01*
X189657Y28979D01*
X189955Y28780D01*
X190306Y28710D01*
X195339D01*
X195690Y28780D01*
X195988Y28979D01*
X197299Y30290D01*
X197498Y30587D01*
X197514Y30667D01*
X197562Y30720D01*
X197590Y30800D01*
X198250D01*
Y37000D01*
X195050D01*
X194850Y37400D01*
X193350D01*
Y33900D01*
X192350D01*
Y37400D01*
X190850D01*
X190781Y37872D01*
Y40190D01*
X191069Y40571D01*
X191367D01*
X191592Y40540D01*
X191638Y40551D01*
X191681Y40533D01*
X191772Y40571D01*
X195931D01*
Y45629D01*
X195931D01*
X195796Y45955D01*
X212499Y62659D01*
X219490D01*
X221063Y61906D01*
Y61722D01*
X221585D01*
X221675Y61684D01*
X221765Y61722D01*
X221884D01*
X221891Y61721D01*
X221892Y61722D01*
X230137D01*
Y66859D01*
X221892D01*
X221891Y66859D01*
X221884Y66859D01*
X221765D01*
X221675Y66896D01*
X221585Y66859D01*
X221063D01*
Y66674D01*
X219490Y65921D01*
X211824D01*
X211199Y65797D01*
X210670Y65444D01*
X192347Y47120D01*
X191993Y46591D01*
X191898Y46113D01*
X191854Y46030D01*
X191592Y45660D01*
X191367Y45629D01*
X191069D01*
Y45588D01*
X188592Y45243D01*
X188588Y45241D01*
X184537D01*
X184517Y45249D01*
X184497Y45241D01*
X184443D01*
X184433Y45244D01*
X184411Y45241D01*
X180312D01*
X179493Y45078D01*
X179104Y44819D01*
X177773D01*
X177683Y44856D01*
X177650Y44843D01*
X177617Y44853D01*
X177284Y44819D01*
X177071D01*
Y44797D01*
X174617Y44546D01*
X174608Y44541D01*
X151777D01*
X147441Y48877D01*
Y50451D01*
X148000D01*
X148480Y50108D01*
Y49582D01*
X148558Y49192D01*
X148878Y48420D01*
X149099Y48090D01*
X149689Y47499D01*
X150020Y47278D01*
X150792Y46958D01*
X151182Y46880D01*
X189477D01*
X189868Y46958D01*
X190492Y47217D01*
X190823Y47438D01*
X191301Y47916D01*
X191522Y48247D01*
X191781Y48872D01*
X191859Y49262D01*
Y49600D01*
Y94407D01*
X231612D01*
X232382Y94254D01*
D02*
G37*
G36*
X194694Y44008D02*
X192306D01*
X192500Y45967D01*
X194500D01*
X194694Y44008D01*
D02*
G37*
G36*
X191681Y41183D02*
X188681Y41600D01*
Y44600D01*
X191681Y45017D01*
Y41183D01*
D02*
G37*
G36*
X184517Y41600D02*
X181517Y40569D01*
Y44207D01*
X184517Y44600D01*
Y41600D01*
D02*
G37*
G36*
X177683Y40569D02*
X174683Y40900D01*
Y43900D01*
X177683Y44207D01*
Y40569D01*
D02*
G37*
G36*
X196950Y30939D02*
X196350D01*
X196177Y31424D01*
X197123D01*
X196950Y30939D01*
D02*
G37*
G36*
X189537Y31424D02*
X189750D01*
X189450Y30812D01*
X188850D01*
X188550Y31424D01*
X188763D01*
X188443Y33193D01*
X189857D01*
X189537Y31424D01*
D02*
G37*
G36*
X83525Y28356D02*
X82440Y28016D01*
X82016Y28440D01*
X82356Y29525D01*
X83525Y28356D01*
D02*
G37*
G36*
X115156Y26073D02*
X114149Y26600D01*
Y27200D01*
X115156Y27727D01*
Y26073D01*
D02*
G37*
G36*
X107620Y27200D02*
X107673Y26600D01*
X106710Y26048D01*
X106570Y27695D01*
X107620Y27200D01*
D02*
G37*
G36*
X119954Y25757D02*
X119218Y26050D01*
Y26650D01*
X119954Y26943D01*
Y25757D01*
D02*
G37*
G36*
X77069Y24340D02*
Y23740D01*
X76062Y23213D01*
Y24866D01*
X77069Y24340D01*
D02*
G37*
G36*
X84986Y23600D02*
X85007Y23000D01*
X84018Y22462D01*
X83961Y24115D01*
X84986Y23600D01*
D02*
G37*
G36*
X79711Y22134D02*
X78626Y21794D01*
X78202Y22218D01*
X78542Y23303D01*
X79711Y22134D01*
D02*
G37*
G36*
X117221Y21603D02*
X116797Y21179D01*
X115712Y21519D01*
X116881Y22688D01*
X117221Y21603D01*
D02*
G37*
G36*
X119954Y20757D02*
X119218Y21050D01*
Y21650D01*
X119954Y21943D01*
Y20757D01*
D02*
G37*
G36*
X82945Y20407D02*
Y19807D01*
X81937Y19280D01*
Y20934D01*
X82945Y20407D01*
D02*
G37*
G36*
X114677Y18673D02*
X113669Y19200D01*
Y19800D01*
X114677Y20327D01*
Y18673D01*
D02*
G37*
G36*
X113151Y19800D02*
Y19200D01*
X112144Y18673D01*
Y20327D01*
X113151Y19800D01*
D02*
G37*
G36*
X86979Y17176D02*
X86379D01*
X85852Y18183D01*
X87506D01*
X86979Y17176D01*
D02*
G37*
G36*
X95302Y16259D02*
X94102D01*
X94402Y16871D01*
X95002D01*
X95302Y16259D01*
D02*
G37*
G36*
X70217D02*
X69238D01*
X69217Y16153D01*
X67217D01*
X67197Y16259D01*
X66217D01*
X67217Y18271D01*
X69217D01*
X70217Y16259D01*
D02*
G37*
G36*
X119954Y15757D02*
X119218Y16050D01*
Y16650D01*
X119954Y16943D01*
Y15757D01*
D02*
G37*
G36*
X115451Y16650D02*
Y16050D01*
X114444Y15523D01*
Y17177D01*
X115451Y16650D01*
D02*
G37*
G36*
X111721Y14903D02*
X111297Y14479D01*
X110212Y14819D01*
X111381Y15988D01*
X111721Y14903D01*
D02*
G37*
G36*
X119954Y10757D02*
X119218Y11050D01*
Y11650D01*
X119954Y11943D01*
Y10757D01*
D02*
G37*
G36*
X64044Y8903D02*
X62843Y9343D01*
X61207Y9186D01*
Y10601D01*
X62843Y10444D01*
X64044Y10884D01*
Y8903D01*
D02*
G37*
G36*
X99593Y10193D02*
Y9593D01*
X98873Y9298D01*
Y10489D01*
X99593Y10193D01*
D02*
G37*
G36*
X40520Y7612D02*
X39320D01*
X39620Y8212D01*
X40220D01*
X40520Y7612D01*
D02*
G37*
G36*
X101014Y3016D02*
X99273Y3780D01*
X98343Y3700D01*
Y6086D01*
X99305Y6004D01*
X101014Y6654D01*
Y3016D01*
D02*
G37*
G36*
X38319Y5300D02*
X37707Y5600D01*
Y6200D01*
X38319Y6500D01*
Y5300D01*
D02*
G37*
G36*
X36051Y6200D02*
Y5600D01*
X35043Y5073D01*
Y6727D01*
X36051Y6200D01*
D02*
G37*
G36*
X72821Y5193D02*
Y4593D01*
X72102Y4298D01*
Y5489D01*
X72821Y5193D01*
D02*
G37*
G36*
X91060Y3700D02*
X88993Y3893D01*
Y5893D01*
X91060Y6086D01*
Y3700D01*
D02*
G37*
G36*
X113770Y3595D02*
X112510Y3835D01*
Y5835D01*
X113770Y6075D01*
Y3595D01*
D02*
G37*
G36*
X106848Y5835D02*
Y3835D01*
X104848Y3016D01*
Y6654D01*
X106848Y5835D01*
D02*
G37*
G36*
X116077Y2528D02*
X116788Y638D01*
X113151D01*
X113991Y2539D01*
X113795Y3570D01*
X116275D01*
X116077Y2528D01*
D02*
G37*
G36*
X72821Y193D02*
Y-407D01*
X72102Y-702D01*
Y489D01*
X72821Y193D01*
D02*
G37*
G36*
X122199Y183D02*
X119391Y-1223D01*
X117825Y40D01*
X119936Y1940D01*
X122199Y183D01*
D02*
G37*
G36*
X117921Y-279D02*
Y-2279D01*
X116776Y-2412D01*
Y-146D01*
X117921Y-279D01*
D02*
G37*
%LPC*%
G36*
X134029Y90862D02*
X131600D01*
Y88532D01*
X134029D01*
Y90862D01*
D02*
G37*
G36*
X130600D02*
X128171D01*
Y88532D01*
X130600D01*
Y90862D01*
D02*
G37*
G36*
X141229Y90768D02*
X138800D01*
Y88437D01*
X141229D01*
Y90768D01*
D02*
G37*
G36*
X137800D02*
X135371D01*
Y88437D01*
X137800D01*
Y90768D01*
D02*
G37*
G36*
X134029Y87532D02*
X131600D01*
Y85201D01*
X134029D01*
Y87532D01*
D02*
G37*
G36*
X130600D02*
X128171D01*
Y85201D01*
X130600D01*
Y87532D01*
D02*
G37*
G36*
X141229Y87437D02*
X138800D01*
Y85107D01*
X141229D01*
Y87437D01*
D02*
G37*
G36*
X137800D02*
X135371D01*
Y85107D01*
X137800D01*
Y87437D01*
D02*
G37*
G36*
X83905Y78818D02*
X55500D01*
X55149Y78748D01*
X54851Y78549D01*
X50083Y73780D01*
X49884Y73483D01*
X49814Y73132D01*
Y72133D01*
X49714Y71929D01*
X48301D01*
Y66918D01*
X47099D01*
Y71929D01*
X42238D01*
X42238Y71929D01*
Y71929D01*
X41894Y72252D01*
X41773Y72373D01*
X41327Y72672D01*
X41100Y72717D01*
Y73800D01*
X36300D01*
Y69000D01*
X41100D01*
X41100Y69000D01*
Y69000D01*
X41494Y68759D01*
X41827Y68427D01*
X42238Y68152D01*
Y66871D01*
X43648D01*
X43751Y66666D01*
Y66632D01*
X43821Y66280D01*
X44020Y65983D01*
X44473Y65529D01*
X44266Y65029D01*
X42940D01*
X42850Y65067D01*
X42759Y65029D01*
X42238D01*
Y64851D01*
X41713Y64610D01*
X41100Y64915D01*
Y66300D01*
X36300D01*
Y61500D01*
X38793D01*
X38947Y61347D01*
X39476Y60993D01*
X40100Y60869D01*
X40668D01*
X42238Y60149D01*
Y59971D01*
X42759D01*
X42850Y59933D01*
X42940Y59971D01*
X47099D01*
X47099Y64684D01*
X47599Y64932D01*
X47901Y64733D01*
Y63000D01*
X50731D01*
X53562D01*
Y63840D01*
X54024Y64032D01*
X55705Y62351D01*
X56002Y62152D01*
X56071Y62139D01*
Y60569D01*
X61129D01*
Y65431D01*
X56071D01*
Y65234D01*
X55609Y65042D01*
X54002Y66649D01*
X53705Y66848D01*
X53354Y66918D01*
X53162D01*
Y71929D01*
X51749D01*
X51649Y72133D01*
Y72751D01*
X55880Y76982D01*
X62747D01*
X63014Y76482D01*
X62822Y76195D01*
X62684Y75500D01*
X62822Y74805D01*
X63094Y74398D01*
X63098Y74356D01*
X63582Y73429D01*
Y64700D01*
X63652Y64349D01*
X63851Y64051D01*
X71839Y56063D01*
Y54671D01*
X71443Y53914D01*
X70905Y53632D01*
X70405Y53902D01*
Y55129D01*
X65543D01*
Y50071D01*
X69948D01*
X70313Y50071D01*
X70555Y49816D01*
X70662Y49677D01*
X70646Y49600D01*
X70482Y48774D01*
X70666Y47848D01*
X71041Y47287D01*
X71048Y47251D01*
X70522Y46144D01*
X70338D01*
Y45622D01*
X70301Y45532D01*
X70338Y45441D01*
Y41788D01*
X70301Y41698D01*
X70338Y41607D01*
Y41086D01*
X70522D01*
X71269Y39513D01*
Y38861D01*
X68139Y35731D01*
X66157D01*
X66147Y35738D01*
X64986Y35959D01*
X64425Y36334D01*
X63500Y36518D01*
X62575Y36334D01*
X61790Y35810D01*
X61266Y35025D01*
X61169Y34537D01*
X60851Y34148D01*
X60500Y34218D01*
X59666D01*
X59462Y34317D01*
Y35829D01*
X54601D01*
Y30771D01*
X59462D01*
Y32283D01*
X59666Y32382D01*
X60120D01*
X62651Y29851D01*
X62949Y29652D01*
X63300Y29582D01*
X67184D01*
X67376Y29120D01*
X66072Y27817D01*
X59666D01*
X59462Y27917D01*
Y29428D01*
X54601D01*
Y24370D01*
X59462D01*
Y25882D01*
X59666Y25982D01*
X63182D01*
X63373Y25520D01*
X59962Y22109D01*
X59462Y22316D01*
Y23326D01*
X54601D01*
Y18268D01*
X59462D01*
Y19780D01*
X59666Y19879D01*
X59948D01*
X60299Y19949D01*
X60597Y20148D01*
X64931Y24482D01*
X66803D01*
X67154Y24552D01*
X67452Y24751D01*
X78669Y35968D01*
X78868Y36266D01*
X78938Y36617D01*
Y43236D01*
X79438Y43358D01*
X80175Y42866D01*
X81100Y42682D01*
X82025Y42866D01*
X82276Y43033D01*
X82976Y42685D01*
Y42268D01*
X88034D01*
Y42587D01*
X88616Y42878D01*
X89192Y42592D01*
Y42333D01*
X93211D01*
X93404Y42097D01*
X93440Y41918D01*
X93123Y41531D01*
X92221D01*
Y39201D01*
X94650D01*
Y40001D01*
X95037Y40318D01*
X95220Y40281D01*
X95915Y40420D01*
X96504Y40813D01*
X96898Y41402D01*
X97036Y42097D01*
X96898Y42792D01*
X96852Y42862D01*
Y43376D01*
X99509D01*
X100133Y43500D01*
X100662Y43853D01*
X104384Y47575D01*
X104738Y48105D01*
X104862Y48729D01*
X104862Y48729D01*
Y62811D01*
X105362Y62918D01*
X105505Y62822D01*
X106200Y62684D01*
X106895Y62822D01*
X107484Y63216D01*
X107878Y63805D01*
X107894Y63887D01*
X111753Y67747D01*
X111812Y67834D01*
X112084Y68016D01*
X112478Y68605D01*
X112616Y69300D01*
X112478Y69995D01*
X112084Y70584D01*
X111495Y70978D01*
X110800Y71116D01*
X110105Y70978D01*
X109516Y70584D01*
X109122Y69995D01*
X109072Y69743D01*
X108993Y69624D01*
X108987Y69594D01*
X105593Y66200D01*
X103610D01*
X102229Y66816D01*
Y66999D01*
X101684D01*
X101605Y67032D01*
X101526Y66999D01*
X97873D01*
X97783Y67037D01*
X97693Y66999D01*
X97171D01*
Y66838D01*
X95611Y66200D01*
X92164D01*
X92095Y66246D01*
X91400Y66385D01*
X90705Y66246D01*
X90636Y66200D01*
X84900D01*
X84276Y66076D01*
X83746Y65722D01*
X81786Y63762D01*
X81286Y63949D01*
Y64099D01*
X76421D01*
X76128Y64462D01*
X76316Y64901D01*
X78257D01*
Y67232D01*
X75828D01*
Y65349D01*
X75699Y65270D01*
X75592Y65235D01*
X75328Y65230D01*
X74979Y65752D01*
X74389Y66146D01*
X73694Y66284D01*
X72999Y66146D01*
X72859Y66052D01*
X72418Y66288D01*
Y67800D01*
X72348Y68151D01*
X72149Y68449D01*
X71153Y69444D01*
X70852Y70436D01*
X70830Y70463D01*
X70728Y70976D01*
X70335Y71565D01*
X69745Y71959D01*
X69050Y72097D01*
X68355Y71959D01*
X67766Y71565D01*
X67373Y70976D01*
X67234Y70281D01*
X67050Y70097D01*
X66778Y70012D01*
X66105Y69878D01*
X65918Y69753D01*
X65418Y70020D01*
Y73429D01*
X65902Y74356D01*
X65906Y74398D01*
X66178Y74805D01*
X66316Y75500D01*
X66178Y76195D01*
X65986Y76482D01*
X66253Y76982D01*
X83434D01*
X83705Y76118D01*
X83732Y76085D01*
X83828Y75605D01*
X84221Y75016D01*
X84811Y74622D01*
X85505Y74484D01*
X86200Y74622D01*
X86790Y75016D01*
X87183Y75605D01*
X87321Y76300D01*
X87183Y76995D01*
X86790Y77584D01*
X86200Y77978D01*
X85721Y78073D01*
X85688Y78101D01*
X84690Y78414D01*
X84554Y78549D01*
X84257Y78748D01*
X83905Y78818D01*
D02*
G37*
G36*
X102629Y73462D02*
X100200D01*
Y71131D01*
X102629D01*
Y73462D01*
D02*
G37*
G36*
X99200D02*
X96771D01*
Y71131D01*
X99200D01*
Y73462D01*
D02*
G37*
G36*
X61529Y71894D02*
X59100D01*
Y69563D01*
X61529D01*
Y71894D01*
D02*
G37*
G36*
X58100D02*
X55671D01*
Y69563D01*
X58100D01*
Y71894D01*
D02*
G37*
G36*
X81686Y70562D02*
X79257D01*
Y68231D01*
X81686D01*
Y70562D01*
D02*
G37*
G36*
X78257D02*
X75828D01*
Y68231D01*
X78257D01*
Y70562D01*
D02*
G37*
G36*
X102629Y70131D02*
X100200D01*
Y67801D01*
X102629D01*
Y70131D01*
D02*
G37*
G36*
X99200D02*
X96771D01*
Y67801D01*
X99200D01*
Y70131D01*
D02*
G37*
G36*
X61529Y68563D02*
X59100D01*
Y66232D01*
X61529D01*
Y68563D01*
D02*
G37*
G36*
X58100D02*
X55671D01*
Y66232D01*
X58100D01*
Y68563D01*
D02*
G37*
G36*
X26500Y84416D02*
X25805Y84278D01*
X25216Y83884D01*
X24822Y83295D01*
X24684Y82600D01*
X24822Y81905D01*
X25216Y81316D01*
X25805Y80922D01*
X25887Y80906D01*
X29069Y77724D01*
Y71577D01*
X28285Y70000D01*
X27600D01*
Y65200D01*
X33800D01*
Y70000D01*
X33115D01*
X32331Y71577D01*
Y78400D01*
X32207Y79024D01*
X31854Y79554D01*
X28194Y83213D01*
X28178Y83295D01*
X27784Y83884D01*
X27195Y84278D01*
X26500Y84416D01*
D02*
G37*
G36*
X81686Y67232D02*
X79257D01*
Y64901D01*
X81686D01*
Y67232D01*
D02*
G37*
G36*
X18352Y71403D02*
X4541D01*
Y64679D01*
X18352D01*
Y71403D01*
D02*
G37*
G36*
X53562Y62000D02*
X51231D01*
Y59571D01*
X53562D01*
Y62000D01*
D02*
G37*
G36*
X50231D02*
X47901D01*
Y59571D01*
X50231D01*
Y62000D01*
D02*
G37*
G36*
X19820Y62120D02*
Y58698D01*
X23242D01*
X23171Y59230D01*
X22773Y60192D01*
X22140Y61018D01*
X21314Y61651D01*
X20352Y62049D01*
X19820Y62120D01*
D02*
G37*
G36*
X18821Y62120D02*
X18289Y62049D01*
X17327Y61651D01*
X16501Y61018D01*
X15868Y60192D01*
X15470Y59230D01*
X15399Y58698D01*
X18821D01*
Y62120D01*
D02*
G37*
G36*
X38053Y57012D02*
X35723D01*
Y54583D01*
X38053D01*
Y57012D01*
D02*
G37*
G36*
X34723D02*
X32392D01*
Y54583D01*
X34723D01*
Y57012D01*
D02*
G37*
G36*
X23242Y57699D02*
X19820D01*
Y54277D01*
X20352Y54347D01*
X21314Y54746D01*
X22140Y55379D01*
X22773Y56205D01*
X23171Y57166D01*
X23242Y57699D01*
D02*
G37*
G36*
X18821D02*
X15399D01*
X15470Y57166D01*
X15868Y56205D01*
X16501Y55379D01*
X17327Y54746D01*
X18289Y54347D01*
X18821Y54277D01*
Y57699D01*
D02*
G37*
G36*
X64742Y55529D02*
X62411D01*
Y53100D01*
X64742D01*
Y55529D01*
D02*
G37*
G36*
X61411D02*
X59080D01*
Y53100D01*
X61411D01*
Y55529D01*
D02*
G37*
G36*
X43716Y56612D02*
X38855D01*
Y51554D01*
X43716D01*
Y52131D01*
X44205Y52405D01*
X44216Y52403D01*
X44900Y52267D01*
X45595Y52405D01*
X46184Y52799D01*
X46578Y53388D01*
X46716Y54083D01*
X46578Y54778D01*
X46184Y55367D01*
X45595Y55761D01*
X44900Y55899D01*
X44216Y55763D01*
X44205Y55761D01*
X43716Y56036D01*
Y56612D01*
D02*
G37*
G36*
X38053Y53583D02*
X35723D01*
Y51154D01*
X38053D01*
Y53583D01*
D02*
G37*
G36*
X34723D02*
X32392D01*
Y51154D01*
X34723D01*
Y53583D01*
D02*
G37*
G36*
X64742Y52100D02*
X62411D01*
Y49671D01*
X64742D01*
Y52100D01*
D02*
G37*
G36*
X61411D02*
X59080D01*
Y49671D01*
X61411D01*
Y52100D01*
D02*
G37*
G36*
X11446Y57264D02*
X10415Y57128D01*
X9453Y56730D01*
X8627Y56096D01*
X7994Y55271D01*
X7595Y54309D01*
X7460Y53277D01*
X7595Y52245D01*
X7994Y51284D01*
X8627Y50458D01*
X9453Y49825D01*
X10415Y49426D01*
X11446Y49290D01*
X12478Y49426D01*
X13440Y49825D01*
X14266Y50458D01*
X14899Y51284D01*
X15297Y52245D01*
X15433Y53277D01*
X15297Y54309D01*
X14899Y55271D01*
X14266Y56096D01*
X13440Y56730D01*
X12478Y57128D01*
X11446Y57264D01*
D02*
G37*
G36*
X48931Y47657D02*
X44069D01*
Y46145D01*
X43866Y46046D01*
X43499D01*
X42573Y46530D01*
X42530Y46534D01*
X42123Y46806D01*
X41428Y46944D01*
X40733Y46806D01*
X40144Y46412D01*
X39750Y45823D01*
X39612Y45128D01*
X39750Y44433D01*
X40144Y43844D01*
X40733Y43450D01*
X41428Y43312D01*
X42123Y43450D01*
X42530Y43722D01*
X42573Y43726D01*
X43499Y44210D01*
X43866D01*
X44069Y44111D01*
Y42599D01*
X48931D01*
Y47657D01*
D02*
G37*
G36*
X55394Y48057D02*
X53063D01*
Y45628D01*
X55394D01*
Y48057D01*
D02*
G37*
G36*
X52063D02*
X49732D01*
Y45628D01*
X52063D01*
Y48057D01*
D02*
G37*
G36*
X69537Y46544D02*
X67206D01*
Y44115D01*
X69537D01*
Y46544D01*
D02*
G37*
G36*
X66206D02*
X63875D01*
Y44115D01*
X66206D01*
Y46544D01*
D02*
G37*
G36*
X55394Y44628D02*
X53063D01*
Y42199D01*
X55394D01*
Y44628D01*
D02*
G37*
G36*
X52063D02*
X49732D01*
Y42199D01*
X52063D01*
Y44628D01*
D02*
G37*
G36*
X69537Y43115D02*
X67206D01*
Y40686D01*
X69537D01*
Y43115D01*
D02*
G37*
G36*
X66206D02*
X63875D01*
Y40686D01*
X66206D01*
Y43115D01*
D02*
G37*
G36*
X85005Y41466D02*
X82576D01*
Y39135D01*
X85005D01*
Y41466D01*
D02*
G37*
G36*
X88792Y41531D02*
X88319Y41466D01*
X86005D01*
Y38635D01*
Y35805D01*
X88319D01*
X88434Y35805D01*
X88907Y35870D01*
X90283D01*
X89804Y36882D01*
X88642Y37374D01*
X87423Y36817D01*
Y40454D01*
X88581Y40001D01*
X89804Y40519D01*
Y36882D01*
X91221D01*
Y38701D01*
Y41531D01*
X88907D01*
X88792Y41531D01*
D02*
G37*
G36*
X127650Y38574D02*
X124804D01*
Y36850D01*
X129775D01*
X129705Y37201D01*
X129223Y37922D01*
X128501Y38405D01*
X127650Y38574D01*
D02*
G37*
G36*
X123804D02*
X120957D01*
X120106Y38405D01*
X119385Y37922D01*
X118903Y37201D01*
X118833Y36850D01*
X123804D01*
Y38574D01*
D02*
G37*
G36*
X94650Y38201D02*
X92221D01*
Y36882D01*
X93638D01*
X93158Y35870D01*
X94650D01*
Y38201D01*
D02*
G37*
G36*
X85005Y38135D02*
X82576D01*
Y35805D01*
X85005D01*
Y38135D01*
D02*
G37*
G36*
X129775Y35850D02*
X124804D01*
Y34126D01*
X127650D01*
X128501Y34295D01*
X129223Y34778D01*
X129705Y35499D01*
X129775Y35850D01*
D02*
G37*
G36*
X123804D02*
X118833D01*
X118903Y35499D01*
X119385Y34778D01*
X120106Y34295D01*
X120957Y34126D01*
X123804D01*
Y35850D01*
D02*
G37*
G36*
X131600Y33718D02*
X130675Y33534D01*
X130113Y33159D01*
X129215Y32988D01*
X128361Y33017D01*
X128345Y33028D01*
X127650Y33166D01*
X120957D01*
X120262Y33028D01*
X119673Y32634D01*
X119280Y32045D01*
X119141Y31350D01*
X119280Y30655D01*
X119673Y30066D01*
X120262Y29672D01*
X120957Y29534D01*
X127650D01*
X127857Y29575D01*
X127871Y29567D01*
X127927Y29582D01*
X127982Y29562D01*
X129217Y29612D01*
X130113Y29441D01*
X130675Y29066D01*
X131600Y28882D01*
X132525Y29066D01*
X133310Y29590D01*
X133834Y30375D01*
X134018Y31300D01*
X133834Y32225D01*
X133310Y33010D01*
X132525Y33534D01*
X131600Y33718D01*
D02*
G37*
G36*
X19320Y52343D02*
X18289Y52207D01*
X17327Y51809D01*
X16501Y51175D01*
X15868Y50349D01*
X15470Y49388D01*
X15334Y48356D01*
X15470Y47324D01*
X15868Y46363D01*
X16501Y45537D01*
X17327Y44903D01*
X17843Y44690D01*
Y44148D01*
X17327Y43935D01*
X16501Y43301D01*
X15868Y42475D01*
X15470Y41514D01*
X15334Y40482D01*
X15470Y39450D01*
X15868Y38489D01*
X16501Y37663D01*
X17327Y37029D01*
X18289Y36631D01*
X19320Y36495D01*
X20352Y36631D01*
X20428Y36662D01*
X22176Y36329D01*
X23599Y34905D01*
Y31945D01*
X23099Y31846D01*
X22773Y32633D01*
X22140Y33459D01*
X21314Y34092D01*
X20352Y34490D01*
X19320Y34626D01*
X18289Y34490D01*
X17327Y34092D01*
X16501Y33459D01*
X15868Y32633D01*
X15470Y31671D01*
X15334Y30639D01*
X15470Y29607D01*
X15868Y28646D01*
X16501Y27820D01*
X17327Y27187D01*
X18289Y26788D01*
X19320Y26653D01*
X20352Y26788D01*
X21314Y27187D01*
X22140Y27820D01*
X22773Y28646D01*
X23171Y29607D01*
X23195Y29784D01*
X23479Y29857D01*
X23708Y29849D01*
X23868Y29608D01*
X27226Y26250D01*
X27524Y26051D01*
X27875Y25982D01*
X29981D01*
X30186Y25879D01*
Y25299D01*
X36386D01*
Y28499D01*
X36786Y28639D01*
Y30139D01*
X35966D01*
X35762Y30039D01*
Y30139D01*
X33286D01*
Y31139D01*
X35762D01*
Y31239D01*
X35966Y31139D01*
X36786D01*
Y31577D01*
X37286Y31729D01*
X37307Y31697D01*
X39158Y29846D01*
X39158Y29846D01*
X39522Y29603D01*
X39669Y29574D01*
X39705Y29538D01*
X40186Y29341D01*
Y29039D01*
X46386D01*
Y32239D01*
X40186D01*
X40186Y32239D01*
Y32239D01*
X39755Y32421D01*
X39222Y32955D01*
Y35331D01*
X39540Y36242D01*
X39540Y36248D01*
X39778Y36605D01*
X39916Y37300D01*
X39778Y37995D01*
X39384Y38584D01*
X38795Y38978D01*
X38100Y39116D01*
X37405Y38978D01*
X36816Y38584D01*
X36422Y37995D01*
X36284Y37300D01*
X36422Y36605D01*
X36552Y36411D01*
X36252Y35997D01*
X36222Y35980D01*
X30186D01*
Y35400D01*
X29981Y35297D01*
X29400D01*
X28533Y36164D01*
Y40061D01*
X28463Y40413D01*
X28264Y40710D01*
X23474Y45500D01*
X23140Y47248D01*
X23171Y47324D01*
X23307Y48356D01*
X23171Y49388D01*
X22773Y50349D01*
X22140Y51175D01*
X21314Y51809D01*
X20352Y52207D01*
X19320Y52343D01*
D02*
G37*
G36*
X11446Y39548D02*
X10415Y39412D01*
X9453Y39013D01*
X8627Y38380D01*
X7994Y37554D01*
X7595Y36593D01*
X7460Y35561D01*
X7595Y34529D01*
X7994Y33567D01*
X8627Y32741D01*
X9453Y32108D01*
X10415Y31710D01*
X11446Y31574D01*
X12478Y31710D01*
X13440Y32108D01*
X14266Y32741D01*
X14899Y33567D01*
X15297Y34529D01*
X15433Y35561D01*
X15297Y36593D01*
X14899Y37554D01*
X14266Y38380D01*
X13440Y39013D01*
X12478Y39412D01*
X11446Y39548D01*
D02*
G37*
G36*
X46386Y35980D02*
X40186D01*
Y32779D01*
X46386D01*
Y33362D01*
X46589Y33462D01*
X48334D01*
X48538Y33362D01*
Y30771D01*
X49951D01*
X50051Y30567D01*
Y29632D01*
X49951Y29428D01*
X48538D01*
Y24370D01*
X53399D01*
Y29428D01*
X51986D01*
X51886Y29632D01*
Y30567D01*
X51986Y30771D01*
X53399D01*
Y35829D01*
X48538D01*
Y35397D01*
X48334Y35297D01*
X46589D01*
X46386Y35397D01*
Y35980D01*
D02*
G37*
G36*
Y28499D02*
X40186D01*
Y25299D01*
X42268D01*
X42368Y25096D01*
Y23314D01*
X42438Y22963D01*
X42637Y22665D01*
X45154Y20148D01*
X45452Y19949D01*
X45803Y19879D01*
X48334D01*
X48538Y19780D01*
Y18268D01*
X53399D01*
Y23326D01*
X48538D01*
Y21814D01*
X48334Y21714D01*
X46183D01*
X44203Y23694D01*
Y25096D01*
X44303Y25299D01*
X46386D01*
Y28499D01*
D02*
G37*
G36*
X18352Y24159D02*
X4541D01*
Y17435D01*
X18352D01*
Y24159D01*
D02*
G37*
G36*
X127650Y8574D02*
X124804D01*
Y6850D01*
X129775D01*
X129705Y7201D01*
X129223Y7923D01*
X128501Y8405D01*
X127650Y8574D01*
D02*
G37*
G36*
X123804D02*
X120957D01*
X120106Y8405D01*
X119385Y7923D01*
X118903Y7201D01*
X118833Y6850D01*
X123804D01*
Y8574D01*
D02*
G37*
G36*
X49019Y8624D02*
X46689D01*
Y6194D01*
X49019D01*
Y8624D01*
D02*
G37*
G36*
X45689D02*
X43358D01*
Y6194D01*
X45689D01*
Y8624D01*
D02*
G37*
G36*
X129775Y5850D02*
X124804D01*
Y4126D01*
X127650D01*
X128501Y4295D01*
X129223Y4778D01*
X129705Y5499D01*
X129775Y5850D01*
D02*
G37*
G36*
X123804D02*
X118833D01*
X118903Y5499D01*
X119385Y4778D01*
X120106Y4295D01*
X120957Y4126D01*
X123804D01*
Y5850D01*
D02*
G37*
G36*
X49019Y5195D02*
X46689D01*
Y2765D01*
X49019D01*
Y5195D01*
D02*
G37*
G36*
X45689D02*
X43358D01*
Y2765D01*
X45689D01*
Y5195D01*
D02*
G37*
G36*
X94202Y2318D02*
X91749D01*
X90821Y2133D01*
X90035Y1608D01*
X89509Y821D01*
X89424Y393D01*
X94202D01*
Y2318D01*
D02*
G37*
G36*
X109406Y1650D02*
Y-779D01*
X111737D01*
Y1650D01*
X109406D01*
D02*
G37*
G36*
X94202Y-607D02*
X89424D01*
X89509Y-1034D01*
X90035Y-1821D01*
X90821Y-2347D01*
X91749Y-2531D01*
X94202D01*
Y-607D01*
D02*
G37*
G36*
X97654Y2318D02*
X95202D01*
Y-107D01*
Y-2531D01*
X97654D01*
X98582Y-2347D01*
X99369Y-1821D01*
X99502Y-1622D01*
X100002Y-1773D01*
Y-4059D01*
X102431D01*
Y-1228D01*
Y1603D01*
X100002D01*
Y1560D01*
X99502Y1408D01*
X99369Y1608D01*
X98582Y2133D01*
X97654Y2318D01*
D02*
G37*
G36*
X111737Y-1779D02*
X109406D01*
Y-4208D01*
X111737D01*
Y-1779D01*
D02*
G37*
G36*
X106076Y1650D02*
X105596Y1603D01*
X103431D01*
Y-1228D01*
Y-4059D01*
X105638D01*
X106076Y-4208D01*
X106299Y-4208D01*
X108406D01*
Y-1279D01*
Y1650D01*
X106341D01*
X106076Y1650D01*
D02*
G37*
%LPD*%
G36*
X85494Y77481D02*
X84324Y76312D01*
X83984Y77397D01*
X84409Y77821D01*
X85494Y77481D01*
D02*
G37*
G36*
X64800Y73649D02*
X64200D01*
X63673Y74656D01*
X65327D01*
X64800Y73649D01*
D02*
G37*
G36*
X51332Y71305D02*
X50131D01*
X50432Y71917D01*
X51032D01*
X51332Y71305D01*
D02*
G37*
G36*
X70560Y69165D02*
X70127Y68749D01*
X69040Y69100D01*
X70231Y70247D01*
X70560Y69165D01*
D02*
G37*
G36*
X68482Y67679D02*
X68278Y67035D01*
X67331Y67145D01*
X67875Y68689D01*
X68482Y67679D01*
D02*
G37*
G36*
X45006Y67483D02*
X45268D01*
X44969Y66883D01*
X44368D01*
X44069Y67483D01*
X44331D01*
X44138Y68870D01*
X45199D01*
X45006Y67483D01*
D02*
G37*
G36*
X103431Y65569D02*
Y63569D01*
X101605Y62754D01*
Y66383D01*
X103431Y65569D01*
D02*
G37*
G36*
X97171Y62299D02*
Y62138D01*
X97693D01*
X97783Y62100D01*
X97873Y62138D01*
X101526D01*
X101599Y62107D01*
Y49404D01*
X98833Y46638D01*
X95792D01*
X94250Y47082D01*
Y47194D01*
X93818Y47207D01*
X93725Y47196D01*
X93638Y47232D01*
X93548Y47194D01*
X89893D01*
X89802Y47232D01*
X89716Y47196D01*
X89624Y47207D01*
X89192Y47194D01*
Y47082D01*
X88554Y46899D01*
X88498Y46913D01*
X88035Y47047D01*
Y47047D01*
D01*
Y47129D01*
X87583Y47146D01*
X87500Y47134D01*
X87423Y47167D01*
X87332Y47129D01*
X83677D01*
X83586Y47167D01*
X83523Y47140D01*
X83456Y47153D01*
X82976Y47129D01*
Y47129D01*
X82488Y47025D01*
X82025Y47334D01*
X81100Y47518D01*
X80175Y47334D01*
X79438Y46842D01*
X78938Y46964D01*
Y51336D01*
X81985Y54382D01*
X94071D01*
X94316Y54016D01*
X94905Y53622D01*
X95600Y53484D01*
X96295Y53622D01*
X96884Y54016D01*
X97278Y54605D01*
X97416Y55300D01*
X97278Y55995D01*
X96884Y56584D01*
X96914Y57165D01*
X97084Y57279D01*
X97478Y57868D01*
X97616Y58563D01*
X97478Y59258D01*
X97084Y59847D01*
X96495Y60241D01*
X95800Y60379D01*
X95105Y60241D01*
X94516Y59847D01*
X94122Y59258D01*
X94027Y58778D01*
X93999Y58745D01*
X93686Y57747D01*
X93557Y57618D01*
X82479D01*
X82288Y58080D01*
X82764Y58556D01*
X85274D01*
X85625Y58626D01*
X85923Y58825D01*
X86658Y59560D01*
X87656Y59873D01*
X87689Y59901D01*
X88169Y59996D01*
X88758Y60390D01*
X89152Y60979D01*
X89290Y61674D01*
X89152Y62369D01*
X89067Y62496D01*
X89302Y62937D01*
X90636D01*
X90705Y62891D01*
X91400Y62752D01*
X92095Y62891D01*
X92164Y62937D01*
X95611D01*
X97171Y62299D01*
D02*
G37*
G36*
X97783Y62750D02*
X95783Y63569D01*
Y65569D01*
X97783Y66387D01*
Y62750D01*
D02*
G37*
G36*
X56683Y62671D02*
X56353Y62700D01*
Y63300D01*
X56683Y63329D01*
Y62671D01*
D02*
G37*
G36*
X41702Y63891D02*
X42850Y64417D01*
Y60583D01*
X40850Y61500D01*
Y62001D01*
X40488Y62112D01*
X40476Y64500D01*
X41702Y63891D01*
D02*
G37*
G36*
X82131Y62800D02*
Y60800D01*
X80662Y60343D01*
Y63257D01*
X82131Y62800D01*
D02*
G37*
G36*
X87462Y60493D02*
X86377Y60153D01*
X85953Y60577D01*
X86293Y61662D01*
X87462Y60493D01*
D02*
G37*
G36*
X73288Y60181D02*
X72119Y59012D01*
X71779Y60097D01*
X72203Y60521D01*
X73288Y60181D01*
D02*
G37*
G36*
X76627Y57143D02*
X74973D01*
X75500Y58151D01*
X76100D01*
X76627Y57143D01*
D02*
G37*
G36*
X95788Y57382D02*
X94703Y57042D01*
X94279Y57466D01*
X94619Y58551D01*
X95788Y57382D01*
D02*
G37*
G36*
X73584Y53443D02*
X71930D01*
X72457Y54451D01*
X73057D01*
X73584Y53443D01*
D02*
G37*
G36*
X70393Y52900D02*
Y52300D01*
X69781Y52000D01*
Y53200D01*
X70393Y52900D01*
D02*
G37*
G36*
X71914Y51773D02*
X70906Y52300D01*
Y52900D01*
X71914Y53427D01*
Y51773D01*
D02*
G37*
G36*
X89816Y43007D02*
X88616Y43603D01*
X87423Y43007D01*
Y46517D01*
X88564Y46226D01*
X89804Y46582D01*
X89816Y43007D01*
D02*
G37*
G36*
X73908Y47508D02*
X74140D01*
X74057Y47074D01*
X74588Y45532D01*
X70950D01*
X71725Y47164D01*
X71660Y47508D01*
X71889D01*
X71900Y47532D01*
X73900D01*
X73908Y47508D01*
D02*
G37*
G36*
X83590Y46102D02*
X83625Y46100D01*
Y44100D01*
X83597Y44099D01*
X83600Y43100D01*
X81588Y44100D01*
Y46100D01*
X83588Y46517D01*
X83590Y46102D01*
D02*
G37*
G36*
X95638Y46007D02*
Y44007D01*
X93638Y43007D01*
Y46582D01*
X95638Y46007D01*
D02*
G37*
G36*
X73900Y39698D02*
X71900D01*
X70950Y41698D01*
X74588D01*
X73900Y39698D01*
D02*
G37*
G36*
X66025Y35100D02*
Y33100D01*
X64765Y32860D01*
Y35340D01*
X66025Y35100D01*
D02*
G37*
G36*
X59450Y33600D02*
Y33000D01*
X58838Y32700D01*
Y33900D01*
X59450Y33600D01*
D02*
G37*
G36*
X59450Y27199D02*
Y26599D01*
X58838Y26299D01*
Y27499D01*
X59450Y27199D01*
D02*
G37*
G36*
Y21097D02*
Y20497D01*
X58838Y20197D01*
Y21397D01*
X59450Y21097D01*
D02*
G37*
G36*
X32700Y69376D02*
X28700D01*
X29700Y71388D01*
X31700D01*
X32700Y69376D01*
D02*
G37*
G36*
X44056Y53256D02*
X43366Y53617D01*
X43092Y53483D01*
Y53761D01*
X43049Y53783D01*
Y54383D01*
X43092Y54406D01*
Y54683D01*
X43366Y54549D01*
X44056Y54910D01*
Y53256D01*
D02*
G37*
G36*
X44693Y44528D02*
X44081Y44828D01*
Y45428D01*
X44693Y45728D01*
Y44528D01*
D02*
G37*
G36*
X43279Y45428D02*
Y44828D01*
X42272Y44301D01*
Y45955D01*
X43279Y45428D01*
D02*
G37*
G36*
X130335Y30060D02*
X129265Y30264D01*
X127955Y30211D01*
X128240Y32371D01*
X129265Y32336D01*
X130335Y32540D01*
Y30060D01*
D02*
G37*
G36*
X22862Y45238D02*
X22438Y44814D01*
X19350Y45403D01*
X22273Y48326D01*
X22862Y45238D01*
D02*
G37*
G36*
Y37364D02*
X22438Y36940D01*
X19350Y37529D01*
X22273Y40452D01*
X22862Y37364D01*
D02*
G37*
G36*
X38600Y35521D02*
X37600D01*
X37273Y36457D01*
X38927D01*
X38600Y35521D01*
D02*
G37*
G36*
X30798Y33779D02*
X30198Y34080D01*
Y34679D01*
X30798Y34980D01*
Y33779D01*
D02*
G37*
G36*
X40798Y29792D02*
X39951Y30139D01*
Y31139D01*
X40798Y31486D01*
Y29792D01*
D02*
G37*
G36*
X30798Y26299D02*
X30198Y26599D01*
Y27199D01*
X30798Y27499D01*
Y26299D01*
D02*
G37*
G36*
X49162Y33779D02*
X48550Y34080D01*
Y34679D01*
X49162Y34980D01*
Y33779D01*
D02*
G37*
G36*
X46374Y34679D02*
Y34080D01*
X45762Y33779D01*
Y34980D01*
X46374Y34679D01*
D02*
G37*
G36*
X51269Y30783D02*
X50669D01*
X50368Y31395D01*
X51569D01*
X51269Y30783D01*
D02*
G37*
G36*
X51569Y28804D02*
X50368D01*
X50669Y29416D01*
X51269D01*
X51569Y28804D01*
D02*
G37*
G36*
X43586Y25311D02*
X42986D01*
X42686Y25923D01*
X43886D01*
X43586Y25311D01*
D02*
G37*
G36*
X49162Y20197D02*
X48550Y20497D01*
Y21097D01*
X49162Y21397D01*
Y20197D01*
D02*
G37*
G36*
X107088Y-3196D02*
X105890Y-2647D01*
X104848Y-3047D01*
Y591D01*
X105945Y114D01*
X107088Y638D01*
Y-3196D01*
D02*
G37*
%LPC*%
G36*
X228346Y83877D02*
X227058Y83708D01*
X225857Y83210D01*
X224825Y82419D01*
X224034Y81388D01*
X223536Y80186D01*
X223367Y78898D01*
X223536Y77609D01*
X224034Y76408D01*
X224825Y75376D01*
X225857Y74585D01*
X227058Y74088D01*
X228346Y73918D01*
X229635Y74088D01*
X230836Y74585D01*
X231868Y75376D01*
X232659Y76408D01*
X233156Y77609D01*
X233326Y78898D01*
X233156Y80186D01*
X232659Y81388D01*
X231868Y82419D01*
X230836Y83210D01*
X229635Y83708D01*
X228346Y83877D01*
D02*
G37*
G36*
X140813Y67682D02*
X138384D01*
Y65351D01*
X140813D01*
Y67682D01*
D02*
G37*
G36*
X137384D02*
X134955D01*
Y65351D01*
X137384D01*
Y67682D01*
D02*
G37*
G36*
X140813Y64351D02*
X138384D01*
Y62020D01*
X140813D01*
Y64351D01*
D02*
G37*
G36*
X137384D02*
X134955D01*
Y62020D01*
X137384D01*
Y64351D01*
D02*
G37*
G36*
X230137Y56859D02*
X221063D01*
Y55710D01*
X220466Y55412D01*
X215590D01*
X215161Y55326D01*
X214797Y55083D01*
X214797Y55083D01*
X210365Y50651D01*
X209806Y50800D01*
X209778Y50905D01*
X209916Y51600D01*
X209778Y52295D01*
X209384Y52884D01*
X208795Y53278D01*
X208100Y53416D01*
X207405Y53278D01*
X206816Y52884D01*
X206422Y52295D01*
X206284Y51600D01*
X206422Y50905D01*
X206661Y50548D01*
X206660Y50542D01*
X206979Y49631D01*
Y32162D01*
X205853D01*
X206317Y31150D01*
X204900D01*
Y29331D01*
Y26501D01*
X206627D01*
X206828Y26199D01*
X206580Y25699D01*
X201871D01*
Y20838D01*
X201871D01*
X202013Y20494D01*
X199547Y18027D01*
X198962Y18316D01*
Y19529D01*
X198070D01*
X197772Y20126D01*
Y20205D01*
X198062Y20800D01*
X198250D01*
Y21322D01*
X198287Y21412D01*
X198250Y21502D01*
Y21589D01*
X198252Y21623D01*
X198250Y21626D01*
Y27000D01*
X195050D01*
Y21626D01*
X195048Y21623D01*
X195050Y21589D01*
Y21502D01*
X195013Y21412D01*
X195050Y21322D01*
Y20800D01*
X195238D01*
X195528Y20205D01*
Y20126D01*
X195230Y19529D01*
X194101D01*
Y14471D01*
X198962D01*
Y15484D01*
X199558Y15778D01*
X200006D01*
X200006Y15778D01*
X200435Y15864D01*
X200799Y16107D01*
X205193Y20501D01*
X205193Y20501D01*
X205418Y20838D01*
X206929Y20838D01*
X206979Y20358D01*
Y17265D01*
X205099Y15385D01*
X204230Y14966D01*
X204226Y14961D01*
X203805Y14878D01*
X203216Y14484D01*
X202822Y13895D01*
X202684Y13200D01*
X202822Y12505D01*
X202887Y12408D01*
X202620Y11908D01*
X191550D01*
X190954Y12203D01*
Y12469D01*
X186013D01*
X186013Y8966D01*
X186013Y8604D01*
Y5784D01*
X186013Y5659D01*
Y5284D01*
X186013Y5159D01*
X186013Y1978D01*
X186013Y1616D01*
Y-1526D01*
X190954D01*
Y-1116D01*
X191550Y-822D01*
X192602D01*
X193343Y-1120D01*
X193348Y-1127D01*
X193937Y-1520D01*
X194632Y-1659D01*
X195327Y-1520D01*
X195916Y-1127D01*
X196309Y-538D01*
X196448Y157D01*
X196309Y852D01*
X195916Y1441D01*
X195327Y1835D01*
X194632Y1973D01*
X193937Y1835D01*
X193736Y1701D01*
X193713Y1704D01*
X192751Y1424D01*
X192748Y1422D01*
X191540D01*
X191021Y1643D01*
X190969Y2004D01*
X191000Y2320D01*
X191546Y2578D01*
X209367D01*
X209367Y2578D01*
X209797Y2664D01*
X210161Y2907D01*
X214802Y7548D01*
X215537Y7863D01*
X216231Y8002D01*
X216821Y8395D01*
X217214Y8984D01*
X217353Y9679D01*
X217214Y10374D01*
X216821Y10963D01*
X216231Y11357D01*
X215536Y11495D01*
X214842Y11357D01*
X214252Y10963D01*
X213859Y10374D01*
X213810Y10127D01*
X213791Y10113D01*
X213312Y9233D01*
X213312Y9230D01*
X209906Y5824D01*
X209865Y5801D01*
X209486Y6112D01*
X209552Y6210D01*
X209778Y6548D01*
X209861Y6969D01*
X209866Y6973D01*
X210285Y7842D01*
X217094Y14651D01*
X217094Y14651D01*
X217337Y15015D01*
X217423Y15444D01*
Y21035D01*
X219557Y23168D01*
X220466D01*
X221063Y22870D01*
Y21722D01*
X230137D01*
Y26859D01*
X221063D01*
Y25710D01*
X220466Y25412D01*
X219092D01*
X219092Y25412D01*
X218663Y25326D01*
X218299Y25083D01*
X218299Y25083D01*
X215508Y22292D01*
X215265Y21928D01*
X215179Y21499D01*
X215179Y21499D01*
Y15909D01*
X208699Y9428D01*
X207830Y9009D01*
X207826Y9005D01*
X207405Y8921D01*
X207049Y8683D01*
X207042Y8683D01*
X206131Y8365D01*
X191546D01*
X191000Y8623D01*
X190954Y9104D01*
X190954Y9370D01*
X191550Y9665D01*
X207401D01*
X207401Y9665D01*
X207830Y9750D01*
X208194Y9994D01*
X213593Y15393D01*
X213593Y15393D01*
X213836Y15757D01*
X213921Y16186D01*
Y29557D01*
X214422Y29825D01*
X214713Y29630D01*
X215408Y29492D01*
X216103Y29630D01*
X216692Y30024D01*
X217086Y30613D01*
X217169Y31033D01*
X217174Y31038D01*
X217593Y31907D01*
X218855Y33169D01*
X220466D01*
X221063Y32870D01*
Y31722D01*
X230137D01*
Y36859D01*
X221063D01*
Y35710D01*
X220466Y35412D01*
X218390D01*
X217961Y35326D01*
X217597Y35083D01*
X217597Y35083D01*
X216007Y33493D01*
X215138Y33074D01*
X215133Y33069D01*
X214713Y32986D01*
X214422Y32791D01*
X213921Y33058D01*
Y40933D01*
X216157Y43169D01*
X220466D01*
X221063Y42870D01*
Y41722D01*
X230137D01*
Y46859D01*
X221063D01*
Y45710D01*
X220466Y45412D01*
X215693D01*
X215693Y45412D01*
X215264Y45326D01*
X214900Y45083D01*
X214900Y45083D01*
X212021Y42205D01*
X211959Y42208D01*
X211522Y42364D01*
Y48635D01*
X216055Y53168D01*
X220466D01*
X221063Y52870D01*
Y51722D01*
X230137D01*
Y56859D01*
D02*
G37*
G36*
X202394Y46029D02*
X200063D01*
Y43600D01*
X202394D01*
Y46029D01*
D02*
G37*
G36*
X199063D02*
X196732D01*
Y43600D01*
X199063D01*
Y46029D01*
D02*
G37*
G36*
X202394Y42600D02*
X200063D01*
Y41183D01*
X200663D01*
X200271Y40171D01*
X202394D01*
Y42600D01*
D02*
G37*
G36*
X199063D02*
X196732D01*
Y40171D01*
X197923D01*
X197744Y41183D01*
X199063D01*
Y42600D01*
D02*
G37*
G36*
X163477Y38574D02*
X160631D01*
Y36850D01*
X165601D01*
X165532Y37201D01*
X165050Y37922D01*
X164328Y38405D01*
X163477Y38574D01*
D02*
G37*
G36*
X159631D02*
X156784D01*
X155933Y38405D01*
X155212Y37922D01*
X154730Y37201D01*
X154660Y36850D01*
X159631D01*
Y38574D01*
D02*
G37*
G36*
X182529Y39156D02*
X180100D01*
Y36825D01*
X182529D01*
Y39156D01*
D02*
G37*
G36*
X179100D02*
X176671D01*
Y36825D01*
X179100D01*
Y39156D01*
D02*
G37*
G36*
Y35825D02*
X176671D01*
Y33494D01*
X178211D01*
X177702Y34518D01*
X179100Y34514D01*
Y35825D01*
D02*
G37*
G36*
X165601Y35850D02*
X160631D01*
Y34126D01*
X163477D01*
X164328Y34295D01*
X165050Y34778D01*
X165532Y35499D01*
X165601Y35850D01*
D02*
G37*
G36*
X159631D02*
X154660D01*
X154730Y35499D01*
X155212Y34778D01*
X155933Y34295D01*
X156784Y34126D01*
X159631D01*
Y35850D01*
D02*
G37*
G36*
X182529Y35825D02*
X180100D01*
Y34511D01*
X181517Y34506D01*
X181105Y33494D01*
X182529D01*
Y35825D01*
D02*
G37*
G36*
X202947Y32162D02*
X201471D01*
Y29831D01*
X203900D01*
Y31150D01*
X202483D01*
X202947Y32162D01*
D02*
G37*
G36*
X153000Y33918D02*
X152075Y33734D01*
X151290Y33210D01*
X150766Y32425D01*
X150582Y31500D01*
X150766Y30575D01*
X151290Y29790D01*
X152075Y29266D01*
X153000Y29082D01*
X153925Y29266D01*
X154312Y29524D01*
X155091Y29644D01*
X156440Y29563D01*
X156460Y29570D01*
X156479Y29561D01*
X156533Y29584D01*
X156784Y29534D01*
X163477D01*
X164172Y29672D01*
X164761Y30066D01*
X165155Y30655D01*
X165293Y31350D01*
X165155Y32045D01*
X164761Y32634D01*
X164172Y33028D01*
X163477Y33166D01*
X156784D01*
X156533Y33116D01*
X156479Y33138D01*
X156460Y33130D01*
X156440Y33137D01*
X155361Y33072D01*
X154693Y33221D01*
X153925Y33734D01*
X153000Y33918D01*
D02*
G37*
G36*
X182635Y31262D02*
X181157D01*
X181623Y30250D01*
X180206D01*
Y28931D01*
X182635D01*
Y31262D01*
D02*
G37*
G36*
X178251D02*
X176776D01*
Y28931D01*
X179206D01*
Y30250D01*
X177788D01*
X178251Y31262D01*
D02*
G37*
G36*
X203900Y28831D02*
X201471D01*
Y26501D01*
X203900D01*
Y28831D01*
D02*
G37*
G36*
X182635Y27931D02*
X180206D01*
Y25601D01*
X182635D01*
Y27931D01*
D02*
G37*
G36*
X179206D02*
X176776D01*
Y25601D01*
X179206D01*
Y27931D01*
D02*
G37*
G36*
X163477Y28166D02*
X156784D01*
X156089Y28028D01*
X155500Y27634D01*
X155106Y27045D01*
X154968Y26350D01*
X155106Y25655D01*
X155500Y25066D01*
X156089Y24672D01*
X156784Y24534D01*
X163477D01*
X164172Y24672D01*
X164281Y24745D01*
X164295Y24744D01*
X165725Y25228D01*
X166836D01*
X169093Y22972D01*
X168886Y22471D01*
X165725D01*
X164295Y22956D01*
X164281Y22955D01*
X164172Y23028D01*
X163477Y23166D01*
X156784D01*
X156089Y23028D01*
X155500Y22634D01*
X155106Y22045D01*
X154968Y21350D01*
X155106Y20655D01*
X155500Y20066D01*
X156089Y19672D01*
X156784Y19534D01*
X163477D01*
X164172Y19672D01*
X164281Y19745D01*
X164295Y19744D01*
X165725Y20228D01*
X168739D01*
X171042Y17925D01*
X170796Y17464D01*
X170759Y17471D01*
X170759Y17471D01*
X165725D01*
X164295Y17956D01*
X164281Y17955D01*
X164172Y18028D01*
X163477Y18166D01*
X156784D01*
X156089Y18028D01*
X155500Y17634D01*
X155106Y17045D01*
X154968Y16350D01*
X155106Y15655D01*
X155500Y15066D01*
X156089Y14672D01*
X156784Y14534D01*
X163477D01*
X164172Y14672D01*
X164281Y14745D01*
X164295Y14744D01*
X165725Y15228D01*
X170294D01*
X173897Y11626D01*
X173874Y11513D01*
X173332Y11349D01*
X172538Y12143D01*
X172174Y12386D01*
X171744Y12472D01*
X171744Y12472D01*
X165725D01*
X164295Y12956D01*
X164281Y12955D01*
X164172Y13028D01*
X163477Y13166D01*
X156784D01*
X156089Y13028D01*
X155500Y12634D01*
X155106Y12045D01*
X154968Y11350D01*
X155106Y10655D01*
X155500Y10066D01*
X156089Y9672D01*
X156784Y9534D01*
X163477D01*
X164172Y9672D01*
X164281Y9745D01*
X164295Y9744D01*
X165725Y10228D01*
X165966D01*
X166444Y10176D01*
Y8354D01*
X167468Y8452D01*
Y7845D01*
X169373D01*
Y7345D01*
X169873D01*
Y4515D01*
X172302D01*
X172546Y4115D01*
Y2536D01*
X172546Y2536D01*
X172631Y2107D01*
X172874Y1743D01*
X175254Y-636D01*
X175254Y-636D01*
X175618Y-879D01*
X176047Y-965D01*
X178133D01*
X178730Y-1263D01*
Y-1526D01*
X183670D01*
Y1839D01*
X183670Y1839D01*
Y2116D01*
X183670D01*
X183670Y2339D01*
Y5284D01*
X183670D01*
Y5659D01*
X183670D01*
Y8604D01*
X183670Y8828D01*
X183670D01*
Y9104D01*
X183670D01*
Y12469D01*
X182354D01*
X182342Y12549D01*
X182282Y12647D01*
X182236Y12879D01*
X181993Y13243D01*
X181993Y13243D01*
X168093Y27143D01*
X167729Y27386D01*
X167300Y27472D01*
X167300Y27472D01*
X165725D01*
X164295Y27956D01*
X164281Y27955D01*
X164172Y28028D01*
X163477Y28166D01*
D02*
G37*
G36*
X171400Y32513D02*
X170475Y32328D01*
X169690Y31804D01*
X169166Y31020D01*
X168982Y30094D01*
X169166Y29169D01*
X169690Y28385D01*
X169769Y28332D01*
Y27500D01*
X169893Y26876D01*
X170247Y26346D01*
X175378Y21215D01*
X175907Y20861D01*
X176338Y20776D01*
X176403Y20732D01*
X177176Y20575D01*
Y19938D01*
X177552D01*
X178105Y18594D01*
X178128Y18571D01*
X178198Y18217D01*
X178552Y17688D01*
X180393Y15846D01*
X180922Y15493D01*
X181547Y15369D01*
X186469D01*
X188038Y14649D01*
Y14471D01*
X188559D01*
X188650Y14433D01*
X188740Y14471D01*
X192899D01*
Y19529D01*
X192100D01*
Y19778D01*
X191976Y20402D01*
X191622Y20931D01*
X190750Y21803D01*
Y27000D01*
X187550D01*
Y21300D01*
X187550Y21254D01*
X187519Y21096D01*
X187550Y20800D01*
X187578D01*
X187643Y20472D01*
X187960Y19997D01*
X188031Y19571D01*
X187930Y19302D01*
X186469Y18631D01*
X182222D01*
X181584Y19270D01*
X181859Y19938D01*
X182235D01*
Y24799D01*
X177176D01*
Y24738D01*
X176676Y24531D01*
X173294Y27913D01*
X173110Y28385D01*
X173634Y29169D01*
X173818Y30094D01*
X173634Y31020D01*
X173110Y31804D01*
X172325Y32328D01*
X171400Y32513D01*
D02*
G37*
G36*
X163477Y8574D02*
X160631D01*
Y6850D01*
X165601D01*
X165532Y7201D01*
X165050Y7923D01*
X164328Y8405D01*
X163477Y8574D01*
D02*
G37*
G36*
X159631D02*
X156784D01*
X155933Y8405D01*
X155212Y7923D01*
X154730Y7201D01*
X154660Y6850D01*
X159631D01*
Y8574D01*
D02*
G37*
G36*
X168873Y6845D02*
X167468D01*
Y6239D01*
X166444Y6336D01*
Y4515D01*
X168873D01*
Y6845D01*
D02*
G37*
G36*
X228346Y14665D02*
X227058Y14495D01*
X225857Y13997D01*
X224825Y13206D01*
X224034Y12175D01*
X223536Y10974D01*
X223367Y9685D01*
X223536Y8396D01*
X224034Y7195D01*
X224825Y6164D01*
X225857Y5373D01*
X227058Y4875D01*
X228346Y4705D01*
X229635Y4875D01*
X230836Y5373D01*
X231868Y6164D01*
X232659Y7195D01*
X233156Y8396D01*
X233326Y9685D01*
X233156Y10974D01*
X232659Y12175D01*
X231868Y13206D01*
X230836Y13997D01*
X229635Y14495D01*
X228346Y14665D01*
D02*
G37*
G36*
X165601Y5850D02*
X160631D01*
Y4126D01*
X163477D01*
X164328Y4295D01*
X165050Y4778D01*
X165532Y5499D01*
X165601Y5850D01*
D02*
G37*
G36*
X159631D02*
X154660D01*
X154730Y5499D01*
X155212Y4778D01*
X155933Y4295D01*
X156784Y4126D01*
X159631D01*
Y5850D01*
D02*
G37*
G36*
X153200Y3818D02*
X152275Y3634D01*
X151490Y3110D01*
X150966Y2325D01*
X150782Y1400D01*
X150966Y475D01*
X151490Y-310D01*
X152275Y-834D01*
X153200Y-1018D01*
X154125Y-834D01*
X154625Y-500D01*
X155345Y-372D01*
X156440Y-437D01*
X156460Y-430D01*
X156479Y-439D01*
X156533Y-416D01*
X156784Y-466D01*
X163477D01*
X163728Y-416D01*
X163782Y-439D01*
X163802Y-430D01*
X163821Y-437D01*
X165414Y-342D01*
X166844Y-975D01*
Y-1148D01*
X167366D01*
X167456Y-1186D01*
X167546Y-1148D01*
X171902D01*
Y3713D01*
X167546D01*
X167456Y3751D01*
X167366Y3713D01*
X166844D01*
Y3565D01*
X165445Y3040D01*
X163821Y3137D01*
X163802Y3131D01*
X163782Y3138D01*
X163728Y3116D01*
X163477Y3166D01*
X156784D01*
X156533Y3116D01*
X156479Y3138D01*
X156460Y3131D01*
X156440Y3137D01*
X155438Y3077D01*
X154752Y3216D01*
X154125Y3634D01*
X153200Y3818D01*
D02*
G37*
%LPD*%
G36*
X221675Y53290D02*
X220675Y53790D01*
Y54790D01*
X221675Y55290D01*
Y53290D01*
D02*
G37*
G36*
X208600Y49821D02*
X207600D01*
X207273Y50757D01*
X208927D01*
X208600Y49821D01*
D02*
G37*
G36*
X221675Y43290D02*
X220675Y43790D01*
Y44790D01*
X221675Y45290D01*
Y43290D01*
D02*
G37*
G36*
Y33290D02*
X220675Y33790D01*
Y34790D01*
X221675Y35290D01*
Y33290D01*
D02*
G37*
G36*
X217019Y32212D02*
X216589Y31320D01*
X215420Y32489D01*
X216312Y32919D01*
X217019Y32212D01*
D02*
G37*
G36*
X221675Y23290D02*
X220675Y23790D01*
Y24790D01*
X221675Y25290D01*
Y23290D01*
D02*
G37*
G36*
X197150Y20412D02*
X196150D01*
X195662Y21412D01*
X197638D01*
X197150Y20412D01*
D02*
G37*
G36*
X197650Y18917D02*
X195650D01*
X196150Y19917D01*
X197150D01*
X197650Y18917D01*
D02*
G37*
G36*
X211227Y18643D02*
X209573D01*
X209900Y19579D01*
X210900D01*
X211227Y18643D01*
D02*
G37*
G36*
X199350Y17400D02*
Y16400D01*
X198338Y15900D01*
Y17900D01*
X199350Y17400D01*
D02*
G37*
G36*
X206111Y14104D02*
X205681Y13212D01*
X204512Y14381D01*
X205404Y14811D01*
X206111Y14104D01*
D02*
G37*
G36*
X191341Y11287D02*
Y10287D01*
X190330Y9787D01*
Y11787D01*
X191341Y11287D01*
D02*
G37*
G36*
X215391Y8507D02*
X214500Y8125D01*
X213882Y8922D01*
X214362Y9802D01*
X215391Y8507D01*
D02*
G37*
G36*
X209711Y8147D02*
X209281Y7255D01*
X208112Y8424D01*
X209004Y8855D01*
X209711Y8147D01*
D02*
G37*
G36*
X207257Y6417D02*
X206321Y6743D01*
Y7743D01*
X207257Y8070D01*
Y6417D01*
D02*
G37*
G36*
X191341Y7743D02*
Y6743D01*
X190341Y6271D01*
Y8216D01*
X191341Y7743D01*
D02*
G37*
G36*
Y4200D02*
Y3200D01*
X190341Y2728D01*
Y4672D01*
X191341Y4200D01*
D02*
G37*
G36*
X193694Y-562D02*
X192797Y-200D01*
X192932Y800D01*
X193894Y1080D01*
X193694Y-562D01*
D02*
G37*
G36*
X191341Y800D02*
Y-200D01*
X190330Y-700D01*
X190341Y1227D01*
X191341Y800D01*
D02*
G37*
G36*
X155309Y32419D02*
X156479Y32489D01*
Y30211D01*
X155061Y30296D01*
X154156Y30157D01*
X154172Y30350D01*
X154167Y30350D01*
Y32350D01*
X154343Y32361D01*
X154366Y32629D01*
X155309Y32419D01*
D02*
G37*
G36*
X165535Y26850D02*
Y25850D01*
X164087Y25359D01*
Y27340D01*
X165535Y26850D01*
D02*
G37*
G36*
Y21850D02*
Y20850D01*
X164087Y20359D01*
Y22341D01*
X165535Y21850D01*
D02*
G37*
G36*
Y16850D02*
Y15850D01*
X164087Y15360D01*
Y17341D01*
X165535Y16850D01*
D02*
G37*
G36*
X181793Y11845D02*
X180607D01*
X180700Y12450D01*
X181700D01*
X181793Y11845D01*
D02*
G37*
G36*
X165535Y11850D02*
Y10850D01*
X164087Y10360D01*
Y12341D01*
X165535Y11850D01*
D02*
G37*
G36*
X179342Y6271D02*
X178342Y6743D01*
Y7743D01*
X179342Y8216D01*
Y6271D01*
D02*
G37*
G36*
Y2728D02*
X178342Y3200D01*
Y4200D01*
X179342Y4672D01*
Y2728D01*
D02*
G37*
G36*
Y-843D02*
X178342Y-343D01*
Y657D01*
X179342Y1157D01*
Y-843D01*
D02*
G37*
G36*
X177800Y21112D02*
X176532Y21369D01*
Y23369D01*
X177800Y23625D01*
Y21112D01*
D02*
G37*
G36*
X180705Y18841D02*
X178706D01*
X177997Y20562D01*
X181414D01*
X180705Y18841D01*
D02*
G37*
G36*
X188650Y15083D02*
X186650Y16000D01*
Y18000D01*
X188650Y18917D01*
Y15083D01*
D02*
G37*
G36*
X167456Y-536D02*
X165532Y316D01*
X163782Y211D01*
Y2489D01*
X165544Y2383D01*
X167456Y3101D01*
Y-536D01*
D02*
G37*
G36*
X155393Y2424D02*
X156479Y2489D01*
Y211D01*
X155307Y282D01*
X154430Y125D01*
X154436Y334D01*
X154167Y350D01*
Y2350D01*
X154493Y2370D01*
X154500Y2604D01*
X155393Y2424D01*
D02*
G37*
D15*
X179600Y42388D02*
X180312Y43100D01*
X188674D02*
X193500D01*
X180312D02*
X188674D01*
X150890Y42400D02*
X178534D01*
X145300Y47990D02*
X150890Y42400D01*
X145300Y47990D02*
Y53000D01*
X143672D02*
X145300D01*
X143014Y53658D02*
X143672Y53000D01*
X93655Y77600D02*
X114700D01*
X87355Y83900D02*
X93655Y77600D01*
X36700Y83900D02*
X87355D01*
D17*
X195339Y29627D02*
X196650Y30939D01*
X190306Y29627D02*
X195339D01*
X189150Y30784D02*
X190306Y29627D01*
X196650Y30939D02*
Y33900D01*
X189150Y30784D02*
Y33900D01*
X66956Y21517D02*
X69448D01*
X57214Y11775D02*
X66956Y21517D01*
X41658Y11775D02*
X57214D01*
X66803Y25400D02*
X78020Y36617D01*
Y51716D01*
X76820Y37267D02*
Y52213D01*
X75620Y37764D02*
Y52710D01*
X68356Y30500D02*
X75620Y37764D01*
X69448Y21517D02*
X75055Y27123D01*
X81123D01*
X83537Y29537D01*
X78565Y25481D02*
X89851D01*
X77123Y24039D02*
X78565Y25481D01*
X75218Y24039D02*
X77123D01*
X67974Y52600D02*
X72757D01*
X39920Y5900D02*
Y10037D01*
X41658Y11775D01*
X67930Y4893D02*
X74842D01*
X77585Y7636D01*
Y21177D01*
X79723Y23315D01*
X84800Y21178D02*
X92641D01*
X83728Y20107D02*
X84800Y21178D01*
X81094Y20107D02*
X83728D01*
X86679Y9174D02*
Y19027D01*
X77399Y-107D02*
X86679Y9174D01*
X67930Y-107D02*
X77399D01*
X92641Y21178D02*
X94702Y19117D01*
X83187Y23300D02*
X98418D01*
X83146Y23259D02*
X83187Y23300D01*
X98418D02*
X102000Y19718D01*
X89851Y25481D02*
X90614Y24719D01*
X106662D01*
X94702Y9893D02*
X100500D01*
X102000Y11393D01*
Y19718D01*
X94702Y14893D02*
Y19117D01*
X64551Y25400D02*
X66803D01*
X66452Y26899D02*
X76820Y37267D01*
X57032Y26899D02*
X66452D01*
X63300Y30500D02*
X68356D01*
X60500Y33300D02*
X63300Y30500D01*
X57032Y33300D02*
X60500D01*
X114850Y11350D02*
X124304D01*
X110200Y16000D02*
X114850Y11350D01*
X75620Y52710D02*
X82384Y59474D01*
X76820Y52213D02*
X81307Y56700D01*
X78020Y51716D02*
X81604Y55300D01*
X24517Y30257D02*
Y35285D01*
X19320Y40482D02*
X24517Y35285D01*
Y30257D02*
X27875Y26899D01*
X27615Y35784D02*
Y40061D01*
X19320Y48356D02*
X27615Y40061D01*
X38493Y28260D02*
Y28944D01*
X36798Y30639D02*
X38493Y28944D01*
X33286Y30639D02*
X36798D01*
X82384Y59474D02*
X85274D01*
X81307Y56700D02*
X93937D01*
X81604Y55300D02*
X95600D01*
X119625Y82551D02*
X122374Y85300D01*
X93675Y82551D02*
X119625D01*
X93002Y83225D02*
X93675Y82551D01*
X39920Y5900D02*
X40126Y5694D01*
X34200Y5900D02*
X39920D01*
X122374Y85300D02*
Y89430D01*
X94000Y44706D02*
X94063Y44769D01*
X53354Y66000D02*
X56353Y63000D01*
X58600D01*
X45300Y66000D02*
X53354D01*
X44668Y66632D02*
X45300Y66000D01*
X44668Y66632D02*
Y69400D01*
X83905Y77900D02*
X85505Y76300D01*
X55500Y77900D02*
X83905D01*
X50731Y73132D02*
X55500Y77900D01*
X50731Y69400D02*
Y73132D01*
X41428Y45128D02*
X46500D01*
X41286Y54083D02*
X44900D01*
X72856Y62387D02*
X75800Y59443D01*
X72832Y62387D02*
X72856D01*
X71500Y63719D02*
X72832Y62387D01*
X71500Y63719D02*
Y67800D01*
X64500Y64700D02*
Y75500D01*
Y64700D02*
X72757Y56443D01*
Y52600D02*
Y56443D01*
X69050Y70250D02*
X71500Y67800D01*
X69050Y70250D02*
Y70281D01*
X66800Y68200D02*
X66864D01*
X67200Y68537D01*
X70100Y65636D01*
Y62200D02*
Y65636D01*
Y62200D02*
X73300Y59000D01*
X75800Y56300D02*
Y59443D01*
X85274Y59474D02*
X87474Y61674D01*
X106662Y24719D02*
X106724Y24781D01*
X59948Y20797D02*
X64551Y25400D01*
X57032Y20797D02*
X59948D01*
X111300Y19500D02*
X115520D01*
X118393Y26350D02*
X124304D01*
X106724Y24781D02*
X116824D01*
X118393Y26350D01*
X106300Y26900D02*
X116000D01*
X106000Y26600D02*
X106300Y26900D01*
X115700Y22700D02*
X117050Y21350D01*
X124304D01*
X105800Y26800D02*
X106000Y26600D01*
X113600Y16350D02*
X124304D01*
X93937Y56700D02*
X95800Y58563D01*
X50968Y33300D02*
X50968Y33300D01*
Y26899D02*
Y33300D01*
X45803Y20797D02*
X50968D01*
X43286Y23314D02*
X45803Y20797D01*
X43286Y23314D02*
Y26899D01*
X49889Y34380D02*
X50968Y33300D01*
X43286Y34380D02*
X49889D01*
X27615Y35784D02*
X29020Y34380D01*
X33286D01*
X27875Y26899D02*
X33286D01*
D21*
X181200Y10787D02*
Y12450D01*
X167300Y26350D02*
X181200Y12450D01*
X160131Y26350D02*
X167300D01*
X176899Y8670D02*
Y13654D01*
X169203Y21350D02*
X176899Y13654D01*
X160131Y21350D02*
X169203D01*
X175267Y5747D02*
Y11842D01*
X170759Y16350D02*
X175267Y11842D01*
X160131Y16350D02*
X170759D01*
X173667Y2536D02*
Y9427D01*
X171744Y11350D02*
X173667Y9427D01*
X160131Y11350D02*
X171744D01*
X219092Y24290D02*
X225600D01*
X216301Y21499D02*
X219092Y24290D01*
X216301Y15444D02*
Y21499D01*
X208100Y7243D02*
X216301Y15444D01*
X209367Y3700D02*
X215442Y9774D01*
X215536Y9679D01*
X188484Y3700D02*
X209367D01*
X188627Y300D02*
X194632D01*
X188484Y7243D02*
X208100D01*
X188484Y157D02*
X188627Y300D01*
X176899Y8670D02*
X178326Y7243D01*
X175267Y5747D02*
X177314Y3700D01*
X173667Y2536D02*
X176047Y157D01*
X178326Y7243D02*
X181200D01*
X177314Y3700D02*
X181200D01*
X176047Y157D02*
X181200D01*
X215408Y31308D02*
X218390Y34290D01*
X212800Y16186D02*
Y41397D01*
X207401Y10787D02*
X212800Y16186D01*
X188484Y10787D02*
X207401D01*
X204500Y13200D02*
X208100Y16800D01*
Y51600D01*
X215590Y54290D02*
X225600D01*
X210400Y49100D02*
X215590Y54290D01*
X210400Y17800D02*
Y49100D01*
X196531Y16900D02*
X200006D01*
X195731Y17000D02*
X196650Y17919D01*
Y23900D01*
X195731Y17000D02*
X196531D01*
X188674Y43100D02*
X189150Y42624D01*
X212800Y41397D02*
X215693Y44290D01*
X200006Y16900D02*
X204400Y21294D01*
Y23268D01*
X215693Y44290D02*
X225600D01*
X60500Y9893D02*
X67930D01*
X39951Y30639D02*
X43286D01*
X38100Y32490D02*
X39951Y30639D01*
X38100Y32490D02*
Y37300D01*
X218390Y34290D02*
X225600D01*
D22*
X91721Y29579D02*
X93500Y27800D01*
X91721Y29579D02*
Y38701D01*
X85505Y38635D02*
X85571Y38701D01*
X91721D01*
D29*
X108906Y-1279D02*
D03*
X114969D02*
D03*
X196531Y17000D02*
D03*
X190469D02*
D03*
X46189Y5694D02*
D03*
X40126D02*
D03*
X199563Y43100D02*
D03*
X193500D02*
D03*
X50968Y20797D02*
D03*
X57032D02*
D03*
X57032Y33300D02*
D03*
X50968D02*
D03*
X50968Y26899D02*
D03*
X57032D02*
D03*
X41286Y54083D02*
D03*
X35223D02*
D03*
X50731Y69400D02*
D03*
X44668D02*
D03*
X44668Y62500D02*
D03*
X50731D02*
D03*
X67974Y52600D02*
D03*
X61911D02*
D03*
X46500Y45128D02*
D03*
X52563D02*
D03*
X66706Y43615D02*
D03*
X72769D02*
D03*
D31*
X225600Y64290D02*
D03*
Y54290D02*
D03*
Y44290D02*
D03*
Y34290D02*
D03*
Y24290D02*
D03*
D37*
X131100Y81968D02*
D03*
Y88032D02*
D03*
X169373Y1282D02*
D03*
Y7345D02*
D03*
X204400Y29331D02*
D03*
Y23268D02*
D03*
X179600Y42388D02*
D03*
Y36325D02*
D03*
X138300Y81874D02*
D03*
Y87937D02*
D03*
X137884Y58788D02*
D03*
Y64851D02*
D03*
X179706Y22368D02*
D03*
Y28431D02*
D03*
X102931Y4835D02*
D03*
Y-1228D02*
D03*
X58600Y63000D02*
D03*
Y69063D02*
D03*
X78757Y67731D02*
D03*
Y61668D02*
D03*
X99700Y70631D02*
D03*
Y64569D02*
D03*
X91721Y38701D02*
D03*
Y44764D02*
D03*
X85505Y38635D02*
D03*
Y44698D02*
D03*
D38*
X43286Y34380D02*
D03*
Y26899D02*
D03*
X33286Y30639D02*
D03*
Y34380D02*
D03*
Y26899D02*
D03*
X43286Y30639D02*
D03*
D39*
X181200Y157D02*
D03*
Y10787D02*
D03*
X188484Y157D02*
D03*
Y10787D02*
D03*
D40*
X181200Y3700D02*
D03*
Y7243D02*
D03*
X188484Y3700D02*
D03*
Y7243D02*
D03*
D42*
X160131Y36350D02*
D03*
Y31350D02*
D03*
Y26350D02*
D03*
Y21350D02*
D03*
Y16350D02*
D03*
Y11350D02*
D03*
Y6350D02*
D03*
Y1350D02*
D03*
X124304Y36350D02*
D03*
Y31350D02*
D03*
Y26350D02*
D03*
Y21350D02*
D03*
Y16350D02*
D03*
Y11350D02*
D03*
Y6350D02*
D03*
Y1350D02*
D03*
D70*
X166349Y7345D02*
X169373D01*
X165354Y6350D02*
X166349Y7345D01*
X160131Y6350D02*
X165354D01*
X160131Y1350D02*
X169373D01*
X189150Y21096D02*
X190469Y19778D01*
Y17000D02*
Y19778D01*
X131100Y77800D02*
Y81968D01*
X138300Y77400D02*
Y81874D01*
X211824Y64290D02*
X225600D01*
X193500Y45967D02*
X211824Y64290D01*
X193500Y43100D02*
Y45967D01*
X171400Y27500D02*
X176532Y22368D01*
X179706D01*
X199031Y43100D02*
X202300D01*
X204400Y41000D01*
Y29331D02*
Y41000D01*
X181547Y17000D02*
X190469D01*
X179706Y18841D02*
X181547Y17000D01*
X179706Y18841D02*
Y22368D01*
X199031Y39552D02*
Y43100D01*
X198480Y39000D02*
X199031Y39552D01*
X194000Y39000D02*
X198480D01*
X192850Y37850D02*
X194000Y39000D01*
X192850Y33900D02*
Y37850D01*
X189150Y33900D02*
Y42624D01*
X179702Y28435D02*
Y35168D01*
X171400Y27500D02*
Y30094D01*
X179702Y28435D02*
X179706Y28431D01*
X63046Y14893D02*
X67930D01*
X60500Y12347D02*
X63046Y14893D01*
X60500Y9893D02*
Y12347D01*
X110500Y69000D02*
X110600Y68900D01*
X84800Y45007D02*
X99509D01*
X115035Y-1083D02*
X115100Y-1148D01*
X72900Y38185D02*
Y48774D01*
X68217Y15346D02*
X68300Y15263D01*
X60500Y-2500D02*
Y9893D01*
Y-2500D02*
X62000Y-4000D01*
X68815Y34100D02*
X72900Y38185D01*
X63500Y34100D02*
X68815D01*
X83975Y45300D02*
X84800Y44475D01*
X95220Y42097D02*
Y44934D01*
X80963Y51270D02*
X81163Y51070D01*
X81100Y45100D02*
X83775D01*
X83975Y45300D01*
X110500Y69000D02*
X110800Y69300D01*
X153000Y31500D02*
X153150Y31350D01*
X160131D01*
X124354Y31300D02*
X131600D01*
X124304Y31350D02*
X124354Y31300D01*
X100458Y-1279D02*
X108906D01*
X99286Y-107D02*
X100458Y-1279D01*
X94702Y-107D02*
X99286D01*
X103431Y64569D02*
X106131D01*
X99700D02*
X103431D01*
X103231Y64368D02*
X103431Y64569D01*
X103231Y48729D02*
Y64368D01*
X99509Y45007D02*
X103231Y48729D01*
X68217Y15346D02*
Y18678D01*
X115035Y-1083D02*
Y4835D01*
X153200Y1400D02*
X153250Y1350D01*
X160131D01*
X106200Y64500D02*
X110600Y68900D01*
X38700Y63900D02*
X40100Y62500D01*
X44668D01*
X26500Y82600D02*
X30700Y78400D01*
Y67600D02*
Y78400D01*
X73694Y64468D02*
X76494Y61668D01*
X78757D01*
X84900Y64569D02*
X91400D01*
X78757Y61668D02*
X78888Y61800D01*
X82131D01*
X84900Y64569D01*
X91400D02*
X99700D01*
X73694Y64468D02*
X73795Y64569D01*
X106131D02*
X106200Y64500D01*
X92107Y44475D02*
X92400Y44769D01*
X120550Y1350D02*
X124304D01*
X114969Y-1279D02*
X117921D01*
X120550Y1350D01*
X114969Y-1279D02*
X115100Y-1148D01*
X102931Y4835D02*
X115035D01*
X88993Y4893D02*
X94702D01*
X80100Y-4000D02*
X88993Y4893D01*
X62000Y-4000D02*
X80100D01*
X102873Y4893D02*
X102931Y4835D01*
X94702Y4893D02*
X102873D01*
X67930Y14893D02*
X68300Y15263D01*
D73*
X122374Y90330D02*
D03*
D74*
X112374D02*
D03*
X92374D02*
D03*
X82374D02*
D03*
X72374D02*
D03*
X62374D02*
D03*
X52374D02*
D03*
X42374D02*
D03*
X32374D02*
D03*
X102374D02*
D03*
X11446Y35561D02*
D03*
Y53277D02*
D03*
X19320Y30639D02*
D03*
Y40482D02*
D03*
Y48356D02*
D03*
Y58198D02*
D03*
D75*
X11446Y20797D02*
D03*
Y68041D02*
D03*
D76*
X228346Y9685D02*
D03*
Y78898D02*
D03*
D77*
X215536Y9679D02*
D03*
X208100Y7243D02*
D03*
X194632Y157D02*
D03*
X215408Y31308D02*
D03*
X31900Y-4240D02*
D03*
X92200Y-4440D02*
D03*
X35900Y10886D02*
D03*
X135800Y77432D02*
D03*
X193000Y24700D02*
D03*
X199300Y29778D02*
D03*
X204600Y35000D02*
D03*
X205100Y46800D02*
D03*
X179700Y32100D02*
D03*
X186100Y39211D02*
D03*
X167335Y28955D02*
D03*
X167404Y34290D02*
D03*
X168500Y45703D02*
D03*
X161800D02*
D03*
X154200Y45700D02*
D03*
X204500Y13200D02*
D03*
X208100Y51600D02*
D03*
X210400Y17800D02*
D03*
X201019Y-4242D02*
D03*
X69423Y39211D02*
D03*
X80761Y41372D02*
D03*
X62445Y20107D02*
D03*
X95220Y42097D02*
D03*
X57383Y16500D02*
D03*
X53287Y15257D02*
D03*
X112443Y8784D02*
D03*
X86679Y19027D02*
D03*
X83146Y23259D02*
D03*
X79723Y23315D02*
D03*
X107907Y9017D02*
D03*
X81094Y20107D02*
D03*
X75218Y24039D02*
D03*
X110200Y16000D02*
D03*
X57863Y43403D02*
D03*
X80963Y51270D02*
D03*
X110800Y69300D02*
D03*
X111900Y65200D02*
D03*
X60293Y75200D02*
D03*
X16485Y8358D02*
D03*
X75318Y75168D02*
D03*
X36700Y19638D02*
D03*
X116748Y31532D02*
D03*
X117048Y39876D02*
D03*
X98642Y27878D02*
D03*
X98557Y35207D02*
D03*
X93500Y27800D02*
D03*
X103100Y39548D02*
D03*
X103576Y30200D02*
D03*
X96285Y48309D02*
D03*
X93925Y61550D02*
D03*
X96285Y51851D02*
D03*
X89919Y59197D02*
D03*
X104875Y72505D02*
D03*
X89346Y76583D02*
D03*
X93002Y83225D02*
D03*
X81342Y80300D02*
D03*
X-6098Y91065D02*
D03*
X-6230Y82753D02*
D03*
X-5972Y74563D02*
D03*
X6837Y74727D02*
D03*
X6569Y61026D02*
D03*
X6445Y45207D02*
D03*
X6569Y28405D02*
D03*
X24276Y67458D02*
D03*
X26250Y23535D02*
D03*
X26639Y16733D02*
D03*
X-6185Y-2626D02*
D03*
X4346Y14199D02*
D03*
X-6696Y14500D02*
D03*
X1932Y-3975D02*
D03*
X12000Y-4100D02*
D03*
X22400Y-4200D02*
D03*
X40951Y-4300D02*
D03*
X57201Y-4586D02*
D03*
X85274Y-4440D02*
D03*
X98789D02*
D03*
X120083Y-4178D02*
D03*
X128083Y-4440D02*
D03*
X134710Y35536D02*
D03*
X134600Y-4208D02*
D03*
X134800Y2800D02*
D03*
X134969Y11775D02*
D03*
X134878Y20508D02*
D03*
X135049Y28100D02*
D03*
X107825Y57730D02*
D03*
X122700Y50600D02*
D03*
X117700Y55400D02*
D03*
X117500Y64075D02*
D03*
Y72200D02*
D03*
X127212Y83900D02*
D03*
X128442Y92429D02*
D03*
X136744Y92511D02*
D03*
X144553D02*
D03*
X116500Y85300D02*
D03*
X98885Y85424D02*
D03*
X62164Y80412D02*
D03*
X41345Y77432D02*
D03*
X34399Y62000D02*
D03*
X41500Y49500D02*
D03*
X55017Y59474D02*
D03*
X62567Y59230D02*
D03*
X40324Y59132D02*
D03*
X30000Y57699D02*
D03*
X30245Y49600D02*
D03*
X30165Y41667D02*
D03*
X42573Y39720D02*
D03*
X49406Y39821D02*
D03*
X57800Y39100D02*
D03*
X57790Y48238D02*
D03*
X193600Y58900D02*
D03*
X214017Y59204D02*
D03*
X193799Y51100D02*
D03*
X137400Y52189D02*
D03*
X149200Y5500D02*
D03*
X149360Y15903D02*
D03*
Y25385D02*
D03*
X149600Y37000D02*
D03*
X132100Y56800D02*
D03*
Y61262D02*
D03*
Y66078D02*
D03*
X214227Y71120D02*
D03*
Y80867D02*
D03*
X231686Y91422D02*
D03*
X219683Y92279D02*
D03*
X206107Y91850D02*
D03*
X231939Y71086D02*
D03*
X193800Y67458D02*
D03*
Y75600D02*
D03*
Y84000D02*
D03*
X193700Y91600D02*
D03*
X232659Y59720D02*
D03*
Y29394D02*
D03*
Y39208D02*
D03*
Y49300D02*
D03*
X215351Y49327D02*
D03*
X217175Y39357D02*
D03*
X221400Y17151D02*
D03*
X232382Y18208D02*
D03*
X231868Y449D02*
D03*
X227078Y-4242D02*
D03*
X218392D02*
D03*
X209706D02*
D03*
X192333D02*
D03*
X183647D02*
D03*
X166274D02*
D03*
X157588D02*
D03*
X149742Y-4002D02*
D03*
X174961Y-4242D02*
D03*
X132729Y77500D02*
D03*
X129775Y77609D02*
D03*
X38100Y37300D02*
D03*
X44900Y54083D02*
D03*
X91400Y64569D02*
D03*
X64500Y75500D02*
D03*
X69050Y70281D02*
D03*
X66800Y68200D02*
D03*
X73300Y59000D02*
D03*
X75800Y56300D02*
D03*
X87474Y61674D02*
D03*
X73694Y64468D02*
D03*
X106200Y64500D02*
D03*
X26500Y82600D02*
D03*
X36700Y83900D02*
D03*
X85505Y76300D02*
D03*
X34200Y5900D02*
D03*
X83537Y29537D02*
D03*
X111300Y19500D02*
D03*
X116000Y26900D02*
D03*
X115700Y22700D02*
D03*
X115520Y19500D02*
D03*
X105800Y26800D02*
D03*
X113600Y16350D02*
D03*
X72757Y52600D02*
D03*
X95600Y55300D02*
D03*
X95800Y58563D02*
D03*
X41428Y45128D02*
D03*
D78*
X171400Y30094D02*
D03*
X72900Y48774D02*
D03*
X81100Y45100D02*
D03*
X153000Y31500D02*
D03*
X131600Y31300D02*
D03*
X68217Y18678D02*
D03*
X115035Y4835D02*
D03*
X153200Y1400D02*
D03*
X63500Y34100D02*
D03*
X114700Y77600D02*
D03*
D79*
X145300Y53000D02*
D03*
D80*
X189150Y33900D02*
D03*
X196650D02*
D03*
X192850D02*
D03*
X189150Y23900D02*
D03*
X196650D02*
D03*
D81*
X38700Y71400D02*
D03*
Y63900D02*
D03*
D82*
X30700Y67600D02*
D03*
D83*
X94702Y14893D02*
D03*
Y9893D02*
D03*
Y4893D02*
D03*
Y-107D02*
D03*
X67930Y14893D02*
D03*
Y9893D02*
D03*
Y4893D02*
D03*
Y-107D02*
D03*
D84*
X42800Y69400D02*
X44668D01*
X40800Y71400D02*
X42800Y69400D01*
X38700Y71400D02*
X40800D01*
D85*
X144800Y55713D02*
D03*
D86*
X140850Y58903D02*
D03*
D87*
X134050Y77500D02*
D03*
M02*
