G04*
G04 #@! TF.GenerationSoftware,Altium Limited,Altium Designer,18.1.4 (159)*
G04*
G04 Layer_Color=2752767*
%FSLAX25Y25*%
%MOIN*%
G70*
G01*
G75*
%ADD21C,0.01000*%
%ADD94C,0.00400*%
%ADD95C,0.00200*%
%ADD96C,0.00640*%
%ADD97C,0.00560*%
D21*
X295071Y68128D02*
X735841D01*
X295071Y15628D02*
X735841D01*
X295071Y8128D02*
X735841D01*
Y75628D01*
X295071D02*
X735841D01*
X295071Y8128D02*
Y75628D01*
X682306Y8128D02*
Y75628D01*
X631022Y8128D02*
Y75628D01*
X599790Y8128D02*
Y75628D01*
X557141Y8128D02*
Y75628D01*
X525361Y8128D02*
Y75628D01*
X501122Y8128D02*
Y75628D01*
X439691Y8128D02*
Y75628D01*
X410550Y8128D02*
Y75628D01*
X391025Y8128D02*
Y75628D01*
X343562Y8128D02*
Y75628D01*
X319881Y8128D02*
Y75628D01*
D94*
X301363Y42044D02*
G03*
X301363Y42044I-1667J0D01*
G01*
X299696Y62878D02*
X301363Y66211D01*
X298029D02*
X301363D01*
X298029D02*
X299696Y62878D01*
X298863Y56211D02*
X299696Y55378D01*
X298029Y56211D02*
X298863D01*
X298029D02*
X298863Y57044D01*
X298029Y57878D02*
X298863Y57044D01*
X298029Y57878D02*
X298863D01*
X299696Y58711D01*
X300530Y57878D01*
X301363D01*
X300530Y57044D02*
X301363Y57878D01*
X300530Y57044D02*
X301363Y56211D01*
X300530D02*
X301363D01*
X299696Y55378D02*
X300530Y56211D01*
X298029Y47878D02*
X299696Y48711D01*
X301363Y47878D01*
X300530Y49544D02*
X301363Y47878D01*
X300530Y49544D02*
X301363Y51211D01*
X299696Y50378D02*
X301363Y51211D01*
X298029D02*
X299696Y50378D01*
X298029Y51211D02*
X298863Y49544D01*
X298029Y47878D02*
X298863Y49544D01*
X298029Y26211D02*
X298863D01*
X298029D02*
Y27878D01*
X298863D01*
Y28711D01*
X300530D01*
Y27878D02*
Y28711D01*
Y27878D02*
X301363D01*
Y26211D02*
Y27878D01*
X300530Y26211D02*
X301363D01*
X300530Y25378D02*
Y26211D01*
X298863Y25378D02*
X300530D01*
X298863D02*
Y26211D01*
X298029Y17878D02*
X301363D01*
Y21211D01*
X298029D02*
X301363D01*
X298029Y17878D02*
Y21211D01*
X559391Y64877D02*
Y62878D01*
Y64020D02*
X559534Y64449D01*
X559820Y64734D01*
X560105Y64877D01*
X560534D01*
X560805Y65306D02*
X561091Y65449D01*
X561519Y65877D01*
Y62878D01*
X563147Y65163D02*
Y65306D01*
X563290Y65591D01*
X563433Y65734D01*
X563719Y65877D01*
X564290D01*
X564576Y65734D01*
X564718Y65591D01*
X564861Y65306D01*
Y65020D01*
X564718Y64734D01*
X564433Y64306D01*
X563004Y62878D01*
X565004D01*
X566532Y65877D02*
X566104Y65734D01*
X565818Y65306D01*
X565675Y64592D01*
Y64163D01*
X565818Y63449D01*
X566104Y63020D01*
X566532Y62878D01*
X566818D01*
X567246Y63020D01*
X567532Y63449D01*
X567675Y64163D01*
Y64592D01*
X567532Y65306D01*
X567246Y65734D01*
X566818Y65877D01*
X566532D01*
X568346Y61878D02*
X570632D01*
X571303Y65877D02*
X572874D01*
X572017Y64734D01*
X572445D01*
X572731Y64592D01*
X572874Y64449D01*
X573017Y64020D01*
Y63735D01*
X572874Y63306D01*
X572588Y63020D01*
X572160Y62878D01*
X571731D01*
X571303Y63020D01*
X571160Y63163D01*
X571017Y63449D01*
X574545Y65877D02*
X574116Y65734D01*
X573831Y65306D01*
X573688Y64592D01*
Y64163D01*
X573831Y63449D01*
X574116Y63020D01*
X574545Y62878D01*
X574831D01*
X575259Y63020D01*
X575545Y63449D01*
X575688Y64163D01*
Y64592D01*
X575545Y65306D01*
X575259Y65734D01*
X574831Y65877D01*
X574545D01*
X577216D02*
X576787Y65734D01*
X576502Y65306D01*
X576359Y64592D01*
Y64163D01*
X576502Y63449D01*
X576787Y63020D01*
X577216Y62878D01*
X577501D01*
X577930Y63020D01*
X578216Y63449D01*
X578358Y64163D01*
Y64592D01*
X578216Y65306D01*
X577930Y65734D01*
X577501Y65877D01*
X577216D01*
X579030D02*
Y62878D01*
Y64306D02*
X579458Y64734D01*
X579744Y64877D01*
X580172D01*
X580458Y64734D01*
X580601Y64306D01*
Y62878D01*
X583100Y65877D02*
X581672D01*
X581529Y64592D01*
X581672Y64734D01*
X582100Y64877D01*
X582529D01*
X582957Y64734D01*
X583243Y64449D01*
X583386Y64020D01*
Y63735D01*
X583243Y63306D01*
X582957Y63020D01*
X582529Y62878D01*
X582100D01*
X581672Y63020D01*
X581529Y63163D01*
X581386Y63449D01*
X584200Y65163D02*
Y65306D01*
X584343Y65591D01*
X584486Y65734D01*
X584771Y65877D01*
X585343D01*
X585628Y65734D01*
X585771Y65591D01*
X585914Y65306D01*
Y65020D01*
X585771Y64734D01*
X585486Y64306D01*
X584057Y62878D01*
X586057D01*
X586728Y61878D02*
X589013D01*
X589542Y65163D02*
Y65306D01*
X589685Y65591D01*
X589827Y65734D01*
X590113Y65877D01*
X590684D01*
X590970Y65734D01*
X591113Y65591D01*
X591256Y65306D01*
Y65020D01*
X591113Y64734D01*
X590827Y64306D01*
X589399Y62878D01*
X591398D01*
X592355Y65877D02*
X593926D01*
X593070Y64734D01*
X593498D01*
X593784Y64592D01*
X593926Y64449D01*
X594069Y64020D01*
Y63735D01*
X593926Y63306D01*
X593641Y63020D01*
X593212Y62878D01*
X592784D01*
X592355Y63020D01*
X592213Y63163D01*
X592070Y63449D01*
X595598Y65877D02*
X595169Y65734D01*
X594883Y65306D01*
X594741Y64592D01*
Y64163D01*
X594883Y63449D01*
X595169Y63020D01*
X595598Y62878D01*
X595883D01*
X596312Y63020D01*
X596597Y63449D01*
X596740Y64163D01*
Y64592D01*
X596597Y65306D01*
X596312Y65734D01*
X595883Y65877D01*
X595598D01*
X561105Y56949D02*
X560819Y57234D01*
X560534Y57377D01*
X560105D01*
X559820Y57234D01*
X559534Y56949D01*
X559391Y56520D01*
Y56235D01*
X559534Y55806D01*
X559820Y55520D01*
X560105Y55378D01*
X560534D01*
X560819Y55520D01*
X561105Y55806D01*
X561748Y57806D02*
X562033Y57949D01*
X562462Y58377D01*
Y55378D01*
X565661Y58377D02*
X564233D01*
X564090Y57092D01*
X564233Y57234D01*
X564661Y57377D01*
X565090D01*
X565518Y57234D01*
X565804Y56949D01*
X565947Y56520D01*
Y56235D01*
X565804Y55806D01*
X565518Y55520D01*
X565090Y55378D01*
X564661D01*
X564233Y55520D01*
X564090Y55663D01*
X563947Y55949D01*
X567475Y58377D02*
X567046Y58234D01*
X566761Y57806D01*
X566618Y57092D01*
Y56663D01*
X566761Y55949D01*
X567046Y55520D01*
X567475Y55378D01*
X567761D01*
X568189Y55520D01*
X568475Y55949D01*
X568618Y56663D01*
Y57092D01*
X568475Y57806D01*
X568189Y58234D01*
X567761Y58377D01*
X567475D01*
X569289D02*
Y55378D01*
Y56806D02*
X569717Y57234D01*
X570003Y57377D01*
X570432D01*
X570717Y57234D01*
X570860Y56806D01*
Y55378D01*
X571646Y57806D02*
X571931Y57949D01*
X572360Y58377D01*
Y55378D01*
X575559Y58377D02*
X574131D01*
X573988Y57092D01*
X574131Y57234D01*
X574559Y57377D01*
X574988D01*
X575416Y57234D01*
X575702Y56949D01*
X575845Y56520D01*
Y56235D01*
X575702Y55806D01*
X575416Y55520D01*
X574988Y55378D01*
X574559D01*
X574131Y55520D01*
X573988Y55663D01*
X573845Y55949D01*
X577373Y58377D02*
X576944Y58234D01*
X576659Y57806D01*
X576516Y57092D01*
Y56663D01*
X576659Y55949D01*
X576944Y55520D01*
X577373Y55378D01*
X577659D01*
X578087Y55520D01*
X578373Y55949D01*
X578515Y56663D01*
Y57092D01*
X578373Y57806D01*
X578087Y58234D01*
X577659Y58377D01*
X577373D01*
X561105Y49449D02*
X560819Y49734D01*
X560534Y49877D01*
X560105D01*
X559820Y49734D01*
X559534Y49449D01*
X559391Y49020D01*
Y48735D01*
X559534Y48306D01*
X559820Y48020D01*
X560105Y47878D01*
X560534D01*
X560819Y48020D01*
X561105Y48306D01*
X561891Y50163D02*
Y50306D01*
X562033Y50591D01*
X562176Y50734D01*
X562462Y50877D01*
X563033D01*
X563319Y50734D01*
X563462Y50591D01*
X563604Y50306D01*
Y50020D01*
X563462Y49734D01*
X563176Y49306D01*
X561748Y47878D01*
X563747D01*
X565275Y50877D02*
X564847Y50734D01*
X564561Y50306D01*
X564419Y49592D01*
Y49163D01*
X564561Y48449D01*
X564847Y48020D01*
X565275Y47878D01*
X565561D01*
X565990Y48020D01*
X566275Y48449D01*
X566418Y49163D01*
Y49592D01*
X566275Y50306D01*
X565990Y50734D01*
X565561Y50877D01*
X565275D01*
X567946D02*
X567518Y50734D01*
X567232Y50306D01*
X567089Y49592D01*
Y49163D01*
X567232Y48449D01*
X567518Y48020D01*
X567946Y47878D01*
X568232D01*
X568660Y48020D01*
X568946Y48449D01*
X569089Y49163D01*
Y49592D01*
X568946Y50306D01*
X568660Y50734D01*
X568232Y50877D01*
X567946D01*
X569760D02*
Y47878D01*
Y49306D02*
X570189Y49734D01*
X570474Y49877D01*
X570903D01*
X571188Y49734D01*
X571331Y49306D01*
Y47878D01*
X572260Y50163D02*
Y50306D01*
X572402Y50591D01*
X572545Y50734D01*
X572831Y50877D01*
X573402D01*
X573688Y50734D01*
X573831Y50591D01*
X573974Y50306D01*
Y50020D01*
X573831Y49734D01*
X573545Y49306D01*
X572117Y47878D01*
X574116D01*
X575645Y50877D02*
X575216Y50734D01*
X574931Y50306D01*
X574788Y49592D01*
Y49163D01*
X574931Y48449D01*
X575216Y48020D01*
X575645Y47878D01*
X575930D01*
X576359Y48020D01*
X576645Y48449D01*
X576787Y49163D01*
Y49592D01*
X576645Y50306D01*
X576359Y50734D01*
X575930Y50877D01*
X575645D01*
X578316D02*
X577887Y50734D01*
X577601Y50306D01*
X577459Y49592D01*
Y49163D01*
X577601Y48449D01*
X577887Y48020D01*
X578316Y47878D01*
X578601D01*
X579030Y48020D01*
X579315Y48449D01*
X579458Y49163D01*
Y49592D01*
X579315Y50306D01*
X579030Y50734D01*
X578601Y50877D01*
X578316D01*
X561105Y41949D02*
X560819Y42234D01*
X560534Y42377D01*
X560105D01*
X559820Y42234D01*
X559534Y41949D01*
X559391Y41520D01*
Y41235D01*
X559534Y40806D01*
X559820Y40521D01*
X560105Y40378D01*
X560534D01*
X560819Y40521D01*
X561105Y40806D01*
X561748Y42806D02*
X562033Y42949D01*
X562462Y43377D01*
Y40378D01*
X565661Y43377D02*
X564233D01*
X564090Y42092D01*
X564233Y42234D01*
X564661Y42377D01*
X565090D01*
X565518Y42234D01*
X565804Y41949D01*
X565947Y41520D01*
Y41235D01*
X565804Y40806D01*
X565518Y40521D01*
X565090Y40378D01*
X564661D01*
X564233Y40521D01*
X564090Y40663D01*
X563947Y40949D01*
X567475Y43377D02*
X567046Y43234D01*
X566761Y42806D01*
X566618Y42092D01*
Y41663D01*
X566761Y40949D01*
X567046Y40521D01*
X567475Y40378D01*
X567761D01*
X568189Y40521D01*
X568475Y40949D01*
X568618Y41663D01*
Y42092D01*
X568475Y42806D01*
X568189Y43234D01*
X567761Y43377D01*
X567475D01*
X569289D02*
Y40378D01*
Y41806D02*
X569717Y42234D01*
X570003Y42377D01*
X570432D01*
X570717Y42234D01*
X570860Y41806D01*
Y40378D01*
X571646Y42806D02*
X571931Y42949D01*
X572360Y43377D01*
Y40378D01*
X574702Y43377D02*
X574274Y43234D01*
X573988Y42806D01*
X573845Y42092D01*
Y41663D01*
X573988Y40949D01*
X574274Y40521D01*
X574702Y40378D01*
X574988D01*
X575416Y40521D01*
X575702Y40949D01*
X575845Y41663D01*
Y42092D01*
X575702Y42806D01*
X575416Y43234D01*
X574988Y43377D01*
X574702D01*
X577373D02*
X576944Y43234D01*
X576659Y42806D01*
X576516Y42092D01*
Y41663D01*
X576659Y40949D01*
X576944Y40521D01*
X577373Y40378D01*
X577659D01*
X578087Y40521D01*
X578373Y40949D01*
X578515Y41663D01*
Y42092D01*
X578373Y42806D01*
X578087Y43234D01*
X577659Y43377D01*
X577373D01*
X560391Y36448D02*
X560105Y36163D01*
X559820Y35734D01*
X559534Y35163D01*
X559391Y34449D01*
Y33878D01*
X559534Y33163D01*
X559820Y32592D01*
X560105Y32164D01*
X560391Y31878D01*
X560105Y36163D02*
X559820Y35591D01*
X559677Y35163D01*
X559534Y34449D01*
Y33878D01*
X559677Y33163D01*
X559820Y32735D01*
X560105Y32164D01*
X560962Y35877D02*
Y32878D01*
Y35877D02*
X562105Y32878D01*
X563247Y35877D02*
X562105Y32878D01*
X563247Y35877D02*
Y32878D01*
X564390Y35877D02*
X564533Y35734D01*
X564676Y35877D01*
X564533Y36020D01*
X564390Y35877D01*
X564533Y34877D02*
Y32878D01*
X565204Y34877D02*
X566775Y32878D01*
Y34877D02*
X565204Y32878D01*
X567404Y34020D02*
X569117D01*
Y34306D01*
X568975Y34592D01*
X568832Y34734D01*
X568546Y34877D01*
X568118D01*
X567832Y34734D01*
X567546Y34449D01*
X567404Y34020D01*
Y33735D01*
X567546Y33306D01*
X567832Y33020D01*
X568118Y32878D01*
X568546D01*
X568832Y33020D01*
X569117Y33306D01*
X571474Y35877D02*
Y32878D01*
Y34449D02*
X571188Y34734D01*
X570903Y34877D01*
X570474D01*
X570189Y34734D01*
X569903Y34449D01*
X569760Y34020D01*
Y33735D01*
X569903Y33306D01*
X570189Y33020D01*
X570474Y32878D01*
X570903D01*
X571188Y33020D01*
X571474Y33306D01*
X572274Y36448D02*
X572560Y36163D01*
X572845Y35734D01*
X573131Y35163D01*
X573274Y34449D01*
Y33878D01*
X573131Y33163D01*
X572845Y32592D01*
X572560Y32164D01*
X572274Y31878D01*
X572560Y36163D02*
X572845Y35591D01*
X572988Y35163D01*
X573131Y34449D01*
Y33878D01*
X572988Y33163D01*
X572845Y32735D01*
X572560Y32164D01*
X560391Y28948D02*
X560105Y28663D01*
X559820Y28234D01*
X559534Y27663D01*
X559391Y26949D01*
Y26377D01*
X559534Y25663D01*
X559820Y25092D01*
X560105Y24664D01*
X560391Y24378D01*
X560105Y28663D02*
X559820Y28091D01*
X559677Y27663D01*
X559534Y26949D01*
Y26377D01*
X559677Y25663D01*
X559820Y25235D01*
X560105Y24664D01*
X560962Y28377D02*
Y25378D01*
Y28377D02*
X562105Y25378D01*
X563247Y28377D02*
X562105Y25378D01*
X563247Y28377D02*
Y25378D01*
X564390Y28377D02*
X564533Y28234D01*
X564676Y28377D01*
X564533Y28520D01*
X564390Y28377D01*
X564533Y27377D02*
Y25378D01*
X565204Y27377D02*
X566775Y25378D01*
Y27377D02*
X565204Y25378D01*
X567404Y26520D02*
X569117D01*
Y26806D01*
X568975Y27092D01*
X568832Y27234D01*
X568546Y27377D01*
X568118D01*
X567832Y27234D01*
X567546Y26949D01*
X567404Y26520D01*
Y26235D01*
X567546Y25806D01*
X567832Y25521D01*
X568118Y25378D01*
X568546D01*
X568832Y25521D01*
X569117Y25806D01*
X571474Y28377D02*
Y25378D01*
Y26949D02*
X571188Y27234D01*
X570903Y27377D01*
X570474D01*
X570189Y27234D01*
X569903Y26949D01*
X569760Y26520D01*
Y26235D01*
X569903Y25806D01*
X570189Y25521D01*
X570474Y25378D01*
X570903D01*
X571188Y25521D01*
X571474Y25806D01*
X572274Y28948D02*
X572560Y28663D01*
X572845Y28234D01*
X573131Y27663D01*
X573274Y26949D01*
Y26377D01*
X573131Y25663D01*
X572845Y25092D01*
X572560Y24664D01*
X572274Y24378D01*
X572560Y28663D02*
X572845Y28091D01*
X572988Y27663D01*
X573131Y26949D01*
Y26377D01*
X572988Y25663D01*
X572845Y25235D01*
X572560Y24664D01*
X559391Y19877D02*
X560248Y17878D01*
X561105Y19877D02*
X560248Y17878D01*
X563305Y20449D02*
X563162Y20734D01*
X562733Y20877D01*
X562448D01*
X562019Y20734D01*
X561733Y20306D01*
X561590Y19592D01*
Y18878D01*
X561733Y18306D01*
X562019Y18021D01*
X562448Y17878D01*
X562590D01*
X563019Y18021D01*
X563305Y18306D01*
X563447Y18735D01*
Y18878D01*
X563305Y19306D01*
X563019Y19592D01*
X562590Y19734D01*
X562448D01*
X562019Y19592D01*
X561733Y19306D01*
X561590Y18878D01*
X564961Y20877D02*
X564533Y20734D01*
X564247Y20306D01*
X564104Y19592D01*
Y19163D01*
X564247Y18449D01*
X564533Y18021D01*
X564961Y17878D01*
X565247D01*
X565675Y18021D01*
X565961Y18449D01*
X566104Y19163D01*
Y19592D01*
X565961Y20306D01*
X565675Y20734D01*
X565247Y20877D01*
X564961D01*
X566775D02*
Y17878D01*
Y19306D02*
X567204Y19734D01*
X567489Y19877D01*
X567918D01*
X568203Y19734D01*
X568346Y19306D01*
Y17878D01*
X569417Y20877D02*
X570989D01*
X570132Y19734D01*
X570560D01*
X570846Y19592D01*
X570989Y19449D01*
X571131Y19020D01*
Y18735D01*
X570989Y18306D01*
X570703Y18021D01*
X570274Y17878D01*
X569846D01*
X569417Y18021D01*
X569275Y18163D01*
X569132Y18449D01*
X572660Y20877D02*
X572231Y20734D01*
X571945Y20306D01*
X571803Y19592D01*
Y19163D01*
X571945Y18449D01*
X572231Y18021D01*
X572660Y17878D01*
X572945D01*
X573374Y18021D01*
X573659Y18449D01*
X573802Y19163D01*
Y19592D01*
X573659Y20306D01*
X573374Y20734D01*
X572945Y20877D01*
X572660D01*
X574473Y19877D02*
Y17878D01*
Y19306D02*
X574902Y19734D01*
X575188Y19877D01*
X575616D01*
X575902Y19734D01*
X576045Y19306D01*
Y17878D01*
Y19306D02*
X576473Y19734D01*
X576759Y19877D01*
X577187D01*
X577473Y19734D01*
X577616Y19306D01*
Y17878D01*
X579415Y20877D02*
X578987Y20734D01*
X578701Y20306D01*
X578558Y19592D01*
Y19163D01*
X578701Y18449D01*
X578987Y18021D01*
X579415Y17878D01*
X579701D01*
X580129Y18021D01*
X580415Y18449D01*
X580558Y19163D01*
Y19592D01*
X580415Y20306D01*
X580129Y20734D01*
X579701Y20877D01*
X579415D01*
X581229Y19877D02*
Y17878D01*
Y19306D02*
X581658Y19734D01*
X581943Y19877D01*
X582372D01*
X582657Y19734D01*
X582800Y19306D01*
Y17878D01*
Y19306D02*
X583229Y19734D01*
X583514Y19877D01*
X583943D01*
X584229Y19734D01*
X584371Y19306D01*
Y17878D01*
X585314Y19877D02*
X586885Y17878D01*
Y19877D02*
X585314Y17878D01*
X588371Y20877D02*
X587942Y20734D01*
X587656Y20306D01*
X587514Y19592D01*
Y19163D01*
X587656Y18449D01*
X587942Y18021D01*
X588371Y17878D01*
X588656D01*
X589085Y18021D01*
X589370Y18449D01*
X589513Y19163D01*
Y19592D01*
X589370Y20306D01*
X589085Y20734D01*
X588656Y20877D01*
X588371D01*
X527611Y65877D02*
Y62878D01*
Y65877D02*
X528896D01*
X529325Y65734D01*
X529468Y65591D01*
X529610Y65306D01*
Y65020D01*
X529468Y64734D01*
X529325Y64592D01*
X528896Y64449D01*
X527611D01*
X528611D02*
X529610Y62878D01*
X530282Y64020D02*
X531996D01*
Y64306D01*
X531853Y64592D01*
X531710Y64734D01*
X531424Y64877D01*
X530996D01*
X530710Y64734D01*
X530424Y64449D01*
X530282Y64020D01*
Y63735D01*
X530424Y63306D01*
X530710Y63020D01*
X530996Y62878D01*
X531424D01*
X531710Y63020D01*
X531996Y63306D01*
X534352Y64449D02*
X534067Y64734D01*
X533781Y64877D01*
X533353D01*
X533067Y64734D01*
X532781Y64449D01*
X532638Y64020D01*
Y63735D01*
X532781Y63306D01*
X533067Y63020D01*
X533353Y62878D01*
X533781D01*
X534067Y63020D01*
X534352Y63306D01*
X535424Y65877D02*
Y63449D01*
X535566Y63020D01*
X535852Y62878D01*
X536138D01*
X534995Y64877D02*
X535995D01*
X538280D02*
Y62878D01*
Y64449D02*
X537994Y64734D01*
X537709Y64877D01*
X537280D01*
X536995Y64734D01*
X536709Y64449D01*
X536566Y64020D01*
Y63735D01*
X536709Y63306D01*
X536995Y63020D01*
X537280Y62878D01*
X537709D01*
X537994Y63020D01*
X538280Y63306D01*
X539080Y64877D02*
Y62878D01*
Y64306D02*
X539508Y64734D01*
X539794Y64877D01*
X540222D01*
X540508Y64734D01*
X540651Y64306D01*
Y62878D01*
X543150Y64877D02*
Y62592D01*
X543008Y62164D01*
X542865Y62021D01*
X542579Y61878D01*
X542151D01*
X541865Y62021D01*
X543150Y64449D02*
X542865Y64734D01*
X542579Y64877D01*
X542151D01*
X541865Y64734D01*
X541579Y64449D01*
X541436Y64020D01*
Y63735D01*
X541579Y63306D01*
X541865Y63020D01*
X542151Y62878D01*
X542579D01*
X542865Y63020D01*
X543150Y63306D01*
X543950Y65877D02*
Y62878D01*
X544579Y64020D02*
X546293D01*
Y64306D01*
X546150Y64592D01*
X546007Y64734D01*
X545721Y64877D01*
X545293D01*
X545007Y64734D01*
X544722Y64449D01*
X544579Y64020D01*
Y63735D01*
X544722Y63306D01*
X545007Y63020D01*
X545293Y62878D01*
X545721D01*
X546007Y63020D01*
X546293Y63306D01*
X527611Y58377D02*
Y55378D01*
Y58377D02*
X528896D01*
X529325Y58234D01*
X529468Y58091D01*
X529610Y57806D01*
Y57520D01*
X529468Y57234D01*
X529325Y57092D01*
X528896Y56949D01*
X527611D01*
X528611D02*
X529610Y55378D01*
X530996Y57377D02*
X530710Y57234D01*
X530424Y56949D01*
X530282Y56520D01*
Y56235D01*
X530424Y55806D01*
X530710Y55520D01*
X530996Y55378D01*
X531424D01*
X531710Y55520D01*
X531996Y55806D01*
X532138Y56235D01*
Y56520D01*
X531996Y56949D01*
X531710Y57234D01*
X531424Y57377D01*
X530996D01*
X532795D02*
Y55949D01*
X532938Y55520D01*
X533224Y55378D01*
X533652D01*
X533938Y55520D01*
X534367Y55949D01*
Y57377D02*
Y55378D01*
X535152Y57377D02*
Y55378D01*
Y56806D02*
X535581Y57234D01*
X535866Y57377D01*
X536295D01*
X536580Y57234D01*
X536723Y56806D01*
Y55378D01*
X539223Y58377D02*
Y55378D01*
Y56949D02*
X538937Y57234D01*
X538651Y57377D01*
X538223D01*
X537937Y57234D01*
X537652Y56949D01*
X537509Y56520D01*
Y56235D01*
X537652Y55806D01*
X537937Y55520D01*
X538223Y55378D01*
X538651D01*
X538937Y55520D01*
X539223Y55806D01*
X540023Y56520D02*
X541736D01*
Y56806D01*
X541594Y57092D01*
X541451Y57234D01*
X541165Y57377D01*
X540737D01*
X540451Y57234D01*
X540165Y56949D01*
X540023Y56520D01*
Y56235D01*
X540165Y55806D01*
X540451Y55520D01*
X540737Y55378D01*
X541165D01*
X541451Y55520D01*
X541736Y55806D01*
X544093Y58377D02*
Y55378D01*
Y56949D02*
X543807Y57234D01*
X543522Y57377D01*
X543093D01*
X542808Y57234D01*
X542522Y56949D01*
X542379Y56520D01*
Y56235D01*
X542522Y55806D01*
X542808Y55520D01*
X543093Y55378D01*
X543522D01*
X543807Y55520D01*
X544093Y55806D01*
X527611Y50877D02*
Y47878D01*
Y50877D02*
X528896D01*
X529325Y50734D01*
X529468Y50591D01*
X529610Y50306D01*
Y50020D01*
X529468Y49734D01*
X529325Y49592D01*
X528896Y49449D01*
X527611D01*
X528611D02*
X529610Y47878D01*
X530996Y49877D02*
X530710Y49734D01*
X530424Y49449D01*
X530282Y49020D01*
Y48735D01*
X530424Y48306D01*
X530710Y48020D01*
X530996Y47878D01*
X531424D01*
X531710Y48020D01*
X531996Y48306D01*
X532138Y48735D01*
Y49020D01*
X531996Y49449D01*
X531710Y49734D01*
X531424Y49877D01*
X530996D01*
X532795D02*
Y48449D01*
X532938Y48020D01*
X533224Y47878D01*
X533652D01*
X533938Y48020D01*
X534367Y48449D01*
Y49877D02*
Y47878D01*
X535152Y49877D02*
Y47878D01*
Y49306D02*
X535581Y49734D01*
X535866Y49877D01*
X536295D01*
X536580Y49734D01*
X536723Y49306D01*
Y47878D01*
X539223Y50877D02*
Y47878D01*
Y49449D02*
X538937Y49734D01*
X538651Y49877D01*
X538223D01*
X537937Y49734D01*
X537652Y49449D01*
X537509Y49020D01*
Y48735D01*
X537652Y48306D01*
X537937Y48020D01*
X538223Y47878D01*
X538651D01*
X538937Y48020D01*
X539223Y48306D01*
X540023Y49020D02*
X541736D01*
Y49306D01*
X541594Y49592D01*
X541451Y49734D01*
X541165Y49877D01*
X540737D01*
X540451Y49734D01*
X540165Y49449D01*
X540023Y49020D01*
Y48735D01*
X540165Y48306D01*
X540451Y48020D01*
X540737Y47878D01*
X541165D01*
X541451Y48020D01*
X541736Y48306D01*
X544093Y50877D02*
Y47878D01*
Y49449D02*
X543807Y49734D01*
X543522Y49877D01*
X543093D01*
X542808Y49734D01*
X542522Y49449D01*
X542379Y49020D01*
Y48735D01*
X542522Y48306D01*
X542808Y48020D01*
X543093Y47878D01*
X543522D01*
X543807Y48020D01*
X544093Y48306D01*
X527611Y43377D02*
Y40378D01*
Y43377D02*
X528896D01*
X529325Y43234D01*
X529468Y43091D01*
X529610Y42806D01*
Y42520D01*
X529468Y42234D01*
X529325Y42092D01*
X528896Y41949D01*
X527611D01*
X528611D02*
X529610Y40378D01*
X530996Y42377D02*
X530710Y42234D01*
X530424Y41949D01*
X530282Y41520D01*
Y41235D01*
X530424Y40806D01*
X530710Y40521D01*
X530996Y40378D01*
X531424D01*
X531710Y40521D01*
X531996Y40806D01*
X532138Y41235D01*
Y41520D01*
X531996Y41949D01*
X531710Y42234D01*
X531424Y42377D01*
X530996D01*
X532795D02*
Y40949D01*
X532938Y40521D01*
X533224Y40378D01*
X533652D01*
X533938Y40521D01*
X534367Y40949D01*
Y42377D02*
Y40378D01*
X535152Y42377D02*
Y40378D01*
Y41806D02*
X535581Y42234D01*
X535866Y42377D01*
X536295D01*
X536580Y42234D01*
X536723Y41806D01*
Y40378D01*
X539223Y43377D02*
Y40378D01*
Y41949D02*
X538937Y42234D01*
X538651Y42377D01*
X538223D01*
X537937Y42234D01*
X537652Y41949D01*
X537509Y41520D01*
Y41235D01*
X537652Y40806D01*
X537937Y40521D01*
X538223Y40378D01*
X538651D01*
X538937Y40521D01*
X539223Y40806D01*
X540023Y41520D02*
X541736D01*
Y41806D01*
X541594Y42092D01*
X541451Y42234D01*
X541165Y42377D01*
X540737D01*
X540451Y42234D01*
X540165Y41949D01*
X540023Y41520D01*
Y41235D01*
X540165Y40806D01*
X540451Y40521D01*
X540737Y40378D01*
X541165D01*
X541451Y40521D01*
X541736Y40806D01*
X544093Y43377D02*
Y40378D01*
Y41949D02*
X543807Y42234D01*
X543522Y42377D01*
X543093D01*
X542808Y42234D01*
X542522Y41949D01*
X542379Y41520D01*
Y41235D01*
X542522Y40806D01*
X542808Y40521D01*
X543093Y40378D01*
X543522D01*
X543807Y40521D01*
X544093Y40806D01*
X528611Y36448D02*
X528325Y36163D01*
X528039Y35734D01*
X527754Y35163D01*
X527611Y34449D01*
Y33878D01*
X527754Y33163D01*
X528039Y32592D01*
X528325Y32164D01*
X528611Y31878D01*
X528325Y36163D02*
X528039Y35591D01*
X527896Y35163D01*
X527754Y34449D01*
Y33878D01*
X527896Y33163D01*
X528039Y32735D01*
X528325Y32164D01*
X529182Y35877D02*
Y32878D01*
Y35877D02*
X530325Y32878D01*
X531467Y35877D02*
X530325Y32878D01*
X531467Y35877D02*
Y32878D01*
X532610Y35877D02*
X532753Y35734D01*
X532895Y35877D01*
X532753Y36020D01*
X532610Y35877D01*
X532753Y34877D02*
Y32878D01*
X533424Y34877D02*
X534995Y32878D01*
Y34877D02*
X533424Y32878D01*
X535623Y34020D02*
X537337D01*
Y34306D01*
X537194Y34592D01*
X537052Y34734D01*
X536766Y34877D01*
X536338D01*
X536052Y34734D01*
X535766Y34449D01*
X535623Y34020D01*
Y33735D01*
X535766Y33306D01*
X536052Y33020D01*
X536338Y32878D01*
X536766D01*
X537052Y33020D01*
X537337Y33306D01*
X539694Y35877D02*
Y32878D01*
Y34449D02*
X539408Y34734D01*
X539123Y34877D01*
X538694D01*
X538409Y34734D01*
X538123Y34449D01*
X537980Y34020D01*
Y33735D01*
X538123Y33306D01*
X538409Y33020D01*
X538694Y32878D01*
X539123D01*
X539408Y33020D01*
X539694Y33306D01*
X540494Y36448D02*
X540779Y36163D01*
X541065Y35734D01*
X541351Y35163D01*
X541494Y34449D01*
Y33878D01*
X541351Y33163D01*
X541065Y32592D01*
X540779Y32164D01*
X540494Y31878D01*
X540779Y36163D02*
X541065Y35591D01*
X541208Y35163D01*
X541351Y34449D01*
Y33878D01*
X541208Y33163D01*
X541065Y32735D01*
X540779Y32164D01*
X527611Y28377D02*
Y25378D01*
Y28377D02*
X528896D01*
X529325Y28234D01*
X529468Y28091D01*
X529610Y27806D01*
Y27520D01*
X529468Y27234D01*
X529325Y27092D01*
X528896Y26949D01*
X527611D01*
X528611D02*
X529610Y25378D01*
X530996Y27377D02*
X530710Y27234D01*
X530424Y26949D01*
X530282Y26520D01*
Y26235D01*
X530424Y25806D01*
X530710Y25521D01*
X530996Y25378D01*
X531424D01*
X531710Y25521D01*
X531996Y25806D01*
X532138Y26235D01*
Y26520D01*
X531996Y26949D01*
X531710Y27234D01*
X531424Y27377D01*
X530996D01*
X532795D02*
Y25949D01*
X532938Y25521D01*
X533224Y25378D01*
X533652D01*
X533938Y25521D01*
X534367Y25949D01*
Y27377D02*
Y25378D01*
X535152Y27377D02*
Y25378D01*
Y26806D02*
X535581Y27234D01*
X535866Y27377D01*
X536295D01*
X536580Y27234D01*
X536723Y26806D01*
Y25378D01*
X539223Y28377D02*
Y25378D01*
Y26949D02*
X538937Y27234D01*
X538651Y27377D01*
X538223D01*
X537937Y27234D01*
X537652Y26949D01*
X537509Y26520D01*
Y26235D01*
X537652Y25806D01*
X537937Y25521D01*
X538223Y25378D01*
X538651D01*
X538937Y25521D01*
X539223Y25806D01*
X540023Y26520D02*
X541736D01*
Y26806D01*
X541594Y27092D01*
X541451Y27234D01*
X541165Y27377D01*
X540737D01*
X540451Y27234D01*
X540165Y26949D01*
X540023Y26520D01*
Y26235D01*
X540165Y25806D01*
X540451Y25521D01*
X540737Y25378D01*
X541165D01*
X541451Y25521D01*
X541736Y25806D01*
X544093Y28377D02*
Y25378D01*
Y26949D02*
X543807Y27234D01*
X543522Y27377D01*
X543093D01*
X542808Y27234D01*
X542522Y26949D01*
X542379Y26520D01*
Y26235D01*
X542522Y25806D01*
X542808Y25521D01*
X543093Y25378D01*
X543522D01*
X543807Y25521D01*
X544093Y25806D01*
X527611Y20877D02*
Y17878D01*
Y20877D02*
X528896D01*
X529325Y20734D01*
X529468Y20591D01*
X529610Y20306D01*
Y20020D01*
X529468Y19734D01*
X529325Y19592D01*
X528896Y19449D01*
X527611D01*
X528611D02*
X529610Y17878D01*
X530996Y19877D02*
X530710Y19734D01*
X530424Y19449D01*
X530282Y19020D01*
Y18735D01*
X530424Y18306D01*
X530710Y18021D01*
X530996Y17878D01*
X531424D01*
X531710Y18021D01*
X531996Y18306D01*
X532138Y18735D01*
Y19020D01*
X531996Y19449D01*
X531710Y19734D01*
X531424Y19877D01*
X530996D01*
X532795D02*
Y18449D01*
X532938Y18021D01*
X533224Y17878D01*
X533652D01*
X533938Y18021D01*
X534367Y18449D01*
Y19877D02*
Y17878D01*
X535152Y19877D02*
Y17878D01*
Y19306D02*
X535581Y19734D01*
X535866Y19877D01*
X536295D01*
X536580Y19734D01*
X536723Y19306D01*
Y17878D01*
X539223Y20877D02*
Y17878D01*
Y19449D02*
X538937Y19734D01*
X538651Y19877D01*
X538223D01*
X537937Y19734D01*
X537652Y19449D01*
X537509Y19020D01*
Y18735D01*
X537652Y18306D01*
X537937Y18021D01*
X538223Y17878D01*
X538651D01*
X538937Y18021D01*
X539223Y18306D01*
X540023Y19020D02*
X541736D01*
Y19306D01*
X541594Y19592D01*
X541451Y19734D01*
X541165Y19877D01*
X540737D01*
X540451Y19734D01*
X540165Y19449D01*
X540023Y19020D01*
Y18735D01*
X540165Y18306D01*
X540451Y18021D01*
X540737Y17878D01*
X541165D01*
X541451Y18021D01*
X541736Y18306D01*
X544093Y20877D02*
Y17878D01*
Y19449D02*
X543807Y19734D01*
X543522Y19877D01*
X543093D01*
X542808Y19734D01*
X542522Y19449D01*
X542379Y19020D01*
Y18735D01*
X542522Y18306D01*
X542808Y18021D01*
X543093Y17878D01*
X543522D01*
X543807Y18021D01*
X544093Y18306D01*
X503372Y64306D02*
X504657D01*
X505086Y64449D01*
X505229Y64592D01*
X505372Y64877D01*
Y65306D01*
X505229Y65591D01*
X505086Y65734D01*
X504657Y65877D01*
X503372D01*
Y62878D01*
X507757Y64877D02*
Y62878D01*
Y64449D02*
X507471Y64734D01*
X507185Y64877D01*
X506757D01*
X506471Y64734D01*
X506186Y64449D01*
X506043Y64020D01*
Y63735D01*
X506186Y63306D01*
X506471Y63020D01*
X506757Y62878D01*
X507185D01*
X507471Y63020D01*
X507757Y63306D01*
X510271Y65877D02*
Y62878D01*
Y64449D02*
X509985Y64734D01*
X509699Y64877D01*
X509271D01*
X508985Y64734D01*
X508699Y64449D01*
X508557Y64020D01*
Y63735D01*
X508699Y63306D01*
X508985Y63020D01*
X509271Y62878D01*
X509699D01*
X509985Y63020D01*
X510271Y63306D01*
X503372Y56806D02*
X504657D01*
X505086Y56949D01*
X505229Y57092D01*
X505372Y57377D01*
Y57806D01*
X505229Y58091D01*
X505086Y58234D01*
X504657Y58377D01*
X503372D01*
Y55378D01*
X507757Y57377D02*
Y55378D01*
Y56949D02*
X507471Y57234D01*
X507185Y57377D01*
X506757D01*
X506471Y57234D01*
X506186Y56949D01*
X506043Y56520D01*
Y56235D01*
X506186Y55806D01*
X506471Y55520D01*
X506757Y55378D01*
X507185D01*
X507471Y55520D01*
X507757Y55806D01*
X510271Y58377D02*
Y55378D01*
Y56949D02*
X509985Y57234D01*
X509699Y57377D01*
X509271D01*
X508985Y57234D01*
X508699Y56949D01*
X508557Y56520D01*
Y56235D01*
X508699Y55806D01*
X508985Y55520D01*
X509271Y55378D01*
X509699D01*
X509985Y55520D01*
X510271Y55806D01*
X503372Y49306D02*
X504657D01*
X505086Y49449D01*
X505229Y49592D01*
X505372Y49877D01*
Y50306D01*
X505229Y50591D01*
X505086Y50734D01*
X504657Y50877D01*
X503372D01*
Y47878D01*
X507757Y49877D02*
Y47878D01*
Y49449D02*
X507471Y49734D01*
X507185Y49877D01*
X506757D01*
X506471Y49734D01*
X506186Y49449D01*
X506043Y49020D01*
Y48735D01*
X506186Y48306D01*
X506471Y48020D01*
X506757Y47878D01*
X507185D01*
X507471Y48020D01*
X507757Y48306D01*
X510271Y50877D02*
Y47878D01*
Y49449D02*
X509985Y49734D01*
X509699Y49877D01*
X509271D01*
X508985Y49734D01*
X508699Y49449D01*
X508557Y49020D01*
Y48735D01*
X508699Y48306D01*
X508985Y48020D01*
X509271Y47878D01*
X509699D01*
X509985Y48020D01*
X510271Y48306D01*
X503372Y41806D02*
X504657D01*
X505086Y41949D01*
X505229Y42092D01*
X505372Y42377D01*
Y42806D01*
X505229Y43091D01*
X505086Y43234D01*
X504657Y43377D01*
X503372D01*
Y40378D01*
X507757Y42377D02*
Y40378D01*
Y41949D02*
X507471Y42234D01*
X507185Y42377D01*
X506757D01*
X506471Y42234D01*
X506186Y41949D01*
X506043Y41520D01*
Y41235D01*
X506186Y40806D01*
X506471Y40521D01*
X506757Y40378D01*
X507185D01*
X507471Y40521D01*
X507757Y40806D01*
X510271Y43377D02*
Y40378D01*
Y41949D02*
X509985Y42234D01*
X509699Y42377D01*
X509271D01*
X508985Y42234D01*
X508699Y41949D01*
X508557Y41520D01*
Y41235D01*
X508699Y40806D01*
X508985Y40521D01*
X509271Y40378D01*
X509699D01*
X509985Y40521D01*
X510271Y40806D01*
X503372Y34306D02*
X504657D01*
X505086Y34449D01*
X505229Y34592D01*
X505372Y34877D01*
Y35306D01*
X505229Y35591D01*
X505086Y35734D01*
X504657Y35877D01*
X503372D01*
Y32878D01*
X507757Y34877D02*
Y32878D01*
Y34449D02*
X507471Y34734D01*
X507185Y34877D01*
X506757D01*
X506471Y34734D01*
X506186Y34449D01*
X506043Y34020D01*
Y33735D01*
X506186Y33306D01*
X506471Y33020D01*
X506757Y32878D01*
X507185D01*
X507471Y33020D01*
X507757Y33306D01*
X510271Y35877D02*
Y32878D01*
Y34449D02*
X509985Y34734D01*
X509699Y34877D01*
X509271D01*
X508985Y34734D01*
X508699Y34449D01*
X508557Y34020D01*
Y33735D01*
X508699Y33306D01*
X508985Y33020D01*
X509271Y32878D01*
X509699D01*
X509985Y33020D01*
X510271Y33306D01*
X503372Y28377D02*
X504515Y25378D01*
X505657Y28377D02*
X504515Y25378D01*
X506328Y28377D02*
X506471Y28234D01*
X506614Y28377D01*
X506471Y28520D01*
X506328Y28377D01*
X506471Y27377D02*
Y25378D01*
X508856Y27377D02*
Y25378D01*
Y26949D02*
X508571Y27234D01*
X508285Y27377D01*
X507857D01*
X507571Y27234D01*
X507285Y26949D01*
X507143Y26520D01*
Y26235D01*
X507285Y25806D01*
X507571Y25521D01*
X507857Y25378D01*
X508285D01*
X508571Y25521D01*
X508856Y25806D01*
X503372Y20877D02*
X504515Y17878D01*
X505657Y20877D02*
X504515Y17878D01*
X506328Y20877D02*
X506471Y20734D01*
X506614Y20877D01*
X506471Y21020D01*
X506328Y20877D01*
X506471Y19877D02*
Y17878D01*
X508856Y19877D02*
Y17878D01*
Y19449D02*
X508571Y19734D01*
X508285Y19877D01*
X507857D01*
X507571Y19734D01*
X507285Y19449D01*
X507143Y19020D01*
Y18735D01*
X507285Y18306D01*
X507571Y18021D01*
X507857Y17878D01*
X508285D01*
X508571Y18021D01*
X508856Y18306D01*
X442941Y65877D02*
Y62878D01*
X441941Y65877D02*
X443941D01*
X445012Y64877D02*
X444726Y64734D01*
X444441Y64449D01*
X444298Y64020D01*
Y63735D01*
X444441Y63306D01*
X444726Y63020D01*
X445012Y62878D01*
X445440D01*
X445726Y63020D01*
X446012Y63306D01*
X446154Y63735D01*
Y64020D01*
X446012Y64449D01*
X445726Y64734D01*
X445440Y64877D01*
X445012D01*
X446811D02*
Y61878D01*
Y64449D02*
X447097Y64734D01*
X447383Y64877D01*
X447811D01*
X448097Y64734D01*
X448383Y64449D01*
X448525Y64020D01*
Y63735D01*
X448383Y63306D01*
X448097Y63020D01*
X447811Y62878D01*
X447383D01*
X447097Y63020D01*
X446811Y63306D01*
X451525Y65877D02*
Y62878D01*
X453239D01*
X455281Y64877D02*
Y62878D01*
Y64449D02*
X454995Y64734D01*
X454710Y64877D01*
X454281D01*
X453996Y64734D01*
X453710Y64449D01*
X453567Y64020D01*
Y63735D01*
X453710Y63306D01*
X453996Y63020D01*
X454281Y62878D01*
X454710D01*
X454995Y63020D01*
X455281Y63306D01*
X456224Y64877D02*
X457081Y62878D01*
X457938Y64877D02*
X457081Y62878D01*
X456795Y62306D01*
X456509Y62021D01*
X456224Y61878D01*
X456081D01*
X458438Y64020D02*
X460151D01*
Y64306D01*
X460009Y64592D01*
X459866Y64734D01*
X459580Y64877D01*
X459152D01*
X458866Y64734D01*
X458580Y64449D01*
X458438Y64020D01*
Y63735D01*
X458580Y63306D01*
X458866Y63020D01*
X459152Y62878D01*
X459580D01*
X459866Y63020D01*
X460151Y63306D01*
X460794Y64877D02*
Y62878D01*
Y64020D02*
X460937Y64449D01*
X461223Y64734D01*
X461508Y64877D01*
X461937D01*
X464565Y64163D02*
X467136D01*
X470378Y65877D02*
Y62878D01*
Y65877D02*
X471663D01*
X472092Y65734D01*
X472235Y65591D01*
X472377Y65306D01*
Y65020D01*
X472235Y64734D01*
X472092Y64592D01*
X471663Y64449D01*
X470378D02*
X471663D01*
X472092Y64306D01*
X472235Y64163D01*
X472377Y63877D01*
Y63449D01*
X472235Y63163D01*
X472092Y63020D01*
X471663Y62878D01*
X470378D01*
X473763Y64877D02*
X473477Y64734D01*
X473192Y64449D01*
X473049Y64020D01*
Y63735D01*
X473192Y63306D01*
X473477Y63020D01*
X473763Y62878D01*
X474191D01*
X474477Y63020D01*
X474763Y63306D01*
X474905Y63735D01*
Y64020D01*
X474763Y64449D01*
X474477Y64734D01*
X474191Y64877D01*
X473763D01*
X475991Y65877D02*
Y63449D01*
X476134Y63020D01*
X476419Y62878D01*
X476705D01*
X475562Y64877D02*
X476562D01*
X477562Y65877D02*
Y63449D01*
X477705Y63020D01*
X477990Y62878D01*
X478276D01*
X477134Y64877D02*
X478133D01*
X479419D02*
X479133Y64734D01*
X478848Y64449D01*
X478705Y64020D01*
Y63735D01*
X478848Y63306D01*
X479133Y63020D01*
X479419Y62878D01*
X479847D01*
X480133Y63020D01*
X480419Y63306D01*
X480561Y63735D01*
Y64020D01*
X480419Y64449D01*
X480133Y64734D01*
X479847Y64877D01*
X479419D01*
X481218D02*
Y62878D01*
Y64306D02*
X481647Y64734D01*
X481932Y64877D01*
X482361D01*
X482647Y64734D01*
X482790Y64306D01*
Y62878D01*
Y64306D02*
X483218Y64734D01*
X483504Y64877D01*
X483932D01*
X484218Y64734D01*
X484361Y64306D01*
Y62878D01*
X487660Y65877D02*
Y62878D01*
X489374D01*
X491416Y64877D02*
Y62878D01*
Y64449D02*
X491131Y64734D01*
X490845Y64877D01*
X490416D01*
X490131Y64734D01*
X489845Y64449D01*
X489702Y64020D01*
Y63735D01*
X489845Y63306D01*
X490131Y63020D01*
X490416Y62878D01*
X490845D01*
X491131Y63020D01*
X491416Y63306D01*
X492359Y64877D02*
X493216Y62878D01*
X494073Y64877D02*
X493216Y62878D01*
X492930Y62306D01*
X492645Y62021D01*
X492359Y61878D01*
X492216D01*
X494573Y64020D02*
X496287D01*
Y64306D01*
X496144Y64592D01*
X496001Y64734D01*
X495715Y64877D01*
X495287D01*
X495001Y64734D01*
X494715Y64449D01*
X494573Y64020D01*
Y63735D01*
X494715Y63306D01*
X495001Y63020D01*
X495287Y62878D01*
X495715D01*
X496001Y63020D01*
X496287Y63306D01*
X496929Y64877D02*
Y62878D01*
Y64020D02*
X497072Y64449D01*
X497358Y64734D01*
X497644Y64877D01*
X498072D01*
X442941Y58377D02*
Y55378D01*
X441941Y58377D02*
X443941D01*
X445012Y57377D02*
X444726Y57234D01*
X444441Y56949D01*
X444298Y56520D01*
Y56235D01*
X444441Y55806D01*
X444726Y55520D01*
X445012Y55378D01*
X445440D01*
X445726Y55520D01*
X446012Y55806D01*
X446154Y56235D01*
Y56520D01*
X446012Y56949D01*
X445726Y57234D01*
X445440Y57377D01*
X445012D01*
X446811D02*
Y54378D01*
Y56949D02*
X447097Y57234D01*
X447383Y57377D01*
X447811D01*
X448097Y57234D01*
X448383Y56949D01*
X448525Y56520D01*
Y56235D01*
X448383Y55806D01*
X448097Y55520D01*
X447811Y55378D01*
X447383D01*
X447097Y55520D01*
X446811Y55806D01*
X451525Y58377D02*
Y55378D01*
X453239D01*
X455281Y57377D02*
Y55378D01*
Y56949D02*
X454995Y57234D01*
X454710Y57377D01*
X454281D01*
X453996Y57234D01*
X453710Y56949D01*
X453567Y56520D01*
Y56235D01*
X453710Y55806D01*
X453996Y55520D01*
X454281Y55378D01*
X454710D01*
X454995Y55520D01*
X455281Y55806D01*
X456224Y57377D02*
X457081Y55378D01*
X457938Y57377D02*
X457081Y55378D01*
X456795Y54806D01*
X456509Y54521D01*
X456224Y54378D01*
X456081D01*
X458438Y56520D02*
X460151D01*
Y56806D01*
X460009Y57092D01*
X459866Y57234D01*
X459580Y57377D01*
X459152D01*
X458866Y57234D01*
X458580Y56949D01*
X458438Y56520D01*
Y56235D01*
X458580Y55806D01*
X458866Y55520D01*
X459152Y55378D01*
X459580D01*
X459866Y55520D01*
X460151Y55806D01*
X460794Y57377D02*
Y55378D01*
Y56520D02*
X460937Y56949D01*
X461223Y57234D01*
X461508Y57377D01*
X461937D01*
X464565Y56663D02*
X467136D01*
X470378Y58377D02*
Y55378D01*
Y58377D02*
X471663D01*
X472092Y58234D01*
X472235Y58091D01*
X472377Y57806D01*
Y57520D01*
X472235Y57234D01*
X472092Y57092D01*
X471663Y56949D01*
X470378D02*
X471663D01*
X472092Y56806D01*
X472235Y56663D01*
X472377Y56378D01*
Y55949D01*
X472235Y55663D01*
X472092Y55520D01*
X471663Y55378D01*
X470378D01*
X473763Y57377D02*
X473477Y57234D01*
X473192Y56949D01*
X473049Y56520D01*
Y56235D01*
X473192Y55806D01*
X473477Y55520D01*
X473763Y55378D01*
X474191D01*
X474477Y55520D01*
X474763Y55806D01*
X474905Y56235D01*
Y56520D01*
X474763Y56949D01*
X474477Y57234D01*
X474191Y57377D01*
X473763D01*
X475991Y58377D02*
Y55949D01*
X476134Y55520D01*
X476419Y55378D01*
X476705D01*
X475562Y57377D02*
X476562D01*
X477562Y58377D02*
Y55949D01*
X477705Y55520D01*
X477990Y55378D01*
X478276D01*
X477134Y57377D02*
X478133D01*
X479419D02*
X479133Y57234D01*
X478848Y56949D01*
X478705Y56520D01*
Y56235D01*
X478848Y55806D01*
X479133Y55520D01*
X479419Y55378D01*
X479847D01*
X480133Y55520D01*
X480419Y55806D01*
X480561Y56235D01*
Y56520D01*
X480419Y56949D01*
X480133Y57234D01*
X479847Y57377D01*
X479419D01*
X481218D02*
Y55378D01*
Y56806D02*
X481647Y57234D01*
X481932Y57377D01*
X482361D01*
X482647Y57234D01*
X482790Y56806D01*
Y55378D01*
Y56806D02*
X483218Y57234D01*
X483504Y57377D01*
X483932D01*
X484218Y57234D01*
X484361Y56806D01*
Y55378D01*
X487660Y58377D02*
Y55378D01*
X489374D01*
X491416Y57377D02*
Y55378D01*
Y56949D02*
X491131Y57234D01*
X490845Y57377D01*
X490416D01*
X490131Y57234D01*
X489845Y56949D01*
X489702Y56520D01*
Y56235D01*
X489845Y55806D01*
X490131Y55520D01*
X490416Y55378D01*
X490845D01*
X491131Y55520D01*
X491416Y55806D01*
X492359Y57377D02*
X493216Y55378D01*
X494073Y57377D02*
X493216Y55378D01*
X492930Y54806D01*
X492645Y54521D01*
X492359Y54378D01*
X492216D01*
X494573Y56520D02*
X496287D01*
Y56806D01*
X496144Y57092D01*
X496001Y57234D01*
X495715Y57377D01*
X495287D01*
X495001Y57234D01*
X494715Y56949D01*
X494573Y56520D01*
Y56235D01*
X494715Y55806D01*
X495001Y55520D01*
X495287Y55378D01*
X495715D01*
X496001Y55520D01*
X496287Y55806D01*
X496929Y57377D02*
Y55378D01*
Y56520D02*
X497072Y56949D01*
X497358Y57234D01*
X497644Y57377D01*
X498072D01*
X442941Y50877D02*
Y47878D01*
X441941Y50877D02*
X443941D01*
X445012Y49877D02*
X444726Y49734D01*
X444441Y49449D01*
X444298Y49020D01*
Y48735D01*
X444441Y48306D01*
X444726Y48020D01*
X445012Y47878D01*
X445440D01*
X445726Y48020D01*
X446012Y48306D01*
X446154Y48735D01*
Y49020D01*
X446012Y49449D01*
X445726Y49734D01*
X445440Y49877D01*
X445012D01*
X446811D02*
Y46878D01*
Y49449D02*
X447097Y49734D01*
X447383Y49877D01*
X447811D01*
X448097Y49734D01*
X448383Y49449D01*
X448525Y49020D01*
Y48735D01*
X448383Y48306D01*
X448097Y48020D01*
X447811Y47878D01*
X447383D01*
X447097Y48020D01*
X446811Y48306D01*
X451525Y50877D02*
Y47878D01*
X453239D01*
X455281Y49877D02*
Y47878D01*
Y49449D02*
X454995Y49734D01*
X454710Y49877D01*
X454281D01*
X453996Y49734D01*
X453710Y49449D01*
X453567Y49020D01*
Y48735D01*
X453710Y48306D01*
X453996Y48020D01*
X454281Y47878D01*
X454710D01*
X454995Y48020D01*
X455281Y48306D01*
X456224Y49877D02*
X457081Y47878D01*
X457938Y49877D02*
X457081Y47878D01*
X456795Y47306D01*
X456509Y47021D01*
X456224Y46878D01*
X456081D01*
X458438Y49020D02*
X460151D01*
Y49306D01*
X460009Y49592D01*
X459866Y49734D01*
X459580Y49877D01*
X459152D01*
X458866Y49734D01*
X458580Y49449D01*
X458438Y49020D01*
Y48735D01*
X458580Y48306D01*
X458866Y48020D01*
X459152Y47878D01*
X459580D01*
X459866Y48020D01*
X460151Y48306D01*
X460794Y49877D02*
Y47878D01*
Y49020D02*
X460937Y49449D01*
X461223Y49734D01*
X461508Y49877D01*
X461937D01*
X464565Y49163D02*
X467136D01*
X470378Y50877D02*
Y47878D01*
Y50877D02*
X471663D01*
X472092Y50734D01*
X472235Y50591D01*
X472377Y50306D01*
Y50020D01*
X472235Y49734D01*
X472092Y49592D01*
X471663Y49449D01*
X470378D02*
X471663D01*
X472092Y49306D01*
X472235Y49163D01*
X472377Y48878D01*
Y48449D01*
X472235Y48163D01*
X472092Y48020D01*
X471663Y47878D01*
X470378D01*
X473763Y49877D02*
X473477Y49734D01*
X473192Y49449D01*
X473049Y49020D01*
Y48735D01*
X473192Y48306D01*
X473477Y48020D01*
X473763Y47878D01*
X474191D01*
X474477Y48020D01*
X474763Y48306D01*
X474905Y48735D01*
Y49020D01*
X474763Y49449D01*
X474477Y49734D01*
X474191Y49877D01*
X473763D01*
X475991Y50877D02*
Y48449D01*
X476134Y48020D01*
X476419Y47878D01*
X476705D01*
X475562Y49877D02*
X476562D01*
X477562Y50877D02*
Y48449D01*
X477705Y48020D01*
X477990Y47878D01*
X478276D01*
X477134Y49877D02*
X478133D01*
X479419D02*
X479133Y49734D01*
X478848Y49449D01*
X478705Y49020D01*
Y48735D01*
X478848Y48306D01*
X479133Y48020D01*
X479419Y47878D01*
X479847D01*
X480133Y48020D01*
X480419Y48306D01*
X480561Y48735D01*
Y49020D01*
X480419Y49449D01*
X480133Y49734D01*
X479847Y49877D01*
X479419D01*
X481218D02*
Y47878D01*
Y49306D02*
X481647Y49734D01*
X481932Y49877D01*
X482361D01*
X482647Y49734D01*
X482790Y49306D01*
Y47878D01*
Y49306D02*
X483218Y49734D01*
X483504Y49877D01*
X483932D01*
X484218Y49734D01*
X484361Y49306D01*
Y47878D01*
X487660Y50877D02*
Y47878D01*
X489374D01*
X491416Y49877D02*
Y47878D01*
Y49449D02*
X491131Y49734D01*
X490845Y49877D01*
X490416D01*
X490131Y49734D01*
X489845Y49449D01*
X489702Y49020D01*
Y48735D01*
X489845Y48306D01*
X490131Y48020D01*
X490416Y47878D01*
X490845D01*
X491131Y48020D01*
X491416Y48306D01*
X492359Y49877D02*
X493216Y47878D01*
X494073Y49877D02*
X493216Y47878D01*
X492930Y47306D01*
X492645Y47021D01*
X492359Y46878D01*
X492216D01*
X494573Y49020D02*
X496287D01*
Y49306D01*
X496144Y49592D01*
X496001Y49734D01*
X495715Y49877D01*
X495287D01*
X495001Y49734D01*
X494715Y49449D01*
X494573Y49020D01*
Y48735D01*
X494715Y48306D01*
X495001Y48020D01*
X495287Y47878D01*
X495715D01*
X496001Y48020D01*
X496287Y48306D01*
X496929Y49877D02*
Y47878D01*
Y49020D02*
X497072Y49449D01*
X497358Y49734D01*
X497644Y49877D01*
X498072D01*
X442941Y43377D02*
Y40378D01*
X441941Y43377D02*
X443941D01*
X445012Y42377D02*
X444726Y42234D01*
X444441Y41949D01*
X444298Y41520D01*
Y41235D01*
X444441Y40806D01*
X444726Y40521D01*
X445012Y40378D01*
X445440D01*
X445726Y40521D01*
X446012Y40806D01*
X446154Y41235D01*
Y41520D01*
X446012Y41949D01*
X445726Y42234D01*
X445440Y42377D01*
X445012D01*
X446811D02*
Y39378D01*
Y41949D02*
X447097Y42234D01*
X447383Y42377D01*
X447811D01*
X448097Y42234D01*
X448383Y41949D01*
X448525Y41520D01*
Y41235D01*
X448383Y40806D01*
X448097Y40521D01*
X447811Y40378D01*
X447383D01*
X447097Y40521D01*
X446811Y40806D01*
X451525Y43377D02*
Y40378D01*
X453239D01*
X455281Y42377D02*
Y40378D01*
Y41949D02*
X454995Y42234D01*
X454710Y42377D01*
X454281D01*
X453996Y42234D01*
X453710Y41949D01*
X453567Y41520D01*
Y41235D01*
X453710Y40806D01*
X453996Y40521D01*
X454281Y40378D01*
X454710D01*
X454995Y40521D01*
X455281Y40806D01*
X456224Y42377D02*
X457081Y40378D01*
X457938Y42377D02*
X457081Y40378D01*
X456795Y39806D01*
X456509Y39521D01*
X456224Y39378D01*
X456081D01*
X458438Y41520D02*
X460151D01*
Y41806D01*
X460009Y42092D01*
X459866Y42234D01*
X459580Y42377D01*
X459152D01*
X458866Y42234D01*
X458580Y41949D01*
X458438Y41520D01*
Y41235D01*
X458580Y40806D01*
X458866Y40521D01*
X459152Y40378D01*
X459580D01*
X459866Y40521D01*
X460151Y40806D01*
X460794Y42377D02*
Y40378D01*
Y41520D02*
X460937Y41949D01*
X461223Y42234D01*
X461508Y42377D01*
X461937D01*
X464565Y41663D02*
X467136D01*
X470378Y43377D02*
Y40378D01*
Y43377D02*
X471663D01*
X472092Y43234D01*
X472235Y43091D01*
X472377Y42806D01*
Y42520D01*
X472235Y42234D01*
X472092Y42092D01*
X471663Y41949D01*
X470378D02*
X471663D01*
X472092Y41806D01*
X472235Y41663D01*
X472377Y41377D01*
Y40949D01*
X472235Y40663D01*
X472092Y40521D01*
X471663Y40378D01*
X470378D01*
X473763Y42377D02*
X473477Y42234D01*
X473192Y41949D01*
X473049Y41520D01*
Y41235D01*
X473192Y40806D01*
X473477Y40521D01*
X473763Y40378D01*
X474191D01*
X474477Y40521D01*
X474763Y40806D01*
X474905Y41235D01*
Y41520D01*
X474763Y41949D01*
X474477Y42234D01*
X474191Y42377D01*
X473763D01*
X475991Y43377D02*
Y40949D01*
X476134Y40521D01*
X476419Y40378D01*
X476705D01*
X475562Y42377D02*
X476562D01*
X477562Y43377D02*
Y40949D01*
X477705Y40521D01*
X477990Y40378D01*
X478276D01*
X477134Y42377D02*
X478133D01*
X479419D02*
X479133Y42234D01*
X478848Y41949D01*
X478705Y41520D01*
Y41235D01*
X478848Y40806D01*
X479133Y40521D01*
X479419Y40378D01*
X479847D01*
X480133Y40521D01*
X480419Y40806D01*
X480561Y41235D01*
Y41520D01*
X480419Y41949D01*
X480133Y42234D01*
X479847Y42377D01*
X479419D01*
X481218D02*
Y40378D01*
Y41806D02*
X481647Y42234D01*
X481932Y42377D01*
X482361D01*
X482647Y42234D01*
X482790Y41806D01*
Y40378D01*
Y41806D02*
X483218Y42234D01*
X483504Y42377D01*
X483932D01*
X484218Y42234D01*
X484361Y41806D01*
Y40378D01*
X487660Y43377D02*
Y40378D01*
X489374D01*
X491416Y42377D02*
Y40378D01*
Y41949D02*
X491131Y42234D01*
X490845Y42377D01*
X490416D01*
X490131Y42234D01*
X489845Y41949D01*
X489702Y41520D01*
Y41235D01*
X489845Y40806D01*
X490131Y40521D01*
X490416Y40378D01*
X490845D01*
X491131Y40521D01*
X491416Y40806D01*
X492359Y42377D02*
X493216Y40378D01*
X494073Y42377D02*
X493216Y40378D01*
X492930Y39806D01*
X492645Y39521D01*
X492359Y39378D01*
X492216D01*
X494573Y41520D02*
X496287D01*
Y41806D01*
X496144Y42092D01*
X496001Y42234D01*
X495715Y42377D01*
X495287D01*
X495001Y42234D01*
X494715Y41949D01*
X494573Y41520D01*
Y41235D01*
X494715Y40806D01*
X495001Y40521D01*
X495287Y40378D01*
X495715D01*
X496001Y40521D01*
X496287Y40806D01*
X496929Y42377D02*
Y40378D01*
Y41520D02*
X497072Y41949D01*
X497358Y42234D01*
X497644Y42377D01*
X498072D01*
X442941Y35877D02*
Y32878D01*
X441941Y35877D02*
X443941D01*
X445012Y34877D02*
X444726Y34734D01*
X444441Y34449D01*
X444298Y34020D01*
Y33735D01*
X444441Y33306D01*
X444726Y33020D01*
X445012Y32878D01*
X445440D01*
X445726Y33020D01*
X446012Y33306D01*
X446154Y33735D01*
Y34020D01*
X446012Y34449D01*
X445726Y34734D01*
X445440Y34877D01*
X445012D01*
X446811D02*
Y31878D01*
Y34449D02*
X447097Y34734D01*
X447383Y34877D01*
X447811D01*
X448097Y34734D01*
X448383Y34449D01*
X448525Y34020D01*
Y33735D01*
X448383Y33306D01*
X448097Y33020D01*
X447811Y32878D01*
X447383D01*
X447097Y33020D01*
X446811Y33306D01*
X451525Y35877D02*
Y32878D01*
X453239D01*
X455281Y34877D02*
Y32878D01*
Y34449D02*
X454995Y34734D01*
X454710Y34877D01*
X454281D01*
X453996Y34734D01*
X453710Y34449D01*
X453567Y34020D01*
Y33735D01*
X453710Y33306D01*
X453996Y33020D01*
X454281Y32878D01*
X454710D01*
X454995Y33020D01*
X455281Y33306D01*
X456224Y34877D02*
X457081Y32878D01*
X457938Y34877D02*
X457081Y32878D01*
X456795Y32306D01*
X456509Y32021D01*
X456224Y31878D01*
X456081D01*
X458438Y34020D02*
X460151D01*
Y34306D01*
X460009Y34592D01*
X459866Y34734D01*
X459580Y34877D01*
X459152D01*
X458866Y34734D01*
X458580Y34449D01*
X458438Y34020D01*
Y33735D01*
X458580Y33306D01*
X458866Y33020D01*
X459152Y32878D01*
X459580D01*
X459866Y33020D01*
X460151Y33306D01*
X460794Y34877D02*
Y32878D01*
Y34020D02*
X460937Y34449D01*
X461223Y34734D01*
X461508Y34877D01*
X461937D01*
X464565Y34163D02*
X467136D01*
X470378Y35877D02*
Y32878D01*
Y35877D02*
X471663D01*
X472092Y35734D01*
X472235Y35591D01*
X472377Y35306D01*
Y35020D01*
X472235Y34734D01*
X472092Y34592D01*
X471663Y34449D01*
X470378D02*
X471663D01*
X472092Y34306D01*
X472235Y34163D01*
X472377Y33878D01*
Y33449D01*
X472235Y33163D01*
X472092Y33020D01*
X471663Y32878D01*
X470378D01*
X473763Y34877D02*
X473477Y34734D01*
X473192Y34449D01*
X473049Y34020D01*
Y33735D01*
X473192Y33306D01*
X473477Y33020D01*
X473763Y32878D01*
X474191D01*
X474477Y33020D01*
X474763Y33306D01*
X474905Y33735D01*
Y34020D01*
X474763Y34449D01*
X474477Y34734D01*
X474191Y34877D01*
X473763D01*
X475991Y35877D02*
Y33449D01*
X476134Y33020D01*
X476419Y32878D01*
X476705D01*
X475562Y34877D02*
X476562D01*
X477562Y35877D02*
Y33449D01*
X477705Y33020D01*
X477990Y32878D01*
X478276D01*
X477134Y34877D02*
X478133D01*
X479419D02*
X479133Y34734D01*
X478848Y34449D01*
X478705Y34020D01*
Y33735D01*
X478848Y33306D01*
X479133Y33020D01*
X479419Y32878D01*
X479847D01*
X480133Y33020D01*
X480419Y33306D01*
X480561Y33735D01*
Y34020D01*
X480419Y34449D01*
X480133Y34734D01*
X479847Y34877D01*
X479419D01*
X481218D02*
Y32878D01*
Y34306D02*
X481647Y34734D01*
X481932Y34877D01*
X482361D01*
X482647Y34734D01*
X482790Y34306D01*
Y32878D01*
Y34306D02*
X483218Y34734D01*
X483504Y34877D01*
X483932D01*
X484218Y34734D01*
X484361Y34306D01*
Y32878D01*
X487660Y35877D02*
Y32878D01*
X489374D01*
X491416Y34877D02*
Y32878D01*
Y34449D02*
X491131Y34734D01*
X490845Y34877D01*
X490416D01*
X490131Y34734D01*
X489845Y34449D01*
X489702Y34020D01*
Y33735D01*
X489845Y33306D01*
X490131Y33020D01*
X490416Y32878D01*
X490845D01*
X491131Y33020D01*
X491416Y33306D01*
X492359Y34877D02*
X493216Y32878D01*
X494073Y34877D02*
X493216Y32878D01*
X492930Y32306D01*
X492645Y32021D01*
X492359Y31878D01*
X492216D01*
X494573Y34020D02*
X496287D01*
Y34306D01*
X496144Y34592D01*
X496001Y34734D01*
X495715Y34877D01*
X495287D01*
X495001Y34734D01*
X494715Y34449D01*
X494573Y34020D01*
Y33735D01*
X494715Y33306D01*
X495001Y33020D01*
X495287Y32878D01*
X495715D01*
X496001Y33020D01*
X496287Y33306D01*
X496929Y34877D02*
Y32878D01*
Y34020D02*
X497072Y34449D01*
X497358Y34734D01*
X497644Y34877D01*
X498072D01*
X442941Y28377D02*
Y25378D01*
X441941Y28377D02*
X443941D01*
X445012Y27377D02*
X444726Y27234D01*
X444441Y26949D01*
X444298Y26520D01*
Y26235D01*
X444441Y25806D01*
X444726Y25521D01*
X445012Y25378D01*
X445440D01*
X445726Y25521D01*
X446012Y25806D01*
X446154Y26235D01*
Y26520D01*
X446012Y26949D01*
X445726Y27234D01*
X445440Y27377D01*
X445012D01*
X446811D02*
Y24378D01*
Y26949D02*
X447097Y27234D01*
X447383Y27377D01*
X447811D01*
X448097Y27234D01*
X448383Y26949D01*
X448525Y26520D01*
Y26235D01*
X448383Y25806D01*
X448097Y25521D01*
X447811Y25378D01*
X447383D01*
X447097Y25521D01*
X446811Y25806D01*
X451525Y28377D02*
Y25378D01*
X453239D01*
X455281Y27377D02*
Y25378D01*
Y26949D02*
X454995Y27234D01*
X454710Y27377D01*
X454281D01*
X453996Y27234D01*
X453710Y26949D01*
X453567Y26520D01*
Y26235D01*
X453710Y25806D01*
X453996Y25521D01*
X454281Y25378D01*
X454710D01*
X454995Y25521D01*
X455281Y25806D01*
X456224Y27377D02*
X457081Y25378D01*
X457938Y27377D02*
X457081Y25378D01*
X456795Y24806D01*
X456509Y24521D01*
X456224Y24378D01*
X456081D01*
X458438Y26520D02*
X460151D01*
Y26806D01*
X460009Y27092D01*
X459866Y27234D01*
X459580Y27377D01*
X459152D01*
X458866Y27234D01*
X458580Y26949D01*
X458438Y26520D01*
Y26235D01*
X458580Y25806D01*
X458866Y25521D01*
X459152Y25378D01*
X459580D01*
X459866Y25521D01*
X460151Y25806D01*
X460794Y27377D02*
Y25378D01*
Y26520D02*
X460937Y26949D01*
X461223Y27234D01*
X461508Y27377D01*
X461937D01*
X464565Y26663D02*
X467136D01*
X470378Y28377D02*
Y25378D01*
Y28377D02*
X471663D01*
X472092Y28234D01*
X472235Y28091D01*
X472377Y27806D01*
Y27520D01*
X472235Y27234D01*
X472092Y27092D01*
X471663Y26949D01*
X470378D02*
X471663D01*
X472092Y26806D01*
X472235Y26663D01*
X472377Y26377D01*
Y25949D01*
X472235Y25663D01*
X472092Y25521D01*
X471663Y25378D01*
X470378D01*
X473763Y27377D02*
X473477Y27234D01*
X473192Y26949D01*
X473049Y26520D01*
Y26235D01*
X473192Y25806D01*
X473477Y25521D01*
X473763Y25378D01*
X474191D01*
X474477Y25521D01*
X474763Y25806D01*
X474905Y26235D01*
Y26520D01*
X474763Y26949D01*
X474477Y27234D01*
X474191Y27377D01*
X473763D01*
X475991Y28377D02*
Y25949D01*
X476134Y25521D01*
X476419Y25378D01*
X476705D01*
X475562Y27377D02*
X476562D01*
X477562Y28377D02*
Y25949D01*
X477705Y25521D01*
X477990Y25378D01*
X478276D01*
X477134Y27377D02*
X478133D01*
X479419D02*
X479133Y27234D01*
X478848Y26949D01*
X478705Y26520D01*
Y26235D01*
X478848Y25806D01*
X479133Y25521D01*
X479419Y25378D01*
X479847D01*
X480133Y25521D01*
X480419Y25806D01*
X480561Y26235D01*
Y26520D01*
X480419Y26949D01*
X480133Y27234D01*
X479847Y27377D01*
X479419D01*
X481218D02*
Y25378D01*
Y26806D02*
X481647Y27234D01*
X481932Y27377D01*
X482361D01*
X482647Y27234D01*
X482790Y26806D01*
Y25378D01*
Y26806D02*
X483218Y27234D01*
X483504Y27377D01*
X483932D01*
X484218Y27234D01*
X484361Y26806D01*
Y25378D01*
X487660Y28377D02*
Y25378D01*
X489374D01*
X491416Y27377D02*
Y25378D01*
Y26949D02*
X491131Y27234D01*
X490845Y27377D01*
X490416D01*
X490131Y27234D01*
X489845Y26949D01*
X489702Y26520D01*
Y26235D01*
X489845Y25806D01*
X490131Y25521D01*
X490416Y25378D01*
X490845D01*
X491131Y25521D01*
X491416Y25806D01*
X492359Y27377D02*
X493216Y25378D01*
X494073Y27377D02*
X493216Y25378D01*
X492930Y24806D01*
X492645Y24521D01*
X492359Y24378D01*
X492216D01*
X494573Y26520D02*
X496287D01*
Y26806D01*
X496144Y27092D01*
X496001Y27234D01*
X495715Y27377D01*
X495287D01*
X495001Y27234D01*
X494715Y26949D01*
X494573Y26520D01*
Y26235D01*
X494715Y25806D01*
X495001Y25521D01*
X495287Y25378D01*
X495715D01*
X496001Y25521D01*
X496287Y25806D01*
X496929Y27377D02*
Y25378D01*
Y26520D02*
X497072Y26949D01*
X497358Y27234D01*
X497644Y27377D01*
X498072D01*
X442941Y20877D02*
Y17878D01*
X441941Y20877D02*
X443941D01*
X445012Y19877D02*
X444726Y19734D01*
X444441Y19449D01*
X444298Y19020D01*
Y18735D01*
X444441Y18306D01*
X444726Y18021D01*
X445012Y17878D01*
X445440D01*
X445726Y18021D01*
X446012Y18306D01*
X446154Y18735D01*
Y19020D01*
X446012Y19449D01*
X445726Y19734D01*
X445440Y19877D01*
X445012D01*
X446811D02*
Y16878D01*
Y19449D02*
X447097Y19734D01*
X447383Y19877D01*
X447811D01*
X448097Y19734D01*
X448383Y19449D01*
X448525Y19020D01*
Y18735D01*
X448383Y18306D01*
X448097Y18021D01*
X447811Y17878D01*
X447383D01*
X447097Y18021D01*
X446811Y18306D01*
X451525Y20877D02*
Y17878D01*
X453239D01*
X455281Y19877D02*
Y17878D01*
Y19449D02*
X454995Y19734D01*
X454710Y19877D01*
X454281D01*
X453996Y19734D01*
X453710Y19449D01*
X453567Y19020D01*
Y18735D01*
X453710Y18306D01*
X453996Y18021D01*
X454281Y17878D01*
X454710D01*
X454995Y18021D01*
X455281Y18306D01*
X456224Y19877D02*
X457081Y17878D01*
X457938Y19877D02*
X457081Y17878D01*
X456795Y17306D01*
X456509Y17021D01*
X456224Y16878D01*
X456081D01*
X458438Y19020D02*
X460151D01*
Y19306D01*
X460009Y19592D01*
X459866Y19734D01*
X459580Y19877D01*
X459152D01*
X458866Y19734D01*
X458580Y19449D01*
X458438Y19020D01*
Y18735D01*
X458580Y18306D01*
X458866Y18021D01*
X459152Y17878D01*
X459580D01*
X459866Y18021D01*
X460151Y18306D01*
X460794Y19877D02*
Y17878D01*
Y19020D02*
X460937Y19449D01*
X461223Y19734D01*
X461508Y19877D01*
X461937D01*
X464565Y19163D02*
X467136D01*
X470378Y20877D02*
Y17878D01*
Y20877D02*
X471663D01*
X472092Y20734D01*
X472235Y20591D01*
X472377Y20306D01*
Y20020D01*
X472235Y19734D01*
X472092Y19592D01*
X471663Y19449D01*
X470378D02*
X471663D01*
X472092Y19306D01*
X472235Y19163D01*
X472377Y18878D01*
Y18449D01*
X472235Y18163D01*
X472092Y18021D01*
X471663Y17878D01*
X470378D01*
X473763Y19877D02*
X473477Y19734D01*
X473192Y19449D01*
X473049Y19020D01*
Y18735D01*
X473192Y18306D01*
X473477Y18021D01*
X473763Y17878D01*
X474191D01*
X474477Y18021D01*
X474763Y18306D01*
X474905Y18735D01*
Y19020D01*
X474763Y19449D01*
X474477Y19734D01*
X474191Y19877D01*
X473763D01*
X475991Y20877D02*
Y18449D01*
X476134Y18021D01*
X476419Y17878D01*
X476705D01*
X475562Y19877D02*
X476562D01*
X477562Y20877D02*
Y18449D01*
X477705Y18021D01*
X477990Y17878D01*
X478276D01*
X477134Y19877D02*
X478133D01*
X479419D02*
X479133Y19734D01*
X478848Y19449D01*
X478705Y19020D01*
Y18735D01*
X478848Y18306D01*
X479133Y18021D01*
X479419Y17878D01*
X479847D01*
X480133Y18021D01*
X480419Y18306D01*
X480561Y18735D01*
Y19020D01*
X480419Y19449D01*
X480133Y19734D01*
X479847Y19877D01*
X479419D01*
X481218D02*
Y17878D01*
Y19306D02*
X481647Y19734D01*
X481932Y19877D01*
X482361D01*
X482647Y19734D01*
X482790Y19306D01*
Y17878D01*
Y19306D02*
X483218Y19734D01*
X483504Y19877D01*
X483932D01*
X484218Y19734D01*
X484361Y19306D01*
Y17878D01*
X487660Y20877D02*
Y17878D01*
X489374D01*
X491416Y19877D02*
Y17878D01*
Y19449D02*
X491131Y19734D01*
X490845Y19877D01*
X490416D01*
X490131Y19734D01*
X489845Y19449D01*
X489702Y19020D01*
Y18735D01*
X489845Y18306D01*
X490131Y18021D01*
X490416Y17878D01*
X490845D01*
X491131Y18021D01*
X491416Y18306D01*
X492359Y19877D02*
X493216Y17878D01*
X494073Y19877D02*
X493216Y17878D01*
X492930Y17306D01*
X492645Y17021D01*
X492359Y16878D01*
X492216D01*
X494573Y19020D02*
X496287D01*
Y19306D01*
X496144Y19592D01*
X496001Y19734D01*
X495715Y19877D01*
X495287D01*
X495001Y19734D01*
X494715Y19449D01*
X494573Y19020D01*
Y18735D01*
X494715Y18306D01*
X495001Y18021D01*
X495287Y17878D01*
X495715D01*
X496001Y18021D01*
X496287Y18306D01*
X496929Y19877D02*
Y17878D01*
Y19020D02*
X497072Y19449D01*
X497358Y19734D01*
X497644Y19877D01*
X498072D01*
X414800Y65449D02*
X414514Y65734D01*
X414086Y65877D01*
X413515D01*
X413086Y65734D01*
X412800Y65449D01*
Y65163D01*
X412943Y64877D01*
X413086Y64734D01*
X413372Y64592D01*
X414229Y64306D01*
X414514Y64163D01*
X414657Y64020D01*
X414800Y63735D01*
Y63306D01*
X414514Y63020D01*
X414086Y62878D01*
X413515D01*
X413086Y63020D01*
X412800Y63306D01*
X415471Y65877D02*
Y62878D01*
X416814Y64877D02*
X416528Y64734D01*
X416243Y64449D01*
X416100Y64020D01*
Y63735D01*
X416243Y63306D01*
X416528Y63020D01*
X416814Y62878D01*
X417242D01*
X417528Y63020D01*
X417814Y63306D01*
X417956Y63735D01*
Y64020D01*
X417814Y64449D01*
X417528Y64734D01*
X417242Y64877D01*
X416814D01*
X419042Y65877D02*
Y63449D01*
X419185Y63020D01*
X419470Y62878D01*
X419756D01*
X418613Y64877D02*
X419613D01*
X412800Y58377D02*
Y55378D01*
Y58377D02*
X414086D01*
X414514Y58234D01*
X414657Y58091D01*
X414800Y57806D01*
Y57520D01*
X414657Y57234D01*
X414514Y57092D01*
X414086Y56949D01*
X412800D01*
X413800D02*
X414800Y55378D01*
X416185Y57377D02*
X415900Y57234D01*
X415614Y56949D01*
X415471Y56520D01*
Y56235D01*
X415614Y55806D01*
X415900Y55520D01*
X416185Y55378D01*
X416614D01*
X416899Y55520D01*
X417185Y55806D01*
X417328Y56235D01*
Y56520D01*
X417185Y56949D01*
X416899Y57234D01*
X416614Y57377D01*
X416185D01*
X417985D02*
Y55949D01*
X418128Y55520D01*
X418413Y55378D01*
X418842D01*
X419128Y55520D01*
X419556Y55949D01*
Y57377D02*
Y55378D01*
X420342Y57377D02*
Y55378D01*
Y56806D02*
X420770Y57234D01*
X421056Y57377D01*
X421484D01*
X421770Y57234D01*
X421913Y56806D01*
Y55378D01*
X424412Y58377D02*
Y55378D01*
Y56949D02*
X424126Y57234D01*
X423841Y57377D01*
X423412D01*
X423127Y57234D01*
X422841Y56949D01*
X422698Y56520D01*
Y56235D01*
X422841Y55806D01*
X423127Y55520D01*
X423412Y55378D01*
X423841D01*
X424126Y55520D01*
X424412Y55806D01*
X412800Y50877D02*
Y47878D01*
Y50877D02*
X414086D01*
X414514Y50734D01*
X414657Y50591D01*
X414800Y50306D01*
Y50020D01*
X414657Y49734D01*
X414514Y49592D01*
X414086Y49449D01*
X412800D01*
X413800D02*
X414800Y47878D01*
X416185Y49877D02*
X415900Y49734D01*
X415614Y49449D01*
X415471Y49020D01*
Y48735D01*
X415614Y48306D01*
X415900Y48020D01*
X416185Y47878D01*
X416614D01*
X416899Y48020D01*
X417185Y48306D01*
X417328Y48735D01*
Y49020D01*
X417185Y49449D01*
X416899Y49734D01*
X416614Y49877D01*
X416185D01*
X417985D02*
Y48449D01*
X418128Y48020D01*
X418413Y47878D01*
X418842D01*
X419128Y48020D01*
X419556Y48449D01*
Y49877D02*
Y47878D01*
X420342Y49877D02*
Y47878D01*
Y49306D02*
X420770Y49734D01*
X421056Y49877D01*
X421484D01*
X421770Y49734D01*
X421913Y49306D01*
Y47878D01*
X424412Y50877D02*
Y47878D01*
Y49449D02*
X424126Y49734D01*
X423841Y49877D01*
X423412D01*
X423127Y49734D01*
X422841Y49449D01*
X422698Y49020D01*
Y48735D01*
X422841Y48306D01*
X423127Y48020D01*
X423412Y47878D01*
X423841D01*
X424126Y48020D01*
X424412Y48306D01*
X412800Y43377D02*
Y40378D01*
Y43377D02*
X414086D01*
X414514Y43234D01*
X414657Y43091D01*
X414800Y42806D01*
Y42520D01*
X414657Y42234D01*
X414514Y42092D01*
X414086Y41949D01*
X412800D01*
X413800D02*
X414800Y40378D01*
X416185Y42377D02*
X415900Y42234D01*
X415614Y41949D01*
X415471Y41520D01*
Y41235D01*
X415614Y40806D01*
X415900Y40521D01*
X416185Y40378D01*
X416614D01*
X416899Y40521D01*
X417185Y40806D01*
X417328Y41235D01*
Y41520D01*
X417185Y41949D01*
X416899Y42234D01*
X416614Y42377D01*
X416185D01*
X417985D02*
Y40949D01*
X418128Y40521D01*
X418413Y40378D01*
X418842D01*
X419128Y40521D01*
X419556Y40949D01*
Y42377D02*
Y40378D01*
X420342Y42377D02*
Y40378D01*
Y41806D02*
X420770Y42234D01*
X421056Y42377D01*
X421484D01*
X421770Y42234D01*
X421913Y41806D01*
Y40378D01*
X424412Y43377D02*
Y40378D01*
Y41949D02*
X424126Y42234D01*
X423841Y42377D01*
X423412D01*
X423127Y42234D01*
X422841Y41949D01*
X422698Y41520D01*
Y41235D01*
X422841Y40806D01*
X423127Y40521D01*
X423412Y40378D01*
X423841D01*
X424126Y40521D01*
X424412Y40806D01*
X412800Y35877D02*
Y32878D01*
Y35877D02*
X414086D01*
X414514Y35734D01*
X414657Y35591D01*
X414800Y35306D01*
Y35020D01*
X414657Y34734D01*
X414514Y34592D01*
X414086Y34449D01*
X412800D01*
X413800D02*
X414800Y32878D01*
X416185Y34877D02*
X415900Y34734D01*
X415614Y34449D01*
X415471Y34020D01*
Y33735D01*
X415614Y33306D01*
X415900Y33020D01*
X416185Y32878D01*
X416614D01*
X416899Y33020D01*
X417185Y33306D01*
X417328Y33735D01*
Y34020D01*
X417185Y34449D01*
X416899Y34734D01*
X416614Y34877D01*
X416185D01*
X417985D02*
Y33449D01*
X418128Y33020D01*
X418413Y32878D01*
X418842D01*
X419128Y33020D01*
X419556Y33449D01*
Y34877D02*
Y32878D01*
X420342Y34877D02*
Y32878D01*
Y34306D02*
X420770Y34734D01*
X421056Y34877D01*
X421484D01*
X421770Y34734D01*
X421913Y34306D01*
Y32878D01*
X424412Y35877D02*
Y32878D01*
Y34449D02*
X424126Y34734D01*
X423841Y34877D01*
X423412D01*
X423127Y34734D01*
X422841Y34449D01*
X422698Y34020D01*
Y33735D01*
X422841Y33306D01*
X423127Y33020D01*
X423412Y32878D01*
X423841D01*
X424126Y33020D01*
X424412Y33306D01*
X412800Y28377D02*
Y25378D01*
Y28377D02*
X414086D01*
X414514Y28234D01*
X414657Y28091D01*
X414800Y27806D01*
Y27520D01*
X414657Y27234D01*
X414514Y27092D01*
X414086Y26949D01*
X412800D01*
X413800D02*
X414800Y25378D01*
X416185Y27377D02*
X415900Y27234D01*
X415614Y26949D01*
X415471Y26520D01*
Y26235D01*
X415614Y25806D01*
X415900Y25521D01*
X416185Y25378D01*
X416614D01*
X416899Y25521D01*
X417185Y25806D01*
X417328Y26235D01*
Y26520D01*
X417185Y26949D01*
X416899Y27234D01*
X416614Y27377D01*
X416185D01*
X417985D02*
Y25949D01*
X418128Y25521D01*
X418413Y25378D01*
X418842D01*
X419128Y25521D01*
X419556Y25949D01*
Y27377D02*
Y25378D01*
X420342Y27377D02*
Y25378D01*
Y26806D02*
X420770Y27234D01*
X421056Y27377D01*
X421484D01*
X421770Y27234D01*
X421913Y26806D01*
Y25378D01*
X424412Y28377D02*
Y25378D01*
Y26949D02*
X424126Y27234D01*
X423841Y27377D01*
X423412D01*
X423127Y27234D01*
X422841Y26949D01*
X422698Y26520D01*
Y26235D01*
X422841Y25806D01*
X423127Y25521D01*
X423412Y25378D01*
X423841D01*
X424126Y25521D01*
X424412Y25806D01*
X412800Y20877D02*
Y17878D01*
Y20877D02*
X414086D01*
X414514Y20734D01*
X414657Y20591D01*
X414800Y20306D01*
Y20020D01*
X414657Y19734D01*
X414514Y19592D01*
X414086Y19449D01*
X412800D01*
X413800D02*
X414800Y17878D01*
X416185Y19877D02*
X415900Y19734D01*
X415614Y19449D01*
X415471Y19020D01*
Y18735D01*
X415614Y18306D01*
X415900Y18021D01*
X416185Y17878D01*
X416614D01*
X416899Y18021D01*
X417185Y18306D01*
X417328Y18735D01*
Y19020D01*
X417185Y19449D01*
X416899Y19734D01*
X416614Y19877D01*
X416185D01*
X417985D02*
Y18449D01*
X418128Y18021D01*
X418413Y17878D01*
X418842D01*
X419128Y18021D01*
X419556Y18449D01*
Y19877D02*
Y17878D01*
X420342Y19877D02*
Y17878D01*
Y19306D02*
X420770Y19734D01*
X421056Y19877D01*
X421484D01*
X421770Y19734D01*
X421913Y19306D01*
Y17878D01*
X424412Y20877D02*
Y17878D01*
Y19449D02*
X424126Y19734D01*
X423841Y19877D01*
X423412D01*
X423127Y19734D01*
X422841Y19449D01*
X422698Y19020D01*
Y18735D01*
X422841Y18306D01*
X423127Y18021D01*
X423412Y17878D01*
X423841D01*
X424126Y18021D01*
X424412Y18306D01*
X393275Y64306D02*
X394560D01*
X394989Y64449D01*
X395131Y64592D01*
X395274Y64877D01*
Y65306D01*
X395131Y65591D01*
X394989Y65734D01*
X394560Y65877D01*
X393275D01*
Y62878D01*
X396945Y65877D02*
Y62878D01*
X395946Y65877D02*
X397945D01*
X398302D02*
Y62878D01*
X400302Y65877D02*
Y62878D01*
X398302Y64449D02*
X400302D01*
X393275Y56806D02*
X394560D01*
X394989Y56949D01*
X395131Y57092D01*
X395274Y57377D01*
Y57806D01*
X395131Y58091D01*
X394989Y58234D01*
X394560Y58377D01*
X393275D01*
Y55378D01*
X396945Y58377D02*
Y55378D01*
X395946Y58377D02*
X397945D01*
X398302D02*
Y55378D01*
X400302Y58377D02*
Y55378D01*
X398302Y56949D02*
X400302D01*
X393275Y49306D02*
X394560D01*
X394989Y49449D01*
X395131Y49592D01*
X395274Y49877D01*
Y50306D01*
X395131Y50591D01*
X394989Y50734D01*
X394560Y50877D01*
X393275D01*
Y47878D01*
X396945Y50877D02*
Y47878D01*
X395946Y50877D02*
X397945D01*
X398302D02*
Y47878D01*
X400302Y50877D02*
Y47878D01*
X398302Y49449D02*
X400302D01*
X393275Y41806D02*
X394560D01*
X394989Y41949D01*
X395131Y42092D01*
X395274Y42377D01*
Y42806D01*
X395131Y43091D01*
X394989Y43234D01*
X394560Y43377D01*
X393275D01*
Y40378D01*
X396945Y43377D02*
Y40378D01*
X395946Y43377D02*
X397945D01*
X398302D02*
Y40378D01*
X400302Y43377D02*
Y40378D01*
X398302Y41949D02*
X400302D01*
X393275Y34306D02*
X394560D01*
X394989Y34449D01*
X395131Y34592D01*
X395274Y34877D01*
Y35306D01*
X395131Y35591D01*
X394989Y35734D01*
X394560Y35877D01*
X393275D01*
Y32878D01*
X396945Y35877D02*
Y32878D01*
X395946Y35877D02*
X397945D01*
X398302D02*
Y32878D01*
X400302Y35877D02*
Y32878D01*
X398302Y34449D02*
X400302D01*
X393275Y26806D02*
X394560D01*
X394989Y26949D01*
X395131Y27092D01*
X395274Y27377D01*
Y27806D01*
X395131Y28091D01*
X394989Y28234D01*
X394560Y28377D01*
X393275D01*
Y25378D01*
X396945Y28377D02*
Y25378D01*
X395946Y28377D02*
X397945D01*
X398302D02*
Y25378D01*
X400302Y28377D02*
Y25378D01*
X398302Y26949D02*
X400302D01*
X393275Y19306D02*
X394560D01*
X394989Y19449D01*
X395131Y19592D01*
X395274Y19877D01*
Y20306D01*
X395131Y20591D01*
X394989Y20734D01*
X394560Y20877D01*
X393275D01*
Y17878D01*
X396945Y20877D02*
Y17878D01*
X395946Y20877D02*
X397945D01*
X398302D02*
Y17878D01*
X400302Y20877D02*
Y17878D01*
X398302Y19449D02*
X400302D01*
X346669Y65877D02*
X346241Y65734D01*
X345955Y65306D01*
X345812Y64592D01*
Y64163D01*
X345955Y63449D01*
X346241Y63020D01*
X346669Y62878D01*
X346955D01*
X347383Y63020D01*
X347669Y63449D01*
X347812Y64163D01*
Y64592D01*
X347669Y65306D01*
X347383Y65734D01*
X346955Y65877D01*
X346669D01*
X348626Y63163D02*
X348483Y63020D01*
X348626Y62878D01*
X348769Y63020D01*
X348626Y63163D01*
X351140Y65877D02*
X349711D01*
X349569Y64592D01*
X349711Y64734D01*
X350140Y64877D01*
X350568D01*
X350997Y64734D01*
X351283Y64449D01*
X351425Y64020D01*
Y63735D01*
X351283Y63306D01*
X350997Y63020D01*
X350568Y62878D01*
X350140D01*
X349711Y63020D01*
X349569Y63163D01*
X349426Y63449D01*
X352239Y65163D02*
Y65306D01*
X352382Y65591D01*
X352525Y65734D01*
X352811Y65877D01*
X353382D01*
X353668Y65734D01*
X353811Y65591D01*
X353953Y65306D01*
Y65020D01*
X353811Y64734D01*
X353525Y64306D01*
X352097Y62878D01*
X354096D01*
X355625Y65877D02*
X355196Y65734D01*
X354910Y65306D01*
X354767Y64592D01*
Y64163D01*
X354910Y63449D01*
X355196Y63020D01*
X355625Y62878D01*
X355910D01*
X356339Y63020D01*
X356624Y63449D01*
X356767Y64163D01*
Y64592D01*
X356624Y65306D01*
X356339Y65734D01*
X355910Y65877D01*
X355625D01*
X357438Y64877D02*
Y62878D01*
Y64306D02*
X357867Y64734D01*
X358153Y64877D01*
X358581D01*
X358867Y64734D01*
X359010Y64306D01*
Y62878D01*
Y64306D02*
X359438Y64734D01*
X359724Y64877D01*
X360152D01*
X360438Y64734D01*
X360581Y64306D01*
Y62878D01*
X361523Y64877D02*
Y62878D01*
Y64306D02*
X361952Y64734D01*
X362237Y64877D01*
X362666D01*
X362951Y64734D01*
X363094Y64306D01*
Y62878D01*
Y64306D02*
X363523Y64734D01*
X363808Y64877D01*
X364237D01*
X364523Y64734D01*
X364665Y64306D01*
Y62878D01*
X368965Y66448D02*
X368679Y66163D01*
X368393Y65734D01*
X368108Y65163D01*
X367965Y64449D01*
Y63877D01*
X368108Y63163D01*
X368393Y62592D01*
X368679Y62164D01*
X368965Y61878D01*
X368679Y66163D02*
X368393Y65591D01*
X368250Y65163D01*
X368108Y64449D01*
Y63877D01*
X368250Y63163D01*
X368393Y62735D01*
X368679Y62164D01*
X369679Y65163D02*
Y65306D01*
X369821Y65591D01*
X369964Y65734D01*
X370250Y65877D01*
X370821D01*
X371107Y65734D01*
X371250Y65591D01*
X371392Y65306D01*
Y65020D01*
X371250Y64734D01*
X370964Y64306D01*
X369536Y62878D01*
X371535D01*
X373064Y65877D02*
X372635Y65734D01*
X372350Y65306D01*
X372207Y64592D01*
Y64163D01*
X372350Y63449D01*
X372635Y63020D01*
X373064Y62878D01*
X373349D01*
X373778Y63020D01*
X374063Y63449D01*
X374206Y64163D01*
Y64592D01*
X374063Y65306D01*
X373778Y65734D01*
X373349Y65877D01*
X373064D01*
X375020Y63163D02*
X374878Y63020D01*
X375020Y62878D01*
X375163Y63020D01*
X375020Y63163D01*
X377248Y65877D02*
X375820Y63877D01*
X377963D01*
X377248Y65877D02*
Y62878D01*
X380491Y65877D02*
X379062Y62878D01*
X378491Y65877D02*
X380491D01*
X381162Y64877D02*
Y62878D01*
Y64306D02*
X381590Y64734D01*
X381876Y64877D01*
X382305D01*
X382590Y64734D01*
X382733Y64306D01*
Y62878D01*
Y64306D02*
X383161Y64734D01*
X383447Y64877D01*
X383876D01*
X384161Y64734D01*
X384304Y64306D01*
Y62878D01*
X385532Y65877D02*
X385675Y65734D01*
X385818Y65877D01*
X385675Y66020D01*
X385532Y65877D01*
X385675Y64877D02*
Y62878D01*
X386347Y65877D02*
Y62878D01*
X386975Y66448D02*
X387261Y66163D01*
X387546Y65734D01*
X387832Y65163D01*
X387975Y64449D01*
Y63877D01*
X387832Y63163D01*
X387546Y62592D01*
X387261Y62164D01*
X386975Y61878D01*
X387261Y66163D02*
X387546Y65591D01*
X387689Y65163D01*
X387832Y64449D01*
Y63877D01*
X387689Y63163D01*
X387546Y62735D01*
X387261Y62164D01*
X345812Y57806D02*
X346098Y57949D01*
X346526Y58377D01*
Y55378D01*
X348155Y55663D02*
X348012Y55520D01*
X348155Y55378D01*
X348298Y55520D01*
X348155Y55663D01*
X350668Y58377D02*
X349240D01*
X349097Y57092D01*
X349240Y57234D01*
X349669Y57377D01*
X350097D01*
X350526Y57234D01*
X350811Y56949D01*
X350954Y56520D01*
Y56235D01*
X350811Y55806D01*
X350526Y55520D01*
X350097Y55378D01*
X349669D01*
X349240Y55520D01*
X349097Y55663D01*
X348955Y55949D01*
X352482Y58377D02*
X352054Y58234D01*
X351768Y57806D01*
X351625Y57092D01*
Y56663D01*
X351768Y55949D01*
X352054Y55520D01*
X352482Y55378D01*
X352768D01*
X353196Y55520D01*
X353482Y55949D01*
X353625Y56663D01*
Y57092D01*
X353482Y57806D01*
X353196Y58234D01*
X352768Y58377D01*
X352482D01*
X355153D02*
X354725Y58234D01*
X354439Y57806D01*
X354296Y57092D01*
Y56663D01*
X354439Y55949D01*
X354725Y55520D01*
X355153Y55378D01*
X355439D01*
X355867Y55520D01*
X356153Y55949D01*
X356296Y56663D01*
Y57092D01*
X356153Y57806D01*
X355867Y58234D01*
X355439Y58377D01*
X355153D01*
X356967Y57377D02*
Y55378D01*
Y56806D02*
X357396Y57234D01*
X357681Y57377D01*
X358110D01*
X358395Y57234D01*
X358538Y56806D01*
Y55378D01*
Y56806D02*
X358967Y57234D01*
X359252Y57377D01*
X359681D01*
X359966Y57234D01*
X360109Y56806D01*
Y55378D01*
X361052Y57377D02*
Y55378D01*
Y56806D02*
X361480Y57234D01*
X361766Y57377D01*
X362194D01*
X362480Y57234D01*
X362623Y56806D01*
Y55378D01*
Y56806D02*
X363052Y57234D01*
X363337Y57377D01*
X363766D01*
X364051Y57234D01*
X364194Y56806D01*
Y55378D01*
X368493Y58948D02*
X368208Y58663D01*
X367922Y58234D01*
X367636Y57663D01*
X367493Y56949D01*
Y56378D01*
X367636Y55663D01*
X367922Y55092D01*
X368208Y54664D01*
X368493Y54378D01*
X368208Y58663D02*
X367922Y58091D01*
X367779Y57663D01*
X367636Y56949D01*
Y56378D01*
X367779Y55663D01*
X367922Y55235D01*
X368208Y54664D01*
X370778Y58377D02*
X369350D01*
X369207Y57092D01*
X369350Y57234D01*
X369779Y57377D01*
X370207D01*
X370636Y57234D01*
X370921Y56949D01*
X371064Y56520D01*
Y56235D01*
X370921Y55806D01*
X370636Y55520D01*
X370207Y55378D01*
X369779D01*
X369350Y55520D01*
X369207Y55663D01*
X369064Y55949D01*
X373592Y57377D02*
X373449Y56949D01*
X373164Y56663D01*
X372735Y56520D01*
X372592D01*
X372164Y56663D01*
X371878Y56949D01*
X371735Y57377D01*
Y57520D01*
X371878Y57949D01*
X372164Y58234D01*
X372592Y58377D01*
X372735D01*
X373164Y58234D01*
X373449Y57949D01*
X373592Y57377D01*
Y56663D01*
X373449Y55949D01*
X373164Y55520D01*
X372735Y55378D01*
X372449D01*
X372021Y55520D01*
X371878Y55806D01*
X374549Y55663D02*
X374406Y55520D01*
X374549Y55378D01*
X374692Y55520D01*
X374549Y55663D01*
X376206Y58377D02*
X375777Y58234D01*
X375492Y57806D01*
X375349Y57092D01*
Y56663D01*
X375492Y55949D01*
X375777Y55520D01*
X376206Y55378D01*
X376491D01*
X376920Y55520D01*
X377206Y55949D01*
X377348Y56663D01*
Y57092D01*
X377206Y57806D01*
X376920Y58234D01*
X376491Y58377D01*
X376206D01*
X379734Y57949D02*
X379591Y58234D01*
X379162Y58377D01*
X378877D01*
X378448Y58234D01*
X378163Y57806D01*
X378020Y57092D01*
Y56378D01*
X378163Y55806D01*
X378448Y55520D01*
X378877Y55378D01*
X379019D01*
X379448Y55520D01*
X379734Y55806D01*
X379876Y56235D01*
Y56378D01*
X379734Y56806D01*
X379448Y57092D01*
X379019Y57234D01*
X378877D01*
X378448Y57092D01*
X378163Y56806D01*
X378020Y56378D01*
X380533Y57377D02*
Y55378D01*
Y56806D02*
X380962Y57234D01*
X381248Y57377D01*
X381676D01*
X381962Y57234D01*
X382104Y56806D01*
Y55378D01*
Y56806D02*
X382533Y57234D01*
X382819Y57377D01*
X383247D01*
X383533Y57234D01*
X383676Y56806D01*
Y55378D01*
X384904Y58377D02*
X385047Y58234D01*
X385190Y58377D01*
X385047Y58520D01*
X384904Y58377D01*
X385047Y57377D02*
Y55378D01*
X385718Y58377D02*
Y55378D01*
X386347Y58948D02*
X386632Y58663D01*
X386918Y58234D01*
X387204Y57663D01*
X387346Y56949D01*
Y56378D01*
X387204Y55663D01*
X386918Y55092D01*
X386632Y54664D01*
X386347Y54378D01*
X386632Y58663D02*
X386918Y58091D01*
X387061Y57663D01*
X387204Y56949D01*
Y56378D01*
X387061Y55663D01*
X386918Y55235D01*
X386632Y54664D01*
X345955Y50163D02*
Y50306D01*
X346098Y50591D01*
X346241Y50734D01*
X346526Y50877D01*
X347098D01*
X347383Y50734D01*
X347526Y50591D01*
X347669Y50306D01*
Y50020D01*
X347526Y49734D01*
X347240Y49306D01*
X345812Y47878D01*
X347812D01*
X348626Y48163D02*
X348483Y48020D01*
X348626Y47878D01*
X348769Y48020D01*
X348626Y48163D01*
X350283Y50877D02*
X349854Y50734D01*
X349569Y50306D01*
X349426Y49592D01*
Y49163D01*
X349569Y48449D01*
X349854Y48020D01*
X350283Y47878D01*
X350568D01*
X350997Y48020D01*
X351283Y48449D01*
X351425Y49163D01*
Y49592D01*
X351283Y50306D01*
X350997Y50734D01*
X350568Y50877D01*
X350283D01*
X352954D02*
X352525Y50734D01*
X352239Y50306D01*
X352097Y49592D01*
Y49163D01*
X352239Y48449D01*
X352525Y48020D01*
X352954Y47878D01*
X353239D01*
X353668Y48020D01*
X353953Y48449D01*
X354096Y49163D01*
Y49592D01*
X353953Y50306D01*
X353668Y50734D01*
X353239Y50877D01*
X352954D01*
X355625D02*
X355196Y50734D01*
X354910Y50306D01*
X354767Y49592D01*
Y49163D01*
X354910Y48449D01*
X355196Y48020D01*
X355625Y47878D01*
X355910D01*
X356339Y48020D01*
X356624Y48449D01*
X356767Y49163D01*
Y49592D01*
X356624Y50306D01*
X356339Y50734D01*
X355910Y50877D01*
X355625D01*
X357438Y49877D02*
Y47878D01*
Y49306D02*
X357867Y49734D01*
X358153Y49877D01*
X358581D01*
X358867Y49734D01*
X359010Y49306D01*
Y47878D01*
Y49306D02*
X359438Y49734D01*
X359724Y49877D01*
X360152D01*
X360438Y49734D01*
X360581Y49306D01*
Y47878D01*
X361523Y49877D02*
Y47878D01*
Y49306D02*
X361952Y49734D01*
X362237Y49877D01*
X362666D01*
X362951Y49734D01*
X363094Y49306D01*
Y47878D01*
Y49306D02*
X363523Y49734D01*
X363808Y49877D01*
X364237D01*
X364523Y49734D01*
X364665Y49306D01*
Y47878D01*
X368965Y51448D02*
X368679Y51163D01*
X368393Y50734D01*
X368108Y50163D01*
X367965Y49449D01*
Y48878D01*
X368108Y48163D01*
X368393Y47592D01*
X368679Y47164D01*
X368965Y46878D01*
X368679Y51163D02*
X368393Y50591D01*
X368250Y50163D01*
X368108Y49449D01*
Y48878D01*
X368250Y48163D01*
X368393Y47735D01*
X368679Y47164D01*
X371535Y50877D02*
X370107Y47878D01*
X369536Y50877D02*
X371535D01*
X372921D02*
X372492Y50734D01*
X372350Y50449D01*
Y50163D01*
X372492Y49877D01*
X372778Y49734D01*
X373349Y49592D01*
X373778Y49449D01*
X374063Y49163D01*
X374206Y48878D01*
Y48449D01*
X374063Y48163D01*
X373921Y48020D01*
X373492Y47878D01*
X372921D01*
X372492Y48020D01*
X372350Y48163D01*
X372207Y48449D01*
Y48878D01*
X372350Y49163D01*
X372635Y49449D01*
X373064Y49592D01*
X373635Y49734D01*
X373921Y49877D01*
X374063Y50163D01*
Y50449D01*
X373921Y50734D01*
X373492Y50877D01*
X372921D01*
X375020Y48163D02*
X374878Y48020D01*
X375020Y47878D01*
X375163Y48020D01*
X375020Y48163D01*
X377820Y50877D02*
X376392Y47878D01*
X375820Y50877D02*
X377820D01*
X379919D02*
X378491Y48878D01*
X380633D01*
X379919Y50877D02*
Y47878D01*
X381162Y49877D02*
Y47878D01*
Y49306D02*
X381590Y49734D01*
X381876Y49877D01*
X382305D01*
X382590Y49734D01*
X382733Y49306D01*
Y47878D01*
Y49306D02*
X383161Y49734D01*
X383447Y49877D01*
X383876D01*
X384161Y49734D01*
X384304Y49306D01*
Y47878D01*
X385532Y50877D02*
X385675Y50734D01*
X385818Y50877D01*
X385675Y51020D01*
X385532Y50877D01*
X385675Y49877D02*
Y47878D01*
X386347Y50877D02*
Y47878D01*
X386975Y51448D02*
X387261Y51163D01*
X387546Y50734D01*
X387832Y50163D01*
X387975Y49449D01*
Y48878D01*
X387832Y48163D01*
X387546Y47592D01*
X387261Y47164D01*
X386975Y46878D01*
X387261Y51163D02*
X387546Y50591D01*
X387689Y50163D01*
X387832Y49449D01*
Y48878D01*
X387689Y48163D01*
X387546Y47735D01*
X387261Y47164D01*
X345812Y42806D02*
X346098Y42949D01*
X346526Y43377D01*
Y40378D01*
X348155Y40663D02*
X348012Y40521D01*
X348155Y40378D01*
X348298Y40521D01*
X348155Y40663D01*
X349811Y43377D02*
X349383Y43234D01*
X349097Y42806D01*
X348955Y42092D01*
Y41663D01*
X349097Y40949D01*
X349383Y40521D01*
X349811Y40378D01*
X350097D01*
X350526Y40521D01*
X350811Y40949D01*
X350954Y41663D01*
Y42092D01*
X350811Y42806D01*
X350526Y43234D01*
X350097Y43377D01*
X349811D01*
X352482D02*
X352054Y43234D01*
X351768Y42806D01*
X351625Y42092D01*
Y41663D01*
X351768Y40949D01*
X352054Y40521D01*
X352482Y40378D01*
X352768D01*
X353196Y40521D01*
X353482Y40949D01*
X353625Y41663D01*
Y42092D01*
X353482Y42806D01*
X353196Y43234D01*
X352768Y43377D01*
X352482D01*
X355153D02*
X354725Y43234D01*
X354439Y42806D01*
X354296Y42092D01*
Y41663D01*
X354439Y40949D01*
X354725Y40521D01*
X355153Y40378D01*
X355439D01*
X355867Y40521D01*
X356153Y40949D01*
X356296Y41663D01*
Y42092D01*
X356153Y42806D01*
X355867Y43234D01*
X355439Y43377D01*
X355153D01*
X356967Y42377D02*
Y40378D01*
Y41806D02*
X357396Y42234D01*
X357681Y42377D01*
X358110D01*
X358395Y42234D01*
X358538Y41806D01*
Y40378D01*
Y41806D02*
X358967Y42234D01*
X359252Y42377D01*
X359681D01*
X359966Y42234D01*
X360109Y41806D01*
Y40378D01*
X361052Y42377D02*
Y40378D01*
Y41806D02*
X361480Y42234D01*
X361766Y42377D01*
X362194D01*
X362480Y42234D01*
X362623Y41806D01*
Y40378D01*
Y41806D02*
X363052Y42234D01*
X363337Y42377D01*
X363766D01*
X364051Y42234D01*
X364194Y41806D01*
Y40378D01*
X368493Y43948D02*
X368208Y43663D01*
X367922Y43234D01*
X367636Y42663D01*
X367493Y41949D01*
Y41377D01*
X367636Y40663D01*
X367922Y40092D01*
X368208Y39664D01*
X368493Y39378D01*
X368208Y43663D02*
X367922Y43091D01*
X367779Y42663D01*
X367636Y41949D01*
Y41377D01*
X367779Y40663D01*
X367922Y40235D01*
X368208Y39664D01*
X369350Y43377D02*
X370921D01*
X370064Y42234D01*
X370493D01*
X370778Y42092D01*
X370921Y41949D01*
X371064Y41520D01*
Y41235D01*
X370921Y40806D01*
X370636Y40521D01*
X370207Y40378D01*
X369779D01*
X369350Y40521D01*
X369207Y40663D01*
X369064Y40949D01*
X373592Y42377D02*
X373449Y41949D01*
X373164Y41663D01*
X372735Y41520D01*
X372592D01*
X372164Y41663D01*
X371878Y41949D01*
X371735Y42377D01*
Y42520D01*
X371878Y42949D01*
X372164Y43234D01*
X372592Y43377D01*
X372735D01*
X373164Y43234D01*
X373449Y42949D01*
X373592Y42377D01*
Y41663D01*
X373449Y40949D01*
X373164Y40521D01*
X372735Y40378D01*
X372449D01*
X372021Y40521D01*
X371878Y40806D01*
X374549Y40663D02*
X374406Y40521D01*
X374549Y40378D01*
X374692Y40521D01*
X374549Y40663D01*
X375635Y43377D02*
X377206D01*
X376349Y42234D01*
X376777D01*
X377063Y42092D01*
X377206Y41949D01*
X377348Y41520D01*
Y41235D01*
X377206Y40806D01*
X376920Y40521D01*
X376491Y40378D01*
X376063D01*
X375635Y40521D01*
X375492Y40663D01*
X375349Y40949D01*
X380019Y43377D02*
X378591Y40378D01*
X378020Y43377D02*
X380019D01*
X380691Y42377D02*
Y40378D01*
Y41806D02*
X381119Y42234D01*
X381405Y42377D01*
X381833D01*
X382119Y42234D01*
X382262Y41806D01*
Y40378D01*
Y41806D02*
X382690Y42234D01*
X382976Y42377D01*
X383404D01*
X383690Y42234D01*
X383833Y41806D01*
Y40378D01*
X385061Y43377D02*
X385204Y43234D01*
X385347Y43377D01*
X385204Y43520D01*
X385061Y43377D01*
X385204Y42377D02*
Y40378D01*
X385875Y43377D02*
Y40378D01*
X386504Y43948D02*
X386789Y43663D01*
X387075Y43234D01*
X387361Y42663D01*
X387503Y41949D01*
Y41377D01*
X387361Y40663D01*
X387075Y40092D01*
X386789Y39664D01*
X386504Y39378D01*
X386789Y43663D02*
X387075Y43091D01*
X387218Y42663D01*
X387361Y41949D01*
Y41377D01*
X387218Y40663D01*
X387075Y40235D01*
X386789Y39664D01*
X346669Y35877D02*
X346241Y35734D01*
X345955Y35306D01*
X345812Y34592D01*
Y34163D01*
X345955Y33449D01*
X346241Y33020D01*
X346669Y32878D01*
X346955D01*
X347383Y33020D01*
X347669Y33449D01*
X347812Y34163D01*
Y34592D01*
X347669Y35306D01*
X347383Y35734D01*
X346955Y35877D01*
X346669D01*
X348626Y33163D02*
X348483Y33020D01*
X348626Y32878D01*
X348769Y33020D01*
X348626Y33163D01*
X351283Y34877D02*
X351140Y34449D01*
X350854Y34163D01*
X350426Y34020D01*
X350283D01*
X349854Y34163D01*
X349569Y34449D01*
X349426Y34877D01*
Y35020D01*
X349569Y35449D01*
X349854Y35734D01*
X350283Y35877D01*
X350426D01*
X350854Y35734D01*
X351140Y35449D01*
X351283Y34877D01*
Y34163D01*
X351140Y33449D01*
X350854Y33020D01*
X350426Y32878D01*
X350140D01*
X349711Y33020D01*
X349569Y33306D01*
X352954Y35877D02*
X352525Y35734D01*
X352239Y35306D01*
X352097Y34592D01*
Y34163D01*
X352239Y33449D01*
X352525Y33020D01*
X352954Y32878D01*
X353239D01*
X353668Y33020D01*
X353953Y33449D01*
X354096Y34163D01*
Y34592D01*
X353953Y35306D01*
X353668Y35734D01*
X353239Y35877D01*
X352954D01*
X355625D02*
X355196Y35734D01*
X354910Y35306D01*
X354767Y34592D01*
Y34163D01*
X354910Y33449D01*
X355196Y33020D01*
X355625Y32878D01*
X355910D01*
X356339Y33020D01*
X356624Y33449D01*
X356767Y34163D01*
Y34592D01*
X356624Y35306D01*
X356339Y35734D01*
X355910Y35877D01*
X355625D01*
X357438Y34877D02*
Y32878D01*
Y34306D02*
X357867Y34734D01*
X358153Y34877D01*
X358581D01*
X358867Y34734D01*
X359010Y34306D01*
Y32878D01*
Y34306D02*
X359438Y34734D01*
X359724Y34877D01*
X360152D01*
X360438Y34734D01*
X360581Y34306D01*
Y32878D01*
X361523Y34877D02*
Y32878D01*
Y34306D02*
X361952Y34734D01*
X362237Y34877D01*
X362666D01*
X362951Y34734D01*
X363094Y34306D01*
Y32878D01*
Y34306D02*
X363523Y34734D01*
X363808Y34877D01*
X364237D01*
X364523Y34734D01*
X364665Y34306D01*
Y32878D01*
X368965Y36448D02*
X368679Y36163D01*
X368393Y35734D01*
X368108Y35163D01*
X367965Y34449D01*
Y33878D01*
X368108Y33163D01*
X368393Y32592D01*
X368679Y32164D01*
X368965Y31878D01*
X368679Y36163D02*
X368393Y35591D01*
X368250Y35163D01*
X368108Y34449D01*
Y33878D01*
X368250Y33163D01*
X368393Y32735D01*
X368679Y32164D01*
X369821Y35877D02*
X371392D01*
X370536Y34734D01*
X370964D01*
X371250Y34592D01*
X371392Y34449D01*
X371535Y34020D01*
Y33735D01*
X371392Y33306D01*
X371107Y33020D01*
X370678Y32878D01*
X370250D01*
X369821Y33020D01*
X369679Y33163D01*
X369536Y33449D01*
X373921Y35877D02*
X372492D01*
X372350Y34592D01*
X372492Y34734D01*
X372921Y34877D01*
X373349D01*
X373778Y34734D01*
X374063Y34449D01*
X374206Y34020D01*
Y33735D01*
X374063Y33306D01*
X373778Y33020D01*
X373349Y32878D01*
X372921D01*
X372492Y33020D01*
X372350Y33163D01*
X372207Y33449D01*
X375020Y33163D02*
X374878Y33020D01*
X375020Y32878D01*
X375163Y33020D01*
X375020Y33163D01*
X377248Y35877D02*
X375820Y33878D01*
X377963D01*
X377248Y35877D02*
Y32878D01*
X378777Y35877D02*
X380348D01*
X379491Y34734D01*
X379919D01*
X380205Y34592D01*
X380348Y34449D01*
X380491Y34020D01*
Y33735D01*
X380348Y33306D01*
X380062Y33020D01*
X379634Y32878D01*
X379205D01*
X378777Y33020D01*
X378634Y33163D01*
X378491Y33449D01*
X381162Y34877D02*
Y32878D01*
Y34306D02*
X381590Y34734D01*
X381876Y34877D01*
X382305D01*
X382590Y34734D01*
X382733Y34306D01*
Y32878D01*
Y34306D02*
X383161Y34734D01*
X383447Y34877D01*
X383876D01*
X384161Y34734D01*
X384304Y34306D01*
Y32878D01*
X385532Y35877D02*
X385675Y35734D01*
X385818Y35877D01*
X385675Y36020D01*
X385532Y35877D01*
X385675Y34877D02*
Y32878D01*
X386347Y35877D02*
Y32878D01*
X386975Y36448D02*
X387261Y36163D01*
X387546Y35734D01*
X387832Y35163D01*
X387975Y34449D01*
Y33878D01*
X387832Y33163D01*
X387546Y32592D01*
X387261Y32164D01*
X386975Y31878D01*
X387261Y36163D02*
X387546Y35591D01*
X387689Y35163D01*
X387832Y34449D01*
Y33878D01*
X387689Y33163D01*
X387546Y32735D01*
X387261Y32164D01*
X346669Y28377D02*
X346241Y28234D01*
X345955Y27806D01*
X345812Y27092D01*
Y26663D01*
X345955Y25949D01*
X346241Y25521D01*
X346669Y25378D01*
X346955D01*
X347383Y25521D01*
X347669Y25949D01*
X347812Y26663D01*
Y27092D01*
X347669Y27806D01*
X347383Y28234D01*
X346955Y28377D01*
X346669D01*
X348626Y25663D02*
X348483Y25521D01*
X348626Y25378D01*
X348769Y25521D01*
X348626Y25663D01*
X351140Y28377D02*
X349711D01*
X349569Y27092D01*
X349711Y27234D01*
X350140Y27377D01*
X350568D01*
X350997Y27234D01*
X351283Y26949D01*
X351425Y26520D01*
Y26235D01*
X351283Y25806D01*
X350997Y25521D01*
X350568Y25378D01*
X350140D01*
X349711Y25521D01*
X349569Y25663D01*
X349426Y25949D01*
X352954Y28377D02*
X352525Y28234D01*
X352239Y27806D01*
X352097Y27092D01*
Y26663D01*
X352239Y25949D01*
X352525Y25521D01*
X352954Y25378D01*
X353239D01*
X353668Y25521D01*
X353953Y25949D01*
X354096Y26663D01*
Y27092D01*
X353953Y27806D01*
X353668Y28234D01*
X353239Y28377D01*
X352954D01*
X355625D02*
X355196Y28234D01*
X354910Y27806D01*
X354767Y27092D01*
Y26663D01*
X354910Y25949D01*
X355196Y25521D01*
X355625Y25378D01*
X355910D01*
X356339Y25521D01*
X356624Y25949D01*
X356767Y26663D01*
Y27092D01*
X356624Y27806D01*
X356339Y28234D01*
X355910Y28377D01*
X355625D01*
X357438Y27377D02*
Y25378D01*
Y26806D02*
X357867Y27234D01*
X358153Y27377D01*
X358581D01*
X358867Y27234D01*
X359010Y26806D01*
Y25378D01*
Y26806D02*
X359438Y27234D01*
X359724Y27377D01*
X360152D01*
X360438Y27234D01*
X360581Y26806D01*
Y25378D01*
X361523Y27377D02*
Y25378D01*
Y26806D02*
X361952Y27234D01*
X362237Y27377D01*
X362666D01*
X362951Y27234D01*
X363094Y26806D01*
Y25378D01*
Y26806D02*
X363523Y27234D01*
X363808Y27377D01*
X364237D01*
X364523Y27234D01*
X364665Y26806D01*
Y25378D01*
X368965Y28948D02*
X368679Y28663D01*
X368393Y28234D01*
X368108Y27663D01*
X367965Y26949D01*
Y26377D01*
X368108Y25663D01*
X368393Y25092D01*
X368679Y24664D01*
X368965Y24378D01*
X368679Y28663D02*
X368393Y28091D01*
X368250Y27663D01*
X368108Y26949D01*
Y26377D01*
X368250Y25663D01*
X368393Y25235D01*
X368679Y24664D01*
X369536Y27806D02*
X369821Y27949D01*
X370250Y28377D01*
Y25378D01*
X373592Y27377D02*
X373449Y26949D01*
X373164Y26663D01*
X372735Y26520D01*
X372592D01*
X372164Y26663D01*
X371878Y26949D01*
X371735Y27377D01*
Y27520D01*
X371878Y27949D01*
X372164Y28234D01*
X372592Y28377D01*
X372735D01*
X373164Y28234D01*
X373449Y27949D01*
X373592Y27377D01*
Y26663D01*
X373449Y25949D01*
X373164Y25521D01*
X372735Y25378D01*
X372449D01*
X372021Y25521D01*
X371878Y25806D01*
X374549Y25663D02*
X374406Y25521D01*
X374549Y25378D01*
X374692Y25521D01*
X374549Y25663D01*
X377063Y27949D02*
X376920Y28234D01*
X376491Y28377D01*
X376206D01*
X375777Y28234D01*
X375492Y27806D01*
X375349Y27092D01*
Y26377D01*
X375492Y25806D01*
X375777Y25521D01*
X376206Y25378D01*
X376349D01*
X376777Y25521D01*
X377063Y25806D01*
X377206Y26235D01*
Y26377D01*
X377063Y26806D01*
X376777Y27092D01*
X376349Y27234D01*
X376206D01*
X375777Y27092D01*
X375492Y26806D01*
X375349Y26377D01*
X379719Y27377D02*
X379576Y26949D01*
X379291Y26663D01*
X378862Y26520D01*
X378719D01*
X378291Y26663D01*
X378005Y26949D01*
X377863Y27377D01*
Y27520D01*
X378005Y27949D01*
X378291Y28234D01*
X378719Y28377D01*
X378862D01*
X379291Y28234D01*
X379576Y27949D01*
X379719Y27377D01*
Y26663D01*
X379576Y25949D01*
X379291Y25521D01*
X378862Y25378D01*
X378577D01*
X378148Y25521D01*
X378005Y25806D01*
X380533Y27377D02*
Y25378D01*
Y26806D02*
X380962Y27234D01*
X381248Y27377D01*
X381676D01*
X381962Y27234D01*
X382104Y26806D01*
Y25378D01*
Y26806D02*
X382533Y27234D01*
X382819Y27377D01*
X383247D01*
X383533Y27234D01*
X383676Y26806D01*
Y25378D01*
X384904Y28377D02*
X385047Y28234D01*
X385190Y28377D01*
X385047Y28520D01*
X384904Y28377D01*
X385047Y27377D02*
Y25378D01*
X385718Y28377D02*
Y25378D01*
X386347Y28948D02*
X386632Y28663D01*
X386918Y28234D01*
X387204Y27663D01*
X387346Y26949D01*
Y26377D01*
X387204Y25663D01*
X386918Y25092D01*
X386632Y24664D01*
X386347Y24378D01*
X386632Y28663D02*
X386918Y28091D01*
X387061Y27663D01*
X387204Y26949D01*
Y26377D01*
X387061Y25663D01*
X386918Y25235D01*
X386632Y24664D01*
X346669Y20877D02*
X346241Y20734D01*
X345955Y20306D01*
X345812Y19592D01*
Y19163D01*
X345955Y18449D01*
X346241Y18021D01*
X346669Y17878D01*
X346955D01*
X347383Y18021D01*
X347669Y18449D01*
X347812Y19163D01*
Y19592D01*
X347669Y20306D01*
X347383Y20734D01*
X346955Y20877D01*
X346669D01*
X348626Y18163D02*
X348483Y18021D01*
X348626Y17878D01*
X348769Y18021D01*
X348626Y18163D01*
X349711Y20877D02*
X351283D01*
X350426Y19734D01*
X350854D01*
X351140Y19592D01*
X351283Y19449D01*
X351425Y19020D01*
Y18735D01*
X351283Y18306D01*
X350997Y18021D01*
X350568Y17878D01*
X350140D01*
X349711Y18021D01*
X349569Y18163D01*
X349426Y18449D01*
X352954Y20877D02*
X352525Y20734D01*
X352239Y20306D01*
X352097Y19592D01*
Y19163D01*
X352239Y18449D01*
X352525Y18021D01*
X352954Y17878D01*
X353239D01*
X353668Y18021D01*
X353953Y18449D01*
X354096Y19163D01*
Y19592D01*
X353953Y20306D01*
X353668Y20734D01*
X353239Y20877D01*
X352954D01*
X355625D02*
X355196Y20734D01*
X354910Y20306D01*
X354767Y19592D01*
Y19163D01*
X354910Y18449D01*
X355196Y18021D01*
X355625Y17878D01*
X355910D01*
X356339Y18021D01*
X356624Y18449D01*
X356767Y19163D01*
Y19592D01*
X356624Y20306D01*
X356339Y20734D01*
X355910Y20877D01*
X355625D01*
X357438Y19877D02*
Y17878D01*
Y19306D02*
X357867Y19734D01*
X358153Y19877D01*
X358581D01*
X358867Y19734D01*
X359010Y19306D01*
Y17878D01*
Y19306D02*
X359438Y19734D01*
X359724Y19877D01*
X360152D01*
X360438Y19734D01*
X360581Y19306D01*
Y17878D01*
X361523Y19877D02*
Y17878D01*
Y19306D02*
X361952Y19734D01*
X362237Y19877D01*
X362666D01*
X362951Y19734D01*
X363094Y19306D01*
Y17878D01*
Y19306D02*
X363523Y19734D01*
X363808Y19877D01*
X364237D01*
X364523Y19734D01*
X364665Y19306D01*
Y17878D01*
X368965Y21448D02*
X368679Y21163D01*
X368393Y20734D01*
X368108Y20163D01*
X367965Y19449D01*
Y18878D01*
X368108Y18163D01*
X368393Y17592D01*
X368679Y17164D01*
X368965Y16878D01*
X368679Y21163D02*
X368393Y20591D01*
X368250Y20163D01*
X368108Y19449D01*
Y18878D01*
X368250Y18163D01*
X368393Y17735D01*
X368679Y17164D01*
X369536Y20306D02*
X369821Y20449D01*
X370250Y20877D01*
Y17878D01*
X371735Y20306D02*
X372021Y20449D01*
X372449Y20877D01*
Y17878D01*
X374078Y18163D02*
X373935Y18021D01*
X374078Y17878D01*
X374220Y18021D01*
X374078Y18163D01*
X375592Y20877D02*
X375163Y20734D01*
X375020Y20449D01*
Y20163D01*
X375163Y19877D01*
X375449Y19734D01*
X376020Y19592D01*
X376449Y19449D01*
X376734Y19163D01*
X376877Y18878D01*
Y18449D01*
X376734Y18163D01*
X376591Y18021D01*
X376163Y17878D01*
X375592D01*
X375163Y18021D01*
X375020Y18163D01*
X374878Y18449D01*
Y18878D01*
X375020Y19163D01*
X375306Y19449D01*
X375734Y19592D01*
X376306Y19734D01*
X376591Y19877D01*
X376734Y20163D01*
Y20449D01*
X376591Y20734D01*
X376163Y20877D01*
X375592D01*
X377548Y20306D02*
X377834Y20449D01*
X378262Y20877D01*
Y17878D01*
X379748Y19877D02*
Y17878D01*
Y19306D02*
X380176Y19734D01*
X380462Y19877D01*
X380890D01*
X381176Y19734D01*
X381319Y19306D01*
Y17878D01*
Y19306D02*
X381748Y19734D01*
X382033Y19877D01*
X382462D01*
X382747Y19734D01*
X382890Y19306D01*
Y17878D01*
X384118Y20877D02*
X384261Y20734D01*
X384404Y20877D01*
X384261Y21020D01*
X384118Y20877D01*
X384261Y19877D02*
Y17878D01*
X384932Y20877D02*
Y17878D01*
X385561Y21448D02*
X385847Y21163D01*
X386132Y20734D01*
X386418Y20163D01*
X386561Y19449D01*
Y18878D01*
X386418Y18163D01*
X386132Y17592D01*
X385847Y17164D01*
X385561Y16878D01*
X385847Y21163D02*
X386132Y20591D01*
X386275Y20163D01*
X386418Y19449D01*
Y18878D01*
X386275Y18163D01*
X386132Y17735D01*
X385847Y17164D01*
X322273Y12663D02*
Y12806D01*
X322416Y13091D01*
X322559Y13234D01*
X322845Y13377D01*
X323416D01*
X323702Y13234D01*
X323844Y13091D01*
X323987Y12806D01*
Y12520D01*
X323844Y12234D01*
X323559Y11806D01*
X322130Y10378D01*
X324130D01*
X324801Y12806D02*
X325087Y12949D01*
X325516Y13377D01*
Y10378D01*
X327001Y12806D02*
X327287Y12949D01*
X327715Y13377D01*
Y10378D01*
X332557Y13377D02*
Y10378D01*
X331557Y13377D02*
X333557D01*
X334628Y12377D02*
X334342Y12234D01*
X334056Y11949D01*
X333914Y11520D01*
Y11235D01*
X334056Y10806D01*
X334342Y10520D01*
X334628Y10378D01*
X335056D01*
X335342Y10520D01*
X335628Y10806D01*
X335770Y11235D01*
Y11520D01*
X335628Y11949D01*
X335342Y12234D01*
X335056Y12377D01*
X334628D01*
X336856Y13377D02*
Y10949D01*
X336999Y10520D01*
X337284Y10378D01*
X337570D01*
X336427Y12377D02*
X337427D01*
X339712D02*
Y10378D01*
Y11949D02*
X339427Y12234D01*
X339141Y12377D01*
X338713D01*
X338427Y12234D01*
X338141Y11949D01*
X337999Y11520D01*
Y11235D01*
X338141Y10806D01*
X338427Y10520D01*
X338713Y10378D01*
X339141D01*
X339427Y10520D01*
X339712Y10806D01*
X340512Y13377D02*
Y10378D01*
X322273Y65163D02*
Y65306D01*
X322416Y65591D01*
X322559Y65734D01*
X322845Y65877D01*
X323416D01*
X323702Y65734D01*
X323844Y65591D01*
X323987Y65306D01*
Y65020D01*
X323844Y64734D01*
X323559Y64306D01*
X322130Y62878D01*
X324130D01*
X322273Y57663D02*
Y57806D01*
X322416Y58091D01*
X322559Y58234D01*
X322845Y58377D01*
X323416D01*
X323702Y58234D01*
X323844Y58091D01*
X323987Y57806D01*
Y57520D01*
X323844Y57234D01*
X323559Y56806D01*
X322130Y55378D01*
X324130D01*
X322273Y50163D02*
Y50306D01*
X322416Y50591D01*
X322559Y50734D01*
X322845Y50877D01*
X323416D01*
X323702Y50734D01*
X323844Y50591D01*
X323987Y50306D01*
Y50020D01*
X323844Y49734D01*
X323559Y49306D01*
X322130Y47878D01*
X324130D01*
X323559Y43377D02*
X322130Y41377D01*
X324273D01*
X323559Y43377D02*
Y40378D01*
X322130Y35306D02*
X322416Y35449D01*
X322845Y35877D01*
Y32878D01*
X325187Y35877D02*
X324759Y35734D01*
X324473Y35306D01*
X324330Y34592D01*
Y34163D01*
X324473Y33449D01*
X324759Y33020D01*
X325187Y32878D01*
X325473D01*
X325901Y33020D01*
X326187Y33449D01*
X326330Y34163D01*
Y34592D01*
X326187Y35306D01*
X325901Y35734D01*
X325473Y35877D01*
X325187D01*
X322130Y27806D02*
X322416Y27949D01*
X322845Y28377D01*
Y25378D01*
X324330Y27806D02*
X324616Y27949D01*
X325044Y28377D01*
Y25378D01*
X322130Y20306D02*
X322416Y20449D01*
X322845Y20877D01*
Y17878D01*
X325044Y20877D02*
X324616Y20734D01*
X324473Y20449D01*
Y20163D01*
X324616Y19877D01*
X324901Y19734D01*
X325473Y19592D01*
X325901Y19449D01*
X326187Y19163D01*
X326330Y18878D01*
Y18449D01*
X326187Y18163D01*
X326044Y18021D01*
X325616Y17878D01*
X325044D01*
X324616Y18021D01*
X324473Y18163D01*
X324330Y18449D01*
Y18878D01*
X324473Y19163D01*
X324759Y19449D01*
X325187Y19592D01*
X325758Y19734D01*
X326044Y19877D01*
X326187Y20163D01*
Y20449D01*
X326044Y20734D01*
X325616Y20877D01*
X325044D01*
X327858D02*
X327429Y20734D01*
X327144Y20306D01*
X327001Y19592D01*
Y19163D01*
X327144Y18449D01*
X327429Y18021D01*
X327858Y17878D01*
X328144D01*
X328572Y18021D01*
X328858Y18449D01*
X329000Y19163D01*
Y19592D01*
X328858Y20306D01*
X328572Y20734D01*
X328144Y20877D01*
X327858D01*
X364884Y243D02*
X367455D01*
X364884Y-614D02*
X367455D01*
X370697Y1529D02*
Y-1471D01*
Y1529D02*
X371983D01*
X372411Y1386D01*
X372554Y1243D01*
X372697Y958D01*
Y672D01*
X372554Y386D01*
X372411Y243D01*
X371983Y100D01*
X370697D01*
X371697D02*
X372697Y-1471D01*
X374082Y529D02*
X373797Y386D01*
X373511Y100D01*
X373368Y-328D01*
Y-614D01*
X373511Y-1042D01*
X373797Y-1328D01*
X374082Y-1471D01*
X374511D01*
X374797Y-1328D01*
X375082Y-1042D01*
X375225Y-614D01*
Y-328D01*
X375082Y100D01*
X374797Y386D01*
X374511Y529D01*
X374082D01*
X375882D02*
Y-899D01*
X376025Y-1328D01*
X376310Y-1471D01*
X376739D01*
X377025Y-1328D01*
X377453Y-899D01*
Y529D02*
Y-1471D01*
X378667Y1529D02*
Y-899D01*
X378810Y-1328D01*
X379096Y-1471D01*
X379381D01*
X378239Y529D02*
X379239D01*
X379810Y-328D02*
X381524D01*
Y-42D01*
X381381Y243D01*
X381238Y386D01*
X380952Y529D01*
X380524D01*
X380238Y386D01*
X379953Y100D01*
X379810Y-328D01*
Y-614D01*
X379953Y-1042D01*
X380238Y-1328D01*
X380524Y-1471D01*
X380952D01*
X381238Y-1328D01*
X381524Y-1042D01*
X383880Y1529D02*
Y-1471D01*
Y100D02*
X383595Y386D01*
X383309Y529D01*
X382880D01*
X382595Y386D01*
X382309Y100D01*
X382166Y-328D01*
Y-614D01*
X382309Y-1042D01*
X382595Y-1328D01*
X382880Y-1471D01*
X383309D01*
X383595Y-1328D01*
X383880Y-1042D01*
X387037Y-42D02*
X388322D01*
X388751Y100D01*
X388894Y243D01*
X389036Y529D01*
Y958D01*
X388894Y1243D01*
X388751Y1386D01*
X388322Y1529D01*
X387037D01*
Y-1471D01*
X391422Y529D02*
Y-1471D01*
Y100D02*
X391136Y386D01*
X390850Y529D01*
X390422D01*
X390136Y386D01*
X389850Y100D01*
X389708Y-328D01*
Y-614D01*
X389850Y-1042D01*
X390136Y-1328D01*
X390422Y-1471D01*
X390850D01*
X391136Y-1328D01*
X391422Y-1042D01*
X392650Y1529D02*
Y-899D01*
X392793Y-1328D01*
X393078Y-1471D01*
X393364D01*
X392221Y529D02*
X393221D01*
X393793Y1529D02*
Y-1471D01*
Y-42D02*
X394221Y386D01*
X394507Y529D01*
X394935D01*
X395221Y386D01*
X395364Y-42D01*
Y-1471D01*
X398506Y1529D02*
Y-1471D01*
X400220D01*
X400548Y-328D02*
X402262D01*
Y-42D01*
X402119Y243D01*
X401976Y386D01*
X401691Y529D01*
X401262D01*
X400977Y386D01*
X400691Y100D01*
X400548Y-328D01*
Y-614D01*
X400691Y-1042D01*
X400977Y-1328D01*
X401262Y-1471D01*
X401691D01*
X401976Y-1328D01*
X402262Y-1042D01*
X402905Y529D02*
Y-1471D01*
Y-42D02*
X403333Y386D01*
X403619Y529D01*
X404047D01*
X404333Y386D01*
X404476Y-42D01*
Y-1471D01*
X406975Y529D02*
Y-1756D01*
X406833Y-2185D01*
X406690Y-2328D01*
X406404Y-2470D01*
X405976D01*
X405690Y-2328D01*
X406975Y100D02*
X406690Y386D01*
X406404Y529D01*
X405976D01*
X405690Y386D01*
X405404Y100D01*
X405262Y-328D01*
Y-614D01*
X405404Y-1042D01*
X405690Y-1328D01*
X405976Y-1471D01*
X406404D01*
X406690Y-1328D01*
X406975Y-1042D01*
X408204Y1529D02*
Y-899D01*
X408347Y-1328D01*
X408632Y-1471D01*
X408918D01*
X407775Y529D02*
X408775D01*
X409346Y1529D02*
Y-1471D01*
Y-42D02*
X409775Y386D01*
X410061Y529D01*
X410489D01*
X410775Y386D01*
X410917Y-42D01*
Y-1471D01*
X415345Y1100D02*
Y-1471D01*
X414060Y-185D02*
X416631D01*
X420872Y1529D02*
Y-1471D01*
X419873Y1529D02*
X421872D01*
X422943Y529D02*
X422658Y386D01*
X422372Y100D01*
X422229Y-328D01*
Y-614D01*
X422372Y-1042D01*
X422658Y-1328D01*
X422943Y-1471D01*
X423372D01*
X423658Y-1328D01*
X423943Y-1042D01*
X424086Y-614D01*
Y-328D01*
X423943Y100D01*
X423658Y386D01*
X423372Y529D01*
X422943D01*
X425457D02*
X425172Y386D01*
X424886Y100D01*
X424743Y-328D01*
Y-614D01*
X424886Y-1042D01*
X425172Y-1328D01*
X425457Y-1471D01*
X425886D01*
X426171Y-1328D01*
X426457Y-1042D01*
X426600Y-614D01*
Y-328D01*
X426457Y100D01*
X426171Y386D01*
X425886Y529D01*
X425457D01*
X427257Y1529D02*
Y-1471D01*
X432241Y1100D02*
X431956Y1386D01*
X431527Y1529D01*
X430956D01*
X430527Y1386D01*
X430242Y1100D01*
Y815D01*
X430385Y529D01*
X430527Y386D01*
X430813Y243D01*
X431670Y-42D01*
X431956Y-185D01*
X432099Y-328D01*
X432241Y-614D01*
Y-1042D01*
X431956Y-1328D01*
X431527Y-1471D01*
X430956D01*
X430527Y-1328D01*
X430242Y-1042D01*
X433198Y1529D02*
X433341Y1386D01*
X433484Y1529D01*
X433341Y1672D01*
X433198Y1529D01*
X433341Y529D02*
Y-1471D01*
X435584Y529D02*
X434013Y-1471D01*
Y529D02*
X435584D01*
X434013Y-1471D02*
X435584D01*
X436212Y-328D02*
X437926D01*
Y-42D01*
X437783Y243D01*
X437640Y386D01*
X437355Y529D01*
X436926D01*
X436641Y386D01*
X436355Y100D01*
X436212Y-328D01*
Y-614D01*
X436355Y-1042D01*
X436641Y-1328D01*
X436926Y-1471D01*
X437355D01*
X437640Y-1328D01*
X437926Y-1042D01*
X440925Y243D02*
X443496D01*
X440925Y-614D02*
X443496D01*
X448738Y1100D02*
X448452Y1386D01*
X448024Y1529D01*
X447452D01*
X447024Y1386D01*
X446738Y1100D01*
Y815D01*
X446881Y529D01*
X447024Y386D01*
X447310Y243D01*
X448167Y-42D01*
X448452Y-185D01*
X448595Y-328D01*
X448738Y-614D01*
Y-1042D01*
X448452Y-1328D01*
X448024Y-1471D01*
X447452D01*
X447024Y-1328D01*
X446738Y-1042D01*
X449409Y1529D02*
Y-1471D01*
X450752Y529D02*
X450466Y386D01*
X450180Y100D01*
X450038Y-328D01*
Y-614D01*
X450180Y-1042D01*
X450466Y-1328D01*
X450752Y-1471D01*
X451180D01*
X451466Y-1328D01*
X451752Y-1042D01*
X451894Y-614D01*
Y-328D01*
X451752Y100D01*
X451466Y386D01*
X451180Y529D01*
X450752D01*
X452980Y1529D02*
Y-899D01*
X453123Y-1328D01*
X453408Y-1471D01*
X453694D01*
X452551Y529D02*
X453551D01*
X456479Y1529D02*
Y-1471D01*
X457108Y-328D02*
X458821D01*
Y-42D01*
X458679Y243D01*
X458536Y386D01*
X458250Y529D01*
X457822D01*
X457536Y386D01*
X457250Y100D01*
X457108Y-328D01*
Y-614D01*
X457250Y-1042D01*
X457536Y-1328D01*
X457822Y-1471D01*
X458250D01*
X458536Y-1328D01*
X458821Y-1042D01*
X459464Y529D02*
Y-1471D01*
Y-42D02*
X459893Y386D01*
X460178Y529D01*
X460607D01*
X460892Y386D01*
X461035Y-42D01*
Y-1471D01*
X463535Y529D02*
Y-1756D01*
X463392Y-2185D01*
X463249Y-2328D01*
X462963Y-2470D01*
X462535D01*
X462249Y-2328D01*
X463535Y100D02*
X463249Y386D01*
X462963Y529D01*
X462535D01*
X462249Y386D01*
X461964Y100D01*
X461821Y-328D01*
Y-614D01*
X461964Y-1042D01*
X462249Y-1328D01*
X462535Y-1471D01*
X462963D01*
X463249Y-1328D01*
X463535Y-1042D01*
X464763Y1529D02*
Y-899D01*
X464906Y-1328D01*
X465192Y-1471D01*
X465477D01*
X464335Y529D02*
X465334D01*
X465906Y1529D02*
Y-1471D01*
Y-42D02*
X466334Y386D01*
X466620Y529D01*
X467048D01*
X467334Y386D01*
X467477Y-42D01*
Y-1471D01*
X472333Y529D02*
Y-1471D01*
Y100D02*
X472047Y386D01*
X471762Y529D01*
X471333D01*
X471047Y386D01*
X470762Y100D01*
X470619Y-328D01*
Y-614D01*
X470762Y-1042D01*
X471047Y-1328D01*
X471333Y-1471D01*
X471762D01*
X472047Y-1328D01*
X472333Y-1042D01*
X474704Y100D02*
X474561Y386D01*
X474132Y529D01*
X473704D01*
X473276Y386D01*
X473133Y100D01*
X473276Y-185D01*
X473561Y-328D01*
X474275Y-471D01*
X474561Y-614D01*
X474704Y-899D01*
Y-1042D01*
X474561Y-1328D01*
X474132Y-1471D01*
X473704D01*
X473276Y-1328D01*
X473133Y-1042D01*
X479403Y1529D02*
Y-1471D01*
Y100D02*
X479117Y386D01*
X478831Y529D01*
X478403D01*
X478117Y386D01*
X477832Y100D01*
X477689Y-328D01*
Y-614D01*
X477832Y-1042D01*
X478117Y-1328D01*
X478403Y-1471D01*
X478831D01*
X479117Y-1328D01*
X479403Y-1042D01*
X480203Y-328D02*
X481917D01*
Y-42D01*
X481774Y243D01*
X481631Y386D01*
X481345Y529D01*
X480917D01*
X480631Y386D01*
X480345Y100D01*
X480203Y-328D01*
Y-614D01*
X480345Y-1042D01*
X480631Y-1328D01*
X480917Y-1471D01*
X481345D01*
X481631Y-1328D01*
X481917Y-1042D01*
X483702Y1529D02*
X483416D01*
X483131Y1386D01*
X482988Y958D01*
Y-1471D01*
X482559Y529D02*
X483559D01*
X484416Y1529D02*
X484559Y1386D01*
X484702Y1529D01*
X484559Y1672D01*
X484416Y1529D01*
X484559Y529D02*
Y-1471D01*
X485230Y529D02*
Y-1471D01*
Y-42D02*
X485659Y386D01*
X485944Y529D01*
X486373D01*
X486658Y386D01*
X486801Y-42D01*
Y-1471D01*
X487587Y-328D02*
X489301D01*
Y-42D01*
X489158Y243D01*
X489015Y386D01*
X488729Y529D01*
X488301D01*
X488015Y386D01*
X487730Y100D01*
X487587Y-328D01*
Y-614D01*
X487730Y-1042D01*
X488015Y-1328D01*
X488301Y-1471D01*
X488729D01*
X489015Y-1328D01*
X489301Y-1042D01*
X491657Y1529D02*
Y-1471D01*
Y100D02*
X491372Y386D01*
X491086Y529D01*
X490658D01*
X490372Y386D01*
X490086Y100D01*
X489943Y-328D01*
Y-614D01*
X490086Y-1042D01*
X490372Y-1328D01*
X490658Y-1471D01*
X491086D01*
X491372Y-1328D01*
X491657Y-1042D01*
X495099Y1529D02*
X495242Y1386D01*
X495385Y1529D01*
X495242Y1672D01*
X495099Y1529D01*
X495242Y529D02*
Y-1471D01*
X495914Y529D02*
Y-1471D01*
Y-42D02*
X496342Y386D01*
X496628Y529D01*
X497056D01*
X497342Y386D01*
X497485Y-42D01*
Y-1471D01*
X501055Y1529D02*
Y-899D01*
X501198Y-1328D01*
X501484Y-1471D01*
X501769D01*
X500627Y529D02*
X501627D01*
X502198Y1529D02*
Y-1471D01*
Y-42D02*
X502626Y386D01*
X502912Y529D01*
X503340D01*
X503626Y386D01*
X503769Y-42D01*
Y-1471D01*
X504555Y-328D02*
X506269D01*
Y-42D01*
X506126Y243D01*
X505983Y386D01*
X505697Y529D01*
X505269D01*
X504983Y386D01*
X504697Y100D01*
X504555Y-328D01*
Y-614D01*
X504697Y-1042D01*
X504983Y-1328D01*
X505269Y-1471D01*
X505697D01*
X505983Y-1328D01*
X506269Y-1042D01*
X509268Y-42D02*
X510553D01*
X510982Y100D01*
X511125Y243D01*
X511267Y529D01*
Y958D01*
X511125Y1243D01*
X510982Y1386D01*
X510553Y1529D01*
X509268D01*
Y-1471D01*
X514081Y815D02*
X513938Y1100D01*
X513653Y1386D01*
X513367Y1529D01*
X512796D01*
X512510Y1386D01*
X512224Y1100D01*
X512081Y815D01*
X511939Y386D01*
Y-328D01*
X512081Y-757D01*
X512224Y-1042D01*
X512510Y-1328D01*
X512796Y-1471D01*
X513367D01*
X513653Y-1328D01*
X513938Y-1042D01*
X514081Y-757D01*
X514924Y1529D02*
Y-1471D01*
Y1529D02*
X516209D01*
X516638Y1386D01*
X516781Y1243D01*
X516923Y958D01*
Y672D01*
X516781Y386D01*
X516638Y243D01*
X516209Y100D01*
X514924D02*
X516209D01*
X516638Y-42D01*
X516781Y-185D01*
X516923Y-471D01*
Y-899D01*
X516781Y-1185D01*
X516638Y-1328D01*
X516209Y-1471D01*
X514924D01*
X519951Y1529D02*
Y-1471D01*
X522294Y529D02*
Y-1471D01*
Y100D02*
X522008Y386D01*
X521722Y529D01*
X521294D01*
X521008Y386D01*
X520722Y100D01*
X520580Y-328D01*
Y-614D01*
X520722Y-1042D01*
X521008Y-1328D01*
X521294Y-1471D01*
X521722D01*
X522008Y-1328D01*
X522294Y-1042D01*
X523236Y529D02*
X524093Y-1471D01*
X524950Y529D02*
X524093Y-1471D01*
X523808Y-2042D01*
X523522Y-2328D01*
X523236Y-2470D01*
X523094D01*
X526164Y529D02*
X525879Y386D01*
X525593Y100D01*
X525450Y-328D01*
Y-614D01*
X525593Y-1042D01*
X525879Y-1328D01*
X526164Y-1471D01*
X526593D01*
X526878Y-1328D01*
X527164Y-1042D01*
X527307Y-614D01*
Y-328D01*
X527164Y100D01*
X526878Y386D01*
X526593Y529D01*
X526164D01*
X527964D02*
Y-899D01*
X528107Y-1328D01*
X528392Y-1471D01*
X528821D01*
X529107Y-1328D01*
X529535Y-899D01*
Y529D02*
Y-1471D01*
X530749Y1529D02*
Y-899D01*
X530892Y-1328D01*
X531178Y-1471D01*
X531463D01*
X530321Y529D02*
X531320D01*
X379653Y5043D02*
X382224D01*
X379653Y4185D02*
X382224D01*
X387608Y5614D02*
X387465Y5899D01*
X387180Y6185D01*
X386894Y6328D01*
X386323D01*
X386037Y6185D01*
X385751Y5899D01*
X385609Y5614D01*
X385466Y5185D01*
Y4471D01*
X385609Y4043D01*
X385751Y3757D01*
X386037Y3471D01*
X386323Y3328D01*
X386894D01*
X387180Y3471D01*
X387465Y3757D01*
X387608Y4043D01*
X390165Y5328D02*
Y3328D01*
Y4900D02*
X389879Y5185D01*
X389593Y5328D01*
X389165D01*
X388879Y5185D01*
X388594Y4900D01*
X388451Y4471D01*
Y4185D01*
X388594Y3757D01*
X388879Y3471D01*
X389165Y3328D01*
X389593D01*
X389879Y3471D01*
X390165Y3757D01*
X390965Y6328D02*
Y3328D01*
X393307Y4900D02*
X393021Y5185D01*
X392736Y5328D01*
X392307D01*
X392021Y5185D01*
X391736Y4900D01*
X391593Y4471D01*
Y4185D01*
X391736Y3757D01*
X392021Y3471D01*
X392307Y3328D01*
X392736D01*
X393021Y3471D01*
X393307Y3757D01*
X393950Y5328D02*
Y3900D01*
X394092Y3471D01*
X394378Y3328D01*
X394807D01*
X395092Y3471D01*
X395521Y3900D01*
Y5328D02*
Y3328D01*
X396306Y6328D02*
Y3328D01*
X398649Y5328D02*
Y3328D01*
Y4900D02*
X398363Y5185D01*
X398077Y5328D01*
X397649D01*
X397363Y5185D01*
X397077Y4900D01*
X396935Y4471D01*
Y4185D01*
X397077Y3757D01*
X397363Y3471D01*
X397649Y3328D01*
X398077D01*
X398363Y3471D01*
X398649Y3757D01*
X399877Y6328D02*
Y3900D01*
X400020Y3471D01*
X400305Y3328D01*
X400591D01*
X399448Y5328D02*
X400448D01*
X401019Y4471D02*
X402733D01*
Y4757D01*
X402591Y5043D01*
X402448Y5185D01*
X402162Y5328D01*
X401734D01*
X401448Y5185D01*
X401162Y4900D01*
X401019Y4471D01*
Y4185D01*
X401162Y3757D01*
X401448Y3471D01*
X401734Y3328D01*
X402162D01*
X402448Y3471D01*
X402733Y3757D01*
X405090Y6328D02*
Y3328D01*
Y4900D02*
X404804Y5185D01*
X404519Y5328D01*
X404090D01*
X403805Y5185D01*
X403519Y4900D01*
X403376Y4471D01*
Y4185D01*
X403519Y3757D01*
X403805Y3471D01*
X404090Y3328D01*
X404519D01*
X404804Y3471D01*
X405090Y3757D01*
X409389Y6328D02*
X409103D01*
X408818Y6185D01*
X408675Y5757D01*
Y3328D01*
X408247Y5328D02*
X409246D01*
X409818D02*
Y3328D01*
Y4471D02*
X409961Y4900D01*
X410246Y5185D01*
X410532Y5328D01*
X410960D01*
X411946D02*
X411660Y5185D01*
X411375Y4900D01*
X411232Y4471D01*
Y4185D01*
X411375Y3757D01*
X411660Y3471D01*
X411946Y3328D01*
X412374D01*
X412660Y3471D01*
X412946Y3757D01*
X413088Y4185D01*
Y4471D01*
X412946Y4900D01*
X412660Y5185D01*
X412374Y5328D01*
X411946D01*
X413745D02*
Y3328D01*
Y4757D02*
X414174Y5185D01*
X414460Y5328D01*
X414888D01*
X415174Y5185D01*
X415316Y4757D01*
Y3328D01*
Y4757D02*
X415745Y5185D01*
X416031Y5328D01*
X416459D01*
X416745Y5185D01*
X416888Y4757D01*
Y3328D01*
X420615Y6328D02*
Y3900D01*
X420758Y3471D01*
X421044Y3328D01*
X421329D01*
X420187Y5328D02*
X421187D01*
X422472D02*
X422186Y5185D01*
X421901Y4900D01*
X421758Y4471D01*
Y4185D01*
X421901Y3757D01*
X422186Y3471D01*
X422472Y3328D01*
X422901D01*
X423186Y3471D01*
X423472Y3757D01*
X423615Y4185D01*
Y4471D01*
X423472Y4900D01*
X423186Y5185D01*
X422901Y5328D01*
X422472D01*
X424986D02*
X424700Y5185D01*
X424414Y4900D01*
X424272Y4471D01*
Y4185D01*
X424414Y3757D01*
X424700Y3471D01*
X424986Y3328D01*
X425414D01*
X425700Y3471D01*
X425986Y3757D01*
X426128Y4185D01*
Y4471D01*
X425986Y4900D01*
X425700Y5185D01*
X425414Y5328D01*
X424986D01*
X426786Y6328D02*
Y3328D01*
X431342Y4900D02*
X431199Y5185D01*
X430770Y5328D01*
X430342D01*
X429913Y5185D01*
X429771Y4900D01*
X429913Y4614D01*
X430199Y4471D01*
X430913Y4328D01*
X431199Y4185D01*
X431342Y3900D01*
Y3757D01*
X431199Y3471D01*
X430770Y3328D01*
X430342D01*
X429913Y3471D01*
X429771Y3757D01*
X432399Y6328D02*
Y3900D01*
X432541Y3471D01*
X432827Y3328D01*
X433113D01*
X431970Y5328D02*
X432970D01*
X435255D02*
Y3328D01*
Y4900D02*
X434969Y5185D01*
X434684Y5328D01*
X434255D01*
X433970Y5185D01*
X433684Y4900D01*
X433541Y4471D01*
Y4185D01*
X433684Y3757D01*
X433970Y3471D01*
X434255Y3328D01*
X434684D01*
X434969Y3471D01*
X435255Y3757D01*
X436055Y5328D02*
Y3328D01*
Y4471D02*
X436198Y4900D01*
X436483Y5185D01*
X436769Y5328D01*
X437197D01*
X437897Y6328D02*
Y3900D01*
X438040Y3471D01*
X438326Y3328D01*
X438612D01*
X437469Y5328D02*
X438469D01*
X443111Y4900D02*
X442825Y5185D01*
X442539Y5328D01*
X442111D01*
X441825Y5185D01*
X441539Y4900D01*
X441397Y4471D01*
Y4185D01*
X441539Y3757D01*
X441825Y3471D01*
X442111Y3328D01*
X442539D01*
X442825Y3471D01*
X443111Y3757D01*
X443753Y4471D02*
X445467D01*
Y4757D01*
X445324Y5043D01*
X445182Y5185D01*
X444896Y5328D01*
X444467D01*
X444182Y5185D01*
X443896Y4900D01*
X443753Y4471D01*
Y4185D01*
X443896Y3757D01*
X444182Y3471D01*
X444467Y3328D01*
X444896D01*
X445182Y3471D01*
X445467Y3757D01*
X446110Y5328D02*
Y3328D01*
Y4757D02*
X446538Y5185D01*
X446824Y5328D01*
X447253D01*
X447538Y5185D01*
X447681Y4757D01*
Y3328D01*
X448895Y6328D02*
Y3900D01*
X449038Y3471D01*
X449324Y3328D01*
X449609D01*
X448466Y5328D02*
X449466D01*
X450038D02*
Y3328D01*
Y4471D02*
X450180Y4900D01*
X450466Y5185D01*
X450752Y5328D01*
X451180D01*
X451452Y4471D02*
X453165D01*
Y4757D01*
X453023Y5043D01*
X452880Y5185D01*
X452594Y5328D01*
X452166D01*
X451880Y5185D01*
X451594Y4900D01*
X451452Y4471D01*
Y4185D01*
X451594Y3757D01*
X451880Y3471D01*
X452166Y3328D01*
X452594D01*
X452880Y3471D01*
X453165Y3757D01*
X456165Y5328D02*
Y2329D01*
Y4900D02*
X456451Y5185D01*
X456736Y5328D01*
X457165D01*
X457450Y5185D01*
X457736Y4900D01*
X457879Y4471D01*
Y4185D01*
X457736Y3757D01*
X457450Y3471D01*
X457165Y3328D01*
X456736D01*
X456451Y3471D01*
X456165Y3757D01*
X459236Y5328D02*
X458950Y5185D01*
X458664Y4900D01*
X458522Y4471D01*
Y4185D01*
X458664Y3757D01*
X458950Y3471D01*
X459236Y3328D01*
X459664D01*
X459950Y3471D01*
X460235Y3757D01*
X460378Y4185D01*
Y4471D01*
X460235Y4900D01*
X459950Y5185D01*
X459664Y5328D01*
X459236D01*
X462606Y4900D02*
X462464Y5185D01*
X462035Y5328D01*
X461607D01*
X461178Y5185D01*
X461035Y4900D01*
X461178Y4614D01*
X461464Y4471D01*
X462178Y4328D01*
X462464Y4185D01*
X462606Y3900D01*
Y3757D01*
X462464Y3471D01*
X462035Y3328D01*
X461607D01*
X461178Y3471D01*
X461035Y3757D01*
X463520Y6328D02*
X463663Y6185D01*
X463806Y6328D01*
X463663Y6471D01*
X463520Y6328D01*
X463663Y5328D02*
Y3328D01*
X464763Y6328D02*
Y3900D01*
X464906Y3471D01*
X465192Y3328D01*
X465477D01*
X464335Y5328D02*
X465334D01*
X466191Y6328D02*
X466334Y6185D01*
X466477Y6328D01*
X466334Y6471D01*
X466191Y6328D01*
X466334Y5328D02*
Y3328D01*
X467720Y5328D02*
X467434Y5185D01*
X467148Y4900D01*
X467005Y4471D01*
Y4185D01*
X467148Y3757D01*
X467434Y3471D01*
X467720Y3328D01*
X468148D01*
X468434Y3471D01*
X468719Y3757D01*
X468862Y4185D01*
Y4471D01*
X468719Y4900D01*
X468434Y5185D01*
X468148Y5328D01*
X467720D01*
X469519D02*
Y3328D01*
Y4757D02*
X469948Y5185D01*
X470233Y5328D01*
X470662D01*
X470947Y5185D01*
X471090Y4757D01*
Y3328D01*
X474661Y6328D02*
Y3900D01*
X474804Y3471D01*
X475089Y3328D01*
X475375D01*
X474232Y5328D02*
X475232D01*
X476518D02*
X476232Y5185D01*
X475946Y4900D01*
X475804Y4471D01*
Y4185D01*
X475946Y3757D01*
X476232Y3471D01*
X476518Y3328D01*
X476946D01*
X477232Y3471D01*
X477518Y3757D01*
X477660Y4185D01*
Y4471D01*
X477518Y4900D01*
X477232Y5185D01*
X476946Y5328D01*
X476518D01*
X481102Y6328D02*
Y3900D01*
X481245Y3471D01*
X481531Y3328D01*
X481816D01*
X480674Y5328D02*
X481674D01*
X482959D02*
X482674Y5185D01*
X482388Y4900D01*
X482245Y4471D01*
Y4185D01*
X482388Y3757D01*
X482674Y3471D01*
X482959Y3328D01*
X483388D01*
X483673Y3471D01*
X483959Y3757D01*
X484102Y4185D01*
Y4471D01*
X483959Y4900D01*
X483673Y5185D01*
X483388Y5328D01*
X482959D01*
X485473D02*
X485187Y5185D01*
X484902Y4900D01*
X484759Y4471D01*
Y4185D01*
X484902Y3757D01*
X485187Y3471D01*
X485473Y3328D01*
X485901D01*
X486187Y3471D01*
X486473Y3757D01*
X486616Y4185D01*
Y4471D01*
X486473Y4900D01*
X486187Y5185D01*
X485901Y5328D01*
X485473D01*
X487273Y6328D02*
Y3328D01*
X490258Y4471D02*
X491971D01*
Y4757D01*
X491829Y5043D01*
X491686Y5185D01*
X491400Y5328D01*
X490972D01*
X490686Y5185D01*
X490400Y4900D01*
X490258Y4471D01*
Y4185D01*
X490400Y3757D01*
X490686Y3471D01*
X490972Y3328D01*
X491400D01*
X491686Y3471D01*
X491971Y3757D01*
X492614Y5328D02*
Y3328D01*
Y4757D02*
X493043Y5185D01*
X493328Y5328D01*
X493757D01*
X494042Y5185D01*
X494185Y4757D01*
Y3328D01*
X496685Y6328D02*
Y3328D01*
Y4900D02*
X496399Y5185D01*
X496113Y5328D01*
X495685D01*
X495399Y5185D01*
X495114Y4900D01*
X494971Y4471D01*
Y4185D01*
X495114Y3757D01*
X495399Y3471D01*
X495685Y3328D01*
X496113D01*
X496399Y3471D01*
X496685Y3757D01*
X501555Y4900D02*
X501269Y5185D01*
X500984Y5328D01*
X500555D01*
X500270Y5185D01*
X499984Y4900D01*
X499841Y4471D01*
Y4185D01*
X499984Y3757D01*
X500270Y3471D01*
X500555Y3328D01*
X500984D01*
X501269Y3471D01*
X501555Y3757D01*
X502198Y4471D02*
X503912D01*
Y4757D01*
X503769Y5043D01*
X503626Y5185D01*
X503340Y5328D01*
X502912D01*
X502626Y5185D01*
X502341Y4900D01*
X502198Y4471D01*
Y4185D01*
X502341Y3757D01*
X502626Y3471D01*
X502912Y3328D01*
X503340D01*
X503626Y3471D01*
X503912Y3757D01*
X504555Y5328D02*
Y3328D01*
Y4757D02*
X504983Y5185D01*
X505269Y5328D01*
X505697D01*
X505983Y5185D01*
X506126Y4757D01*
Y3328D01*
X507340Y6328D02*
Y3900D01*
X507482Y3471D01*
X507768Y3328D01*
X508054D01*
X506911Y5328D02*
X507911D01*
X508482D02*
Y3328D01*
Y4471D02*
X508625Y4900D01*
X508911Y5185D01*
X509196Y5328D01*
X509625D01*
X509896Y4471D02*
X511610D01*
Y4757D01*
X511467Y5043D01*
X511325Y5185D01*
X511039Y5328D01*
X510610D01*
X510325Y5185D01*
X510039Y4900D01*
X509896Y4471D01*
Y4185D01*
X510039Y3757D01*
X510325Y3471D01*
X510610Y3328D01*
X511039D01*
X511325Y3471D01*
X511610Y3757D01*
X514609Y5328D02*
Y2329D01*
Y4900D02*
X514895Y5185D01*
X515181Y5328D01*
X515609D01*
X515895Y5185D01*
X516181Y4900D01*
X516323Y4471D01*
Y4185D01*
X516181Y3757D01*
X515895Y3471D01*
X515609Y3328D01*
X515181D01*
X514895Y3471D01*
X514609Y3757D01*
X517680Y5328D02*
X517395Y5185D01*
X517109Y4900D01*
X516966Y4471D01*
Y4185D01*
X517109Y3757D01*
X517395Y3471D01*
X517680Y3328D01*
X518109D01*
X518394Y3471D01*
X518680Y3757D01*
X518823Y4185D01*
Y4471D01*
X518680Y4900D01*
X518394Y5185D01*
X518109Y5328D01*
X517680D01*
X521051Y4900D02*
X520908Y5185D01*
X520480Y5328D01*
X520051D01*
X519623Y5185D01*
X519480Y4900D01*
X519623Y4614D01*
X519908Y4471D01*
X520622Y4328D01*
X520908Y4185D01*
X521051Y3900D01*
Y3757D01*
X520908Y3471D01*
X520480Y3328D01*
X520051D01*
X519623Y3471D01*
X519480Y3757D01*
X521965Y6328D02*
X522108Y6185D01*
X522251Y6328D01*
X522108Y6471D01*
X521965Y6328D01*
X522108Y5328D02*
Y3328D01*
X523208Y6328D02*
Y3900D01*
X523350Y3471D01*
X523636Y3328D01*
X523922D01*
X522779Y5328D02*
X523779D01*
X524636Y6328D02*
X524779Y6185D01*
X524922Y6328D01*
X524779Y6471D01*
X524636Y6328D01*
X524779Y5328D02*
Y3328D01*
X526164Y5328D02*
X525878Y5185D01*
X525593Y4900D01*
X525450Y4471D01*
Y4185D01*
X525593Y3757D01*
X525878Y3471D01*
X526164Y3328D01*
X526593D01*
X526878Y3471D01*
X527164Y3757D01*
X527307Y4185D01*
Y4471D01*
X527164Y4900D01*
X526878Y5185D01*
X526593Y5328D01*
X526164D01*
X527964D02*
Y3328D01*
Y4757D02*
X528392Y5185D01*
X528678Y5328D01*
X529106D01*
X529392Y5185D01*
X529535Y4757D01*
Y3328D01*
X530463Y3614D02*
X530320Y3471D01*
X530463Y3328D01*
X530606Y3471D01*
X530463Y3614D01*
X298185Y32478D02*
Y34700D01*
X299296Y35811D01*
X300407Y34700D01*
Y32478D01*
Y34144D01*
X298185D01*
D95*
X20321Y58198D02*
G03*
X20321Y58198I-1000J0D01*
G01*
Y48356D02*
G03*
X20321Y48356I-1000J0D01*
G01*
Y40482D02*
G03*
X20321Y40482I-1000J0D01*
G01*
Y30639D02*
G03*
X20321Y30639I-1000J0D01*
G01*
X40428Y44128D02*
X42428D01*
Y46128D01*
X40428D02*
X42428D01*
X40428Y44128D02*
Y46128D01*
X94800Y57563D02*
X96800D01*
Y59563D01*
X94800D02*
X96800D01*
X94800Y57563D02*
Y59563D01*
X94600Y54300D02*
X96600D01*
Y56300D01*
X94600D02*
X96600D01*
X94600Y54300D02*
Y56300D01*
X71757Y51600D02*
X73757D01*
Y53600D01*
X71757D02*
X73757D01*
X71757Y51600D02*
Y53600D01*
X112600Y15350D02*
X114600D01*
Y17350D01*
X112600D02*
X114600D01*
X112600Y15350D02*
Y17350D01*
X104800Y25800D02*
X106800D01*
Y27800D01*
X104800D02*
X106800D01*
X104800Y25800D02*
Y27800D01*
X114520Y18500D02*
X116520D01*
Y20500D01*
X114520D02*
X116520D01*
X114520Y18500D02*
Y20500D01*
X114700Y21700D02*
X116700D01*
Y23700D01*
X114700D02*
X116700D01*
X114700Y21700D02*
Y23700D01*
X115000Y25900D02*
X117000D01*
Y27900D01*
X115000D02*
X117000D01*
X115000Y25900D02*
Y27900D01*
X110300Y18500D02*
X112300D01*
Y20500D01*
X110300D02*
X112300D01*
X110300Y18500D02*
Y20500D01*
X82537Y28537D02*
X84537D01*
Y30537D01*
X82537D02*
X84537D01*
X82537Y28537D02*
Y30537D01*
X33200Y4900D02*
X35200D01*
Y6900D01*
X33200D02*
X35200D01*
X33200Y4900D02*
Y6900D01*
X84505Y75300D02*
X86505D01*
Y77300D01*
X84505D02*
X86505D01*
X84505Y75300D02*
Y77300D01*
X35700Y82900D02*
X37700D01*
Y84900D01*
X35700D02*
X37700D01*
X35700Y82900D02*
Y84900D01*
X113700Y77100D02*
X114200D01*
X113700D02*
Y78100D01*
X114200D01*
Y78600D01*
X115200D01*
Y78100D02*
Y78600D01*
Y78100D02*
X115700D01*
Y77100D02*
Y78100D01*
X115200Y77100D02*
X115700D01*
X115200Y76600D02*
Y77100D01*
X114200Y76600D02*
X115200D01*
X114200D02*
Y77100D01*
X25500Y81600D02*
X27500D01*
Y83600D01*
X25500D02*
X27500D01*
X25500Y81600D02*
Y83600D01*
X62500Y33600D02*
X63000D01*
X62500D02*
Y34600D01*
X63000D01*
Y35100D01*
X64000D01*
Y34600D02*
Y35100D01*
Y34600D02*
X64500D01*
Y33600D02*
Y34600D01*
X64000Y33600D02*
X64500D01*
X64000Y33100D02*
Y33600D01*
X63000Y33100D02*
X64000D01*
X63000D02*
Y33600D01*
X105200Y63500D02*
X107200D01*
Y65500D01*
X105200D02*
X107200D01*
X105200Y63500D02*
Y65500D01*
X72694Y63468D02*
X74694D01*
Y65468D01*
X72694D02*
X74694D01*
X72694Y63468D02*
Y65468D01*
X86474Y60674D02*
X88474D01*
Y62674D01*
X86474D02*
X88474D01*
X86474Y60674D02*
Y62674D01*
X74800Y55300D02*
X76800D01*
Y57300D01*
X74800D02*
X76800D01*
X74800Y55300D02*
Y57300D01*
X72300Y58000D02*
X74300D01*
Y60000D01*
X72300D02*
X74300D01*
X72300Y58000D02*
Y60000D01*
X65800Y67200D02*
X67800D01*
Y69200D01*
X65800D02*
X67800D01*
X65800Y67200D02*
Y69200D01*
X68050Y69281D02*
X70050D01*
Y71281D01*
X68050D02*
X70050D01*
X68050Y69281D02*
Y71281D01*
X63500Y74500D02*
X65500D01*
Y76500D01*
X63500D02*
X65500D01*
X63500Y74500D02*
Y76500D01*
X90400Y63569D02*
X92400D01*
Y65569D01*
X90400D02*
X92400D01*
X90400Y63569D02*
Y65569D01*
X43900Y53083D02*
X45900D01*
Y55083D01*
X43900D02*
X45900D01*
X43900Y53083D02*
Y55083D01*
X37100Y36300D02*
X39100D01*
Y38300D01*
X37100D02*
X39100D01*
X37100Y36300D02*
Y38300D01*
X128775Y76609D02*
X130775D01*
Y78609D01*
X128775D02*
X130775D01*
X128775Y76609D02*
Y78609D01*
X131729Y76500D02*
X133729D01*
Y78500D01*
X131729D02*
X133729D01*
X131729Y76500D02*
Y78500D01*
X152200Y900D02*
X152700D01*
X152200D02*
Y1900D01*
X152700D01*
Y2400D01*
X153700D01*
Y1900D02*
Y2400D01*
Y1900D02*
X154200D01*
Y900D02*
Y1900D01*
X153700Y900D02*
X154200D01*
X153700Y400D02*
Y900D01*
X152700Y400D02*
X153700D01*
X152700D02*
Y900D01*
X114035Y4335D02*
X114535D01*
X114035D02*
Y5335D01*
X114535D01*
Y5835D01*
X115535D01*
Y5335D02*
Y5835D01*
Y5335D02*
X116035D01*
Y4335D02*
Y5335D01*
X115535Y4335D02*
X116035D01*
X115535Y3835D02*
Y4335D01*
X114535Y3835D02*
X115535D01*
X114535D02*
Y4335D01*
X67217Y18178D02*
X67717D01*
X67217D02*
Y19178D01*
X67717D01*
Y19678D01*
X68717D01*
Y19178D02*
Y19678D01*
Y19178D02*
X69217D01*
Y18178D02*
Y19178D01*
X68717Y18178D02*
X69217D01*
X68717Y17678D02*
Y18178D01*
X67717Y17678D02*
X68717D01*
X67717D02*
Y18178D01*
X173961Y-5242D02*
X175961D01*
Y-3242D01*
X173961D02*
X175961D01*
X173961Y-5242D02*
Y-3242D01*
X148742Y-5002D02*
X150742D01*
Y-3002D01*
X148742D02*
X150742D01*
X148742Y-5002D02*
Y-3002D01*
X156588Y-5242D02*
X158588D01*
Y-3242D01*
X156588D02*
X158588D01*
X156588Y-5242D02*
Y-3242D01*
X165274Y-5242D02*
X167274D01*
Y-3242D01*
X165274D02*
X167274D01*
X165274Y-5242D02*
Y-3242D01*
X182647Y-5242D02*
X184647D01*
Y-3242D01*
X182647D02*
X184647D01*
X182647Y-5242D02*
Y-3242D01*
X191333Y-5242D02*
X193333D01*
Y-3242D01*
X191333D02*
X193333D01*
X191333Y-5242D02*
Y-3242D01*
X208706Y-5242D02*
X210706D01*
Y-3242D01*
X208706D02*
X210706D01*
X208706Y-5242D02*
Y-3242D01*
X217392Y-5242D02*
X219392D01*
Y-3242D01*
X217392D02*
X219392D01*
X217392Y-5242D02*
Y-3242D01*
X226078Y-5242D02*
X228078D01*
Y-3242D01*
X226078D02*
X228078D01*
X226078Y-5242D02*
Y-3242D01*
X230868Y-551D02*
X232868D01*
Y1449D01*
X230868D02*
X232868D01*
X230868Y-551D02*
Y1449D01*
X231382Y17208D02*
X233382D01*
Y19208D01*
X231382D02*
X233382D01*
X231382Y17208D02*
Y19208D01*
X220400Y16151D02*
X222400D01*
Y18151D01*
X220400D02*
X222400D01*
X220400Y16151D02*
Y18151D01*
X216175Y38357D02*
X218175D01*
Y40357D01*
X216175D02*
X218175D01*
X216175Y38357D02*
Y40357D01*
X214351Y48327D02*
X216351D01*
Y50327D01*
X214351D02*
X216351D01*
X214351Y48327D02*
Y50327D01*
X231659Y48300D02*
X233659D01*
Y50300D01*
X231659D02*
X233659D01*
X231659Y48300D02*
Y50300D01*
Y38208D02*
X233659D01*
Y40208D01*
X231659D02*
X233659D01*
X231659Y38208D02*
Y40208D01*
Y28394D02*
X233659D01*
Y30394D01*
X231659D02*
X233659D01*
X231659Y28394D02*
Y30394D01*
Y58720D02*
X233659D01*
Y60720D01*
X231659D02*
X233659D01*
X231659Y58720D02*
Y60720D01*
X192700Y90600D02*
X194700D01*
Y92600D01*
X192700D02*
X194700D01*
X192700Y90600D02*
Y92600D01*
X192800Y83000D02*
X194800D01*
Y85000D01*
X192800D02*
X194800D01*
X192800Y83000D02*
Y85000D01*
Y74600D02*
X194800D01*
Y76600D01*
X192800D02*
X194800D01*
X192800Y74600D02*
Y76600D01*
Y66458D02*
X194800D01*
Y68458D01*
X192800D02*
X194800D01*
X192800Y66458D02*
Y68458D01*
X230939Y70086D02*
X232939D01*
Y72086D01*
X230939D02*
X232939D01*
X230939Y70086D02*
Y72086D01*
X205107Y90850D02*
X207107D01*
Y92850D01*
X205107D02*
X207107D01*
X205107Y90850D02*
Y92850D01*
X218683Y91279D02*
X220683D01*
Y93279D01*
X218683D02*
X220683D01*
X218683Y91279D02*
Y93279D01*
X230686Y90422D02*
X232686D01*
Y92422D01*
X230686D02*
X232686D01*
X230686Y90422D02*
Y92422D01*
X213227Y79867D02*
X215227D01*
Y81867D01*
X213227D02*
X215227D01*
X213227Y79867D02*
Y81867D01*
Y70120D02*
X215227D01*
Y72120D01*
X213227D02*
X215227D01*
X213227Y70120D02*
Y72120D01*
X131100Y65078D02*
X133100D01*
Y67078D01*
X131100D02*
X133100D01*
X131100Y65078D02*
Y67078D01*
Y60262D02*
X133100D01*
Y62262D01*
X131100D02*
X133100D01*
X131100Y60262D02*
Y62262D01*
Y55800D02*
X133100D01*
Y57800D01*
X131100D02*
X133100D01*
X131100Y55800D02*
Y57800D01*
X148600Y36000D02*
X150600D01*
Y38000D01*
X148600D02*
X150600D01*
X148600Y36000D02*
Y38000D01*
X148360Y24385D02*
X150360D01*
Y26384D01*
X148360D02*
X150360D01*
X148360Y24385D02*
Y26384D01*
Y14903D02*
X150360D01*
Y16903D01*
X148360D02*
X150360D01*
X148360Y14903D02*
Y16903D01*
X148200Y4500D02*
X150200D01*
Y6500D01*
X148200D02*
X150200D01*
X148200Y4500D02*
Y6500D01*
X136400Y51189D02*
X138400D01*
Y53189D01*
X136400D02*
X138400D01*
X136400Y51189D02*
Y53189D01*
X192799Y50100D02*
X194799D01*
Y52100D01*
X192799D02*
X194799D01*
X192799Y50100D02*
Y52100D01*
X213017Y58204D02*
X215017D01*
Y60204D01*
X213017D02*
X215017D01*
X213017Y58204D02*
Y60204D01*
X192600Y57900D02*
X194600D01*
Y59900D01*
X192600D02*
X194600D01*
X192600Y57900D02*
Y59900D01*
X56791Y47238D02*
X58790D01*
Y49238D01*
X56791D02*
X58790D01*
X56791Y47238D02*
Y49238D01*
X56800Y38100D02*
X58800D01*
Y40100D01*
X56800D02*
X58800D01*
X56800Y38100D02*
Y40100D01*
X48406Y38821D02*
X50406D01*
Y40821D01*
X48406D02*
X50406D01*
X48406Y38821D02*
Y40821D01*
X41574Y38720D02*
X43573D01*
Y40720D01*
X41574D02*
X43573D01*
X41574Y38720D02*
Y40720D01*
X29165Y40667D02*
X31165D01*
Y42667D01*
X29165D02*
X31165D01*
X29165Y40667D02*
Y42667D01*
X29245Y48600D02*
X31245D01*
Y50600D01*
X29245D02*
X31245D01*
X29245Y48600D02*
Y50600D01*
X29000Y56699D02*
X31000D01*
Y58698D01*
X29000D02*
X31000D01*
X29000Y56699D02*
Y58698D01*
X39324Y58132D02*
X41324D01*
Y60132D01*
X39324D02*
X41324D01*
X39324Y58132D02*
Y60132D01*
X61567Y58230D02*
X63567D01*
Y60230D01*
X61567D02*
X63567D01*
X61567Y58230D02*
Y60230D01*
X54017Y58474D02*
X56017D01*
Y60474D01*
X54017D02*
X56017D01*
X54017Y58474D02*
Y60474D01*
X40500Y48500D02*
X42500D01*
Y50500D01*
X40500D02*
X42500D01*
X40500Y48500D02*
Y50500D01*
X33399Y61000D02*
X35399D01*
Y63000D01*
X33399D02*
X35399D01*
X33399Y61000D02*
Y63000D01*
X40345Y76432D02*
X42345D01*
Y78432D01*
X40345D02*
X42345D01*
X40345Y76432D02*
Y78432D01*
X61164Y79412D02*
X63164D01*
Y81412D01*
X61164D02*
X63164D01*
X61164Y79412D02*
Y81412D01*
X97885Y84424D02*
X99885D01*
Y86424D01*
X97885D02*
X99885D01*
X97885Y84424D02*
Y86424D01*
X115500Y84300D02*
X117500D01*
Y86300D01*
X115500D02*
X117500D01*
X115500Y84300D02*
Y86300D01*
X143553Y91511D02*
X145554D01*
Y93511D01*
X143553D02*
X145554D01*
X143553Y91511D02*
Y93511D01*
X135744Y91511D02*
X137744D01*
Y93511D01*
X135744D02*
X137744D01*
X135744Y91511D02*
Y93511D01*
X127442Y91429D02*
X129442D01*
Y93429D01*
X127442D02*
X129442D01*
X127442Y91429D02*
Y93429D01*
X126212Y82900D02*
X128212D01*
Y84900D01*
X126212D02*
X128212D01*
X126212Y82900D02*
Y84900D01*
X116500Y71200D02*
X118500D01*
Y73200D01*
X116500D02*
X118500D01*
X116500Y71200D02*
Y73200D01*
Y63075D02*
X118500D01*
Y65075D01*
X116500D02*
X118500D01*
X116500Y63075D02*
Y65075D01*
X116700Y54400D02*
X118700D01*
Y56400D01*
X116700D02*
X118700D01*
X116700Y54400D02*
Y56400D01*
X121700Y49600D02*
X123700D01*
Y51600D01*
X121700D02*
X123700D01*
X121700Y49600D02*
Y51600D01*
X106825Y56730D02*
X108825D01*
Y58730D01*
X106825D02*
X108825D01*
X106825Y56730D02*
Y58730D01*
X134049Y27100D02*
X136049D01*
Y29100D01*
X134049D02*
X136049D01*
X134049Y27100D02*
Y29100D01*
X133878Y19508D02*
X135878D01*
Y21508D01*
X133878D02*
X135878D01*
X133878Y19508D02*
Y21508D01*
X133969Y10775D02*
X135969D01*
Y12775D01*
X133969D02*
X135969D01*
X133969Y10775D02*
Y12775D01*
X133800Y1800D02*
X135800D01*
Y3800D01*
X133800D02*
X135800D01*
X133800Y1800D02*
Y3800D01*
X133600Y-5208D02*
X135600D01*
Y-3208D01*
X133600D02*
X135600D01*
X133600Y-5208D02*
Y-3208D01*
X133710Y34536D02*
X135710D01*
Y36536D01*
X133710D02*
X135710D01*
X133710Y34536D02*
Y36536D01*
X127083Y-5440D02*
X129083D01*
Y-3440D01*
X127083D02*
X129083D01*
X127083Y-5440D02*
Y-3440D01*
X119083Y-5178D02*
X121083D01*
Y-3178D01*
X119083D02*
X121083D01*
X119083Y-5178D02*
Y-3178D01*
X97789Y-5440D02*
X99789D01*
Y-3440D01*
X97789D02*
X99789D01*
X97789Y-5440D02*
Y-3440D01*
X84274Y-5440D02*
X86274D01*
Y-3440D01*
X84274D02*
X86274D01*
X84274Y-5440D02*
Y-3440D01*
X56201Y-5586D02*
X58201D01*
Y-3586D01*
X56201D02*
X58201D01*
X56201Y-5586D02*
Y-3586D01*
X39951Y-5300D02*
X41951D01*
Y-3300D01*
X39951D02*
X41951D01*
X39951Y-5300D02*
Y-3300D01*
X21400Y-5200D02*
X23400D01*
Y-3200D01*
X21400D02*
X23400D01*
X21400Y-5200D02*
Y-3200D01*
X11000Y-5100D02*
X13000D01*
Y-3100D01*
X11000D02*
X13000D01*
X11000Y-5100D02*
Y-3100D01*
X931Y-4975D02*
X2932D01*
Y-2975D01*
X931D02*
X2932D01*
X931Y-4975D02*
Y-2975D01*
X-7696Y13500D02*
X-5697D01*
Y15500D01*
X-7696D02*
X-5697D01*
X-7696Y13500D02*
Y15500D01*
X3346Y13199D02*
X5346D01*
Y15199D01*
X3346D02*
X5346D01*
X3346Y13199D02*
Y15199D01*
X-7185Y-3626D02*
X-5185D01*
Y-1626D01*
X-7185D02*
X-5185D01*
X-7185Y-3626D02*
Y-1626D01*
X25639Y15733D02*
X27639D01*
Y17733D01*
X25639D02*
X27639D01*
X25639Y15733D02*
Y17733D01*
X25250Y22535D02*
X27250D01*
Y24535D01*
X25250D02*
X27250D01*
X25250Y22535D02*
Y24535D01*
X23276Y66458D02*
X25276D01*
Y68458D01*
X23276D02*
X25276D01*
X23276Y66458D02*
Y68458D01*
X5569Y27405D02*
X7569D01*
Y29405D01*
X5569D02*
X7569D01*
X5569Y27405D02*
Y29405D01*
X5445Y44207D02*
X7445D01*
Y46207D01*
X5445D02*
X7445D01*
X5445Y44207D02*
Y46207D01*
X5569Y60026D02*
X7569D01*
Y62026D01*
X5569D02*
X7569D01*
X5569Y60026D02*
Y62026D01*
X5837Y73728D02*
X7837D01*
Y75727D01*
X5837D02*
X7837D01*
X5837Y73728D02*
Y75727D01*
X-6972Y73563D02*
X-4972D01*
Y75563D01*
X-6972D02*
X-4972D01*
X-6972Y73563D02*
Y75563D01*
X-7230Y81753D02*
X-5230D01*
Y83753D01*
X-7230D02*
X-5230D01*
X-7230Y81753D02*
Y83753D01*
X-7098Y90065D02*
X-5098D01*
Y92065D01*
X-7098D02*
X-5098D01*
X-7098Y90065D02*
Y92065D01*
X80342Y79300D02*
X82342D01*
Y81300D01*
X80342D02*
X82342D01*
X80342Y79300D02*
Y81300D01*
X92002Y82225D02*
X94002D01*
Y84225D01*
X92002D02*
X94002D01*
X92002Y82225D02*
Y84225D01*
X88345Y75583D02*
X90346D01*
Y77583D01*
X88345D02*
X90346D01*
X88345Y75583D02*
Y77583D01*
X103875Y71505D02*
X105875D01*
Y73505D01*
X103875D02*
X105875D01*
X103875Y71505D02*
Y73505D01*
X88919Y58197D02*
X90919D01*
Y60197D01*
X88919D02*
X90919D01*
X88919Y58197D02*
Y60197D01*
X95285Y50851D02*
X97285D01*
Y52851D01*
X95285D02*
X97285D01*
X95285Y50851D02*
Y52851D01*
X92925Y60550D02*
X94925D01*
Y62550D01*
X92925D02*
X94925D01*
X92925Y60550D02*
Y62550D01*
X95285Y47309D02*
X97285D01*
Y49309D01*
X95285D02*
X97285D01*
X95285Y47309D02*
Y49309D01*
X102576Y29200D02*
X104576D01*
Y31200D01*
X102576D02*
X104576D01*
X102576Y29200D02*
Y31200D01*
X102100Y38548D02*
X104100D01*
Y40547D01*
X102100D02*
X104100D01*
X102100Y38548D02*
Y40547D01*
X92500Y26800D02*
X94500D01*
Y28800D01*
X92500D02*
X94500D01*
X92500Y26800D02*
Y28800D01*
X97557Y34207D02*
X99557D01*
Y36207D01*
X97557D02*
X99557D01*
X97557Y34207D02*
Y36207D01*
X97642Y26878D02*
X99642D01*
Y28878D01*
X97642D02*
X99642D01*
X97642Y26878D02*
Y28878D01*
X116048Y38876D02*
X118047D01*
Y40876D01*
X116048D02*
X118047D01*
X116048Y38876D02*
Y40876D01*
X115748Y30531D02*
X117748D01*
Y32531D01*
X115748D02*
X117748D01*
X115748Y30531D02*
Y32531D01*
X35700Y18638D02*
X37700D01*
Y20638D01*
X35700D02*
X37700D01*
X35700Y18638D02*
Y20638D01*
X74318Y74168D02*
X76318D01*
Y76168D01*
X74318D02*
X76318D01*
X74318Y74168D02*
Y76168D01*
X15485Y7358D02*
X17485D01*
Y9358D01*
X15485D02*
X17485D01*
X15485Y7358D02*
Y9358D01*
X130600Y30800D02*
X131100D01*
X130600D02*
Y31800D01*
X131100D01*
Y32300D01*
X132100D01*
Y31800D02*
Y32300D01*
Y31800D02*
X132600D01*
Y30800D02*
Y31800D01*
X132100Y30800D02*
X132600D01*
X132100Y30300D02*
Y30800D01*
X131100Y30300D02*
X132100D01*
X131100D02*
Y30800D01*
X152000Y31000D02*
X152500D01*
X152000D02*
Y32000D01*
X152500D01*
Y32500D01*
X153500D01*
Y32000D02*
Y32500D01*
Y32000D02*
X154000D01*
Y31000D02*
Y32000D01*
X153500Y31000D02*
X154000D01*
X153500Y30500D02*
Y31000D01*
X152500Y30500D02*
X153500D01*
X152500D02*
Y31000D01*
X59293Y74200D02*
X61293D01*
Y76200D01*
X59293D02*
X61293D01*
X59293Y74200D02*
Y76200D01*
X110900Y64200D02*
X112900D01*
Y66200D01*
X110900D02*
X112900D01*
X110900Y64200D02*
Y66200D01*
X109800Y68300D02*
X111800D01*
Y70300D01*
X109800D02*
X111800D01*
X109800Y68300D02*
Y70300D01*
X80100Y44600D02*
X80600D01*
X80100D02*
Y45600D01*
X80600D01*
Y46100D01*
X81600D01*
Y45600D02*
Y46100D01*
Y45600D02*
X82100D01*
Y44600D02*
Y45600D01*
X81600Y44600D02*
X82100D01*
X81600Y44100D02*
Y44600D01*
X80600Y44100D02*
X81600D01*
X80600D02*
Y44600D01*
X79962Y50270D02*
X81963D01*
Y52270D01*
X79962D02*
X81963D01*
X79962Y50270D02*
Y52270D01*
X56863Y42403D02*
X58863D01*
Y44403D01*
X56863D02*
X58863D01*
X56863Y42403D02*
Y44403D01*
X71900Y48274D02*
X72400D01*
X71900D02*
Y49274D01*
X72400D01*
Y49774D01*
X73400D01*
Y49274D02*
Y49774D01*
Y49274D02*
X73900D01*
Y48274D02*
Y49274D01*
X73400Y48274D02*
X73900D01*
X73400Y47774D02*
Y48274D01*
X72400Y47774D02*
X73400D01*
X72400D02*
Y48274D01*
X109200Y15000D02*
X111200D01*
Y17000D01*
X109200D02*
X111200D01*
X109200Y15000D02*
Y17000D01*
X74218Y23040D02*
X76218D01*
Y25039D01*
X74218D02*
X76218D01*
X74218Y23040D02*
Y25039D01*
X80094Y19107D02*
X82094D01*
Y21107D01*
X80094D02*
X82094D01*
X80094Y19107D02*
Y21107D01*
X106907Y8017D02*
X108907D01*
Y10017D01*
X106907D02*
X108907D01*
X106907Y8017D02*
Y10017D01*
X78723Y22315D02*
X80723D01*
Y24315D01*
X78723D02*
X80723D01*
X78723Y22315D02*
Y24315D01*
X82146Y22260D02*
X84146D01*
Y24260D01*
X82146D02*
X84146D01*
X82146Y22260D02*
Y24260D01*
X85679Y18027D02*
X87679D01*
Y20027D01*
X85679D02*
X87679D01*
X85679Y18027D02*
Y20027D01*
X111443Y7784D02*
X113443D01*
Y9784D01*
X111443D02*
X113443D01*
X111443Y7784D02*
Y9784D01*
X52287Y14257D02*
X54287D01*
Y16257D01*
X52287D02*
X54287D01*
X52287Y14257D02*
Y16257D01*
X56383Y15500D02*
X58383D01*
Y17500D01*
X56383D02*
X58383D01*
X56383Y15500D02*
Y17500D01*
X94220Y41097D02*
X96220D01*
Y43097D01*
X94220D02*
X96220D01*
X94220Y41097D02*
Y43097D01*
X61445Y19107D02*
X63446D01*
Y21107D01*
X61445D02*
X63446D01*
X61445Y19107D02*
Y21107D01*
X79761Y40372D02*
X81761D01*
Y42372D01*
X79761D02*
X81761D01*
X79761Y40372D02*
Y42372D01*
X68423Y38211D02*
X70423D01*
Y40211D01*
X68423D02*
X70423D01*
X68423Y38211D02*
Y40211D01*
X144300Y52500D02*
X144800D01*
X144300D02*
Y53500D01*
X144800D01*
Y54000D01*
X145800D01*
Y53500D02*
Y54000D01*
Y53500D02*
X146300D01*
Y52500D02*
Y53500D01*
X145800Y52500D02*
X146300D01*
X145800Y52000D02*
Y52500D01*
X144800Y52000D02*
X145800D01*
X144800D02*
Y52500D01*
X170400Y29594D02*
X170900D01*
X170400D02*
Y30594D01*
X170900D01*
Y31094D01*
X171900D01*
Y30594D02*
Y31094D01*
Y30594D02*
X172400D01*
Y29594D02*
Y30594D01*
X171900Y29594D02*
X172400D01*
X171900Y29094D02*
Y29594D01*
X170900Y29094D02*
X171900D01*
X170900D02*
Y29594D01*
X200019Y-5242D02*
X202019D01*
Y-3242D01*
X200019D02*
X202019D01*
X200019Y-5242D02*
Y-3242D01*
X209400Y16800D02*
X211400D01*
Y18800D01*
X209400D02*
X211400D01*
X209400Y16800D02*
Y18800D01*
X207100Y50600D02*
X209100D01*
Y52600D01*
X207100D02*
X209100D01*
X207100Y50600D02*
Y52600D01*
X203500Y12200D02*
X205500D01*
Y14200D01*
X203500D02*
X205500D01*
X203500Y12200D02*
Y14200D01*
X153200Y44700D02*
X155200D01*
Y46700D01*
X153200D02*
X155200D01*
X153200Y44700D02*
Y46700D01*
X160800Y44703D02*
X162800D01*
Y46703D01*
X160800D02*
X162800D01*
X160800Y44703D02*
Y46703D01*
X167500Y44703D02*
X169500D01*
Y46703D01*
X167500D02*
X169500D01*
X167500Y44703D02*
Y46703D01*
X166404Y33290D02*
X168404D01*
Y35290D01*
X166404D02*
X168404D01*
X166404Y33290D02*
Y35290D01*
X166335Y27955D02*
X168335D01*
Y29955D01*
X166335D02*
X168335D01*
X166335Y27955D02*
Y29955D01*
X185100Y38211D02*
X187100D01*
Y40211D01*
X185100D02*
X187100D01*
X185100Y38211D02*
Y40211D01*
X178700Y31100D02*
X180700D01*
Y33100D01*
X178700D02*
X180700D01*
X178700Y31100D02*
Y33100D01*
X204100Y45800D02*
X206100D01*
Y47800D01*
X204100D02*
X206100D01*
X204100Y45800D02*
Y47800D01*
X203600Y34000D02*
X205600D01*
Y36000D01*
X203600D02*
X205600D01*
X203600Y34000D02*
Y36000D01*
X198300Y28778D02*
X200300D01*
Y30777D01*
X198300D02*
X200300D01*
X198300Y28778D02*
Y30777D01*
X192000Y23700D02*
X194000D01*
Y25700D01*
X192000D02*
X194000D01*
X192000Y23700D02*
Y25700D01*
X134800Y76432D02*
X136800D01*
Y78432D01*
X134800D02*
X136800D01*
X134800Y76432D02*
Y78432D01*
X34900Y9886D02*
X36900D01*
Y11886D01*
X34900D02*
X36900D01*
X34900Y9886D02*
Y11886D01*
X91200Y-5440D02*
X93200D01*
Y-3440D01*
X91200D02*
X93200D01*
X91200Y-5440D02*
Y-3440D01*
X30900Y-5240D02*
X32900D01*
Y-3240D01*
X30900D02*
X32900D01*
X30900Y-5240D02*
Y-3240D01*
X214408Y30308D02*
X216408D01*
Y32308D01*
X214408D02*
X216408D01*
X214408Y30308D02*
Y32308D01*
X193632Y-843D02*
X195632D01*
Y1157D01*
X193632D02*
X195632D01*
X193632Y-843D02*
Y1157D01*
X207100Y6243D02*
X209100D01*
Y8243D01*
X207100D02*
X209100D01*
X207100Y6243D02*
Y8243D01*
X214536Y8679D02*
X216536D01*
Y10679D01*
X214536D02*
X216536D01*
X214536Y8679D02*
Y10679D01*
X227346Y77898D02*
X228346Y78398D01*
X229346Y77898D01*
X228847Y78898D02*
X229346Y77898D01*
X228847Y78898D02*
X229346Y79898D01*
X228346Y79398D02*
X229346Y79898D01*
X227346D02*
X228346Y79398D01*
X227346Y79898D02*
X227847Y78898D01*
X227346Y77898D02*
X227847Y78898D01*
X227346Y8685D02*
X228346Y9185D01*
X229346Y8685D01*
X228847Y9685D02*
X229346Y8685D01*
X228847Y9685D02*
X229346Y10685D01*
X228346Y10185D02*
X229346Y10685D01*
X227346D02*
X228346Y10185D01*
X227346Y10685D02*
X227847Y9685D01*
X227346Y8685D02*
X227847Y9685D01*
X11446Y67041D02*
X12447Y69041D01*
X10447D02*
X12447D01*
X10447D02*
X11446Y67041D01*
Y19797D02*
X12447Y21797D01*
X10447D02*
X12447D01*
X10447D02*
X11446Y19797D01*
X10947Y52777D02*
X11446Y52277D01*
X10447Y52777D02*
X10947D01*
X10447D02*
X10947Y53277D01*
X10447Y53777D02*
X10947Y53277D01*
X10447Y53777D02*
X10947D01*
X11446Y54277D01*
X11947Y53777D01*
X12447D01*
X11947Y53277D02*
X12447Y53777D01*
X11947Y53277D02*
X12447Y52777D01*
X11947D02*
X12447D01*
X11446Y52277D02*
X11947Y52777D01*
X10947Y35061D02*
X11446Y34561D01*
X10447Y35061D02*
X10947D01*
X10447D02*
X10947Y35561D01*
X10447Y36061D02*
X10947Y35561D01*
X10447Y36061D02*
X10947D01*
X11446Y36561D01*
X11947Y36061D01*
X12447D01*
X11947Y35561D02*
X12447Y36061D01*
X11947Y35561D02*
X12447Y35061D01*
X11947D02*
X12447D01*
X11446Y34561D02*
X11947Y35061D01*
X101507Y89131D02*
Y90464D01*
X102174Y91130D01*
X102840Y90464D01*
Y89131D01*
Y90130D01*
X101507D01*
X31508Y89131D02*
Y90464D01*
X32174Y91130D01*
X32840Y90464D01*
Y89131D01*
Y90130D01*
X31508D01*
X41508Y89131D02*
Y90464D01*
X42174Y91130D01*
X42840Y90464D01*
Y89131D01*
Y90130D01*
X41508D01*
X51508Y89131D02*
Y90464D01*
X52174Y91130D01*
X52840Y90464D01*
Y89131D01*
Y90130D01*
X51508D01*
X61507Y89131D02*
Y90464D01*
X62174Y91130D01*
X62840Y90464D01*
Y89131D01*
Y90130D01*
X61507D01*
X71508Y89131D02*
Y90464D01*
X72174Y91130D01*
X72840Y90464D01*
Y89131D01*
Y90130D01*
X71508D01*
X81507Y89131D02*
Y90464D01*
X82174Y91130D01*
X82840Y90464D01*
Y89131D01*
Y90130D01*
X81507D01*
X91508Y89131D02*
Y90464D01*
X92174Y91130D01*
X92840Y90464D01*
Y89131D01*
Y90130D01*
X91508D01*
X111507Y89131D02*
Y90464D01*
X112174Y91130D01*
X112840Y90464D01*
Y89131D01*
Y90130D01*
X111507D01*
X121508Y89131D02*
Y90464D01*
X122174Y91130D01*
X122840Y90464D01*
Y89131D01*
Y90130D01*
X121508D01*
D96*
X684556Y73977D02*
Y70378D01*
X686956Y73977D02*
Y70378D01*
X684556Y72263D02*
X686956D01*
X688807Y72777D02*
X688464Y72606D01*
X688121Y72263D01*
X687950Y71749D01*
Y71406D01*
X688121Y70892D01*
X688464Y70549D01*
X688807Y70378D01*
X689321D01*
X689664Y70549D01*
X690007Y70892D01*
X690178Y71406D01*
Y71749D01*
X690007Y72263D01*
X689664Y72606D01*
X689321Y72777D01*
X688807D01*
X690967Y73977D02*
Y70378D01*
X691721Y71749D02*
X693777D01*
Y72092D01*
X693606Y72434D01*
X693435Y72606D01*
X693092Y72777D01*
X692578D01*
X692235Y72606D01*
X691892Y72263D01*
X691721Y71749D01*
Y71406D01*
X691892Y70892D01*
X692235Y70549D01*
X692578Y70378D01*
X693092D01*
X693435Y70549D01*
X693777Y70892D01*
X698576Y73977D02*
Y70378D01*
X697377Y73977D02*
X699776D01*
X701061Y72777D02*
X700719Y72606D01*
X700376Y72263D01*
X700205Y71749D01*
Y71406D01*
X700376Y70892D01*
X700719Y70549D01*
X701061Y70378D01*
X701576D01*
X701919Y70549D01*
X702261Y70892D01*
X702433Y71406D01*
Y71749D01*
X702261Y72263D01*
X701919Y72606D01*
X701576Y72777D01*
X701061D01*
X703221Y73977D02*
Y70378D01*
X703975Y71749D02*
X706032D01*
Y72092D01*
X705861Y72434D01*
X705689Y72606D01*
X705346Y72777D01*
X704832D01*
X704489Y72606D01*
X704147Y72263D01*
X703975Y71749D01*
Y71406D01*
X704147Y70892D01*
X704489Y70549D01*
X704832Y70378D01*
X705346D01*
X705689Y70549D01*
X706032Y70892D01*
X706803Y72777D02*
Y70378D01*
Y71749D02*
X706975Y72263D01*
X707317Y72606D01*
X707660Y72777D01*
X708174D01*
X710557D02*
Y70378D01*
Y72263D02*
X710214Y72606D01*
X709871Y72777D01*
X709357D01*
X709014Y72606D01*
X708671Y72263D01*
X708500Y71749D01*
Y71406D01*
X708671Y70892D01*
X709014Y70549D01*
X709357Y70378D01*
X709871D01*
X710214Y70549D01*
X710557Y70892D01*
X711516Y72777D02*
Y70378D01*
Y72092D02*
X712031Y72606D01*
X712373Y72777D01*
X712888D01*
X713230Y72606D01*
X713402Y72092D01*
Y70378D01*
X716401Y72263D02*
X716058Y72606D01*
X715716Y72777D01*
X715201D01*
X714859Y72606D01*
X714516Y72263D01*
X714344Y71749D01*
Y71406D01*
X714516Y70892D01*
X714859Y70549D01*
X715201Y70378D01*
X715716D01*
X716058Y70549D01*
X716401Y70892D01*
X717172Y71749D02*
X719229D01*
Y72092D01*
X719058Y72434D01*
X718886Y72606D01*
X718543Y72777D01*
X718029D01*
X717687Y72606D01*
X717344Y72263D01*
X717172Y71749D01*
Y71406D01*
X717344Y70892D01*
X717687Y70549D01*
X718029Y70378D01*
X718543D01*
X718886Y70549D01*
X719229Y70892D01*
X724028Y74663D02*
X723685Y74320D01*
X723343Y73805D01*
X723000Y73120D01*
X722828Y72263D01*
Y71577D01*
X723000Y70720D01*
X723343Y70035D01*
X723685Y69521D01*
X724028Y69178D01*
X723685Y74320D02*
X723343Y73634D01*
X723171Y73120D01*
X723000Y72263D01*
Y71577D01*
X723171Y70720D01*
X723343Y70206D01*
X723685Y69521D01*
X724714Y71920D02*
X727799D01*
X728861Y74663D02*
X729204Y74320D01*
X729547Y73805D01*
X729890Y73120D01*
X730061Y72263D01*
Y71577D01*
X729890Y70720D01*
X729547Y70035D01*
X729204Y69521D01*
X728861Y69178D01*
X729204Y74320D02*
X729547Y73634D01*
X729718Y73120D01*
X729890Y72263D01*
Y71577D01*
X729718Y70720D01*
X729547Y70206D01*
X729204Y69521D01*
X633272Y73977D02*
Y70378D01*
X635671Y73977D02*
Y70378D01*
X633272Y72263D02*
X635671D01*
X637522Y72777D02*
X637180Y72606D01*
X636837Y72263D01*
X636665Y71749D01*
Y71406D01*
X636837Y70892D01*
X637180Y70549D01*
X637522Y70378D01*
X638037D01*
X638379Y70549D01*
X638722Y70892D01*
X638894Y71406D01*
Y71749D01*
X638722Y72263D01*
X638379Y72606D01*
X638037Y72777D01*
X637522D01*
X639682Y73977D02*
Y70378D01*
X640436Y71749D02*
X642493D01*
Y72092D01*
X642321Y72434D01*
X642150Y72606D01*
X641807Y72777D01*
X641293D01*
X640950Y72606D01*
X640608Y72263D01*
X640436Y71749D01*
Y71406D01*
X640608Y70892D01*
X640950Y70549D01*
X641293Y70378D01*
X641807D01*
X642150Y70549D01*
X642493Y70892D01*
X647292Y73977D02*
Y70378D01*
X646092Y73977D02*
X648491D01*
X649777Y72777D02*
X649434Y72606D01*
X649091Y72263D01*
X648920Y71749D01*
Y71406D01*
X649091Y70892D01*
X649434Y70549D01*
X649777Y70378D01*
X650291D01*
X650634Y70549D01*
X650977Y70892D01*
X651148Y71406D01*
Y71749D01*
X650977Y72263D01*
X650634Y72606D01*
X650291Y72777D01*
X649777D01*
X651936Y73977D02*
Y70378D01*
X652691Y71749D02*
X654747D01*
Y72092D01*
X654576Y72434D01*
X654404Y72606D01*
X654062Y72777D01*
X653548D01*
X653205Y72606D01*
X652862Y72263D01*
X652691Y71749D01*
Y71406D01*
X652862Y70892D01*
X653205Y70549D01*
X653548Y70378D01*
X654062D01*
X654404Y70549D01*
X654747Y70892D01*
X655519Y72777D02*
Y70378D01*
Y71749D02*
X655690Y72263D01*
X656033Y72606D01*
X656376Y72777D01*
X656890D01*
X659272D02*
Y70378D01*
Y72263D02*
X658929Y72606D01*
X658587Y72777D01*
X658072D01*
X657730Y72606D01*
X657387Y72263D01*
X657215Y71749D01*
Y71406D01*
X657387Y70892D01*
X657730Y70549D01*
X658072Y70378D01*
X658587D01*
X658929Y70549D01*
X659272Y70892D01*
X660232Y72777D02*
Y70378D01*
Y72092D02*
X660746Y72606D01*
X661089Y72777D01*
X661603D01*
X661946Y72606D01*
X662117Y72092D01*
Y70378D01*
X665117Y72263D02*
X664774Y72606D01*
X664431Y72777D01*
X663917D01*
X663574Y72606D01*
X663231Y72263D01*
X663060Y71749D01*
Y71406D01*
X663231Y70892D01*
X663574Y70549D01*
X663917Y70378D01*
X664431D01*
X664774Y70549D01*
X665117Y70892D01*
X665888Y71749D02*
X667944D01*
Y72092D01*
X667773Y72434D01*
X667602Y72606D01*
X667259Y72777D01*
X666745D01*
X666402Y72606D01*
X666059Y72263D01*
X665888Y71749D01*
Y71406D01*
X666059Y70892D01*
X666402Y70549D01*
X666745Y70378D01*
X667259D01*
X667602Y70549D01*
X667944Y70892D01*
X672744Y74663D02*
X672401Y74320D01*
X672058Y73805D01*
X671715Y73120D01*
X671544Y72263D01*
Y71577D01*
X671715Y70720D01*
X672058Y70035D01*
X672401Y69521D01*
X672744Y69178D01*
X672401Y74320D02*
X672058Y73634D01*
X671886Y73120D01*
X671715Y72263D01*
Y71577D01*
X671886Y70720D01*
X672058Y70206D01*
X672401Y69521D01*
X674972Y73463D02*
Y70378D01*
X673429Y71920D02*
X676514D01*
X677577Y74663D02*
X677919Y74320D01*
X678262Y73805D01*
X678605Y73120D01*
X678777Y72263D01*
Y71577D01*
X678605Y70720D01*
X678262Y70035D01*
X677919Y69521D01*
X677577Y69178D01*
X677919Y74320D02*
X678262Y73634D01*
X678434Y73120D01*
X678605Y72263D01*
Y71577D01*
X678434Y70720D01*
X678262Y70206D01*
X677919Y69521D01*
X602040Y73977D02*
Y70378D01*
Y73977D02*
X603240D01*
X603754Y73805D01*
X604097Y73463D01*
X604268Y73120D01*
X604440Y72606D01*
Y71749D01*
X604268Y71235D01*
X604097Y70892D01*
X603754Y70549D01*
X603240Y70378D01*
X602040D01*
X605245Y71749D02*
X607302D01*
Y72092D01*
X607130Y72434D01*
X606959Y72606D01*
X606616Y72777D01*
X606102D01*
X605759Y72606D01*
X605417Y72263D01*
X605245Y71749D01*
Y71406D01*
X605417Y70892D01*
X605759Y70549D01*
X606102Y70378D01*
X606616D01*
X606959Y70549D01*
X607302Y70892D01*
X609959Y72263D02*
X609787Y72606D01*
X609273Y72777D01*
X608759D01*
X608245Y72606D01*
X608073Y72263D01*
X608245Y71920D01*
X608587Y71749D01*
X609444Y71577D01*
X609787Y71406D01*
X609959Y71063D01*
Y70892D01*
X609787Y70549D01*
X609273Y70378D01*
X608759D01*
X608245Y70549D01*
X608073Y70892D01*
X612769Y72263D02*
X612427Y72606D01*
X612084Y72777D01*
X611570D01*
X611227Y72606D01*
X610884Y72263D01*
X610713Y71749D01*
Y71406D01*
X610884Y70892D01*
X611227Y70549D01*
X611570Y70378D01*
X612084D01*
X612427Y70549D01*
X612769Y70892D01*
X613541Y72777D02*
Y70378D01*
Y71749D02*
X613712Y72263D01*
X614055Y72606D01*
X614398Y72777D01*
X614912D01*
X615580Y73977D02*
X615752Y73805D01*
X615923Y73977D01*
X615752Y74148D01*
X615580Y73977D01*
X615752Y72777D02*
Y70378D01*
X616557Y72777D02*
Y69178D01*
Y72263D02*
X616900Y72606D01*
X617243Y72777D01*
X617757D01*
X618100Y72606D01*
X618442Y72263D01*
X618614Y71749D01*
Y71406D01*
X618442Y70892D01*
X618100Y70549D01*
X617757Y70378D01*
X617243D01*
X616900Y70549D01*
X616557Y70892D01*
X619899Y73977D02*
Y71063D01*
X620071Y70549D01*
X620413Y70378D01*
X620756D01*
X619385Y72777D02*
X620585D01*
X621613Y73977D02*
X621785Y73805D01*
X621956Y73977D01*
X621785Y74148D01*
X621613Y73977D01*
X621785Y72777D02*
Y70378D01*
X623447Y72777D02*
X623104Y72606D01*
X622761Y72263D01*
X622590Y71749D01*
Y71406D01*
X622761Y70892D01*
X623104Y70549D01*
X623447Y70378D01*
X623961D01*
X624304Y70549D01*
X624647Y70892D01*
X624818Y71406D01*
Y71749D01*
X624647Y72263D01*
X624304Y72606D01*
X623961Y72777D01*
X623447D01*
X625607D02*
Y70378D01*
Y72092D02*
X626121Y72606D01*
X626464Y72777D01*
X626978D01*
X627320Y72606D01*
X627492Y72092D01*
Y70378D01*
X560591Y73977D02*
Y70378D01*
X559391Y73977D02*
X561791D01*
X562219Y71749D02*
X564276D01*
Y72092D01*
X564104Y72434D01*
X563933Y72606D01*
X563590Y72777D01*
X563076D01*
X562733Y72606D01*
X562390Y72263D01*
X562219Y71749D01*
Y71406D01*
X562390Y70892D01*
X562733Y70549D01*
X563076Y70378D01*
X563590D01*
X563933Y70549D01*
X564276Y70892D01*
X565047Y72777D02*
Y70378D01*
Y72092D02*
X565561Y72606D01*
X565904Y72777D01*
X566418D01*
X566761Y72606D01*
X566932Y72092D01*
Y70378D01*
Y72092D02*
X567447Y72606D01*
X567789Y72777D01*
X568303D01*
X568646Y72606D01*
X568818Y72092D01*
Y70378D01*
X569949Y72777D02*
Y69178D01*
Y72263D02*
X570292Y72606D01*
X570634Y72777D01*
X571148D01*
X571491Y72606D01*
X571834Y72263D01*
X572006Y71749D01*
Y71406D01*
X571834Y70892D01*
X571491Y70549D01*
X571148Y70378D01*
X570634D01*
X570292Y70549D01*
X569949Y70892D01*
X572777Y73977D02*
Y70378D01*
X575588Y72777D02*
Y70378D01*
Y72263D02*
X575245Y72606D01*
X574902Y72777D01*
X574388D01*
X574045Y72606D01*
X573702Y72263D01*
X573531Y71749D01*
Y71406D01*
X573702Y70892D01*
X574045Y70549D01*
X574388Y70378D01*
X574902D01*
X575245Y70549D01*
X575588Y70892D01*
X577062Y73977D02*
Y71063D01*
X577233Y70549D01*
X577576Y70378D01*
X577918D01*
X576547Y72777D02*
X577747D01*
X578433Y71749D02*
X580489D01*
Y72092D01*
X580318Y72434D01*
X580147Y72606D01*
X579804Y72777D01*
X579290D01*
X578947Y72606D01*
X578604Y72263D01*
X578433Y71749D01*
Y71406D01*
X578604Y70892D01*
X578947Y70549D01*
X579290Y70378D01*
X579804D01*
X580147Y70549D01*
X580489Y70892D01*
X527611Y72092D02*
X529153D01*
X529668Y72263D01*
X529839Y72434D01*
X530010Y72777D01*
Y73291D01*
X529839Y73634D01*
X529668Y73805D01*
X529153Y73977D01*
X527611D01*
Y70378D01*
X532873Y72777D02*
Y70378D01*
Y72263D02*
X532530Y72606D01*
X532187Y72777D01*
X531673D01*
X531330Y72606D01*
X530987Y72263D01*
X530816Y71749D01*
Y71406D01*
X530987Y70892D01*
X531330Y70549D01*
X531673Y70378D01*
X532187D01*
X532530Y70549D01*
X532873Y70892D01*
X535889Y73977D02*
Y70378D01*
Y72263D02*
X535546Y72606D01*
X535204Y72777D01*
X534689D01*
X534347Y72606D01*
X534004Y72263D01*
X533832Y71749D01*
Y71406D01*
X534004Y70892D01*
X534347Y70549D01*
X534689Y70378D01*
X535204D01*
X535546Y70549D01*
X535889Y70892D01*
X542076Y73463D02*
X541734Y73805D01*
X541219Y73977D01*
X540534D01*
X540020Y73805D01*
X539677Y73463D01*
Y73120D01*
X539848Y72777D01*
X540020Y72606D01*
X540362Y72434D01*
X541391Y72092D01*
X541734Y71920D01*
X541905Y71749D01*
X542076Y71406D01*
Y70892D01*
X541734Y70549D01*
X541219Y70378D01*
X540534D01*
X540020Y70549D01*
X539677Y70892D01*
X542882Y73977D02*
Y70378D01*
Y72092D02*
X543396Y72606D01*
X543739Y72777D01*
X544253D01*
X544596Y72606D01*
X544767Y72092D01*
Y70378D01*
X547767Y72777D02*
Y70378D01*
Y72263D02*
X547424Y72606D01*
X547081Y72777D01*
X546567D01*
X546224Y72606D01*
X545881Y72263D01*
X545710Y71749D01*
Y71406D01*
X545881Y70892D01*
X546224Y70549D01*
X546567Y70378D01*
X547081D01*
X547424Y70549D01*
X547767Y70892D01*
X548726Y72777D02*
Y69178D01*
Y72263D02*
X549069Y72606D01*
X549412Y72777D01*
X549926D01*
X550269Y72606D01*
X550612Y72263D01*
X550783Y71749D01*
Y71406D01*
X550612Y70892D01*
X550269Y70549D01*
X549926Y70378D01*
X549412D01*
X549069Y70549D01*
X548726Y70892D01*
X551554Y71749D02*
X553611D01*
Y72092D01*
X553440Y72434D01*
X553268Y72606D01*
X552925Y72777D01*
X552411D01*
X552069Y72606D01*
X551726Y72263D01*
X551554Y71749D01*
Y71406D01*
X551726Y70892D01*
X552069Y70549D01*
X552411Y70378D01*
X552925D01*
X553268Y70549D01*
X553611Y70892D01*
X503372Y73977D02*
X504743Y70378D01*
X506114Y73977D02*
X504743Y70378D01*
X506920Y73977D02*
X507091Y73805D01*
X507263Y73977D01*
X507091Y74148D01*
X506920Y73977D01*
X507091Y72777D02*
Y70378D01*
X509953Y72777D02*
Y70378D01*
Y72263D02*
X509611Y72606D01*
X509268Y72777D01*
X508754D01*
X508411Y72606D01*
X508068Y72263D01*
X507897Y71749D01*
Y71406D01*
X508068Y70892D01*
X508411Y70549D01*
X508754Y70378D01*
X509268D01*
X509611Y70549D01*
X509953Y70892D01*
X510913Y69863D02*
X513313Y73977D01*
X513553Y72092D02*
X515095D01*
X515609Y72263D01*
X515781Y72434D01*
X515952Y72777D01*
Y73291D01*
X515781Y73634D01*
X515609Y73805D01*
X515095Y73977D01*
X513553D01*
Y70378D01*
X518814Y72777D02*
Y70378D01*
Y72263D02*
X518472Y72606D01*
X518129Y72777D01*
X517615D01*
X517272Y72606D01*
X516929Y72263D01*
X516758Y71749D01*
Y71406D01*
X516929Y70892D01*
X517272Y70549D01*
X517615Y70378D01*
X518129D01*
X518472Y70549D01*
X518814Y70892D01*
X521831Y73977D02*
Y70378D01*
Y72263D02*
X521488Y72606D01*
X521145Y72777D01*
X520631D01*
X520288Y72606D01*
X519945Y72263D01*
X519774Y71749D01*
Y71406D01*
X519945Y70892D01*
X520288Y70549D01*
X520631Y70378D01*
X521145D01*
X521488Y70549D01*
X521831Y70892D01*
X441941Y73977D02*
Y70378D01*
Y73977D02*
X443141D01*
X443655Y73805D01*
X443998Y73463D01*
X444169Y73120D01*
X444341Y72606D01*
Y71749D01*
X444169Y71235D01*
X443998Y70892D01*
X443655Y70549D01*
X443141Y70378D01*
X441941D01*
X445146Y72777D02*
Y70378D01*
Y71749D02*
X445318Y72263D01*
X445660Y72606D01*
X446003Y72777D01*
X446517D01*
X447186Y73977D02*
X447357Y73805D01*
X447529Y73977D01*
X447357Y74148D01*
X447186Y73977D01*
X447357Y72777D02*
Y70378D01*
X448163Y73977D02*
Y70378D01*
X448917Y73977D02*
Y70378D01*
X452499Y73977D02*
Y70378D01*
X454556D01*
X457006Y72777D02*
Y70378D01*
Y72263D02*
X456664Y72606D01*
X456321Y72777D01*
X455807D01*
X455464Y72606D01*
X455121Y72263D01*
X454950Y71749D01*
Y71406D01*
X455121Y70892D01*
X455464Y70549D01*
X455807Y70378D01*
X456321D01*
X456664Y70549D01*
X457006Y70892D01*
X458138Y72777D02*
X459166Y70378D01*
X460194Y72777D02*
X459166Y70378D01*
X458823Y69692D01*
X458480Y69349D01*
X458138Y69178D01*
X457966D01*
X460794Y71749D02*
X462851D01*
Y72092D01*
X462679Y72434D01*
X462508Y72606D01*
X462165Y72777D01*
X461651D01*
X461308Y72606D01*
X460966Y72263D01*
X460794Y71749D01*
Y71406D01*
X460966Y70892D01*
X461308Y70549D01*
X461651Y70378D01*
X462165D01*
X462508Y70549D01*
X462851Y70892D01*
X463622Y72777D02*
Y70378D01*
Y71749D02*
X463794Y72263D01*
X464136Y72606D01*
X464479Y72777D01*
X464993D01*
X468147Y72092D02*
X469689D01*
X470204Y72263D01*
X470375Y72434D01*
X470546Y72777D01*
Y73291D01*
X470375Y73634D01*
X470204Y73805D01*
X469689Y73977D01*
X468147D01*
Y70378D01*
X473409Y72777D02*
Y70378D01*
Y72263D02*
X473066Y72606D01*
X472723Y72777D01*
X472209D01*
X471866Y72606D01*
X471523Y72263D01*
X471352Y71749D01*
Y71406D01*
X471523Y70892D01*
X471866Y70549D01*
X472209Y70378D01*
X472723D01*
X473066Y70549D01*
X473409Y70892D01*
X474711Y73977D02*
X474883Y73805D01*
X475054Y73977D01*
X474883Y74148D01*
X474711Y73977D01*
X474883Y72777D02*
Y70378D01*
X475688Y72777D02*
Y70378D01*
Y71749D02*
X475860Y72263D01*
X476202Y72606D01*
X476545Y72777D01*
X477059D01*
X412800Y73977D02*
Y70378D01*
X415200Y73977D02*
Y70378D01*
X412800Y72263D02*
X415200D01*
X417051Y72777D02*
X416708Y72606D01*
X416365Y72263D01*
X416194Y71749D01*
Y71406D01*
X416365Y70892D01*
X416708Y70549D01*
X417051Y70378D01*
X417565D01*
X417908Y70549D01*
X418251Y70892D01*
X418422Y71406D01*
Y71749D01*
X418251Y72263D01*
X417908Y72606D01*
X417565Y72777D01*
X417051D01*
X419210Y73977D02*
Y70378D01*
X419965Y71749D02*
X422021D01*
Y72092D01*
X421850Y72434D01*
X421678Y72606D01*
X421336Y72777D01*
X420822D01*
X420479Y72606D01*
X420136Y72263D01*
X419965Y71749D01*
Y71406D01*
X420136Y70892D01*
X420479Y70549D01*
X420822Y70378D01*
X421336D01*
X421678Y70549D01*
X422021Y70892D01*
X426820Y73977D02*
Y70378D01*
X425621Y73977D02*
X428020D01*
X428620Y72777D02*
X429648Y70378D01*
X430677Y72777D02*
X429648Y70378D01*
X429305Y69692D01*
X428963Y69349D01*
X428620Y69178D01*
X428448D01*
X431276Y72777D02*
Y69178D01*
Y72263D02*
X431619Y72606D01*
X431962Y72777D01*
X432476D01*
X432819Y72606D01*
X433162Y72263D01*
X433333Y71749D01*
Y71406D01*
X433162Y70892D01*
X432819Y70549D01*
X432476Y70378D01*
X431962D01*
X431619Y70549D01*
X431276Y70892D01*
X434104Y71749D02*
X436161D01*
Y72092D01*
X435990Y72434D01*
X435818Y72606D01*
X435475Y72777D01*
X434961D01*
X434619Y72606D01*
X434276Y72263D01*
X434104Y71749D01*
Y71406D01*
X434276Y70892D01*
X434619Y70549D01*
X434961Y70378D01*
X435475D01*
X435818Y70549D01*
X436161Y70892D01*
X393275Y72092D02*
X394817D01*
X395331Y72263D01*
X395503Y72434D01*
X395674Y72777D01*
Y73291D01*
X395503Y73634D01*
X395331Y73805D01*
X394817Y73977D01*
X393275D01*
Y70378D01*
X396480Y73977D02*
Y70378D01*
X399291Y72777D02*
Y70378D01*
Y72263D02*
X398948Y72606D01*
X398605Y72777D01*
X398091D01*
X397748Y72606D01*
X397405Y72263D01*
X397234Y71749D01*
Y71406D01*
X397405Y70892D01*
X397748Y70549D01*
X398091Y70378D01*
X398605D01*
X398948Y70549D01*
X399291Y70892D01*
X400765Y73977D02*
Y71063D01*
X400936Y70549D01*
X401279Y70378D01*
X401621D01*
X400250Y72777D02*
X401450D01*
X402136Y71749D02*
X404192D01*
Y72092D01*
X404021Y72434D01*
X403850Y72606D01*
X403507Y72777D01*
X402993D01*
X402650Y72606D01*
X402307Y72263D01*
X402136Y71749D01*
Y71406D01*
X402307Y70892D01*
X402650Y70549D01*
X402993Y70378D01*
X403507D01*
X403850Y70549D01*
X404192Y70892D01*
X407020Y73977D02*
Y70378D01*
Y72263D02*
X406678Y72606D01*
X406335Y72777D01*
X405821D01*
X405478Y72606D01*
X405135Y72263D01*
X404964Y71749D01*
Y71406D01*
X405135Y70892D01*
X405478Y70549D01*
X405821Y70378D01*
X406335D01*
X406678Y70549D01*
X407020Y70892D01*
X345812Y73977D02*
Y70378D01*
X348212Y73977D02*
Y70378D01*
X345812Y72263D02*
X348212D01*
X350063Y72777D02*
X349720Y72606D01*
X349377Y72263D01*
X349206Y71749D01*
Y71406D01*
X349377Y70892D01*
X349720Y70549D01*
X350063Y70378D01*
X350577D01*
X350920Y70549D01*
X351262Y70892D01*
X351434Y71406D01*
Y71749D01*
X351262Y72263D01*
X350920Y72606D01*
X350577Y72777D01*
X350063D01*
X352222Y73977D02*
Y70378D01*
X352976Y71749D02*
X355033D01*
Y72092D01*
X354862Y72434D01*
X354690Y72606D01*
X354348Y72777D01*
X353833D01*
X353491Y72606D01*
X353148Y72263D01*
X352976Y71749D01*
Y71406D01*
X353148Y70892D01*
X353491Y70549D01*
X353833Y70378D01*
X354348D01*
X354690Y70549D01*
X355033Y70892D01*
X361032Y73463D02*
X360689Y73805D01*
X360175Y73977D01*
X359489D01*
X358975Y73805D01*
X358632Y73463D01*
Y73120D01*
X358804Y72777D01*
X358975Y72606D01*
X359318Y72434D01*
X360346Y72092D01*
X360689Y71920D01*
X360860Y71749D01*
X361032Y71406D01*
Y70892D01*
X360689Y70549D01*
X360175Y70378D01*
X359489D01*
X358975Y70549D01*
X358632Y70892D01*
X362180Y73977D02*
X362352Y73805D01*
X362523Y73977D01*
X362352Y74148D01*
X362180Y73977D01*
X362352Y72777D02*
Y70378D01*
X365042Y72777D02*
X363157Y70378D01*
Y72777D02*
X365042D01*
X363157Y70378D02*
X365042D01*
X365797Y71749D02*
X367853D01*
Y72092D01*
X367682Y72434D01*
X367511Y72606D01*
X367168Y72777D01*
X366653D01*
X366311Y72606D01*
X365968Y72263D01*
X365797Y71749D01*
Y71406D01*
X365968Y70892D01*
X366311Y70549D01*
X366653Y70378D01*
X367168D01*
X367511Y70549D01*
X367853Y70892D01*
X324701Y73120D02*
X324530Y73463D01*
X324187Y73805D01*
X323844Y73977D01*
X323159D01*
X322816Y73805D01*
X322473Y73463D01*
X322302Y73120D01*
X322130Y72606D01*
Y71749D01*
X322302Y71235D01*
X322473Y70892D01*
X322816Y70549D01*
X323159Y70378D01*
X323844D01*
X324187Y70549D01*
X324530Y70892D01*
X324701Y71235D01*
X326570Y72777D02*
X326227Y72606D01*
X325884Y72263D01*
X325713Y71749D01*
Y71406D01*
X325884Y70892D01*
X326227Y70549D01*
X326570Y70378D01*
X327084D01*
X327427Y70549D01*
X327769Y70892D01*
X327941Y71406D01*
Y71749D01*
X327769Y72263D01*
X327427Y72606D01*
X327084Y72777D01*
X326570D01*
X328729D02*
Y71063D01*
X328901Y70549D01*
X329243Y70378D01*
X329757D01*
X330100Y70549D01*
X330614Y71063D01*
Y72777D02*
Y70378D01*
X331557Y72777D02*
Y70378D01*
Y72092D02*
X332071Y72606D01*
X332414Y72777D01*
X332928D01*
X333271Y72606D01*
X333442Y72092D01*
Y70378D01*
X334899Y73977D02*
Y71063D01*
X335071Y70549D01*
X335413Y70378D01*
X335756D01*
X334385Y72777D02*
X335585D01*
X301971Y73463D02*
X301628Y73805D01*
X301114Y73977D01*
X300428D01*
X299914Y73805D01*
X299571Y73463D01*
Y73120D01*
X299743Y72777D01*
X299914Y72606D01*
X300257Y72434D01*
X301285Y72092D01*
X301628Y71920D01*
X301799Y71749D01*
X301971Y71406D01*
Y70892D01*
X301628Y70549D01*
X301114Y70378D01*
X300428D01*
X299914Y70549D01*
X299571Y70892D01*
X302948Y72777D02*
X303976Y70378D01*
X305004Y72777D02*
X303976Y70378D01*
X303633Y69692D01*
X303290Y69349D01*
X302948Y69178D01*
X302776D01*
X305604Y72777D02*
Y70378D01*
Y72092D02*
X306118Y72606D01*
X306461Y72777D01*
X306975D01*
X307318Y72606D01*
X307489Y72092D01*
Y70378D01*
Y72092D02*
X308004Y72606D01*
X308347Y72777D01*
X308861D01*
X309203Y72606D01*
X309375Y72092D01*
Y70378D01*
X310506Y73977D02*
Y70378D01*
Y72263D02*
X310849Y72606D01*
X311192Y72777D01*
X311706D01*
X312049Y72606D01*
X312391Y72263D01*
X312563Y71749D01*
Y71406D01*
X312391Y70892D01*
X312049Y70549D01*
X311706Y70378D01*
X311192D01*
X310849Y70549D01*
X310506Y70892D01*
X314191Y72777D02*
X313848Y72606D01*
X313505Y72263D01*
X313334Y71749D01*
Y71406D01*
X313505Y70892D01*
X313848Y70549D01*
X314191Y70378D01*
X314705D01*
X315048Y70549D01*
X315391Y70892D01*
X315562Y71406D01*
Y71749D01*
X315391Y72263D01*
X315048Y72606D01*
X314705Y72777D01*
X314191D01*
X316351Y73977D02*
Y70378D01*
D97*
X336063Y1529D02*
Y-1471D01*
X338062Y1529D02*
Y-1471D01*
X336063Y100D02*
X338062D01*
X339605Y529D02*
X339319Y386D01*
X339034Y100D01*
X338891Y-328D01*
Y-614D01*
X339034Y-1042D01*
X339319Y-1328D01*
X339605Y-1471D01*
X340033D01*
X340319Y-1328D01*
X340605Y-1042D01*
X340747Y-614D01*
Y-328D01*
X340605Y100D01*
X340319Y386D01*
X340033Y529D01*
X339605D01*
X341404Y1529D02*
Y-1471D01*
X342033Y-328D02*
X343747D01*
Y-42D01*
X343604Y243D01*
X343461Y386D01*
X343176Y529D01*
X342747D01*
X342461Y386D01*
X342176Y100D01*
X342033Y-328D01*
Y-614D01*
X342176Y-1042D01*
X342461Y-1328D01*
X342747Y-1471D01*
X343176D01*
X343461Y-1328D01*
X343747Y-1042D01*
X346746Y1529D02*
Y-1471D01*
X348460D01*
X348788Y-328D02*
X350502D01*
Y-42D01*
X350360Y243D01*
X350217Y386D01*
X349931Y529D01*
X349503D01*
X349217Y386D01*
X348931Y100D01*
X348788Y-328D01*
Y-614D01*
X348931Y-1042D01*
X349217Y-1328D01*
X349503Y-1471D01*
X349931D01*
X350217Y-1328D01*
X350502Y-1042D01*
X351145Y529D02*
Y-1471D01*
Y-42D02*
X351574Y386D01*
X351859Y529D01*
X352288D01*
X352573Y386D01*
X352716Y-42D01*
Y-1471D01*
X355216Y529D02*
Y-1756D01*
X355073Y-2185D01*
X354930Y-2328D01*
X354644Y-2470D01*
X354216D01*
X353930Y-2328D01*
X355216Y100D02*
X354930Y386D01*
X354644Y529D01*
X354216D01*
X353930Y386D01*
X353645Y100D01*
X353502Y-328D01*
Y-614D01*
X353645Y-1042D01*
X353930Y-1328D01*
X354216Y-1471D01*
X354644D01*
X354930Y-1328D01*
X355216Y-1042D01*
X356444Y1529D02*
Y-899D01*
X356587Y-1328D01*
X356873Y-1471D01*
X357158D01*
X356016Y529D02*
X357015D01*
X357587Y1529D02*
Y-1471D01*
Y-42D02*
X358015Y386D01*
X358301Y529D01*
X358729D01*
X359015Y386D01*
X359158Y-42D01*
Y-1471D01*
X336063Y6328D02*
Y3328D01*
Y6328D02*
X337348D01*
X337777Y6185D01*
X337919Y6042D01*
X338062Y5757D01*
Y5471D01*
X337919Y5185D01*
X337777Y5043D01*
X337348Y4900D01*
X336063D01*
X337063D02*
X338062Y3328D01*
X339448Y5328D02*
X339162Y5185D01*
X338876Y4900D01*
X338734Y4471D01*
Y4185D01*
X338876Y3757D01*
X339162Y3471D01*
X339448Y3328D01*
X339876D01*
X340162Y3471D01*
X340447Y3757D01*
X340590Y4185D01*
Y4471D01*
X340447Y4900D01*
X340162Y5185D01*
X339876Y5328D01*
X339448D01*
X341247D02*
Y3900D01*
X341390Y3471D01*
X341676Y3328D01*
X342104D01*
X342390Y3471D01*
X342818Y3900D01*
Y5328D02*
Y3328D01*
X344032Y6328D02*
Y3900D01*
X344175Y3471D01*
X344461Y3328D01*
X344746D01*
X343604Y5328D02*
X344604D01*
X345175Y4471D02*
X346889D01*
Y4757D01*
X346746Y5043D01*
X346603Y5185D01*
X346318Y5328D01*
X345889D01*
X345603Y5185D01*
X345318Y4900D01*
X345175Y4471D01*
Y4185D01*
X345318Y3757D01*
X345603Y3471D01*
X345889Y3328D01*
X346318D01*
X346603Y3471D01*
X346889Y3757D01*
X349246Y6328D02*
Y3328D01*
Y4900D02*
X348960Y5185D01*
X348674Y5328D01*
X348246D01*
X347960Y5185D01*
X347674Y4900D01*
X347532Y4471D01*
Y4185D01*
X347674Y3757D01*
X347960Y3471D01*
X348246Y3328D01*
X348674D01*
X348960Y3471D01*
X349246Y3757D01*
X352402Y4757D02*
X353688D01*
X354116Y4900D01*
X354259Y5043D01*
X354402Y5328D01*
Y5757D01*
X354259Y6042D01*
X354116Y6185D01*
X353688Y6328D01*
X352402D01*
Y3328D01*
X356787Y5328D02*
Y3328D01*
Y4900D02*
X356501Y5185D01*
X356216Y5328D01*
X355787D01*
X355501Y5185D01*
X355216Y4900D01*
X355073Y4471D01*
Y4185D01*
X355216Y3757D01*
X355501Y3471D01*
X355787Y3328D01*
X356216D01*
X356501Y3471D01*
X356787Y3757D01*
X358015Y6328D02*
Y3900D01*
X358158Y3471D01*
X358444Y3328D01*
X358729D01*
X357587Y5328D02*
X358587D01*
X359158Y6328D02*
Y3328D01*
Y4757D02*
X359586Y5185D01*
X359872Y5328D01*
X360300D01*
X360586Y5185D01*
X360729Y4757D01*
Y3328D01*
X363871Y6328D02*
Y3328D01*
X365585D01*
X365914Y4471D02*
X367627D01*
Y4757D01*
X367484Y5043D01*
X367342Y5185D01*
X367056Y5328D01*
X366628D01*
X366342Y5185D01*
X366056Y4900D01*
X365914Y4471D01*
Y4185D01*
X366056Y3757D01*
X366342Y3471D01*
X366628Y3328D01*
X367056D01*
X367342Y3471D01*
X367627Y3757D01*
X368270Y5328D02*
Y3328D01*
Y4757D02*
X368699Y5185D01*
X368984Y5328D01*
X369413D01*
X369698Y5185D01*
X369841Y4757D01*
Y3328D01*
X372341Y5328D02*
Y3043D01*
X372198Y2614D01*
X372055Y2472D01*
X371769Y2329D01*
X371341D01*
X371055Y2472D01*
X372341Y4900D02*
X372055Y5185D01*
X371769Y5328D01*
X371341D01*
X371055Y5185D01*
X370770Y4900D01*
X370627Y4471D01*
Y4185D01*
X370770Y3757D01*
X371055Y3471D01*
X371341Y3328D01*
X371769D01*
X372055Y3471D01*
X372341Y3757D01*
X373569Y6328D02*
Y3900D01*
X373712Y3471D01*
X373997Y3328D01*
X374283D01*
X373141Y5328D02*
X374140D01*
X374712Y6328D02*
Y3328D01*
Y4757D02*
X375140Y5185D01*
X375426Y5328D01*
X375854D01*
X376140Y5185D01*
X376283Y4757D01*
Y3328D01*
X301571Y5899D02*
X301285Y6185D01*
X300857Y6328D01*
X300285D01*
X299857Y6185D01*
X299571Y5899D01*
Y5614D01*
X299714Y5328D01*
X299857Y5185D01*
X300143Y5043D01*
X300999Y4757D01*
X301285Y4614D01*
X301428Y4471D01*
X301571Y4185D01*
Y3757D01*
X301285Y3471D01*
X300857Y3328D01*
X300285D01*
X299857Y3471D01*
X299571Y3757D01*
X302242Y6328D02*
Y3328D01*
X303585Y5328D02*
X303299Y5185D01*
X303013Y4900D01*
X302870Y4471D01*
Y4185D01*
X303013Y3757D01*
X303299Y3471D01*
X303585Y3328D01*
X304013D01*
X304299Y3471D01*
X304584Y3757D01*
X304727Y4185D01*
Y4471D01*
X304584Y4900D01*
X304299Y5185D01*
X304013Y5328D01*
X303585D01*
X305813Y6328D02*
Y3900D01*
X305956Y3471D01*
X306241Y3328D01*
X306527D01*
X305384Y5328D02*
X306384D01*
X311026Y6328D02*
Y3328D01*
Y4900D02*
X310740Y5185D01*
X310455Y5328D01*
X310026D01*
X309740Y5185D01*
X309455Y4900D01*
X309312Y4471D01*
Y4185D01*
X309455Y3757D01*
X309740Y3471D01*
X310026Y3328D01*
X310455D01*
X310740Y3471D01*
X311026Y3757D01*
X311826Y4471D02*
X313540D01*
Y4757D01*
X313397Y5043D01*
X313254Y5185D01*
X312968Y5328D01*
X312540D01*
X312254Y5185D01*
X311969Y4900D01*
X311826Y4471D01*
Y4185D01*
X311969Y3757D01*
X312254Y3471D01*
X312540Y3328D01*
X312968D01*
X313254Y3471D01*
X313540Y3757D01*
X315325Y6328D02*
X315039D01*
X314754Y6185D01*
X314611Y5757D01*
Y3328D01*
X314182Y5328D02*
X315182D01*
X316039Y6328D02*
X316182Y6185D01*
X316325Y6328D01*
X316182Y6471D01*
X316039Y6328D01*
X316182Y5328D02*
Y3328D01*
X316853Y5328D02*
Y3328D01*
Y4757D02*
X317282Y5185D01*
X317567Y5328D01*
X317996D01*
X318282Y5185D01*
X318424Y4757D01*
Y3328D01*
X319496Y6328D02*
X319638Y6185D01*
X319781Y6328D01*
X319638Y6471D01*
X319496Y6328D01*
X319638Y5328D02*
Y3328D01*
X320738Y6328D02*
Y3900D01*
X320881Y3471D01*
X321167Y3328D01*
X321452D01*
X320310Y5328D02*
X321309D01*
X322166Y6328D02*
X322309Y6185D01*
X322452Y6328D01*
X322309Y6471D01*
X322166Y6328D01*
X322309Y5328D02*
Y3328D01*
X323695Y5328D02*
X323409Y5185D01*
X323123Y4900D01*
X322980Y4471D01*
Y4185D01*
X323123Y3757D01*
X323409Y3471D01*
X323695Y3328D01*
X324123D01*
X324409Y3471D01*
X324694Y3757D01*
X324837Y4185D01*
Y4471D01*
X324694Y4900D01*
X324409Y5185D01*
X324123Y5328D01*
X323695D01*
X325494D02*
Y3328D01*
Y4757D02*
X325923Y5185D01*
X326208Y5328D01*
X326637D01*
X326922Y5185D01*
X327065Y4757D01*
Y3328D01*
X329422Y4900D02*
X329279Y5185D01*
X328851Y5328D01*
X328422D01*
X327994Y5185D01*
X327851Y4900D01*
X327994Y4614D01*
X328279Y4471D01*
X328994Y4328D01*
X329279Y4185D01*
X329422Y3900D01*
Y3757D01*
X329279Y3471D01*
X328851Y3328D01*
X328422D01*
X327994Y3471D01*
X327851Y3757D01*
X332550Y5328D02*
X332407Y5185D01*
X332550Y5043D01*
X332693Y5185D01*
X332550Y5328D01*
Y3614D02*
X332407Y3471D01*
X332550Y3328D01*
X332693Y3471D01*
X332550Y3614D01*
M02*
