G04*
G04 #@! TF.GenerationSoftware,Altium Limited,Altium Designer,18.1.4 (159)*
G04*
G04 Layer_Color=128*
%FSLAX25Y25*%
%MOIN*%
G70*
G01*
G75*
%ADD29R,0.03661X0.03858*%
%ADD31R,0.07874X0.03937*%
%ADD37R,0.03858X0.03661*%
%ADD38R,0.05000X0.02000*%
%ADD39R,0.03740X0.02165*%
%ADD40R,0.03740X0.01968*%
%ADD42O,0.09055X0.02362*%
%ADD80R,0.02000X0.05000*%
%ADD81R,0.03600X0.03600*%
%ADD82R,0.05000X0.03600*%
%ADD83O,0.08661X0.02756*%
D29*
X108906Y-1279D02*
D03*
X114969D02*
D03*
X196531Y17000D02*
D03*
X190469D02*
D03*
X46189Y5694D02*
D03*
X40126D02*
D03*
X199563Y43100D02*
D03*
X193500D02*
D03*
X50968Y20797D02*
D03*
X57032D02*
D03*
X57032Y33300D02*
D03*
X50968D02*
D03*
X50968Y26899D02*
D03*
X57032D02*
D03*
X41286Y54083D02*
D03*
X35223D02*
D03*
X50731Y69400D02*
D03*
X44668D02*
D03*
X44668Y62500D02*
D03*
X50731D02*
D03*
X67974Y52600D02*
D03*
X61911D02*
D03*
X46500Y45128D02*
D03*
X52563D02*
D03*
X66706Y43615D02*
D03*
X72769D02*
D03*
D31*
X225600Y64290D02*
D03*
Y54290D02*
D03*
Y44290D02*
D03*
Y34290D02*
D03*
Y24290D02*
D03*
D37*
X131100Y81968D02*
D03*
Y88032D02*
D03*
X169373Y1282D02*
D03*
Y7345D02*
D03*
X204400Y29331D02*
D03*
Y23268D02*
D03*
X179600Y42388D02*
D03*
Y36325D02*
D03*
X138300Y81874D02*
D03*
Y87937D02*
D03*
X137884Y58788D02*
D03*
Y64851D02*
D03*
X179706Y22368D02*
D03*
Y28431D02*
D03*
X102931Y4835D02*
D03*
Y-1228D02*
D03*
X58600Y63000D02*
D03*
Y69063D02*
D03*
X78757Y67731D02*
D03*
Y61668D02*
D03*
X99700Y70631D02*
D03*
Y64569D02*
D03*
X91721Y38701D02*
D03*
Y44764D02*
D03*
X85505Y38635D02*
D03*
Y44698D02*
D03*
D38*
X43286Y34380D02*
D03*
Y26899D02*
D03*
X33286Y30639D02*
D03*
Y34380D02*
D03*
Y26899D02*
D03*
X43286Y30639D02*
D03*
D39*
X181200Y157D02*
D03*
Y10787D02*
D03*
X188484Y157D02*
D03*
Y10787D02*
D03*
D40*
X181200Y3700D02*
D03*
Y7243D02*
D03*
X188484Y3700D02*
D03*
Y7243D02*
D03*
D42*
X160131Y36350D02*
D03*
Y31350D02*
D03*
Y26350D02*
D03*
Y21350D02*
D03*
Y16350D02*
D03*
Y11350D02*
D03*
Y6350D02*
D03*
Y1350D02*
D03*
X124304Y36350D02*
D03*
Y31350D02*
D03*
Y26350D02*
D03*
Y21350D02*
D03*
Y16350D02*
D03*
Y11350D02*
D03*
Y6350D02*
D03*
Y1350D02*
D03*
D80*
X189150Y33900D02*
D03*
X196650D02*
D03*
X192850D02*
D03*
X189150Y23900D02*
D03*
X196650D02*
D03*
D81*
X38700Y71400D02*
D03*
Y63900D02*
D03*
D82*
X30700Y67600D02*
D03*
D83*
X94702Y14893D02*
D03*
Y9893D02*
D03*
Y4893D02*
D03*
Y-107D02*
D03*
X67930Y14893D02*
D03*
Y9893D02*
D03*
Y4893D02*
D03*
Y-107D02*
D03*
M02*
