M48
;Layer_Color=9474304
;FILE_FORMAT=2:5
INCH,LZ
;TYPE=PLATED
T1F00S00C0.01181
T2F00S00C0.01968
T4F00S00C0.03543
T5F00S00C0.03937
T6F00S00C0.05906
T7F00S00C0.07874
%
T01
X-0006185Y-0002626
X0001932Y-0003975
X0012Y-00041
X00224Y-00042
X00319Y-000424
X0040951Y-00043
X0057201Y-0004586
X0057383Y00165
X0053287Y0015257
X0062445Y0020107
X0075218Y0024039
X0079723Y0023315
X0083146Y0023259
X0081094Y0020107
X0086679Y0019027
X0083537Y0029537
X00935Y00278
X0098642Y0027878
X0103576Y00302
X01058Y00268
X01031Y0039548
X0098557Y0035207
X009522Y0042097
X0096285Y0048309
Y0051851
X00956Y00553
X00958Y0058563
X0093925Y006155
X00914Y0064569
X0087474Y0061674
X0089919Y0059197
X00733Y0059
X00758Y00563
X0072757Y00526
X0080963Y005127
X0080761Y0041372
X0069423Y0039211
X00578Y00391
X0057863Y0043403
X005779Y0048238
X0055017Y0059474
X0062567Y005923
X00668Y00682
X006905Y0070281
X00645Y00755
X0060293Y00752
X0062164Y0080412
X0075318Y0075168
X0081342Y00803
X0085505Y00763
X0089346Y0076583
X0093002Y0083225
X0098885Y0085424
X0104875Y0072505
X01062Y00645
X0073694Y0064468
X0040324Y0059132
X0034399Y0062
X003Y0057699
X0030245Y00496
X0030165Y0041667
X00381Y00373
X0042573Y003972
X0041428Y0045128
X00415Y00495
X00449Y0054083
X0049406Y0039821
X00367Y0019638
X00359Y0010886
X00342Y00059
X0026639Y0016733
X002625Y0023535
X0006569Y0028405
X0004346Y0014199
X-0006696Y00145
X0016485Y0008358
X0006445Y0045207
X0006569Y0061026
X0006837Y0074727
X-0005972Y0074563
X-000623Y0082753
X-0006098Y0091065
X00265Y00826
X00367Y00839
X0041345Y0077432
X0024276Y0067458
X0085274Y-000444
X00922
X0098789
X0120083Y-0004178
X0128083Y-000444
X01346Y-0004208
X01348Y00028
X0134969Y0011775
X0134878Y0020508
X0135049Y00281
X013471Y0035536
X01496Y0037
X014936Y0025385
Y0015903
X01492Y00055
X0149742Y-0004002
X0157588Y-0004242
X0166274
X0174961
X0183647
X0192333
X0194632Y0000157
X0201019Y-0004242
X0209706
X0218392
X0227078
X0231868Y0000449
X0232382Y0018208
X0232659Y0029394
Y0039208
Y00493
Y005972
X0231939Y0071086
X0214227Y007112
Y0080867
X0219683Y0092279
X0231686Y0091422
X0206107Y009185
X01937Y00916
X01938Y0084
Y00756
Y0067458
X01936Y00589
X0193799Y00511
X02081Y00516
X02051Y00468
X02046Y0035
X01993Y0029778
X0193Y00247
X01797Y00321
X01861Y0039211
X0167404Y003429
X0167335Y0028955
X01685Y0045703
X01618
X01542Y00457
X01374Y0052189
X01321Y00568
Y0061262
Y0066078
X0132729Y00775
X0129775Y0077609
X01358Y0077432
X0127212Y00839
X0128442Y0092429
X0136744Y0092511
X0144553
X01165Y00853
X01175Y00722
Y0064075
X01119Y00652
X01108Y00693
X0107825Y005773
X01177Y00554
X01227Y00506
X0117048Y0039876
X0116748Y0031532
X0116Y00269
X01157Y00227
X011552Y00195
X01113
X01102Y0016
X01136Y001635
X0112443Y0008784
X0107907Y0009017
X02045Y00132
X02081Y0007243
X0215536Y0009679
X02104Y00178
X02214Y0017151
X0215408Y0031308
X0217175Y0039357
X0215351Y0049327
X0214017Y0059204
T02
X0068217Y0018678
X00635Y00341
X00729Y0048774
X00811Y00451
X01316Y00313
X0153Y00315
X01714Y0030094
X01532Y00014
X0115035Y0004835
X01147Y00776
X01453Y0053
T04
X0032374Y009033
X0042374
X0052374
X0062374
X0072374
X0082374
X0092374
X0102374
X0112374
X0122374
T05
X001932Y0030639
Y0040482
Y0048356
Y0058198
T06
X0011446Y0035561
Y0053277
T07
X0228346Y0009685
Y0078898
M30
